<?xml version="1.0" encoding="UTF-8" standalone="no"?>
<svg width="422px" height="79px" viewBox="0 0 422 79" version="1.1" xmlns="http://www.w3.org/2000/svg" xmlns:xlink="http://www.w3.org/1999/xlink">
    <!-- Generator: Sketch 3.6.1 (26313) - http://www.bohemiancoding.com/sketch -->
    <title>logo_cl</title>
    <desc>Created with Sketch.</desc>
    <defs>
        <path id="path-1" d="M0.0483482367,0.681486848 L421.435463,0.681486848 L421.435463,78.4020757 L0.0483482367,78.4020757"></path>
        <path id="path-3" d="M0.0483482367,0.681486848 L421.435463,0.681486848 L421.435463,78.4020757 L0.0483482367,78.4020757"></path>
        <path id="path-5" d="M0.0483482367,0.681486848 L421.435463,0.681486848 L421.435463,78.4020757 L0.0483482367,78.4020757 L0.0483482367,0.681486848 Z"></path>
        <path id="path-7" d="M0.0483482367,0.681486848 L421.435463,0.681486848 L421.435463,78.4020757 L0.0483482367,78.4020757"></path>
    </defs>
    <g id="Welcome" stroke="none" stroke-width="1" fill="none" fill-rule="evenodd">
        <g id="Desktop-HD-Copy-2" transform="translate(-225.000000, -41.000000)">
            <g id="logo_cl" transform="translate(225.000000, 41.000000)">
                <g id="Group-5">
                    <mask id="mask-2" fill="white">
                        <use xlink:href="#path-1"></use>
                    </mask>
                    <g id="Clip-2"></g>
                    <path d="M159.865862,27.3077425 C173.022223,11.9329738 192.070622,2.2694412 213.25682,2.2694412" id="Stroke-1" stroke="#FFE32C" stroke-width="1.904" mask="url(#mask-2)"></path>
                    <path d="M206.813611,4.93075778 C224.51793,4.93075778 240.110236,13.0316975 251.991815,27.1563919 L259.429386,27.1613005 C246.751672,12.0900512 225.744363,0.681486848 206.813611,0.681486848 L206.813611,4.93075778" id="Fill-3" fill="#1A1918" mask="url(#mask-2)"></path>
                    <path d="M11.968606,34.3410467 C13.9790868,35.5878486 16.0081012,36.8182882 18.0532316,38.0299113 C20.1330115,39.4174284 21.7099699,40.9595685 22.7841065,42.6579679 C23.8582432,44.354731 24.3957144,46.1562125 24.3957144,48.0624122 C24.3957144,49.551375 24.0895089,50.9028952 23.4754863,52.1145182 C22.5198028,54.0558967 20.994416,55.6078542 18.8977141,56.7679362 C16.8010122,57.9288364 14.5584599,58.5080593 12.1724744,58.5080593 C9.13781673,58.5080593 6.44481995,57.5026003 4.09187243,55.489228 C1.73892491,53.4774919 0.375504638,50.9609811 0,47.9413317 L4.65432358,46.9006939 C4.62047982,48.9230654 5.40533286,50.6304641 7.0064653,52.0237079 C8.60920934,53.4202241 10.4496655,54.1148008 12.5302513,54.1148008 C14.1321896,54.1148008 15.519784,53.5339416 16.6986751,52.3705871 C17.8743431,51.2072326 18.4633858,49.8786196 18.4633858,48.3855662 C18.4633858,47.239392 18.0459793,46.1962999 17.2095548,45.2579261 C16.3731303,44.3211885 15.1039891,43.3140933 13.3997138,42.2358223 C11.7977755,41.2982666 10.2119534,40.361529 8.64385891,39.422337 L7.5189566,38.6451311 C5.88478621,37.5742232 4.53909362,36.4853169 3.48510206,35.377594 C1.91700758,33.7201001 1.13457195,31.7672681 1.13457195,29.5190978 C1.13457195,27.2365668 2.07091614,25.1642905 3.94602192,23.296542 C5.44481725,21.8100335 7.88237418,21.0663701 11.2570811,21.0663701 C12.2796463,21.0663701 13.6769103,21.3739801 15.449679,21.9891999 C17.2208361,22.6044197 18.3465442,22.9112115 18.8235801,22.9112115 C19.8799891,22.9112115 20.5616992,22.2968098 20.8695164,21.0663701 L21.9936129,21.0663701 L23.1692808,32.9837998 L21.8388985,32.9837998 C21.1555768,30.2267642 20.0129468,27.9892293 18.4110085,26.2654685 C16.5697465,24.3363617 14.3175245,23.370172 11.6567599,23.370172 C9.74619871,23.370172 8.38197263,23.6974166 7.56327582,24.3527239 C6.53909901,25.1798346 6.02821931,26.2671047 6.02821931,27.6096256 C6.02821931,28.8858795 6.45448959,29.9199724 7.30783597,30.7127224 C8.39970032,31.7468153 9.57536827,32.6933702 10.8388689,33.5548416 L11.968606,34.3410467" id="Fill-4" fill="#1A1918" mask="url(#mask-2)"></path>
                </g>
                <path d="M54.1605005,46.0670383 C53.8236745,49.6700012 52.3603345,52.6520175 49.7720922,55.0106328 C47.1846558,57.3684301 44.1040673,58.5489649 40.5319384,58.5489649 C36.7341844,58.5489649 33.4988816,57.2195338 30.8276415,54.5623077 C28.1555956,51.9034455 26.8179611,48.6162736 26.8179611,44.6999741 C26.8179611,40.8982101 28.1636537,37.6396721 30.850204,34.9235421 C33.538366,32.207412 36.768834,30.8509832 40.541608,30.8509832 C44.2837616,30.8509832 47.5069773,32.2049577 50.2096438,34.9145429 C52.9106986,37.6249461 54.2628376,40.8777573 54.2628376,44.6713402 L54.2628376,44.8431436 M48.8913485,45.0566707 L48.8913485,44.6713402 C48.8913485,40.9955654 48.2741027,38.1886249 47.0388052,36.2497008 C45.2136593,34.7116512 43.0387945,33.9409902 40.5134049,33.9409902 C38.2410378,33.9409902 36.2071886,34.5856621 34.4102458,35.8700971 C32.979138,37.8703796 32.2635841,40.8139446 32.2635841,44.6999741 C32.2635841,48.3569323 32.9106447,51.2015059 34.2047658,53.2296042 C36.0629497,54.7152946 38.1709328,55.4589579 40.5359674,55.4589579 C43.0387945,55.4589579 45.2628134,54.630211 47.2031893,52.9710809 C48.1878817,51.3135871 48.7503328,49.0122396 48.8913485,46.0670383" id="Fill-6" fill="#1A1918"></path>
                <path d="M329.622967,46.0670383 C329.28453,49.6700012 327.821995,52.6520175 325.235365,55.0106328 C322.647123,57.3684301 319.566534,58.5489649 315.994405,58.5489649 C312.196651,58.5489649 308.960543,57.2195338 306.290108,54.5623077 C303.616451,51.9034455 302.280428,48.6162736 302.280428,44.6999741 C302.280428,40.8982101 303.625315,37.6396721 306.313477,34.9235421 C309.000027,32.207412 312.231301,30.8509832 316.002463,30.8509832 C319.746228,30.8509832 322.969444,32.2049577 325.672111,34.9145429 C328.373165,37.6249461 329.724499,40.8777573 329.724499,44.6713402 L329.724499,44.8431436 M324.353009,45.0566707 L324.353009,44.6713402 C324.353009,40.9955654 323.735764,38.1886249 322.500466,36.2497008 C320.676126,34.7116512 318.501261,33.9409902 315.975872,33.9409902 C313.702699,33.9409902 311.66885,34.5856621 309.874324,35.8700971 C308.441605,37.8703796 307.725245,40.8139446 307.725245,44.6999741 C307.725245,48.3569323 308.372306,51.2015059 309.667233,53.2296042 C311.524611,54.7152946 313.634205,55.4589579 315.99924,55.4589579 C318.501261,55.4589579 320.72528,54.630211 322.66485,52.9710809 C323.650348,51.3135871 324.2128,49.0122396 324.353009,46.0670383" id="Fill-7" fill="#1A1918"></path>
                <path d="M75.7463766,42.5728843 L75.7463766,31.025241 L77.6883641,30.8509832 L77.6883641,48.0673208 C77.6883641,51.10006 76.7165645,53.6165709 74.7737712,55.6127629 C72.8309779,57.6105911 70.3329857,58.608687 67.2806003,58.608687 C64.2580297,58.608687 61.8543166,57.6007737 60.0702666,55.5833108 C58.3708261,53.6533859 57.5061985,51.1393294 57.4788012,48.0411413 L57.4788012,35.2352426 C57.4788012,33.7732774 57.2515644,32.830813 56.797091,32.4062131 C56.3426176,31.9840676 55.3530903,31.7124546 53.8293151,31.5946466 L53.8293151,30.8509832 L61.4272405,30.8509832 L61.4272405,46.8990577 C61.4272405,52.6004765 63.5763196,55.4499587 67.8728662,55.4499587 C70.3531308,55.4499587 72.3136518,54.6056677 73.7560408,52.9154494 C75.0823941,51.371673 75.7463766,49.418841 75.7463766,47.0585894 L75.7463766,42.5728843" id="Fill-8" fill="#1A1918"></path>
                <path d="M99.2492602,38.1100862 L98.2814897,38.1100862 C98.0461949,36.9827286 97.8777819,36.2963331 97.7754448,36.0517178 C97.6723019,35.8079206 97.4450652,35.5191272 97.0937347,35.1837015 C96.6038059,34.7051063 95.4611759,34.386861 93.6682621,34.2314198 C93.6666505,34.2314198 91.9357836,34.2346922 91.7568951,34.2363285 C91.6448884,34.2371466 91.8221653,34.0244376 91.8036318,34.4269484 C91.7818751,34.9366319 91.7947679,36.0852604 91.7947679,36.0852604 L91.7947679,58.3779796 L83.9011125,58.3779796 L83.9011125,57.6318619 C85.6053878,57.5140539 86.6795245,57.2162613 87.121105,56.7393023 C87.561074,56.2615252 87.7826701,55.1595291 87.7826701,53.4308596 L87.7826701,34.2232387 L80.5481623,34.2232387 L80.5481623,31.0563292 L99.0300815,31.0563292 L99.2492602,38.1100862" id="Fill-9" fill="#1A1918"></path>
                <path d="M121.831916,41.9224857 L121.831916,31.0563292 L129.62404,31.0563292 L129.62404,31.8016288 C128.138943,31.921073 127.167949,32.2057758 126.707835,32.6532828 C126.246916,33.102426 126.016456,34.0596164 126.016456,35.5232178 L126.016456,53.9045461 C126.016456,55.3648751 126.246916,56.3204293 126.707835,56.7671181 C127.167949,57.2154432 128.138943,57.4985098 129.62404,57.6179541 L129.62404,58.3779796 L121.831916,58.3779796 L121.831916,45.4002775 L109.461214,45.4002775 L109.461214,58.3779796 L101.706156,58.3779796 L101.706156,57.6163178 C103.322599,57.4379695 104.319379,57.1090887 104.702136,56.6304935 C105.084892,56.1527164 105.275868,55.0760817 105.275868,53.4022257 L105.275868,35.5215816 C105.275868,34.0579802 105.048631,33.1016079 104.592546,32.6532828 C104.137267,32.2041396 103.175137,31.921073 101.706156,31.8016288 L101.706156,31.0563292 L109.461214,31.0563292 L109.461214,41.9224857 L110.183214,41.9224857" id="Fill-10" fill="#1A1918"></path>
                <path d="M183.4179,58.3779796 L176.845763,58.3779796 L167.84735,46.5349981 L164.952096,46.5349981 L164.952096,58.3779796 L157.306629,58.3779796 L157.306629,57.6294076 C158.865053,57.4805113 159.836047,57.1508124 160.218804,56.6403109 C160.600755,56.1306274 160.792536,55.0499022 160.792536,53.4014076 L160.792536,30.9516109 L165.685378,30.9516109 L166.725671,30.9835173 C169.423503,31.0440575 171.462992,31.4792928 172.840917,32.2867689 C175.245436,33.6955568 176.448501,35.8365545 176.448501,38.7113982 C176.448501,40.3304407 176.043182,41.7613177 175.234155,43.004029 C174.426739,44.2467403 173.331652,45.1532078 171.948892,45.7226134 L179.889284,55.6520322 C180.800648,56.8211135 181.976316,57.4805113 183.4179,57.6294076 L183.4179,58.3779796 L183.4179,58.3779796 Z M173.228509,38.8308424 C173.228509,35.7760142 171.5057,34.0677975 164.923893,34.0677975 L164.923893,43.7296939 C166.914229,43.6691536 170.211579,43.3672705 171.206747,42.8240445 C172.554857,42.0370213 173.228509,40.706772 173.228509,38.8308424 L173.228509,38.8308424 Z" id="Fill-11" fill="#1A1918"></path>
                <path d="M402.116313,58.3779796 L395.542565,58.3779796 L386.547375,46.5349981 L383.648899,46.5349981 L383.648899,58.3779796 L376.005042,58.3779796 L376.005042,57.6294076 C377.562661,57.4805113 378.535267,57.1508124 378.916412,56.6403109 C379.298363,56.1306274 379.49095,55.0507203 379.49095,53.4014076 L379.49095,30.9524291 L384.382986,30.9524291 L385.422473,30.9835173 C388.12111,31.0440575 390.161406,31.4792928 391.539331,32.287587 C393.941432,33.6955568 395.146915,35.8373726 395.146915,38.7122163 C395.146915,40.3304407 394.742401,41.7621358 393.93418,43.004029 C393.125959,44.2467403 392.02926,45.1540259 390.648112,45.7234315 L398.586086,55.6520322 C399.495839,56.8219316 400.673924,57.4805113 402.116313,57.6294076 L402.116313,58.3779796 L402.116313,58.3779796 Z M383.620695,43.7296939 C385.611837,43.6699717 388.908381,43.3672705 389.90516,42.8240445 C391.252465,42.0370213 391.927728,40.706772 391.927728,38.8308424 C391.927728,35.7760142 390.205725,34.0686156 383.620695,34.0686156 L383.620695,43.7296939 Z" id="Fill-12" fill="#1A1918"></path>
                <path d="M185.218066,53.2026065 C185.218066,53.1134323 185.235793,52.9489919 185.27286,52.7092853 L185.27286,52.215146 L185.27286,28.8400653 L195.68143,40.0342844 L205.806356,50.0921467 L205.766872,30.9565196 L212.928052,30.9565196 L212.928052,31.7206357 C211.345453,31.9014384 210.32047,32.2908594 209.852298,32.8880808 C209.529171,33.3102263 209.30838,33.8338176 209.191539,34.4621272 L209.191539,59.1846375 L205.011028,55.2961537 L188.642732,39.8534818 L188.642732,57.1033619 C189.177786,57.3447048 189.907039,57.5091452 190.83049,57.5999556 L190.83049,58.3657079 L181.305082,58.3657079 L181.305082,57.5999556 C183.043201,57.419153 184.138288,57.0280957 184.588733,56.4276019 C184.918307,56.0062745 185.128621,55.2838821 185.218066,54.2628789" id="Fill-13" fill="#1A1918"></path>
                <path d="M251.924128,50.578923 L249.849183,58.564509 L228.924872,58.564509 L228.924872,32.3963958 C228.924872,30.7397201 228.661374,29.6418145 228.134378,29.1002247 C227.607382,28.5578168 226.525993,28.2420258 224.886988,28.1520335 L224.886988,27.2488385 L249.410825,27.2488385 L249.58649,34.0481628 L248.394706,34.0481628 C247.953932,31.7836303 247.24563,30.3486628 246.274636,29.7432603 C245.506705,29.2924809 243.886233,29.0642278 241.413221,29.0642278 L235.136814,29.0642278 C234.459939,29.0642278 234.039309,29.1779453 233.876537,29.4029259 C233.715376,29.6303609 233.63399,30.0459616 233.63399,30.6480916 L233.63399,39.2889849 L246.897523,39.2889849 L246.897523,47.5993611 L245.836279,47.5993611 C245.45191,45.7021606 244.99502,44.4987186 244.465606,43.9857628 C243.845943,43.3836327 242.607423,43.0833858 240.749239,43.0833858 L233.657358,43.0833858 L233.63399,44.7858758 L233.63399,54.9157319 L245.650944,54.9157319 C246.916056,54.6752071 247.817751,54.358598 248.346358,53.9675407 C249.141687,53.3662288 249.905589,52.2364169 250.643705,50.578923 L251.924128,50.578923" id="Fill-14" fill="#1A1918"></path>
                <path d="M293.842855,76.0459147 L286.564833,76.0459147 L266.006357,47.1682163 L259.347194,58.5506011 L255.508344,58.5506011 L263.978149,44.1600205 L263.669526,43.7108773 L263.05228,42.7708672 L259.964439,38.240166 C258.287561,35.7580158 257.302063,34.3664082 257.009556,34.0677975 C255.715435,32.6025599 254.287551,31.8392619 252.730737,31.7795397 L252.730737,30.9720637 L260.228743,30.9720637 L266.270661,40.4335228 L267.946733,37.6331273 L268.565591,36.5753091 L272.005568,30.6611814 L275.88632,30.6611814 L272.402829,36.5753091 L268.166718,43.7795987 L289.298926,72.2318791 C290.093449,73.4001423 290.799333,74.1699852 291.418191,74.543044 C292.033825,74.917739 292.843658,75.1639906 293.842855,75.2834349 L293.842855,76.0459147 L293.842855,76.0459147 Z M271.786389,37.6331273 L268.300481,43.444173 L271.786389,37.6331273 Z" id="Fill-15" fill="#1A1918"></path>
                <path d="M283.566437,38.6614934 L283.566437,35.4692224 C283.566437,34.0326187 283.36418,33.0877 282.957249,32.6385568 L282.487466,32.3276744 L281.919374,32.0331543 C281.498744,31.91371 280.887139,31.8089918 280.084558,31.7173633 L280.084558,30.9516109 L289.206259,30.9516109 C293.223997,30.9516109 296.11361,31.6560049 297.873486,33.0672472 C299.42627,34.327957 300.205483,36.3094229 300.205483,39.0100088 C300.205483,41.8014052 299.262692,43.9006792 297.380334,45.3127396 C295.701039,46.5439973 293.450428,47.158399 290.627697,47.158399 L287.580146,47.158399 L287.580146,58.3779796 L283.566437,58.3779796 L283.566437,39.6505901 M297.024974,38.9650127 C297.024974,35.700748 294.539875,34.0677975 289.567259,34.0677975 L287.580146,34.0677975 L287.580146,44.0413943 L289.744536,44.0413943 C294.597087,44.0413943 297.024974,42.3495398 297.024974,38.9650127" id="Fill-16" fill="#1A1918"></path>
                <path d="M337.581087,44.0217597 C336.290995,43.0981118 335.311137,42.2930901 334.637485,41.6075127 C333.494049,40.4155243 332.924346,38.9699214 332.924346,37.2707039 C332.924346,35.5731226 333.601221,34.0375274 334.951749,32.6663726 C336.007352,31.5921922 337.81477,31.0563292 340.37078,31.0563292 C341.369171,31.0563292 342.507772,31.2837642 343.784166,31.7402704 C345.062171,32.1959585 345.789006,32.4233935 345.963865,32.4233935 C346.465076,32.4233935 346.811571,32.3137665 347.000129,32.0928764 C347.191911,31.8719863 347.332926,31.5267433 347.419147,31.0563292 L348.256378,31.0563292 L349.182246,39.8117581 L348.211253,39.8117581 C347.711654,37.7934771 346.860725,36.148255 345.656048,34.8695467 C344.2749,33.4460328 342.614138,32.7318215 340.67618,32.7318215 C339.324847,32.7318215 338.32565,32.985436 337.678589,33.4893927 C336.914687,34.0833416 336.533542,34.885909 336.533542,35.8946404 C336.533542,36.7855638 336.856669,37.543135 337.502924,38.1657178 C338.32565,38.9682852 339.177385,39.6653161 340.057323,40.2592651 L340.890524,40.8433966 C342.389319,41.7694988 343.88892,42.6800569 345.389327,43.5758889 C346.917937,44.5911652 348.072654,45.7185228 348.851867,46.9571436 C349.630273,48.1974006 350.020283,49.5178325 350.020283,50.9208936 C350.020283,52.0269803 349.799492,53.0267125 349.357912,53.9217265 C348.651222,55.3264238 347.527125,56.4619626 345.983205,57.3267064 C344.439284,58.1930864 342.784969,58.6258674 341.02187,58.6258674 C338.787376,58.6258674 336.809933,57.8797497 335.091153,56.3858782 C333.36915,54.8920067 332.361895,53.0398023 332.067776,50.8276289 L335.510171,50.1109633 C335.478745,51.6048348 336.081486,52.8589997 337.316783,53.874276 C338.463442,54.8903704 339.800271,55.3967814 341.331299,55.3967814 C342.507772,55.3967814 343.535172,54.9656367 344.418333,54.0984385 C345.299883,53.2320585 345.741464,52.2470523 345.741464,51.1417837 C345.741464,50.2762218 345.431229,49.5080151 344.814789,48.8355275 C344.197543,48.163858 343.24186,47.4390112 341.947739,46.6634416 C340.80108,45.9467759 339.639916,45.2456544 338.463442,44.5576227" id="Fill-17" fill="#1A1918"></path>
                <g id="Group-21">
                    <mask id="mask-4" fill="white">
                        <use xlink:href="#path-3"></use>
                    </mask>
                    <g id="Clip-19"></g>
                    <path d="M373.053382,42.5827016 L373.053382,31.1258687 L374.98006,30.9516109 L374.98006,48.0337783 C374.98006,51.0427922 374.014707,53.5380322 372.086418,55.51868 C370.158935,57.5009641 367.680282,58.4916971 364.652876,58.4916971 C361.655286,58.4916971 359.270106,57.4911468 357.499755,55.489228 C355.812401,53.5748472 354.956637,51.0804254 354.927629,48.0067806 L354.927629,35.3023277 C354.927629,33.8518161 354.702809,32.9167147 354.251559,32.4962054 C353.80192,32.0765142 352.81884,31.8073555 351.307151,31.6895475 L351.307151,30.9516109 L358.846253,30.9516109 L358.846253,46.8736962 C358.846253,52.5301189 360.977605,55.3583302 365.239502,55.3583302 C367.702038,55.3583302 369.646443,54.5205841 371.078357,52.8418193 C372.393429,51.3111328 373.053382,49.374663 373.053382,47.0315917 L373.053382,43.6069772" id="Fill-18" fill="#1A1918" mask="url(#mask-4)"></path>
                    <path d="M421.745697,51.4420306 L419.976152,58.3845245 L402.114702,58.3845245 L402.114702,35.4561327 C402.114702,34.0007124 401.891494,33.0353408 401.439438,32.5592 C400.991411,32.0806048 400.06796,31.803265 398.668278,31.7247263 L398.668278,30.9311582 L419.600647,30.9311582 L419.751333,36.9082805 L418.734408,36.9082805 C418.35568,34.9178153 417.750521,33.6571056 416.921349,33.124515 C416.267842,32.7269128 414.885888,32.5272936 412.773876,32.5272936 L407.416892,32.5272936 C406.835907,32.5272936 406.480547,32.6279213 406.341143,32.8259043 C406.203351,33.0247054 406.134052,33.388765 406.134052,33.9189012 L406.134052,41.5150661 L417.454791,41.5150661 L417.454791,48.8216196 L416.54665,48.8216196 C416.221106,47.1534903 415.831096,46.0956722 415.37904,45.6457109 C414.851239,45.1155747 413.794024,44.8505066 412.207396,44.8505066 L406.153391,44.8505066 L406.134052,46.3492868 L406.134052,55.2536119 L416.390324,55.2536119 C417.470907,55.0417211 418.238839,54.7635632 418.693312,54.4207745 C419.368576,53.8914563 420.023694,52.8974509 420.653027,51.4420306 L421.745697,51.4420306" id="Fill-20" fill="#1A1918" mask="url(#mask-4)"></path>
                </g>
                <path d="M155.848123,51.4690283 L154.077772,58.461427 L136.216322,58.461427 L136.216322,35.5436706 C136.216322,34.093159 135.992308,33.131878 135.541864,32.6581915 C135.093837,32.1812325 134.168774,31.9047108 132.769898,31.8269902 L132.769898,31.0350583 L153.702268,31.0350583 L153.852953,36.9917279 L152.836028,36.9917279 C152.458106,35.0069895 151.853753,33.7511884 151.022164,33.220234 C150.369462,32.8242681 148.986703,32.6262851 146.875497,32.6262851 L141.519318,32.6262851 C140.938333,32.6262851 140.582974,32.7252766 140.443569,32.9232596 C140.304971,33.1212425 140.237284,33.484484 140.237284,34.0121659 L140.237284,41.579697 L151.558023,41.579697 L151.558023,48.8584346 L150.649076,48.8584346 C150.323532,47.1960321 149.932717,46.1414865 149.479855,45.6947976 C148.952859,45.1662976 147.895644,44.9028657 146.309016,44.9028657 L140.255011,44.9028657 L140.237284,46.395101 L140.237284,55.2658836 L150.49275,55.2658836 C151.572528,55.0548108 152.339653,54.7774711 152.794932,54.4346824 C153.471002,53.9094548 154.123703,52.9195399 154.754648,51.4690283 L155.848123,51.4690283" id="Fill-22" fill="#1A1918"></path>
                <path d="M80.6287427,41.2491799 L80.6061802,42.3822643 L74.9059231,42.3822643 L74.9059231,45.2006583 C74.9059231,48.1311335 74.2467754,50.3760314 72.9236454,51.9361699 C71.9486226,53.0856166 70.4522447,53.9749037 68.4401522,54.6122125 L68.1105784,53.5633936 C69.87126,53.0193495 71.1766624,52.2715956 72.0267856,51.3168596 C73.2508018,49.9465229 73.8648244,47.9094253 73.8648244,45.2006583 L73.8648244,42.3822643 L71.1766624,42.3822643 L71.1766624,41.2589973 L73.8648244,41.2589973 L73.8648244,34.0162565 L74.9059231,34.0162565 L74.9059231,41.2589973 L75.5658765,41.2589973 L80.6287427,41.2491799" id="Fill-23" fill="#1A1918"></path>
                <path d="M377.811655,41.2491799 L377.788286,42.3822643 L372.088029,42.3822643 L372.088029,45.2006583 C372.088029,48.1311335 371.42727,50.3760314 370.107363,51.9361699 C369.131535,53.0856166 367.634351,53.9749037 365.622258,54.6122125 L365.29349,53.5633936 C367.053366,53.0193495 368.359574,52.2715956 369.208086,51.3168596 C370.433714,49.9465229 371.046931,47.9094253 371.046931,45.2006583 L371.046931,42.3822643 L368.359574,42.3822643 L368.359574,41.2589973 L371.046931,41.2589973 L371.046931,34.0162565 L372.088029,34.0162565 L372.088029,41.2589973 L372.749594,41.2589973 L377.811655,41.2491799" id="Fill-24" fill="#1A1918"></path>
                <path d="M79.4297064,35.0086257 L94.5216085,35.0086257 L94.5216085,35.9813602 L79.4297064,35.9813602 L79.4297064,35.0086257 Z" id="Fill-25" fill="#1A1918"></path>
                <path d="M92.4498865,29.4266512 L93.4063758,29.4266512 L93.4063758,41.2074562 L92.4498865,41.2074562 L92.4498865,29.4266512 Z" id="Fill-26" fill="#1A1918"></path>
                <path d="M112.416902,39.657135 L132.416151,39.657135 L132.416151,40.6282333 L112.416902,40.6282333 L112.416902,39.657135 Z" id="Fill-27" fill="#1A1918"></path>
                <path d="M134.314625,45.7537016 L146.126905,45.7537016 L146.126905,46.7247999 L134.314625,46.7247999 L134.314625,45.7537016 Z" id="Fill-28" fill="#1A1918"></path>
                <path d="M181.755526,53.1674277 L193.569418,53.1674277 L193.569418,54.3021483 L181.755526,54.3021483 L181.755526,53.1674277 Z" id="Fill-29" fill="#1A1918"></path>
                <path d="M141.212306,33.8984484 L142.168796,33.8984484 L142.168796,53.0528921 L141.212306,53.0528921 L141.212306,33.8984484 Z" id="Fill-30" fill="#1A1918"></path>
                <path d="M400.474891,45.7537016 L412.287171,45.7537016 L412.287171,46.7247999 L400.474891,46.7247999 L400.474891,45.7537016 Z" id="Fill-31" fill="#1A1918"></path>
                <path d="M407.370961,33.8984484 L408.328256,33.8984484 L408.328256,53.0528921 L407.370961,53.0528921 L407.370961,33.8984484 Z" id="Fill-32" fill="#1A1918"></path>
                <path d="M227.222208,44.2966451 L239.034488,44.2966451 L239.034488,45.2685615 L227.222208,45.2685615 L227.222208,44.2966451 Z" id="Fill-33" fill="#1A1918"></path>
                <path d="M234.630769,30.6562727 L235.588064,30.6562727 L235.588064,53.0528921 L234.630769,53.0528921 L234.630769,30.6562727 Z" id="Fill-34" fill="#1A1918"></path>
                <path d="M204.388141,57.9951034 L204.388141,42.9312171 L203.123835,42.9312171 L203.123835,55.2339773 L204.232621,56.2787056 L204.388141,57.9951034" id="Fill-35" fill="#1A1918"></path>
                <path d="M204.232621,56.2787056 L188.551677,41.5027945 L187.774882,42.3528123 L204.390559,58.0605524 L204.232621,56.2787056" id="Fill-36" fill="#1A1918"></path>
                <path d="M277.622827,31.7189995 L267.03134,49.4605647 L266.045842,48.8551622 L276.634106,31.1127789 L277.622827,31.7189995" id="Fill-37" fill="#1A1918"></path>
                <path d="M264.106272,42.226005 L253.807292,59.8481259 L252.816153,59.2525408 L263.113521,41.6287836 L264.106272,42.226005" id="Fill-38" fill="#1A1918"></path>
                <path d="M165.865072,55.7984742 L166.823173,55.7984742 L166.823173,48.127043 L165.865072,46.8843317 L165.865072,55.7984742" id="Fill-39" fill="#1A1918"></path>
                <path d="M166.823173,46.548906 L166.823173,29.4274693 L165.865072,29.4274693 L165.865072,46.439279 L166.406573,46.0089524 L166.823173,46.548906" id="Fill-40" fill="#1A1918"></path>
                <path d="M165.865072,46.8843317 L165.865072,46.439279" id="Fill-41" fill="#1A1918"></path>
                <path d="M176.673321,59.3449874 L166.823173,46.548906 L166.823173,48.127043 L175.9207,59.9422087 L176.673321,59.3449874" id="Fill-42" fill="#1A1918"></path>
                <path d="M166.406573,46.0089524 L165.865072,46.439279 L165.865072,46.8843317 L166.823173,48.127043 L166.823173,46.548906 L166.406573,46.0089524" id="Fill-43" fill="#1A1918"></path>
                <path d="M384.53206,56.4235113 L385.490161,56.4235113 L385.490161,48.7520801 L384.53206,47.5085507 L384.53206,56.4235113" id="Fill-44" fill="#1A1918"></path>
                <path d="M385.490161,46.8017024 L385.490161,29.4168338 L384.53206,29.4168338 L384.53206,46.6912574 L385.07356,46.2617488 L385.490161,46.8017024" id="Fill-45" fill="#1A1918"></path>
                <path d="M384.53206,47.5085507 L384.53206,47.0634981" id="Fill-46" fill="#1A1918"></path>
                <path d="M394.975279,59.59942 L385.490161,47.1739431 L385.490161,48.7520801 L394.221852,60.1950052 L394.975279,59.59942" id="Fill-47" fill="#1A1918"></path>
                <path d="M385.07356,46.6339896 L384.53206,47.0634981 L384.53206,47.5085507 L385.490161,48.7520801 L385.490161,47.1739431 L385.07356,46.6339896" id="Fill-48" fill="#1A1918"></path>
                <path d="M110.395946,30.9966071 L111.353241,30.9966071 L111.353241,51.2996792 L110.395946,51.2996792 L110.395946,30.9966071 Z" id="Fill-49" fill="#1A1918"></path>
                <path d="M17.0266373,26.5935312 L17.0451708,26.5657154 L16.0894874,25.6109793 L7.00888271,39.3519794 L6.88962372,39.2808037 C4.55440389,37.8237472 2.97180495,36.5024972 2.14746751,35.312145 L1.01208975,36.0770793 C2.04996523,37.5005932 3.75585218,38.945378 6.13780864,40.3999802 L6.26431986,40.4777008 L4.32233236,43.4155391 L5.45690431,44.1902906 L7.43031817,41.1894578 C9.14345736,42.2170058 10.8606256,43.2412813 12.5745706,44.2631025 C14.3997165,45.4501823 15.5334826,46.5030917 15.97184,47.4169222 C16.1410588,47.7556204 16.2248624,48.1139532 16.2248624,48.4861939 C16.2248624,49.0637806 16.0217998,49.6200964 15.6205095,50.1633224 C14.8485493,51.180235 14.1233257,51.6383774 13.4496736,51.5377497 L13.197457,52.8589997 C14.4174442,53.0970701 15.5842483,52.4671243 16.6994809,50.9773433 C17.3110861,50.1976831 17.6132626,49.3664818 17.6132626,48.4861939 C17.6132626,47.9102434 17.480305,47.3514733 17.2079432,46.8082473 C16.7695859,45.8919625 15.8356591,44.9249547 14.4126093,43.9104965 C13.6358143,43.3329098 12.182144,42.4174431 10.0475694,41.161642 L8.17971584,40.0490104 L16.3642665,27.6014445 C17.0177735,28.2076651 17.6736979,29.0462294 18.3272049,30.1269546 C19.1386495,31.4162983 19.5479979,32.4340289 19.5479979,33.1776922 L20.9194762,32.9748006 C20.0540428,30.3470266 18.5504126,28.1307626 17.0266373,26.5935312" id="Fill-50" fill="#1A1918"></path>
                <path d="M344.247503,34.4613091 L344.262008,34.4392201 L343.526309,33.7037379 L336.538377,44.2753742 L336.448127,44.222197 C334.649572,43.1005662 333.433614,42.0836536 332.798641,41.1681869 L331.925149,41.756409 C332.724507,42.8518603 334.036355,43.9628556 335.867948,45.0828502 L335.96545,45.1425724 L334.47149,47.4030143 L335.345787,47.9985995 L336.863116,45.690707 C338.180605,46.4810027 339.502124,47.2680259 340.820419,48.0542311 C342.226547,48.9680616 343.099232,49.77881 343.435253,50.4815678 C343.564987,50.7425453 343.629451,51.0174308 343.629451,51.3045879 C343.629451,51.7488224 343.473125,52.1766947 343.164503,52.5947497 C342.569013,53.3768642 342.013009,53.7302884 341.494877,53.6517497 L341.300678,54.6686622 C342.238634,54.8519192 343.137911,54.3675972 343.994481,53.2206049 C344.465876,52.6209292 344.697142,51.980348 344.697142,51.3045879 C344.697142,50.8611715 344.59561,50.431663 344.385296,50.013608 C344.048469,49.3083959 343.330498,48.5639145 342.235411,47.7842543 C341.639116,47.3392016 340.519854,46.6348077 338.876014,45.668618 L337.440071,44.8128734 L343.738235,35.2360607 C344.239445,35.7032023 344.743878,36.347056 345.247506,37.1790754 C345.872004,38.1706265 346.187073,38.9535592 346.187073,39.5254191 L347.240259,39.3699779 C346.575471,37.3484245 345.419948,35.6434802 344.247503,34.4613091" id="Fill-51" fill="#1A1918"></path>
                <path d="M267.177191,36.3781443 L276.250543,36.3781443 L276.250543,37.6674879 L267.177191,37.6674879 L267.177191,36.3781443 Z" id="Fill-52" fill="#1A1918"></path>
                <path d="M281.562403,41.8840344 L290.634949,41.8840344 L290.634949,43.17256 L281.562403,43.17256 L281.562403,41.8840344 Z" id="Fill-53" fill="#1A1918"></path>
                <path d="M284.885538,29.4381047 L286.155485,29.4381047 L286.155485,60.1483728 L284.885538,60.1483728 L284.885538,29.4381047 Z" id="Fill-54" fill="#1A1918"></path>
                <path d="M54.9526058,44.2745561 L54.9526058,45.3348286 L48.013828,45.3348286 C47.7132632,48.9304284 47.1733745,51.1810531 46.3965795,52.0858843 C44.9558021,53.7171986 42.7100265,54.5304014 39.6552237,54.5304014 C39.0524824,54.5304014 38.4392656,54.4870415 37.8115443,54.3929587 L37.9904328,53.3261413 C38.5593303,53.4218604 39.1290337,53.4701289 39.6939023,53.4701289 C42.419937,53.4701289 44.3941567,52.7780066 45.6197845,51.393762 C46.2515348,50.6991854 46.6971444,48.6817226 46.9695061,45.3348286 L38.4360423,45.3348286 L38.4360423,44.2761923 L46.9695061,44.2761923 C47.027524,43.0073015 47.027524,42.0558378 46.9695061,41.4242558 L47.931636,41.2418169 C48.013828,42.1171962 48.042837,43.1275638 48.013828,44.2761923 L54.9526058,44.2745561" id="Fill-55" fill="#1A1918"></path>
                <path d="M330.568981,44.4831745 L330.568981,45.5442651 L323.630203,45.5442651 C323.328833,49.1390469 322.788944,51.3888534 322.011343,52.2936847 C320.570566,53.9249989 318.326402,54.7390198 315.269182,54.7390198 C314.667246,54.7390198 314.054029,54.6956599 313.425502,54.600759 L313.604391,53.5347597 C314.1749,53.6304788 314.742992,53.6787474 315.309472,53.6787474 C318.034701,53.6787474 320.007309,52.9866251 321.233742,51.6015624 C321.866298,50.9078038 322.31352,48.890341 322.585881,45.5442651 L314.050806,45.5442651 L314.050806,44.4839926 L322.585881,44.4839926 C322.642288,43.2159199 322.642288,42.2644562 322.585881,41.6320561 L323.547206,41.4496172 C323.630203,42.3249965 323.658406,43.3361823 323.630203,44.4839926 L330.568981,44.4831745" id="Fill-56" fill="#1A1918"></path>
                <path d="M0.42707609,61.9433094 L0.42707609,63.3316445 L274.535792,63.3316445 L273.492276,61.9433094 L0.42707609,61.9433094" id="Fill-57" fill="#FFE32C"></path>
                <path d="M284.648632,61.9449456 L285.692954,63.3332807 L421.252545,63.3332807 L421.252545,61.9449456 L284.648632,61.9449456" id="Fill-58" fill="#FFE32C"></path>
                <path d="M314.892065,75.9076539 L316.581836,66.4731925 L317.622129,66.4731925 L315.931552,75.9076539 L314.892065,75.9076539" id="Fill-59" fill="#1A1918"></path>
                <path d="M321.780883,75.9076539 C321.780883,75.5231415 321.84293,74.9111941 321.918676,74.2468876 L321.89289,74.2468876 C321.228908,75.5894085 320.390066,76.0540959 319.538331,76.0540959 C318.461777,76.0540959 317.796989,75.1500827 317.796989,73.9278242 C317.796989,71.6821082 319.350579,69.3300377 321.980723,69.3300377 C322.556872,69.3300377 323.195069,69.4363922 323.609252,69.5689263 L322.99523,72.9313644 C322.794585,74.0472684 322.719645,75.1901701 322.744625,75.9076539 L321.780883,75.9076539 L321.780883,75.9076539 Z M322.44406,70.3003179 C322.293375,70.2471407 322.081448,70.2070532 321.730118,70.2070532 C320.164441,70.2070532 318.874348,71.9349046 318.874348,73.728205 C318.874348,74.4456887 319.112061,75.1500827 319.901748,75.1500827 C320.777657,75.1500827 321.805863,73.9548218 322.093535,72.2400602 L322.44406,70.3003179 L322.44406,70.3003179 Z" id="Fill-60" fill="#1A1918"></path>
                <path d="M324.298215,75.9076539 L325.099184,71.3499549 C325.236976,70.6324712 325.324809,70.007434 325.386856,69.4764797 L326.326423,69.4764797 L326.163651,70.7388257 L326.188631,70.7388257 C326.740607,69.8348125 327.554469,69.3300377 328.44327,69.3300377 C329.157213,69.3300377 329.97188,69.7685455 329.97188,71.1110664 C329.97188,71.4031322 329.921115,71.8146423 329.859068,72.1476136 L329.182193,75.9076539 L328.155598,75.9076539 L328.819581,72.186883 C328.856648,71.9479944 328.89452,71.6420207 328.89452,71.3638628 C328.89452,70.7249178 328.656808,70.2471407 327.942866,70.2471407 C327.203138,70.2471407 326.150758,71.1912413 325.875979,72.7849224 L325.324809,75.9076539 L324.298215,75.9076539" id="Fill-61" fill="#1A1918"></path>
                <path d="M337.424761,66.4731925 L336.083903,73.8746469 C335.971091,74.5389534 335.871171,75.2834349 335.833298,75.9076539 L334.880838,75.9076539 L335.044416,74.6322181 L335.01863,74.6322181 C334.468266,75.5493211 333.704364,76.0540959 332.82765,76.0540959 C331.662457,76.0540959 331.023455,75.0306384 331.023455,73.7159333 C331.023455,71.4301299 332.627004,69.3300377 334.768831,69.3300377 C335.157229,69.3300377 335.583499,69.4224843 335.846191,69.5566546 L336.384468,66.4731925 L337.424761,66.4731925 L337.424761,66.4731925 Z M335.670526,70.4860292 C335.469881,70.3264975 335.119356,70.2070532 334.680999,70.2070532 C333.228134,70.2070532 332.100814,71.8547297 332.100814,73.5694913 C332.100814,74.3393342 332.351419,75.1500827 333.240221,75.1500827 C334.041996,75.1500827 335.007349,74.1806206 335.270041,72.7317452 L335.670526,70.4860292 L335.670526,70.4860292 Z" id="Fill-62" fill="#1A1918"></path>
                <path d="M337.611708,74.8056578 C337.887293,74.990551 338.413482,75.2032599 338.913887,75.2032599 C339.615742,75.2032599 340.066992,74.7254828 340.066992,74.154441 C340.066992,73.64803 339.853454,73.3297847 339.214452,72.9583621 C338.513402,72.5460339 338.12581,71.9872638 338.12581,71.3237754 C338.12581,70.1939634 339.040398,69.3300377 340.329684,69.3300377 C340.867961,69.3300377 341.357084,69.4895695 341.582709,69.6491012 L341.294232,70.4860292 C341.081499,70.3534952 340.705995,70.1939634 340.254745,70.1939634 C339.615742,70.1939634 339.165298,70.6185633 339.165298,71.1634255 C339.165298,71.628931 339.45297,71.9209967 340.004139,72.2400602 C340.681015,72.6523884 341.131459,73.2103404 341.131459,73.9409139 C341.131459,75.2965246 340.104865,76.0540959 338.813967,76.0540959 C338.162877,76.040188 337.586728,75.8413869 337.311143,75.6155881 L337.611708,74.8056578" id="Fill-63" fill="#1A1918"></path>
                <path d="M346.37966,75.6556756 C346.066203,75.8282971 345.440093,76.0540959 344.625425,76.0540959 C343.060554,76.0540959 342.296652,74.9381918 342.296652,73.5694913 C342.296652,71.3638628 343.824456,69.3300377 346.00335,69.3300377 C346.566607,69.3300377 347.08071,69.5026593 347.269268,69.6229216 L346.967897,70.4860292 C346.730185,70.366585 346.392553,70.2471407 345.941303,70.2471407 C344.362733,70.2471407 343.374012,71.8948172 343.374012,73.4230494 C343.374012,74.4726864 343.886503,75.1500827 344.876836,75.1500827 C345.50214,75.1500827 345.965477,74.9504635 346.278935,74.7917499 L346.37966,75.6556756" id="Fill-64" fill="#1A1918"></path>
                <g id="Group-68">
                    <mask id="mask-6" fill="white">
                        <use xlink:href="#path-5"></use>
                    </mask>
                    <g id="Clip-66"></g>
                    <path d="M351.365169,75.9076539 C351.365169,75.5231415 351.428828,74.9111941 351.502962,74.2468876 L351.477982,74.2468876 C350.814805,75.5894085 349.975157,76.0540959 349.123423,76.0540959 C348.046063,76.0540959 347.38208,75.1500827 347.38208,73.9278242 C347.38208,71.6821082 348.93567,69.3300377 351.565814,69.3300377 C352.141964,69.3300377 352.780967,69.4363922 353.194344,69.5689263 L352.580322,72.9313644 C352.379676,74.0472684 352.305542,75.1901701 352.330522,75.9076539 L351.365169,75.9076539 L351.365169,75.9076539 Z M352.029958,70.3003179 C351.879272,70.2471407 351.665734,70.2070532 351.315209,70.2070532 C349.750338,70.2070532 348.45944,71.9349046 348.45944,73.728205 C348.45944,74.4456887 348.697958,75.1500827 349.486034,75.1500827 C350.363555,75.1500827 351.390955,73.9548218 351.678627,72.2400602 L352.029958,70.3003179 L352.029958,70.3003179 Z" id="Fill-65" fill="#1A1918" mask="url(#mask-6)"></path>
                    <path d="M353.332137,78.5387004 L354.547289,71.7622831 C354.685082,70.9916221 354.809981,70.1137885 354.884921,69.4625718 L355.836575,69.4625718 L355.673803,70.6848303 L355.698783,70.6848303 C356.23706,69.8348125 357.038835,69.3300377 357.878483,69.3300377 C359.181468,69.3300377 359.731832,70.4729395 359.731832,71.6559286 C359.731832,73.9278242 358.204027,76.0540959 356.187906,76.0540959 C355.548903,76.0540959 355.123439,75.9076539 354.884921,75.7620301 L354.859941,75.7620301 L354.371624,78.5387004 L353.332137,78.5387004 L353.332137,78.5387004 Z M355.0348,74.8318373 C355.311191,75.0576361 355.698783,75.1901701 356.199993,75.1901701 C357.540851,75.1901701 358.654472,73.4230494 358.654472,71.7352854 C358.654472,71.057071 358.379693,70.2471407 357.490085,70.2471407 C356.676223,70.2471407 355.661716,71.2296926 355.348258,73.0369008 L355.0348,74.8318373 L355.0348,74.8318373 Z" id="Fill-67" fill="#1A1918" mask="url(#mask-6)"></path>
                </g>
                <path d="M364.879307,75.5493211 C364.428057,75.8152073 363.689135,76.0540959 362.875273,76.0540959 C361.271723,76.0540959 360.569868,74.8841965 360.569868,73.4631369 C360.569868,71.5225765 361.922813,69.3300377 363.876887,69.3300377 C365.029187,69.3300377 365.656102,70.0614294 365.656102,70.9916221 C365.656102,72.678568 363.8648,73.1170757 361.622248,73.0769882 C361.572288,73.3567824 361.609355,73.9548218 361.747953,74.2992468 C361.985665,74.8841965 362.474788,75.1639906 363.100898,75.1639906 C363.81484,75.1639906 364.353117,74.9381918 364.728622,74.7254828 L364.879307,75.5493211 L364.879307,75.5493211 Z M364.653682,71.0047119 C364.653682,70.4860292 364.278177,70.1939634 363.726202,70.1939634 C362.73748,70.1939634 361.998558,71.2174209 361.747953,72.2269704 C363.376483,72.25315 364.653682,72.0142615 364.653682,71.0178017 L364.653682,71.0047119 L364.653682,71.0047119 Z" id="Fill-69" fill="#1A1918"></path>
                <path d="M373.558622,75.9076539 C373.345889,75.6417677 373.183117,75.4028791 372.983278,75.0838157 C372.281422,75.7620301 371.529607,76.0540959 370.602127,76.0540959 C369.150068,76.0540959 368.323313,75.0576361 368.323313,73.8214697 C368.323313,72.4134998 369.375693,71.4693992 370.41518,70.924537 L370.41518,70.8852676 C370.114615,70.3134077 369.951843,69.7947251 369.951843,69.2637707 C369.951843,67.9220679 370.890605,66.8053458 372.19359,66.8053458 C373.320909,66.8053458 373.897059,67.6152761 373.897059,68.5724665 C373.897059,69.6360114 373.183117,70.4598497 371.730252,71.1773334 L371.730252,71.2174209 C372.19359,72.0543489 372.807612,73.0369008 373.24597,73.7020254 C373.759267,73.0246291 374.160557,72.1476136 374.523169,71.0178017 L375.500609,71.0178017 C375.036466,72.4535873 374.498189,73.5694913 373.7222,74.4195092 C374.034852,74.8841965 374.372484,75.3766996 374.786667,75.9076539 L373.558622,75.9076539 L373.558622,75.9076539 Z M370.890605,75.1901701 C371.554587,75.1901701 372.117844,74.8719248 372.54492,74.3933296 C372.14363,73.7682924 371.416795,72.678568 370.790685,71.5626639 C370.239515,71.9209967 369.375693,72.5591237 369.375693,73.64803 C369.375693,74.5127739 369.91397,75.1901701 370.878518,75.1901701 L370.890605,75.1901701 L370.890605,75.1901701 Z M372.09367,67.5890966 C371.454667,67.5890966 370.928477,68.2542212 370.928477,69.1312367 C370.928477,69.6360114 371.053377,70.087609 371.329768,70.5522963 C372.344275,70.0344317 372.945405,69.4503001 372.945405,68.5994642 C372.945405,68.0815997 372.718974,67.5890966 372.105757,67.5890966 L372.09367,67.5890966 L372.09367,67.5890966 Z" id="Fill-70" fill="#1A1918"></path>
                <g id="Group-74">
                    <mask id="mask-8" fill="white">
                        <use xlink:href="#path-7"></use>
                    </mask>
                    <g id="Clip-72"></g>
                    <path d="M378.180713,74.8056578 C378.456298,74.990551 378.981682,75.2032599 379.482892,75.2032599 C380.183942,75.2032599 380.635192,74.7254828 380.635192,74.154441 C380.635192,73.64803 380.42246,73.3297847 379.783457,72.9583621 C379.082408,72.5460339 378.69401,71.9872638 378.69401,71.3237754 C378.69401,70.1939634 379.607792,69.3300377 380.89869,69.3300377 C381.436967,69.3300377 381.925284,69.4895695 382.150909,69.6491012 L381.862431,70.4860292 C381.649699,70.3534952 381.274194,70.1939634 380.822944,70.1939634 C380.183942,70.1939634 379.733497,70.6185633 379.733497,71.1634255 C379.733497,71.628931 380.021975,71.9209967 380.573145,72.2400602 C381.248409,72.6523884 381.699659,73.2103404 381.699659,73.9409139 C381.699659,75.2965246 380.673065,76.0540959 379.382972,76.0540959 C378.731077,76.040188 378.155733,75.8413869 377.880148,75.6155881 L378.180713,74.8056578" id="Fill-71" fill="#1A1918" mask="url(#mask-8)"></path>
                    <path d="M382.250829,78.5387004 L383.465175,71.7622831 C383.602968,70.9916221 383.729479,70.1137885 383.803613,69.4625718 L384.756073,69.4625718 L384.593301,70.6848303 L384.618281,70.6848303 C385.156558,69.8348125 385.958333,69.3300377 386.797175,69.3300377 C388.100159,69.3300377 388.651329,70.4729395 388.651329,71.6559286 C388.651329,73.9278242 387.122719,76.0540959 385.106598,76.0540959 C384.468401,76.0540959 384.042131,75.9076539 383.803613,75.7620301 L383.778633,75.7620301 L383.291122,78.5387004 L382.250829,78.5387004 L382.250829,78.5387004 Z M383.954298,74.8318373 C384.229883,75.0576361 384.618281,75.1901701 385.118685,75.1901701 C386.459543,75.1901701 387.57397,73.4230494 387.57397,71.7352854 C387.57397,71.057071 387.298385,70.2471407 386.409583,70.2471407 C385.594915,70.2471407 384.580408,71.2296926 384.267756,73.0369008 L383.954298,74.8318373 L383.954298,74.8318373 Z" id="Fill-73" fill="#1A1918" mask="url(#mask-8)"></path>
                </g>
                <path d="M389.390252,75.9076539 L390.129174,71.7622831 C390.279053,70.924537 390.366886,70.0737011 390.429739,69.4764797 L391.344326,69.4764797 C391.306453,69.9280772 391.256494,70.366585 391.181554,70.8713597 L391.218621,70.8713597 C391.619911,69.9951624 392.258914,69.3300377 393.07197,69.3300377 C393.172695,69.3300377 393.285508,69.3439456 393.372535,69.3562173 L393.172695,70.4459418 C393.097756,70.432852 392.99703,70.4197622 392.885023,70.4197622 C391.995416,70.4197622 391.193641,71.5757537 390.930949,73.0647166 L390.429739,75.9076539 L389.390252,75.9076539" id="Fill-75" fill="#1A1918"></path>
                <path d="M393.361253,75.9076539 L394.512747,69.4764797 L395.552234,69.4764797 L394.400741,75.9076539 L393.361253,75.9076539 L393.361253,75.9076539 Z M395.302435,68.2943086 C394.939018,68.2943086 394.688413,67.9883349 394.688413,67.5768249 C394.701305,67.1383171 395.013957,66.792256 395.402355,66.792256 C395.790752,66.792256 396.053444,67.0982297 396.053444,67.5097397 C396.041357,67.9744271 395.7279,68.2943086 395.314522,68.2943086 L395.302435,68.2943086 L395.302435,68.2943086 Z" id="Fill-76" fill="#1A1918"></path>
                <path d="M396.241197,75.9076539 L397.042972,71.3499549 C397.180764,70.6324712 397.268597,70.007434 397.330644,69.4764797 L398.270211,69.4764797 L398.107439,70.7388257 L398.133224,70.7388257 C398.683589,69.8348125 399.498256,69.3300377 400.387058,69.3300377 C401.101,69.3300377 401.915668,69.7685455 401.915668,71.1110664 C401.915668,71.4031322 401.864902,71.8146423 401.802856,72.1476136 L401.12598,75.9076539 L400.099386,75.9076539 L400.762563,72.186883 C400.800435,71.9479944 400.838308,71.6420207 400.838308,71.3638628 C400.838308,70.7249178 400.600596,70.2471407 399.885848,70.2471407 C399.146926,70.2471407 398.095352,71.1912413 397.819767,72.7849224 L397.268597,75.9076539 L396.241197,75.9076539" id="Fill-77" fill="#1A1918"></path>
                <path d="M402.917282,75.9076539 L404.608665,66.4731925 L405.648152,66.4731925 L404.582879,72.3856841 L404.608665,72.3856841 C404.783524,72.1607034 405.009149,71.9209967 405.171922,71.7483752 L407.301662,69.4764797 L408.590948,69.4764797 L405.948717,72.1206159 L407.752106,75.9076539 L406.612699,75.9076539 L405.146942,72.7456531 L404.382234,73.4631369 L403.943877,75.9076539 L402.917282,75.9076539" id="Fill-78" fill="#1A1918"></path>
                <path d="M408.727129,75.9076539 L410.417706,66.4731925 L411.457998,66.4731925 L409.766616,75.9076539 L408.727129,75.9076539" id="Fill-79" fill="#1A1918"></path>
                <path d="M415.954384,75.5493211 C415.503134,75.8152073 414.763406,76.0540959 413.949544,76.0540959 C412.345994,76.0540959 411.644945,74.8841965 411.644945,73.4631369 C411.644945,71.5225765 412.99789,69.3300377 414.951964,69.3300377 C416.104264,69.3300377 416.730374,70.0614294 416.730374,70.9916221 C416.730374,72.678568 414.939071,73.1170757 412.697325,73.0769882 C412.646559,73.3567824 412.684432,73.9548218 412.822225,74.2992468 C413.060742,74.8841965 413.54906,75.1639906 414.175169,75.1639906 C414.889112,75.1639906 415.427389,74.9381918 415.803699,74.7254828 L415.954384,75.5493211 L415.954384,75.5493211 Z M415.728759,71.0047119 C415.728759,70.4860292 415.353255,70.1939634 414.801279,70.1939634 C413.812558,70.1939634 413.073635,71.2174209 412.822225,72.2269704 C414.45156,72.25315 415.728759,72.0142615 415.728759,71.0178017 L415.728759,71.0047119 L415.728759,71.0047119 Z" id="Fill-80" fill="#1A1918"></path>
                <path d="M417.256564,75.9076539 L417.995486,71.7622831 C418.146171,70.924537 418.233198,70.0737011 418.296051,69.4764797 L419.210638,69.4764797 C419.172765,69.9280772 419.122,70.366585 419.047866,70.8713597 L419.084933,70.8713597 C419.486223,69.9951624 420.125226,69.3300377 420.938282,69.3300377 C421.039007,69.3300377 421.15182,69.3439456 421.238847,69.3562173 L421.039007,70.4459418 C420.964068,70.432852 420.864148,70.4197622 420.75053,70.4197622 C419.860922,70.4197622 419.059953,71.5757537 418.796455,73.0647166 L418.296051,75.9076539 L417.256564,75.9076539" id="Fill-81" fill="#1A1918"></path>
            </g>
        </g>
    </g>
</svg>