<?xml version="1.0" encoding="UTF-8" standalone="no"?>
<svg width="393px" height="72px" viewBox="0 0 393 72" version="1.1" xmlns="http://www.w3.org/2000/svg" xmlns:xlink="http://www.w3.org/1999/xlink">
    <!-- Generator: Sketch 3.6.1 (26313) - http://www.bohemiancoding.com/sketch -->
    <title>Page 1</title>
    <desc>Created with Sketch.</desc>
    <defs>
        <path id="path-1" d="M0,0.561461041 L0,34.8408447 L22.7067,34.8408447 L22.7067,0.561461041 L0,0.561461041 L0,0.561461041 Z"></path>
        <path id="path-3" d="M0,71.281434 L392.53875,71.281434 L392.53875,0 L0,0 L0,71.281434 Z"></path>
    </defs>
    <g id="Welcome" stroke="none" stroke-width="1" fill="none" fill-rule="evenodd">
        <g id="Desktop-HD-Copy" transform="translate(-97.000000, -40.000000)">
            <g id="Page-1" transform="translate(97.000000, 40.000000)">
                <path d="M149.33355,24.8451005 L148.2558,23.9095817 C161.0643,9.18546069 179.3733,0.741074645 198.4878,0.741074645 L198.4878,2.16719767 C179.78655,2.16719767 161.8713,10.4325693 149.33355,24.8451005 L149.33355,24.8451005 Z" id="Fill-1" fill="#FFE412"></path>
                <path d="M192.490725,3.89060444 C208.969725,3.89060444 223.481475,11.306594 234.540225,24.2390731 L241.462725,24.2435672 C229.663725,10.4452277 210.110475,0.000224704259 192.490725,0.000224704259 L192.490725,3.89060444 Z" id="Fill-3" fill="#FEFEFE"></path>
                <g id="Group-7" transform="translate(0.000000, 18.101426)">
                    <mask id="mask-2" fill="white">
                        <use xlink:href="#path-1"></use>
                    </mask>
                    <g id="Clip-6"></g>
                    <path d="M11.13945,12.7149654 C13.0107,13.856463 14.89995,14.9829804 16.80345,16.0930194 C18.7392,17.3625985 20.20695,18.7744902 21.2067,20.3294437 C22.20645,21.8828991 22.7067,23.5322284 22.7067,25.2774315 C22.7067,26.6413863 22.42095,27.8780088 21.84945,28.9880478 C20.9607,30.7654585 19.5402,32.1855894 17.58945,33.2476915 C15.6372,34.3105427 13.5507,34.8408447 11.3292,34.8408447 C8.5047,34.8408447 5.9982,33.9210553 3.80895,32.0777313 C1.61895,30.2359054 0.3492,27.9311888 -0.0003,25.1665774 L4.33245,24.2145803 C4.30095,26.0653944 5.0307,27.628587 6.5217,28.9041582 C8.0127,30.1827254 9.7257,30.8193875 11.6622,30.8193875 C13.15395,30.8193875 14.4447,30.2868384 15.54195,29.2217402 C16.6362,28.156642 17.1852,26.940243 17.1852,25.5732921 C17.1852,24.5246722 16.79595,23.5689301 16.01745,22.7105598 C15.2397,21.8521896 14.05845,20.9309021 12.47145,19.9429524 C10.98045,19.0845821 9.50445,18.2269608 8.04495,17.3670925 L6.9987,16.6562781 C5.47695,15.6750695 4.22445,14.6781316 3.2442,13.6647154 C1.78395,12.1464636 1.05645,10.3593157 1.05645,8.30027571 C1.05645,6.2105261 1.92795,4.31327315 3.6732,2.60327374 C5.06745,1.24306396 7.33695,0.561461041 10.4772,0.561461041 C11.4297,0.561461041 12.72945,0.843090379 14.37945,1.40634905 C16.02795,1.96960773 17.0757,2.25048805 17.52045,2.25048805 C18.50295,2.25048805 19.13745,1.68797839 19.42395,0.561461041 L20.4702,0.561461041 L21.56445,11.4730998 L20.3262,11.4730998 C19.6902,8.948922 18.6267,6.89961916 17.1357,5.32144625 C15.42195,3.55527078 13.3257,2.67068502 10.8492,2.67068502 C9.07095,2.67068502 7.80195,2.97029069 7.0392,3.57025106 C6.0867,4.32825343 5.6112,5.32294428 5.6112,6.55207658 C5.6112,7.72053872 6.0072,8.66804168 6.8022,9.39308742 C7.8177,10.3398414 8.91195,11.2064508 10.0887,11.9951627 L11.13945,12.7149654 Z" id="Fill-5" fill="#FEFEFE" mask="url(#mask-2)"></path>
                </g>
                <path d="M45.505425,40.6274288 L45.505425,40.2738941 C45.505425,36.9093223 44.930925,34.3394546 43.781175,32.563542 C42.082425,31.1561443 40.058175,30.4505729 37.708425,30.4505729 C35.592675,30.4505729 33.699675,31.0400471 32.027175,32.2167484 C30.695175,34.0480881 30.029175,36.7430412 30.029175,40.3008586 C30.029175,43.6489521 30.631425,46.2532744 31.835925,48.1100806 C33.565425,49.4702904 35.527425,50.1511443 37.728675,50.1511443 C40.058175,50.1511443 42.128175,49.3923929 43.934175,47.8733921 C44.850675,46.3558894 45.374175,44.2489124 45.505425,41.5517123 M50.409675,41.5517123 C50.096175,44.8511198 48.734175,47.5805276 46.325175,49.7406845 C43.916925,51.8993434 41.049675,52.9801709 37.724925,52.9801709 C34.190175,52.9801709 31.178925,51.7622738 28.692675,49.3302247 C26.205675,46.8959286 24.960675,43.8863896 24.960675,40.3008586 C24.960675,36.8201896 26.213175,33.8368661 28.713675,31.3493899 C31.215675,28.8634118 34.222425,27.6215463 37.733925,27.6215463 C41.216925,27.6215463 44.216925,28.8611648 46.732425,31.3418998 C49.246425,33.8233838 50.504925,36.8014643 50.504925,40.2738941 L50.504925,40.4319361" id="Fill-8" fill="#FEFEFE"></path>
                <path d="M301.890375,40.6274288 L301.890375,40.2738941 C301.890375,36.9093223 301.315875,34.3394546 300.166125,32.563542 C298.468875,31.1561443 296.443875,30.4505729 294.093375,30.4505729 C291.977625,30.4505729 290.084625,31.0400471 288.414375,32.2167484 C287.080875,34.0480881 286.414125,36.7430412 286.414125,40.3008586 C286.414125,43.6489521 287.016375,46.2532744 288.221625,48.1100806 C289.950375,49.4702904 291.913875,50.1511443 294.115125,50.1511443 C296.443875,50.1511443 298.513875,49.3923929 300.319125,47.8733921 C301.236375,46.3558894 301.759875,44.2489124 301.890375,41.5517123 M306.795375,41.5517123 C306.480375,44.8511198 305.119125,47.5805276 302.711625,49.7406845 C300.302625,51.8993434 297.435375,52.9801709 294.110625,52.9801709 C290.575875,52.9801709 287.563875,51.7622738 285.078375,49.3302247 C282.589875,46.8959286 281.346375,43.8863896 281.346375,40.3008586 C281.346375,36.8201896 282.598125,33.8368661 285.100125,31.3493899 C287.600625,28.8634118 290.608125,27.6215463 294.118125,27.6215463 C297.602625,27.6215463 300.602625,28.8611648 303.118125,31.3418998 C305.632125,33.8233838 306.889875,36.8014643 306.889875,40.2738941 L306.889875,40.4319361" id="Fill-10" fill="#FEFEFE"></path>
                <path d="M70.50075,38.3533468 L70.50075,27.7810114 L72.30825,27.6214714 L72.30825,38.3533468 L72.30825,39.2986027 L72.30825,43.3837261 C72.30825,46.1603217 71.40375,48.4642894 69.5955,50.291884 C67.78725,52.1209767 65.46225,53.034774 62.62125,53.034774 C59.808,53.034774 57.57075,52.1119885 55.91025,50.2649195 C54.32775,48.4979951 53.52375,46.1962744 53.49825,43.3597577 L53.49825,31.6354385 C53.49825,30.2969501 53.28675,29.4340857 52.86375,29.0453474 C52.44075,28.6588561 51.51975,28.4101833 50.1015,28.3023253 L50.1015,27.6214714 L57.1725,27.6214714 L57.1725,42.3141339 C57.1725,47.5340138 59.17275,50.1428302 63.1725,50.1428302 C65.481,50.1428302 67.30575,49.3698476 68.64825,47.8223842 C69.88275,46.4089945 70.50075,44.6210976 70.50075,42.4601916 L70.50075,39.2986027 L70.50075,38.3533468 Z" id="Fill-12" fill="#FEFEFE"></path>
                <path d="M92.376,34.2673994 L91.47525,34.2673994 C91.25625,33.2352579 91.0995,32.606835 91.00425,32.3828797 C90.90825,32.1596735 90.69675,31.8952715 90.369,31.5881757 C89.91375,31.1500024 88.85025,30.8586358 87.18075,30.7163231 C87.17925,30.7163231 85.569,30.7193192 85.40175,30.7208172 C85.2975,30.7215662 85.4625,30.5268226 85.446,30.8953375 C85.425,31.3619734 85.43775,32.4135893 85.43775,32.4135893 L85.43775,52.8234771 L78.09,52.8234771 L78.09,52.1403762 C79.67625,52.0325181 80.676,51.759877 81.087,51.3232017 C81.4965,50.8857774 81.7035,49.8768553 81.7035,48.2941883 L81.7035,32.4135893 L81.7035,31.44811 L81.7035,30.708833 L74.97,30.708833 L74.97,27.8093991 L86.1255,27.8093991 L87.09375,27.8093991 L92.17125,27.8093991 L92.376,34.2673994 Z" id="Fill-14" fill="#FEFEFE"></path>
                <path d="M113.3943,37.7579554 L113.3943,36.8486522 L113.3943,35.8824239 L113.3943,27.8095489 L120.6468,27.8095489 L120.6468,28.4919008 C119.26455,28.6005078 118.3608,28.8619138 117.93255,29.2716246 C117.50355,29.6828334 117.28905,30.55918 117.28905,31.8991664 L117.28905,35.8824239 L117.28905,36.8486522 L117.28905,48.7272683 C117.28905,50.0650076 117.50355,50.9398562 117.93255,51.348818 C118.3608,51.7585287 119.26455,52.0184367 120.6468,52.1270437 L120.6468,52.8236269 L113.3943,52.8236269 L113.3943,40.9420147 L103.46205,40.9420147 L102.5523,40.9420147 L101.8803,40.9420147 L101.8803,52.8236269 L94.6623,52.8236269 L94.6623,52.1262947 C96.1668,51.9630096 97.0953,51.6611569 97.4508,51.2229836 C97.80705,50.7855593 97.9848,49.8006056 97.9848,48.2681226 L97.9848,31.8976683 C97.9848,30.5576819 97.7733,29.6820843 97.3488,29.2716246 C96.92505,28.8604158 96.02955,28.6005078 94.6623,28.4919008 L94.6623,27.8095489 L101.8803,27.8095489 L101.8803,37.7579554 L102.5523,37.7579554" id="Fill-16" fill="#FEFEFE"></path>
                <path d="M161.2317,34.9272061 C161.2317,32.130387 159.6282,30.5664454 153.5022,30.5664454 L153.5022,39.4123031 C155.3547,39.356876 158.4237,39.0804898 159.34995,38.5831443 C160.6047,37.8625927 161.2317,36.6446956 161.2317,34.9272061 L161.2317,34.9272061 Z M170.71545,52.8234022 L164.59845,52.8234022 L156.2232,41.9806727 L155.44395,41.9806727 L154.21095,41.9806727 L153.52845,41.9806727 L153.52845,52.8234022 L146.41245,52.8234022 L146.41245,52.1388033 C147.86295,52.0017337 148.7667,51.6998809 149.12295,51.2317471 C149.47845,50.7658602 149.65695,49.7764125 149.65695,48.2663999 L149.65695,27.7134503 L154.21095,27.7134503 L155.1792,27.7426619 C157.6902,27.7980889 159.58845,28.1965645 160.87095,28.9358415 C163.10895,30.2256439 164.2287,32.1858141 164.2287,34.81785 C164.2287,36.3001491 163.85145,37.6101749 163.09845,38.7486765 C162.34695,39.88568 161.3277,40.7163368 160.0407,41.2369016 L167.4312,50.3276869 C168.27945,51.3980282 169.3737,52.0017337 170.71545,52.1388033 L170.71545,52.8234022 Z" id="Fill-18" fill="#FEFEFE"></path>
                <path d="M357.053475,39.4124529 C358.907475,39.3577748 361.974975,39.0806396 362.902725,38.5832941 C364.157475,37.8627425 364.785975,36.6448454 364.785975,34.9273559 C364.785975,32.1297878 363.182475,30.5673442 357.053475,30.5673442 L357.053475,39.4124529 Z M374.268225,52.823552 L368.149725,52.823552 L359.777475,41.9808225 L358.995975,41.9808225 L357.762975,41.9808225 L357.079725,41.9808225 L357.079725,52.823552 L349.965225,52.823552 L349.965225,52.138204 C351.414975,52.0018835 352.320975,51.6992817 352.674975,51.2318969 C353.030475,50.76601 353.209725,49.7773113 353.209725,48.2665497 L353.209725,27.7143492 L357.762975,27.7143492 L358.730475,27.7428117 C361.242225,27.7982387 363.141225,28.1959653 364.423725,28.9367403 C366.660225,30.2250447 367.782225,32.1867129 367.782225,34.8187488 C367.782225,36.3002989 367.404975,37.6110737 366.652725,38.7480773 C365.900475,39.8858298 364.880475,40.7164866 363.594975,41.2378005 L370.982475,50.3278367 C371.829225,51.398927 372.925725,52.0018835 374.268225,52.138204 L374.268225,52.823552 Z" id="Fill-20" fill="#FEFEFE"></path>
                <path d="M172.390875,48.0853631 C172.390875,48.0037206 172.408125,47.8524197 172.441875,47.6329586 L172.441875,47.181303 L172.441875,25.7804694 L182.129625,36.0284816 L191.553375,45.2376112 L191.516625,27.7181691 L198.181875,27.7181691 L198.181875,28.4177484 C196.708875,28.5832805 195.754875,28.9398113 195.319125,29.4865916 C195.018375,29.873083 194.813625,30.3524521 194.704125,30.927695 L194.704125,53.5621549 L190.813875,50.0020905 L175.578375,35.8636985 L175.578375,48.0853631 L175.578375,49.0560855 L175.578375,51.6566628 C176.076375,51.876873 176.755125,52.0281739 177.614625,52.1113144 L177.614625,52.8123917 L168.748875,52.8123917 L168.748875,52.1113144 C170.366625,51.9450333 171.385875,51.5877535 171.805125,51.0372281 C172.111875,50.6522348 172.307625,49.9908552 172.390875,49.0560855" id="Fill-22" fill="#FEFEFE"></path>
                <path d="M234.4776,45.6832746 L232.54635,52.9944022 L213.0711,52.9944022 L213.0711,40.3795051 L213.0711,39.2896894 L213.0711,29.0356851 C213.0711,27.5196804 212.82585,26.5137543 212.3346,26.0186559 C211.84485,25.5220595 210.8376,25.232191 209.31285,25.1505485 L209.31285,24.3228878 L232.13835,24.3228878 L232.30185,30.5486938 L231.1926,30.5486938 C230.7816,28.4746735 230.12235,27.1609026 229.2186,26.6073811 C228.5046,26.1939252 226.9956,25.9856993 224.6946,25.9856993 L218.85285,25.9856993 C218.22285,25.9856993 217.83135,26.0898123 217.6791,26.2957912 C217.5291,26.5040171 217.4541,26.8837673 217.4541,27.4357908 L217.4541,35.3461297 L218.19435,35.3461297 L219.21885,35.3461297 L229.7991,35.3461297 L229.7991,42.9546159 L228.8106,42.9546159 C228.4536,41.218401 228.0276,40.1158521 227.5356,39.6462202 C226.95885,39.0956948 225.80535,38.8208065 224.0766,38.8208065 L217.47585,38.8208065 L217.4541,40.3795051 L217.4541,49.6537989 L228.63885,49.6537989 C229.81635,49.4335887 230.65485,49.1437202 231.14685,48.7856914 C231.88785,48.234417 232.59885,47.2000284 233.28585,45.6832746 L234.4776,45.6832746 Z" id="Fill-24" fill="#FEFEFE"></path>
                <path d="M252.9639,33.8307242 L249.7194,39.150972 L252.9639,33.8307242 Z M273.4929,68.9991877 L266.71965,68.9991877 L247.58415,42.5604846 L241.3869,52.9815191 L237.8139,52.9815191 L245.69715,39.8063594 L245.4099,39.3951506 L244.83465,38.5345333 L241.96065,34.3864927 C240.3999,32.1139836 239.48265,30.8399105 239.2104,30.5665203 C238.00665,29.2250359 236.6769,28.5262056 235.22865,28.4715276 L235.22865,27.7322506 L242.20665,27.7322506 L247.83015,36.3945998 L249.39015,33.8307242 L249.96615,32.8622488 L253.1679,27.4476252 L256.7799,27.4476252 L253.5384,32.8622488 L249.59565,39.4580678 L269.26365,65.5072835 C270.0039,66.5768758 270.6609,67.2816981 271.23615,67.6232486 C271.80915,67.9662971 272.5629,68.1917504 273.4929,68.3018555 L273.4929,68.9991877 Z" id="Fill-26" fill="#FEFEFE"></path>
                <path d="M276.454875,35.0500444 C276.454875,32.0614777 274.141875,30.5664454 269.513625,30.5664454 L267.664125,30.5664454 L267.664125,34.7721601 L267.664125,35.6777183 L267.664125,39.6976775 L269.678625,39.6976775 C274.195125,39.6976775 276.454875,38.1487161 276.454875,35.0500444 M263.928375,34.7721601 L263.928375,31.8495067 C263.928375,30.5342378 263.740125,29.6691264 263.361375,29.2579176 L262.924125,28.9732922 L262.395375,28.7036471 C262.003875,28.594291 261.434625,28.4984172 260.687625,28.4145276 L260.687625,27.7134503 L262.395375,27.7134503 L263.361375,27.7134503 L269.177625,27.7134503 C272.917125,27.7134503 275.606625,28.3583516 277.244625,29.650401 C278.689875,30.8046319 279.415125,32.6187443 279.415125,35.0912402 C279.415125,37.6468766 278.537625,39.568847 276.785625,40.8616455 C275.222625,41.9889119 273.127875,42.5514215 270.500625,42.5514215 L267.664125,42.5514215 L267.664125,52.8234022 L263.928375,52.8234022 L263.928375,35.6777183" id="Fill-28" fill="#FEFEFE"></path>
                <path d="M314.20245,39.6794764 C313.0017,38.8338394 312.0897,38.0975584 311.4627,37.4698845 C310.39845,36.3785709 309.8682,35.0543138 309.8682,33.4986113 C309.8682,31.9444068 310.4982,30.5392562 311.7552,29.2831594 C312.7377,28.3004528 314.41995,27.8090994 316.79895,27.8090994 C317.7282,27.8090994 318.78795,28.0180744 319.97595,28.4352753 C321.16545,28.8532252 321.84195,29.0607022 322.0047,29.0607022 C322.4712,29.0607022 322.7937,28.9603343 322.9692,28.7581004 C323.1477,28.5558666 323.27895,28.2397826 323.3592,27.8090994 L324.13845,27.8090994 L325.0002,35.8250494 L324.09645,35.8250494 C323.63145,33.9779804 322.83945,32.4709638 321.7182,31.3002546 C320.4327,29.9969699 318.88695,29.3430805 317.0832,29.3430805 C315.82545,29.3430805 314.89545,29.5760239 314.2932,30.0366677 C313.5822,30.580452 313.22745,31.3152349 313.22745,32.2387694 C313.22745,33.0544459 313.52745,33.748033 314.1297,34.3187818 C314.89545,35.0528157 315.68745,35.6917248 316.5072,36.2347601 L317.2827,36.7695563 C318.6777,37.6174403 320.07345,38.4510931 321.46995,39.2712637 C322.8927,40.2007903 323.96745,41.2329319 324.6927,42.3669394 C325.4172,43.5024449 325.77945,44.7121028 325.77945,45.9966621 C325.77945,47.0085803 325.5747,47.9246247 325.1637,48.7440462 C324.50595,50.0293546 323.4597,51.0689863 322.0227,51.8614433 C320.5857,52.6539003 319.04595,53.0508778 317.40495,53.0508778 C315.3252,53.0508778 313.4847,52.3670279 311.88495,50.999328 C310.28145,49.631628 309.3447,47.9358599 309.07095,45.9105255 L312.27495,45.2543891 C312.2457,46.622838 312.8067,47.7710768 313.95645,48.6998544 C315.0237,49.63013 316.26795,50.0937698 317.69295,50.0937698 C318.78795,50.0937698 319.7442,49.6990393 320.5662,48.9050843 C321.3867,48.1126272 321.7977,47.2108142 321.7977,46.198147 C321.7977,45.4056899 321.50895,44.7023656 320.9352,44.087425 C320.3607,43.4717353 319.4712,42.8088577 318.2667,42.0980433 C317.19945,41.4426558 316.1187,40.8000017 315.0237,40.1700807" id="Fill-30" fill="#FEFEFE"></path>
                <path d="M347.217825,38.3621103 L347.217825,27.8729155 L349.011825,27.7133754 L349.011825,38.3621103 L349.011825,39.299876 L349.011825,43.3527918 C349.011825,46.107666 348.112575,48.3929084 346.318575,50.2062717 C344.523825,52.0203841 342.216825,52.9274403 339.399075,52.9274403 C336.609075,52.9274403 334.389825,52.012145 332.741325,50.1785582 C331.170825,48.426614 330.374325,46.1428697 330.348075,43.3280744 L330.348075,31.6973819 C330.348075,30.3686308 330.138825,29.5132565 329.718075,29.1275142 C329.299575,28.74327 328.385325,28.4968443 326.978325,28.3897353 L326.978325,27.7133754 L333.994575,27.7133754 L333.994575,42.2906897 C333.994575,47.4693739 335.979075,50.0587159 339.945825,50.0587159 C342.237075,50.0587159 344.046825,49.2917254 345.380325,47.7547483 C346.604325,46.3533427 347.217825,44.5804261 347.217825,42.4359985 L347.217825,39.299876" id="Fill-32" fill="#FEFEFE"></path>
                <path d="M392.5386,46.4732599 L390.8916,52.8293943 L374.2671,52.8293943 L374.2671,41.8106465 L374.2671,40.8519083 L374.2671,31.8375225 C374.2671,30.5050262 374.0586,29.6211895 373.6386,29.1852632 C373.2216,28.7470899 372.3621,28.4931741 371.0586,28.4212687 L371.0586,27.694725 L390.5421,27.694725 L390.6816,33.1670227 L389.73585,33.1670227 C389.38335,31.3446712 388.8201,30.1904403 388.04835,29.702832 C387.4401,29.3388111 386.1531,29.1560517 384.1881,29.1560517 L379.2021,29.1560517 C378.66135,29.1560517 378.3306,29.2481804 378.20085,29.4294419 C378.0726,29.6114523 378.0081,29.9447636 378.0081,30.4301248 L378.0081,37.3847216 L378.6411,37.3847216 L379.5156,37.3847216 L388.54485,37.3847216 L388.54485,44.0741674 L387.6996,44.0741674 C387.3966,42.5469275 387.0336,41.5784521 386.61285,41.1664943 C386.12085,40.6811331 385.1376,40.4384525 383.66085,40.4384525 L378.02535,40.4384525 L378.0081,41.8106465 L378.0081,49.962917 L387.55335,49.962917 C388.5591,49.7689223 389.27385,49.5142575 389.6976,49.2004206 C390.3261,48.7158084 390.9351,47.8057561 391.5216,46.4732599 L392.5386,46.4732599 Z" id="Fill-34" fill="#FEFEFE"></path>
                <path d="M145.054725,46.4981271 L143.407725,52.8999515 L126.783225,52.8999515 L126.783225,41.8527411 L126.783225,40.897748 L126.783225,31.9178168 C126.783225,30.5898146 126.573975,29.709723 126.154725,29.2760438 C125.737725,28.8393685 124.877475,28.5862017 123.574725,28.5150453 L123.574725,27.7892506 L143.057475,27.7892506 L143.197725,33.2435719 L142.251975,33.2435719 C141.899475,31.4264635 141.336975,30.2767267 140.563725,29.7906165 C139.955475,29.4280936 138.668475,29.2468322 136.703475,29.2468322 L131.718225,29.2468322 C131.177475,29.2468322 130.847475,29.3374629 130.716975,29.5187243 C130.587975,29.6999858 130.524975,30.0325481 130.524975,30.5156622 L130.524975,37.4440436 L131.157225,37.4440436 L132.031725,37.4440436 L141.061725,37.4440436 L141.061725,44.1080229 L140.215725,44.1080229 C139.913475,42.586026 139.548975,41.6205467 139.128225,41.2108359 C138.636975,40.7277218 137.652975,40.4865392 136.176225,40.4865392 L130.541475,40.4865392 L130.524975,41.8527411 L130.524975,49.974302 L140.070975,49.974302 C141.075225,49.7810564 141.789225,49.5271406 142.212975,49.2133036 C142.842225,48.7316875 143.449725,47.8261293 144.037725,46.4981271 L145.054725,46.4981271 Z" id="Fill-36" fill="#FEFEFE"></path>
                <path d="M75.0447,37.141292 L75.0237,38.1786767 L70.3332,38.1786767 L69.7182,38.1786767 L69.7182,40.7590306 C69.7182,43.4419994 69.1047,45.4972944 67.87395,46.9256645 C66.96645,47.9780294 65.57295,48.7922078 63.7002,49.3756899 L63.3942,48.4154537 C65.0322,47.9173592 66.2472,47.2327603 67.03845,46.3586607 C68.17845,45.1040619 68.74995,43.2390166 68.74995,40.7590306 L68.74995,38.1786767 L66.2472,38.1786767 L66.2472,37.1502802 L68.74995,37.1502802 L68.74995,30.5192575 L69.7182,30.5192575 L69.7182,37.1502802 L70.3332,37.1502802 L75.0447,37.141292 Z" id="Fill-38" fill="#FEFEFE"></path>
                <path d="M351.646725,37.141292 L351.625725,38.1786767 L346.935225,38.1786767 L346.320225,38.1786767 L346.320225,40.7590306 C346.320225,43.4419994 345.704475,45.4972944 344.476725,46.9256645 C343.568475,47.9780294 342.174225,48.7922078 340.301475,49.3756899 L339.995475,48.4154537 C341.634225,47.9173592 342.849975,47.2327603 343.638975,46.3586607 C344.779725,45.1040619 345.351225,43.2390166 345.351225,40.7590306 L345.351225,38.1786767 L342.849975,38.1786767 L342.849975,37.1502802 L345.351225,37.1502802 L345.351225,30.5192575 L346.320225,30.5192575 L346.320225,37.1502802 L346.935225,37.1502802 L351.646725,37.141292 Z" id="Fill-40" fill="#FEFEFE"></path>
                <mask id="mask-4" fill="white">
                    <use xlink:href="#path-3"></use>
                </mask>
                <g id="Clip-43"></g>
                <path d="M73.929,32.3184645 L87.97575,32.3184645 L87.97575,31.4278866 L73.929,31.4278866 L73.929,32.3184645 Z" id="Fill-42" fill="#FEFEFE" mask="url(#mask-4)"></path>
                <path d="M86.04675,37.1031672 L86.937,37.1031672 L86.937,26.3173628 L86.04675,26.3173628 L86.04675,37.1031672 Z" id="Fill-44" fill="#FEFEFE" mask="url(#mask-4)"></path>
                <path d="M104.63175,36.5728651 L123.24525,36.5728651 L123.24525,35.6837853 L104.63175,35.6837853 L104.63175,36.5728651 Z" id="Fill-45" fill="#FEFEFE" mask="url(#mask-4)"></path>
                <path d="M125.013,42.1545189 L136.00725,42.1545189 L136.00725,41.2654391 L125.013,41.2654391 L125.013,42.1545189 Z" id="Fill-46" fill="#FEFEFE" mask="url(#mask-4)"></path>
                <path d="M169.1685,49.0918884 L180.16425,49.0918884 L180.16425,48.0530057 L169.1685,48.0530057 L169.1685,49.0918884 Z" id="Fill-47" fill="#FEFEFE" mask="url(#mask-4)"></path>
                <path d="M131.433,47.9481437 L132.32325,47.9481437 L132.32325,30.4114744 L131.433,30.4114744 L131.433,47.9481437 Z" id="Fill-48" fill="#FEFEFE" mask="url(#mask-4)"></path>
                <path d="M372.74025,42.1545189 L383.7345,42.1545189 L383.7345,41.2654391 L372.74025,41.2654391 L372.74025,42.1545189 Z" id="Fill-49" fill="#FEFEFE" mask="url(#mask-4)"></path>
                <path d="M379.1595,47.9481437 L380.04975,47.9481437 L380.04975,30.4114744 L379.1595,30.4114744 L379.1595,47.9481437 Z" id="Fill-50" fill="#FEFEFE" mask="url(#mask-4)"></path>
                <path d="M211.4865,40.8205246 L222.48075,40.8205246 L222.48075,39.9314448 L211.4865,39.9314448 L211.4865,40.8205246 Z" id="Fill-51" fill="#FEFEFE" mask="url(#mask-4)"></path>
                <path d="M218.382,47.9481437 L219.27225,47.9481437 L219.27225,27.4431311 L218.382,27.4431311 L218.382,47.9481437 Z" id="Fill-52" fill="#FEFEFE" mask="url(#mask-4)"></path>
                <path d="M190.23345,52.4727138 L190.23345,38.6811154 L189.0567,38.6811154 L189.0567,49.9447909 L190.0887,50.901282 L190.23345,52.4727138 Z" id="Fill-53" fill="#FEFEFE" mask="url(#mask-4)"></path>
                <path d="M190.0884,50.9015067 L189.0564,49.9450156 L175.4934,37.3743103 L174.7704,38.1517871 L190.2354,52.5328596 L190.0884,50.9015067 Z" id="Fill-54" fill="#FEFEFE" mask="url(#mask-4)"></path>
                <path d="M258.3963,28.4164751 L248.5383,44.6588479 L247.62105,44.1045774 L257.47605,27.8614555 L258.3963,28.4164751 Z" id="Fill-55" fill="#FEFEFE" mask="url(#mask-4)"></path>
                <path d="M245.816175,38.0358397 L236.230425,54.1696054 L235.307175,53.6243231 L244.892175,37.4890593 L245.816175,38.0358397 Z" id="Fill-56" fill="#FEFEFE" mask="url(#mask-4)"></path>
                <path d="M154.378425,50.4619103 L155.270175,50.4619103 L155.270175,43.4384042 L154.378425,42.3006516 L154.378425,50.4619103 Z" id="Fill-57" fill="#FEFEFE" mask="url(#mask-4)"></path>
                <path d="M155.2698,41.9937805 L155.2698,26.3176624 L154.37805,26.3176624 L154.37805,41.8926636 L154.88205,41.4994311 L155.2698,41.9937805 Z" id="Fill-58" fill="#FEFEFE" mask="url(#mask-4)"></path>
                <path d="M154.378425,42.3002771 L154.378425,41.8928134" id="Fill-59" fill="#FEFEFE" mask="url(#mask-4)"></path>
                <path d="M164.43825,53.7088868 L155.2695,41.9935558 L155.2695,43.4384042 L163.737,54.2549182 L164.43825,53.7088868 Z" id="Fill-60" fill="#FEFEFE" mask="url(#mask-4)"></path>
                <path d="M154.88235,41.4993562 L154.37835,41.8925887 L154.37835,42.3000524 L155.2701,43.438554 L155.2701,41.9937056 L154.88235,41.4993562 Z" id="Fill-61" fill="#FEFEFE" mask="url(#mask-4)"></path>
                <path d="M357.90165,51.0339324 L358.7934,51.0339324 L358.7934,44.0104263 L357.90165,42.8726737 L357.90165,51.0339324 Z" id="Fill-62" fill="#FEFEFE" mask="url(#mask-4)"></path>
                <path d="M358.7937,42.2249263 L358.7937,26.3083746 L357.90195,26.3083746 L357.90195,42.1238093 L358.4052,41.7305769 L358.7937,42.2249263 Z" id="Fill-63" fill="#FEFEFE" mask="url(#mask-4)"></path>
                <path d="M357.90165,42.8722992 L357.90165,42.4648355" id="Fill-64" fill="#FEFEFE" mask="url(#mask-4)"></path>
                <path d="M367.621575,53.9414557 L358.794075,42.5654281 L358.794075,44.0102765 L366.921075,54.4874871 L367.621575,53.9414557 Z" id="Fill-65" fill="#FEFEFE" mask="url(#mask-4)"></path>
                <path d="M358.405575,42.0713035 L357.901575,42.4645359 L357.901575,42.8719996 L358.794075,44.0105012 L358.794075,42.5656528 L358.405575,42.0713035 Z" id="Fill-66" fill="#FEFEFE" mask="url(#mask-4)"></path>
                <path d="M102.75075,46.3430063 L103.641,46.3430063 L103.641,27.754721 L102.75075,27.754721 L102.75075,46.3430063 Z" id="Fill-67" fill="#FEFEFE" mask="url(#mask-4)"></path>
                <path d="M15.84765,23.7239011 L15.8649,23.6976856 L14.9754,22.8235861 L6.5229,35.4040285 L6.41265,35.3388643 C4.23915,34.005619 2.7654,32.7959611 1.9989,31.7061454 L0.94215,32.4057247 C1.90815,33.7090094 3.4959,35.0317684 5.7129,36.3635157 L5.83065,36.434672 L4.02315,39.125131 L5.07915,39.8336984 L6.9159,37.0870634 C8.5104,38.0270762 10.10865,38.964842 11.70315,39.9003607 C13.40265,40.9871803 14.4579,41.9511616 14.8659,42.7885594 C15.0234,43.0986513 15.1014,43.4259705 15.1014,43.766772 C15.1014,44.295576 14.9124,44.8056547 14.5389,45.3030001 C13.8204,46.2332757 13.1454,46.6534727 12.51765,46.5613439 L12.28365,47.7710019 C13.4184,47.988965 14.50515,47.4114751 15.54315,46.0475202 C16.11165,45.3344587 16.39365,44.5727113 16.39365,43.766772 C16.39365,43.239466 16.2699,42.7278893 16.01565,42.2305439 C15.60765,41.391648 14.73915,40.5070622 13.41465,39.5775356 C12.69165,39.0487316 11.33865,38.2105847 9.3519,37.0608479 L7.6134,36.0421886 L15.23115,24.6466866 C15.8394,25.2017061 16.4499,25.9686967 17.05815,26.9588934 C17.8134,28.1393398 18.1944,29.0703645 18.1944,29.7512184 L19.4709,29.5654628 C18.66465,27.1603783 17.2659,25.1312988 15.84765,23.7239011" id="Fill-68" fill="#FEFEFE" mask="url(#mask-4)"></path>
                <path d="M320.406975,30.9269459 L320.420475,30.9067226 L319.735725,30.2333588 L313.231725,39.9121202 L313.147725,39.8634343 C311.474475,38.8357868 310.341975,37.9055112 309.751725,37.0673643 L308.937975,37.6059055 C309.681975,38.6088355 310.902975,39.6259968 312.607725,40.6506482 L312.699225,40.7060753 L311.307975,42.7756015 L312.121725,43.3208838 L313.533975,41.2079148 C314.760975,41.9307135 315.990225,42.6520142 317.217225,43.3718168 C318.525975,44.2084657 319.338225,44.9507387 319.650975,45.5941419 C319.771725,45.8323284 319.831725,46.0847462 319.831725,46.3476502 C319.831725,46.7543649 319.686225,47.1460993 319.398975,47.5288456 C318.845475,48.2449032 318.327225,48.5684773 317.845725,48.4965719 L317.664975,49.4275966 C318.537975,49.5953757 319.374225,49.1519593 320.171475,48.1018414 C320.610225,47.552814 320.825475,46.9663359 320.825475,46.3476502 C320.825475,45.9416845 320.730975,45.547703 320.535975,45.1657058 C320.222475,44.5193065 319.553475,43.8384526 318.534975,43.1246421 C317.979225,42.7171784 316.937475,42.0722772 315.408225,41.1876914 L314.070975,40.4042226 L319.932975,31.6362624 C320.399475,32.0632005 320.868975,32.6534237 321.337725,33.4151711 C321.918975,34.3229763 322.212225,35.0397829 322.212225,35.5633438 L323.193225,35.4210311 C322.573725,33.570217 321.498225,32.0092715 320.406975,30.9269459" id="Fill-69" fill="#FEFEFE" mask="url(#mask-4)"></path>
                <path d="M248.67375,33.8621828 L257.11875,33.8621828 L257.11875,32.6817364 L248.67375,32.6817364 L248.67375,33.8621828 Z" id="Fill-70" fill="#FEFEFE" mask="url(#mask-4)"></path>
                <path d="M262.06275,38.9030483 L270.50775,38.9030483 L270.50775,37.7233509 L262.06275,37.7233509 L262.06275,38.9030483 Z" id="Fill-71" fill="#FEFEFE" mask="url(#mask-4)"></path>
                <path d="M265.15575,54.4443438 L266.33775,54.4443438 L266.33775,26.327849 L265.15575,26.327849 L265.15575,54.4443438 Z" id="Fill-72" fill="#FEFEFE" mask="url(#mask-4)"></path>
                <path d="M51.147225,39.9113712 L51.147225,40.8820936 L44.688975,40.8820936 C44.409225,44.173262 43.906725,46.2338 43.183725,47.0629588 C41.842725,48.5564931 39.752475,49.3010132 36.909225,49.3010132 C36.348225,49.3010132 35.777475,49.2605664 35.193225,49.1751788 L35.358975,48.1977153 C35.888475,48.2860989 36.418725,48.3302908 36.944475,48.3302908 C39.481725,48.3302908 41.319225,47.6958757 42.460725,46.4292927 C43.047975,45.7926307 43.463475,43.9463107 43.716975,40.8820936 L35.774475,40.8820936 L35.774475,39.9128692 L43.716975,39.9128692 C43.770975,38.7511482 43.770975,37.8800447 43.716975,37.3018058 L44.611725,37.1347756 C44.688975,37.9362208 44.715975,38.8612533 44.688975,39.9128692 L51.147225,39.9113712 Z" id="Fill-73" fill="#FEFEFE" mask="url(#mask-4)"></path>
                <path d="M307.6758,40.10222 L307.6758,41.0736914 L301.21755,41.0736914 C300.9378,44.3648598 300.43455,46.4246489 299.7108,47.2530586 C298.3698,48.7465929 296.28105,49.491862 293.43555,49.491862 C292.87605,49.491862 292.30455,49.4521642 291.7203,49.3652786 L291.88605,48.3893131 C292.41705,48.4769478 292.9458,48.5211396 293.4738,48.5211396 C296.00955,48.5211396 297.8463,47.8874736 298.98705,46.6193925 C299.5758,45.9842285 299.99205,44.1371595 300.24555,41.0736914 L292.30155,41.0736914 L292.30155,40.102969 L300.24555,40.102969 C300.29805,38.941997 300.29805,38.0708935 300.24555,37.4919056 L301.1403,37.3248754 C301.21755,38.1263206 301.2438,39.0521021 301.21755,40.102969 L307.6758,40.10222 Z" id="Fill-74" fill="#FEFEFE" mask="url(#mask-4)"></path>
                <path d="M0.397725,56.0875312 L0.397725,57.3586083 L255.522975,57.3586083 L254.551725,56.0875312 L0.397725,56.0875312 Z" id="Fill-75" fill="#FFE412" mask="url(#mask-4)"></path>
                <path d="M264.935325,56.0890292 L265.908075,57.3601063 L392.079075,57.3601063 L392.079075,56.0890292 L264.935325,56.0890292 Z" id="Fill-76" fill="#FFE412" mask="url(#mask-4)"></path>
                <path d="M293.084475,68.8727541 L294.657975,60.2351224 L295.625475,60.2351224 L294.051975,68.8727541 L293.084475,68.8727541 Z" id="Fill-77" fill="#FEFEFE" mask="url(#mask-4)"></path>
                <path d="M300.11355,63.7386363 C299.9733,63.6906994 299.77605,63.6539977 299.44905,63.6539977 C297.9918,63.6539977 296.79105,65.2351667 296.79105,66.8770058 C296.79105,67.5338912 297.0123,68.1795415 297.7473,68.1795415 C298.5633,68.1795415 299.51955,67.0844827 299.7873,65.514549 L300.11355,63.7386363 Z M299.4963,68.8731286 C299.4963,68.5203429 299.55405,67.9608293 299.62455,67.3518808 L299.60055,67.3518808 C298.98255,68.5810131 298.2018,69.0064531 297.4098,69.0064531 C296.40705,69.0064531 295.7883,68.1795415 295.7883,67.0605143 C295.7883,65.0037213 297.2343,62.8503055 299.6823,62.8503055 C300.2193,62.8503055 300.8133,62.9476773 301.19805,63.0690176 L300.6273,66.147466 C300.4398,67.1691213 300.37005,68.2162432 300.3933,68.8731286 L299.4963,68.8731286 Z" id="Fill-78" fill="#FEFEFE" mask="url(#mask-4)"></path>
                <path d="M301.83915,68.8727541 L302.58465,64.699996 C302.7129,64.0431106 302.79465,63.4708637 302.85315,62.9847535 L303.72765,62.9847535 L303.5754,64.1404824 L303.5994,64.1404824 C304.1124,63.3128217 304.8699,62.85068 305.6979,62.85068 C306.36165,62.85068 307.1199,63.2521516 307.1199,64.4812839 C307.1199,64.7486819 307.0734,65.1254361 307.0149,65.4295358 L306.38565,68.8727541 L305.4294,68.8727541 L306.0474,65.4662375 C306.0819,65.2475254 306.11715,64.9673941 306.11715,64.7119802 C306.11715,64.1277492 305.8959,63.6903249 305.2314,63.6903249 C304.5429,63.6903249 303.56415,64.5539382 303.30765,66.0137669 L302.79465,68.8727541 L301.83915,68.8727541 Z" id="Fill-79" fill="#FEFEFE" mask="url(#mask-4)"></path>
                <path d="M312.424125,63.909037 C312.237375,63.7629793 311.911125,63.6536232 311.503125,63.6536232 C310.150875,63.6536232 309.101625,65.1621378 309.101625,66.7320715 C309.101625,67.4368939 309.334875,68.179167 310.162125,68.179167 C310.908375,68.179167 311.806875,67.2915851 312.051375,65.965081 L312.424125,63.909037 Z M314.056875,60.2351224 L312.808875,67.0114538 C312.703875,67.6196534 312.610875,68.3005073 312.575625,68.8727541 L311.689875,68.8727541 L311.841375,67.704292 L311.817375,67.704292 C311.305125,68.5439369 310.594125,69.0068276 309.778125,69.0068276 C308.693625,69.0068276 308.098875,68.0698109 308.098875,66.8653961 C308.098875,64.7726504 309.591375,62.85068 311.584875,62.85068 C311.946375,62.85068 312.343125,62.9353186 312.587625,63.0574079 L313.088625,60.2351224 L314.056875,60.2351224 Z" id="Fill-80" fill="#FEFEFE" mask="url(#mask-4)"></path>
                <path d="M314.23095,67.8633077 C314.48745,68.0333339 314.9772,68.2273286 315.44295,68.2273286 C316.0962,68.2273286 316.5162,67.7899043 316.5162,67.2670924 C316.5162,66.8042016 316.31745,66.5120861 315.7227,66.1720336 C315.0702,65.7945305 314.70945,65.2837028 314.70945,64.6755033 C314.70945,63.6411146 315.5607,62.8509047 316.7607,62.8509047 C317.2617,62.8509047 317.71695,62.9969624 317.92695,63.1422712 L317.65845,63.9092617 C317.46045,63.7879214 317.11095,63.6411146 316.69095,63.6411146 C316.0962,63.6411146 315.67695,64.030602 315.67695,64.5294455 C315.67695,64.9548855 315.9447,65.2230326 316.4577,65.5143992 C317.0877,65.8919023 317.50695,66.403479 317.50695,67.0715997 C317.50695,68.3134652 316.55145,69.0063033 315.34995,69.0063033 C314.74395,68.9943191 314.2077,68.8123087 313.9512,68.6048317 L314.23095,67.8633077 Z" id="Fill-81" fill="#FEFEFE" mask="url(#mask-4)"></path>
                <path d="M322.391625,68.6416083 C322.099875,68.7996503 321.517125,69.0063782 320.758875,69.0063782 C319.302375,69.0063782 318.591375,67.9847229 318.591375,66.7316221 C318.591375,64.7122799 320.013375,62.8509796 322.041375,62.8509796 C322.565625,62.8509796 323.044125,63.0090216 323.218875,63.1183776 L322.939125,63.9093366 C322.717875,63.7992315 322.403625,63.6906245 321.983625,63.6906245 C320.514375,63.6906245 319.594125,65.1983901 319.594125,66.5982976 C319.594125,67.5592828 320.071125,68.1794666 320.992875,68.1794666 C321.574875,68.1794666 322.006125,67.9967071 322.297875,67.8506493 L322.391625,68.6416083 Z" id="Fill-82" fill="#FEFEFE" mask="url(#mask-4)"></path>
                <path d="M327.6504,63.7386363 C327.5109,63.6906994 327.31215,63.6539977 326.98515,63.6539977 C325.52865,63.6539977 324.32715,65.2351667 324.32715,66.8770058 C324.32715,67.5338912 324.54915,68.1795415 325.2834,68.1795415 C326.10015,68.1795415 327.05565,67.0844827 327.32415,65.514549 L327.6504,63.7386363 Z M327.0324,68.8731286 C327.0324,68.5203429 327.0909,67.9608293 327.16065,67.3518808 L327.13665,67.3518808 C326.5194,68.5810131 325.7379,69.0064531 324.9459,69.0064531 C323.94315,69.0064531 323.3244,68.1795415 323.3244,67.0605143 C323.3244,65.0037213 324.7704,62.8503055 327.21915,62.8503055 C327.7554,62.8503055 328.35015,62.9476773 328.73415,63.0690176 L328.1634,66.147466 C327.97665,67.1691213 327.9069,68.2162432 327.93015,68.8731286 L327.0324,68.8731286 Z" id="Fill-83" fill="#FEFEFE" mask="url(#mask-4)"></path>
                <path d="M330.447525,67.8874259 C330.704775,68.0941538 331.065525,68.2162432 331.532025,68.2162432 C332.779275,68.2162432 333.816525,66.5976235 333.816525,65.0524072 C333.816525,64.4322234 333.560025,63.6899504 332.732775,63.6899504 C331.975275,63.6899504 331.030275,64.5902654 330.739275,66.2448378 L330.447525,67.8874259 Z M328.862775,71.2812092 L329.993775,65.0771247 C330.121275,64.3715533 330.238275,63.5678611 330.308025,62.9723948 L331.193775,62.9723948 L331.042275,64.091422 L331.065525,64.091422 C331.566525,63.3131962 332.312775,62.8503055 333.094275,62.8503055 C334.307025,62.8503055 334.819275,63.8966783 334.819275,64.9797528 C334.819275,67.0605143 333.397275,69.0064531 331.520775,69.0064531 C330.926025,69.0064531 330.529275,68.8731286 330.308025,68.7390551 L330.284775,68.7390551 L329.830275,71.2812092 L328.862775,71.2812092 Z" id="Fill-84" fill="#FEFEFE" mask="url(#mask-4)"></path>
                <path d="M339.3999,64.3837622 C339.3999,63.9088872 339.0504,63.6414892 338.5374,63.6414892 C337.6164,63.6414892 336.92865,64.5785059 336.69615,65.5027894 C338.21115,65.5267579 339.3999,65.3080457 339.3999,64.3957465 L339.3999,64.3837622 Z M339.6099,68.5445361 C339.19065,68.7879657 338.5029,69.0066778 337.74465,69.0066778 C336.2529,69.0066778 335.59965,67.9355875 335.59965,66.6345499 C335.59965,64.8578882 336.85815,62.8505302 338.6769,62.8505302 C339.75015,62.8505302 340.3329,63.5201489 340.3329,64.371029 C340.3329,65.9162453 338.6664,66.3177169 336.5784,66.2810152 C336.53265,66.537178 336.56715,67.0847074 336.69615,67.4000424 C336.9174,67.9355875 337.3719,68.1917504 337.95465,68.1917504 C338.61915,68.1917504 339.12015,67.9850225 339.4704,67.7902788 L339.6099,68.5445361 Z" id="Fill-85" fill="#FEFEFE" mask="url(#mask-4)"></path>
                <path d="M346.32495,61.2567778 C345.7302,61.2567778 345.24045,61.8649773 345.24045,62.6686695 C345.24045,63.1308113 345.3567,63.5442671 345.61395,63.9697072 C346.5582,63.4948322 347.1177,62.960036 347.1177,62.1810613 C347.1177,61.7076843 346.90695,61.2567778 346.3362,61.2567778 L346.32495,61.2567778 Z M345.2052,68.2158687 C345.8232,68.2158687 346.34745,67.9237531 346.74495,67.4855798 C346.37145,66.914082 345.69495,65.9163951 345.1122,64.8939907 C344.5992,65.2228079 343.7952,65.807039 343.7952,66.8039769 C343.7952,67.5956849 344.2962,68.2158687 345.19395,68.2158687 L345.2052,68.2158687 Z M347.68845,68.8727541 C347.49045,68.6293245 347.33895,68.4106123 347.15295,68.1184968 C346.49895,68.7386806 345.79995,69.0068276 344.9367,69.0068276 C343.5852,69.0068276 342.8157,68.0945284 342.8157,66.9627679 C342.8157,65.6729655 343.7952,64.8093521 344.7627,64.3105086 L344.7627,64.2738069 C344.48295,63.750995 344.33145,63.27612 344.33145,62.7900098 C344.33145,61.5608775 345.2052,60.5392222 346.41795,60.5392222 C347.46645,60.5392222 348.00345,61.2807462 348.00345,62.1570928 C348.00345,63.1308113 347.33895,63.8850686 345.9867,64.541954 L345.9867,64.5786557 C346.41795,65.3448972 346.98945,66.2444633 347.39745,66.8534118 C347.8752,66.2332281 348.24795,65.4295358 348.5862,64.3951472 L349.49595,64.3951472 C349.06395,65.7096672 348.56295,66.7320715 347.83995,67.5102973 C348.1317,67.9357373 348.44595,68.3866439 348.83145,68.8727541 L347.68845,68.8727541 Z" id="Fill-86" fill="#FEFEFE" mask="url(#mask-4)"></path>
                <path d="M351.990225,67.8633077 C352.246725,68.0333339 352.735725,68.2273286 353.202225,68.2273286 C353.854725,68.2273286 354.274725,67.7899043 354.274725,67.2670924 C354.274725,66.8042016 354.076725,66.5120861 353.481975,66.1720336 C352.829475,65.7945305 352.467975,65.2837028 352.467975,64.6755033 C352.467975,63.6411146 353.319225,62.8509047 354.519975,62.8509047 C355.020975,62.8509047 355.476225,62.9969624 355.685475,63.1422712 L355.416975,63.9092617 C355.219725,63.7879214 354.869475,63.6411146 354.449475,63.6411146 C353.854725,63.6411146 353.435475,64.030602 353.435475,64.5294455 C353.435475,64.9548855 353.703975,65.2230326 354.216975,65.5143992 C354.846225,65.8919023 355.265475,66.403479 355.265475,67.0715997 C355.265475,68.3134652 354.309975,69.0063033 353.109225,69.0063033 C352.503225,68.9943191 351.966975,68.8123087 351.710475,68.6048317 L351.990225,67.8633077 Z" id="Fill-87" fill="#FEFEFE" mask="url(#mask-4)"></path>
                <path d="M357.36405,67.8874259 C357.62055,68.0941538 357.98205,68.2162432 358.4478,68.2162432 C359.6958,68.2162432 360.73305,66.5976235 360.73305,65.0524072 C360.73305,64.4322234 360.47655,63.6899504 359.6493,63.6899504 C358.89105,63.6899504 357.9468,64.5902654 357.6558,66.2448378 L357.36405,67.8874259 Z M355.77855,71.2812092 L356.9088,65.0771247 C357.03705,64.3715533 357.1548,63.5678611 357.22455,62.9723948 L358.1103,62.9723948 L357.9588,64.091422 L357.98205,64.091422 C358.48305,63.3131962 359.2293,62.8503055 360.01005,62.8503055 C361.22355,62.8503055 361.7358,63.8966783 361.7358,64.9797528 C361.7358,67.0605143 360.3138,69.0064531 358.4373,69.0064531 C357.84255,69.0064531 357.4458,68.8731286 357.22455,68.7390551 L357.20055,68.7390551 L356.7468,71.2812092 L355.77855,71.2812092 Z" id="Fill-88" fill="#FEFEFE" mask="url(#mask-4)"></path>
                <path d="M362.423625,68.8727541 L363.111375,65.0774992 C363.251625,64.3105086 363.332625,63.5315339 363.391125,62.9847535 L364.242375,62.9847535 C364.207125,63.3974603 364.160625,63.799681 364.090875,64.2618227 L364.126125,64.2618227 C364.498875,63.4588795 365.093625,62.85068 365.850375,62.85068 C365.944125,62.85068 366.049125,62.8634132 366.130125,62.8746484 L365.944125,63.8723353 C365.874375,63.8603511 365.781375,63.8483669 365.676375,63.8483669 C364.848375,63.8483669 364.102125,64.9067239 363.857625,66.2691808 L363.391125,68.8727541 L362.423625,68.8727541 Z" id="Fill-89" fill="#FEFEFE" mask="url(#mask-4)"></path>
                <path d="M367.9263,61.9019037 C367.58805,61.9019037 367.3548,61.6217724 367.3548,61.2450182 C367.3668,60.8435466 367.65855,60.5267136 368.0193,60.5267136 C368.3808,60.5267136 368.62605,60.8068449 368.62605,61.1835991 C368.61405,61.6090391 368.3223,61.9019037 367.9383,61.9019037 L367.9263,61.9019037 Z M366.11955,68.8729788 L367.19205,62.9842292 L368.1588,62.9842292 L367.08705,68.8729788 L366.11955,68.8729788 Z" id="Fill-90" fill="#FEFEFE" mask="url(#mask-4)"></path>
                <path d="M368.80005,68.8727541 L369.5463,64.699996 C369.67455,64.0431106 369.7563,63.4708637 369.8148,62.9847535 L370.6893,62.9847535 L370.53705,64.1404824 L370.56105,64.1404824 C371.0733,63.3128217 371.83155,62.85068 372.6588,62.85068 C373.3233,62.85068 374.08155,63.2521516 374.08155,64.4812839 C374.08155,64.7486819 374.0343,65.1254361 373.97655,65.4295358 L373.34655,68.8727541 L372.39105,68.8727541 L373.0083,65.4662375 C373.04355,65.2475254 373.0788,64.9673941 373.0788,64.7119802 C373.0788,64.1277492 372.85755,63.6903249 372.1923,63.6903249 C371.50455,63.6903249 370.5258,64.5539382 370.2693,66.0137669 L369.7563,68.8727541 L368.80005,68.8727541 Z" id="Fill-91" fill="#FEFEFE" mask="url(#mask-4)"></path>
                <path d="M375.01395,68.8727541 L376.5882,60.2351224 L377.5557,60.2351224 L376.5642,65.648248 L376.5882,65.648248 C376.75095,65.4422691 376.96095,65.2228079 377.11245,65.0647659 L379.09395,62.9847535 L380.2947,62.9847535 L377.83545,65.4055674 L379.51395,68.8727541 L378.45345,68.8727541 L377.0892,65.9778142 L376.37745,66.6346997 L375.96945,68.8727541 L375.01395,68.8727541 Z" id="Fill-92" fill="#FEFEFE" mask="url(#mask-4)"></path>
                <path d="M380.42145,68.8727541 L381.99495,60.2351224 L382.9632,60.2351224 L381.38895,68.8727541 L380.42145,68.8727541 Z" id="Fill-93" fill="#FEFEFE" mask="url(#mask-4)"></path>
                <path d="M386.93775,64.3837622 C386.93775,63.9088872 386.58825,63.6414892 386.07525,63.6414892 C385.15425,63.6414892 384.4665,64.5785059 384.23325,65.5027894 C385.749,65.5267579 386.93775,65.3080457 386.93775,64.3957465 L386.93775,64.3837622 Z M387.14775,68.5445361 C386.7285,68.7879657 386.04,69.0066778 385.2825,69.0066778 C383.79,69.0066778 383.1375,67.9355875 383.1375,66.6345499 C383.1375,64.8578882 384.396,62.8505302 386.21475,62.8505302 C387.288,62.8505302 387.87,63.5201489 387.87,64.371029 C387.87,65.9162453 386.2035,66.3177169 384.11625,66.2810152 C384.06975,66.537178 384.105,67.0847074 384.23325,67.4000424 C384.45525,67.9355875 384.90975,68.1917504 385.49175,68.1917504 C386.157,68.1917504 386.658,67.9850225 387.00825,67.7902788 L387.14775,68.5445361 Z" id="Fill-94" fill="#FEFEFE" mask="url(#mask-4)"></path>
                <path d="M388.360125,68.8727541 L389.047875,65.0774992 C389.188125,64.3105086 389.269125,63.5315339 389.327625,62.9847535 L390.178875,62.9847535 C390.143625,63.3974603 390.096375,63.799681 390.027375,64.2618227 L390.061875,64.2618227 C390.435375,63.4588795 391.030125,62.85068 391.786875,62.85068 C391.880625,62.85068 391.985625,62.8634132 392.066625,62.8746484 L391.880625,63.8723353 C391.810875,63.8603511 391.717875,63.8483669 391.612125,63.8483669 C390.784125,63.8483669 390.038625,64.9067239 389.793375,66.2691808 L389.327625,68.8727541 L388.360125,68.8727541 Z" id="Fill-95" fill="#FEFEFE" mask="url(#mask-4)"></path>
            </g>
        </g>
    </g>
</svg>