<?xml version="1.0" encoding="UTF-8" standalone="no"?>
<svg width="393px" height="70px" viewBox="0 0 393 70" version="1.1" xmlns="http://www.w3.org/2000/svg" xmlns:xlink="http://www.w3.org/1999/xlink">
    <!-- Generator: Sketch 3.8.3 (29802) - http://www.bohemiancoding.com/sketch -->
    <title>logo</title>
    <desc>Created with Sketch.</desc>
    <defs></defs>
    <g id="Page-1" stroke="none" stroke-width="1" fill="none" fill-rule="evenodd">
        <g id="logo" transform="translate(0.000000, -1.000000)">
            <g id="Group">
                <path d="M149.866369,26.4364989 L148.794619,25.5433739 C161.655618,10.7174995 179.875367,2.3221249 198.988242,2.3221249 L198.988242,3.75112484 C180.232617,3.75112484 162.370118,12.1464995 149.866369,26.4364989 L149.866369,26.4364989 Z" id="Shape" fill="#FFE512"></path>
                <path d="M192.914992,5.53737476 C209.348491,5.53737476 223.817115,13.0396244 234.891865,25.9006239 L241.85824,25.9006239 C230.06899,12.1464995 210.598866,1.60762493 192.914992,1.60762493 L192.914992,5.53737476 L192.914992,5.53737476 Z" id="Shape" fill="#FFFFFF"></path>
                <path d="M11.6106245,32.5097486 C13.3968744,33.5814986 15.3617493,34.8318735 17.3266243,35.9036235 C19.2914992,37.1539984 20.7204991,38.5829984 21.7922491,40.1906233 C22.863999,41.7982482 23.221249,43.4058731 23.221249,45.1921231 C23.221249,46.621123 22.863999,47.871498 22.328124,48.9432479 C21.4349991,50.7294978 20.0059991,52.1584978 18.0411242,53.2302477 C16.0762493,54.3019977 13.9327494,54.8378727 11.7892495,54.8378727 C8.93124962,54.8378727 6.43049973,53.9447477 4.28699982,52.1584978 C2.14349991,50.3722478 0.893124962,48.0501229 0.535874977,45.1921231 L4.82287479,44.2989981 C4.82287479,46.085248 5.53737476,47.692873 6.9663747,48.9432479 C8.39537464,50.1936229 10.1816246,50.9081228 12.1464995,50.9081228 C13.5754994,50.9081228 15.0044994,50.3722478 16.0762493,49.3004979 C17.1479993,48.2287479 17.6838742,46.978373 17.6838742,45.727998 C17.6838742,44.6562481 17.3266243,43.7631231 16.4334993,42.8699982 C15.7189993,41.9768732 14.4686244,41.0837482 12.8609995,40.0119983 C11.4319995,39.1188733 9.82437458,38.2257484 8.39537464,37.5112484 L7.32362469,36.7967484 C5.71599976,35.9036235 4.46562481,34.8318735 3.57249985,33.7601236 C2.14349991,32.1524986 1.42899994,30.3662487 1.42899994,28.4013738 C1.42899994,26.2578739 2.3221249,24.471624 4.10837482,22.685374 C5.53737476,21.2563741 7.85949966,20.7204991 10.8961245,20.7204991 C11.7892495,20.7204991 13.2182494,21.0777491 14.8258744,21.6136241 C16.4334993,22.1494991 17.5052493,22.506749 18.0411242,22.506749 C19.1128742,22.506749 19.6487492,21.9708741 20.0059991,20.8991241 L21.0777491,20.8991241 L22.1494991,31.7952486 L20.8991241,31.7952486 C20.1846241,29.2944987 19.1128742,27.1509988 17.6838742,25.7219989 C15.8976243,23.935749 13.9327494,23.042624 11.4319995,23.042624 C9.64574959,23.042624 8.39537464,23.399874 7.68087467,23.935749 C6.78774971,24.6502489 6.25187473,25.7219989 6.25187473,26.9723738 C6.25187473,28.2227488 6.60912472,29.1158738 7.50224968,29.8303737 C8.57399963,30.7234987 9.64574959,31.6166236 10.7174995,32.5097486 L11.6106245,32.5097486 L11.6106245,32.5097486 Z" id="Shape" fill="#FFFFFF"></path>
                <path d="M50.9081228,43.2272482 C50.5508728,46.442498 49.3004979,49.3004979 46.799748,51.4439978 C44.4776231,53.5874977 41.4409982,54.6592477 38.2257484,54.6592477 C34.6532485,54.6592477 31.6166236,53.4088727 29.1158738,51.0867478 C26.6151239,48.5859979 25.3647489,45.5493731 25.3647489,41.9768732 C25.3647489,38.4043734 26.6151239,35.5463735 29.1158738,33.0456236 C31.6166236,30.5448737 34.6532485,29.2944987 38.0471234,29.2944987 C41.4409982,29.2944987 44.4776231,30.5448737 46.978373,33.0456236 C49.4791229,35.5463735 50.7294978,38.5829984 50.7294978,41.9768732 C50.7294978,41.9768732 50.7294978,41.9768732 50.7294978,42.1554982 M46.085248,42.3341232 L46.085248,41.9768732 C46.085248,38.5829984 45.5493731,36.0822485 44.2989981,34.2959985 C42.5127482,32.8669986 40.5478733,32.1524986 38.2257484,32.1524986 C36.0822485,32.1524986 34.2959985,32.6883736 32.5097486,33.9387486 C31.2593737,35.7249985 30.5448737,38.4043734 30.5448737,41.9768732 C30.5448737,45.3707481 31.0807487,47.871498 32.3311236,49.8363729 C34.1173735,51.2653728 36.0822485,51.8012478 38.2257484,51.8012478 C40.5478733,51.8012478 42.6913732,51.0867478 44.4776231,49.4791229 C45.3707481,47.871498 45.906623,45.906623 46.085248,43.2272482" id="Shape" fill="#FFFFFF"></path>
                <path d="M307.234987,43.2272482 C306.877737,46.442498 305.627362,49.3004979 303.126612,51.4439978 C300.804487,53.5874977 297.767862,54.6592477 294.552612,54.6592477 C290.980113,54.6592477 287.943488,53.4088727 285.442738,51.0867478 C282.941988,48.5859979 281.691613,45.5493731 281.691613,41.9768732 C281.691613,38.4043734 282.941988,35.5463735 285.442738,33.0456236 C287.943488,30.5448737 290.980113,29.2944987 294.373987,29.2944987 C297.946487,29.2944987 300.804487,30.5448737 303.305237,33.0456236 C305.805987,35.5463735 307.056362,38.5829984 307.056362,41.9768732 C307.056362,41.9768732 307.056362,41.9768732 307.056362,42.1554982 M302.412112,42.3341232 L302.412112,41.9768732 C302.412112,38.5829984 301.876237,36.0822485 300.625862,34.2959985 C298.839612,32.8669986 296.874737,32.1524986 294.552612,32.1524986 C292.409113,32.1524986 290.622863,32.6883736 288.836613,33.9387486 C287.586238,35.7249985 286.871738,38.4043734 286.871738,41.9768732 C286.871738,45.3707481 287.407613,47.871498 288.657988,49.8363729 C290.444238,51.2653728 292.409113,51.8012478 294.552612,51.8012478 C296.874737,51.8012478 299.018237,51.0867478 300.804487,49.4791229 C301.697612,47.871498 302.233487,45.906623 302.412112,43.2272482" id="Shape" fill="#FFFFFF"></path>
                <path d="M70.914122,40.0119983 L70.914122,29.4731237 L72.7003719,29.2944987 L72.7003719,40.0119983 L72.7003719,40.9051233 L72.7003719,45.0134981 C72.7003719,47.871498 71.8072469,50.0149979 70.020997,51.9798728 C68.2347471,53.7661227 65.9126222,54.6592477 63.0546223,54.6592477 C60.1966224,54.6592477 58.0531225,53.7661227 56.2668726,51.8012478 C54.6592477,50.0149979 53.9447477,47.692873 53.9447477,44.8348731 L53.9447477,33.0456236 C53.9447477,31.6166236 53.7661227,30.9021237 53.2302477,30.3662487 C52.8729977,30.0089987 51.8012478,29.6517487 50.5508728,29.6517487 L50.5508728,28.9372488 L57.6958725,28.9372488 L57.6958725,43.5844981 C57.6958725,48.7646229 59.6607475,51.4439978 63.7691223,51.4439978 C66.0912472,51.4439978 67.8774971,50.7294978 69.306497,49.1218729 C70.556872,47.692873 71.092747,45.906623 71.092747,43.7631231 L71.092747,40.5478733 L71.092747,40.0119983 L70.914122,40.0119983 Z" id="Shape" fill="#FFFFFF"></path>
                <path d="M92.884996,35.9036235 L91.9918711,35.9036235 C91.8132461,34.8318735 91.6346211,34.2959985 91.4559961,33.9387486 C91.2773711,33.7601236 91.0987461,33.4028736 90.7414961,33.2242486 C90.2056211,32.8669986 89.1338712,32.5097486 87.5262463,32.3311236 L85.7399963,32.3311236 C85.5613713,32.3311236 85.7399963,32.1524986 85.7399963,32.5097486 L85.7399963,34.1173735 L85.7399963,54.4806227 L78.5949966,54.4806227 L78.5949966,53.7661227 C80.2026216,53.5874977 81.0957465,53.4088727 81.6316215,52.8729977 C81.9888715,52.5157478 82.1674965,51.4439978 82.1674965,49.8363729 L82.1674965,33.9387486 L82.1674965,33.0456236 L82.1674965,32.3311236 L75.3797468,32.3311236 L75.3797468,29.4731237 L86.4544963,29.4731237 L87.5262463,29.4731237 L92.527746,29.4731237 L92.884996,35.9036235 L92.884996,35.9036235 Z" id="Shape" fill="#FFFFFF"></path>
                <path d="M113.962745,39.4761233 L113.962745,38.5829984 L113.962745,37.5112484 L113.962745,29.4731237 L121.28637,29.4731237 L121.28637,30.1876237 C119.85737,30.3662487 118.964245,30.5448737 118.606995,30.9021237 C118.249745,31.2593737 117.892495,32.1524986 117.892495,33.5814986 L117.892495,37.5112484 L117.892495,38.4043734 L117.892495,50.3722478 C117.892495,51.6226228 118.07112,52.5157478 118.606995,53.0516227 C118.964245,53.4088727 119.85737,53.7661227 121.28637,53.7661227 L121.28637,54.4806227 L113.962745,54.4806227 L113.962745,42.5127482 L103.959746,42.5127482 L103.066621,42.5127482 L102.352121,42.5127482 L102.352121,54.4806227 L95.2071209,54.4806227 L95.2071209,53.7661227 C96.6361209,53.5874977 97.7078708,53.2302477 98.0651208,52.8729977 C98.4223708,52.5157478 98.6009958,51.4439978 98.6009958,49.8363729 L98.6009958,33.4028736 C98.6009958,31.9738736 98.4223708,31.2593737 97.8864958,30.7234987 C97.5292458,30.3662487 96.6361209,30.0089987 95.2071209,30.0089987 L95.2071209,29.2944987 L102.352121,29.2944987 L102.352121,39.2974983 L103.066621,39.2974983" id="Shape" fill="#FFFFFF"></path>
                <path d="M171.122743,54.4806227 L165.049493,54.4806227 L156.654118,43.5844981 L155.939618,43.5844981 L154.689243,43.5844981 L153.974743,43.5844981 L153.974743,54.4806227 L146.829744,54.4806227 L146.829744,53.7661227 C148.258744,53.5874977 149.151869,53.4088727 149.509119,52.8729977 C149.866369,52.3371228 150.044994,51.4439978 150.044994,49.8363729 L150.044994,29.4731237 L154.510618,29.4731237 L155.403743,29.4731237 C157.904493,29.4731237 159.869368,30.0089987 161.119743,30.7234987 C163.441868,31.9738736 164.513618,33.9387486 164.513618,36.6181234 C164.513618,38.0471234 164.156368,39.4761233 163.441868,40.5478733 C162.727368,41.6196232 161.655618,42.5127482 160.405243,43.0486232 L167.728868,52.1584978 C168.621993,53.2302477 169.693743,53.7661227 170.944118,53.9447477 L170.944118,54.4806227 L171.122743,54.4806227 Z M161.655618,36.6181234 C161.655618,33.7601236 160.047993,32.3311236 153.974743,32.3311236 L153.974743,41.2623732 C155.760993,41.2623732 158.976243,40.9051233 159.869368,40.3692483 C161.119743,39.4761233 161.655618,38.4043734 161.655618,36.6181234 L161.655618,36.6181234 Z" id="Shape" fill="#FFFFFF"></path>
                <path d="M374.755234,54.4806227 L368.681984,54.4806227 L360.28661,43.5844981 L359.57211,43.5844981 L358.321735,43.5844981 L357.607235,43.5844981 L357.607235,54.4806227 L350.462235,54.4806227 L350.462235,53.7661227 C351.891235,53.5874977 352.78436,53.4088727 353.14161,52.8729977 C353.49886,52.3371228 353.677485,51.4439978 353.677485,49.8363729 L353.677485,29.4731237 L358.14311,29.4731237 L359.036235,29.4731237 C361.536985,29.4731237 363.501859,30.0089987 364.752234,30.7234987 C367.074359,31.9738736 368.146109,33.9387486 368.146109,36.6181234 C368.146109,38.0471234 367.788859,39.4761233 367.074359,40.5478733 C366.359859,41.6196232 365.288109,42.5127482 364.037734,43.0486232 L371.361359,52.1584978 C372.254484,53.2302477 373.326234,53.7661227 374.576609,53.9447477 L374.576609,54.4806227 L374.755234,54.4806227 Z M357.42861,41.0837482 C359.21486,41.0837482 362.43011,40.7264983 363.323234,40.1906233 C364.573609,39.4761233 365.288109,38.2257484 365.288109,36.6181234 C365.288109,33.7601236 363.680484,32.3311236 357.607235,32.3311236 L357.42861,41.0837482 Z" id="Shape" fill="#FFFFFF"></path>
                <path d="M172.908993,49.8363729 L172.908993,49.3004979 L172.908993,48.7646229 L172.908993,27.3296238 L182.554742,37.5112484 L192.021867,46.799748 L192.021867,29.2944987 L198.630992,29.2944987 L198.630992,30.0089987 C197.201992,30.1876237 196.130242,30.5448737 195.772992,31.0807487 C195.415742,31.4379987 195.237117,31.9738736 195.237117,32.5097486 L195.237117,55.1951226 L191.307367,51.6226228 L176.124242,37.5112484 L176.124242,49.6577479 L176.124242,50.5508728 L176.124242,53.2302477 C176.660117,53.4088727 177.374617,53.5874977 178.089117,53.7661227 L178.089117,54.4806227 L169.157868,54.4806227 L169.157868,53.7661227 C170.765493,53.5874977 171.837243,53.2302477 172.194493,52.6943727 C172.551743,52.3371228 172.730368,51.6226228 172.730368,50.7294978" id="Shape" fill="#FFFFFF"></path>
                <path d="M234.891865,47.335623 L232.92699,54.6592477 L213.456866,54.6592477 L213.456866,41.9768732 L213.456866,40.9051233 L213.456866,30.7234987 C213.456866,29.2944987 213.278241,28.2227488 212.742366,27.6868738 C212.206491,27.1509988 211.313366,26.9723738 209.705741,26.7937489 L209.705741,25.9006239 L232.56974,25.9006239 L232.748365,32.1524986 L231.676615,32.1524986 C231.319365,30.0089987 230.604865,28.7586238 229.71174,28.2227488 C228.99724,27.8654988 227.56824,27.6868738 225.246115,27.6868738 L219.351491,27.6868738 C218.636991,27.6868738 218.279741,27.8654988 218.101116,28.0441238 C217.922491,28.2227488 217.922491,28.5799988 217.922491,29.1158738 L217.922491,36.9753734 L218.636991,36.9753734 L219.708741,36.9753734 L230.247615,36.9753734 L230.247615,44.6562481 L229.175865,44.6562481 C228.818615,42.8699982 228.461365,41.7982482 227.92549,41.2623732 C227.389615,40.7264983 226.13924,40.3692483 224.531615,40.3692483 L217.922491,40.3692483 L217.922491,41.9768732 L217.922491,51.2653728 L229.175865,51.2653728 C230.42624,51.0867478 231.14074,50.7294978 231.676615,50.3722478 C232.391115,49.8363729 233.105615,48.7646229 233.820115,47.335623 L234.891865,47.335623 L234.891865,47.335623 Z" id="Shape" fill="#FFFFFF"></path>
                <path d="M274.010738,70.735497 L267.222989,70.735497 L248.110114,44.2989981 L241.85824,54.6592477 L238.28574,54.6592477 L246.145239,41.4409982 L245.78799,41.0837482 L245.252115,40.1906233 L242.394115,36.0822485 C240.78649,33.7601236 239.893365,32.5097486 239.71474,32.3311236 C238.464365,30.9021237 237.21399,30.3662487 235.78499,30.1876237 L235.78499,29.4731237 L242.751365,29.4731237 L248.288739,38.2257484 L249.896364,35.7249985 L250.432239,34.8318735 L253.647489,29.4731237 L257.219989,29.4731237 L254.004739,34.8318735 L250.074989,41.0837482 L269.723738,67.1629971 C270.438238,68.2347471 271.152738,68.9492471 271.688613,69.306497 C272.224488,69.663747 272.938988,69.842372 274.010738,70.020997 L274.010738,70.735497 L274.010738,70.735497 Z M253.468864,35.5463735 L250.253614,40.9051233 L253.468864,35.5463735 Z" id="Shape" fill="#FFFFFF"></path>
                <path d="M264.364989,36.4394984 L264.364989,33.5814986 C264.364989,32.3311236 264.186364,31.4379987 263.829114,30.9021237 L263.471864,30.5448737 L262.935989,30.1876237 C262.578739,30.0089987 262.042864,30.0089987 261.149739,29.8303737 L261.149739,29.1158738 L262.935989,29.1158738 L263.829114,29.1158738 L269.723738,29.1158738 C273.474863,29.1158738 276.154238,29.8303737 277.761863,31.0807487 C279.190863,32.1524986 279.905363,34.1173735 279.905363,36.4394984 C279.905363,38.9402483 279.012238,40.9051233 277.225988,42.1554982 C275.618363,43.2272482 273.653488,43.7631231 270.974113,43.7631231 L268.116114,43.7631231 L268.116114,54.1233727 L264.364989,54.1233727 L264.364989,36.9753734 L264.364989,36.4394984 Z M276.868738,36.7967484 C276.868738,33.7601236 274.546613,32.3311236 269.902363,32.3311236 L268.116114,32.3311236 L268.116114,36.6181234 L268.116114,37.5112484 L268.116114,41.6196232 L270.080988,41.6196232 C274.725238,41.4409982 276.868738,39.8333733 276.868738,36.7967484 L276.868738,36.7967484 Z" id="Shape" fill="#FFFFFF"></path>
                <path d="M314.737237,41.4409982 C313.486862,40.5478733 312.593737,39.8333733 312.057862,39.2974983 C310.986112,38.2257484 310.450237,36.7967484 310.450237,35.3677485 C310.450237,33.7601236 311.164737,32.3311236 312.415112,31.0807487 C313.308237,30.0089987 315.094487,29.6517487 317.416611,29.6517487 C318.309736,29.6517487 319.381486,29.8303737 320.631861,30.3662487 C321.882236,30.7234987 322.418111,31.0807487 322.596736,31.0807487 C323.132611,31.0807487 323.311236,30.9021237 323.489861,30.7234987 C323.668486,30.5448737 323.847111,30.1876237 323.847111,29.8303737 L324.561611,29.8303737 L325.454736,37.8684984 L324.561611,37.8684984 C324.025736,36.0822485 323.311236,34.4746235 322.239486,33.4028736 C320.989111,32.1524986 319.381486,31.4379987 317.595236,31.4379987 C316.344861,31.4379987 315.451737,31.6166236 314.737237,32.1524986 C314.022737,32.6883736 313.665487,33.4028736 313.665487,34.2959985 C313.665487,35.1891235 314.022737,35.7249985 314.558612,36.4394984 C315.273112,37.1539984 316.166236,37.8684984 316.880736,38.4043734 L317.595236,38.9402483 C319.024236,39.8333733 320.453236,40.5478733 321.703611,41.4409982 C323.132611,42.3341232 324.204361,43.4058731 324.918861,44.4776231 C325.633361,45.5493731 325.990611,46.799748 325.990611,48.0501229 C325.990611,49.1218729 325.811986,50.0149979 325.454736,50.7294978 C324.740236,51.9798728 323.668486,53.0516227 322.239486,53.7661227 C320.810486,54.4806227 319.202861,55.0164977 317.595236,55.0164977 C315.451737,55.0164977 313.665487,54.3019977 312.057862,53.0516227 C310.450237,51.6226228 309.557112,50.0149979 309.199862,47.871498 L312.415112,47.156998 C312.415112,48.5859979 312.950987,49.6577479 314.022737,50.5508728 C315.094487,51.4439978 316.344861,51.9798728 317.773861,51.9798728 C318.845611,51.9798728 319.738736,51.6226228 320.631861,50.7294978 C321.524986,50.0149979 321.882236,49.1218729 321.882236,48.0501229 C321.882236,47.335623 321.524986,46.621123 320.989111,45.906623 C320.453236,45.3707481 319.560111,44.6562481 318.309736,43.9417481 C317.237986,43.2272482 316.166236,42.6913732 315.094487,41.9768732" id="Shape" fill="#FFFFFF"></path>
                <path d="M347.604235,40.0119983 L347.604235,29.4731237 L349.390485,29.2944987 L349.390485,40.0119983 L349.390485,40.9051233 L349.390485,45.0134981 C349.390485,47.692873 348.49736,50.0149979 346.71111,51.8012478 C344.92486,53.5874977 342.602735,54.4806227 339.744735,54.4806227 C336.886736,54.4806227 334.743236,53.5874977 333.135611,51.8012478 C331.527986,50.0149979 330.813486,47.692873 330.813486,45.0134981 L330.813486,33.4028736 C330.813486,32.1524986 330.634861,31.2593737 330.098986,30.9021237 C329.741736,30.5448737 328.848611,30.1876237 327.419611,30.1876237 L327.419611,29.4731237 L334.385986,29.4731237 L334.385986,44.1203731 C334.385986,49.3004979 336.350861,51.9798728 340.28061,51.9798728 C342.602735,51.9798728 344.388985,51.2653728 345.63936,49.6577479 C346.889735,48.2287479 347.42561,46.442498 347.42561,44.2989981 L347.42561,41.0837482" id="Shape" fill="#FFFFFF"></path>
                <path d="M392.974983,48.2287479 L391.367358,54.6592477 L374.755234,54.6592477 L374.755234,43.5844981 L374.755234,42.6913732 L374.755234,33.5814986 C374.755234,32.3311236 374.576609,31.4379987 374.040734,30.9021237 C373.683484,30.5448737 372.790359,30.1876237 371.539984,30.1876237 L371.539984,29.4731237 L391.010108,29.4731237 L391.188733,35.0104985 L390.295608,35.0104985 C389.938358,33.2242486 389.402483,31.9738736 388.687983,31.6166236 C388.152108,31.2593737 386.723108,31.0807487 384.758234,31.0807487 L379.756734,31.0807487 C379.220859,31.0807487 378.863609,31.2593737 378.684984,31.4379987 C378.506359,31.6166236 378.506359,31.9738736 378.506359,32.5097486 L378.506359,39.4761233 L379.220859,39.4761233 L380.113984,39.4761233 L389.223858,39.4761233 L389.223858,46.085248 L388.330733,46.085248 C387.973483,44.4776231 387.616233,43.5844981 387.258983,43.2272482 C386.723108,42.6913732 385.829984,42.5127482 384.222359,42.5127482 L378.506359,42.5127482 L378.506359,43.9417481 L378.506359,52.1584978 L387.973483,52.1584978 C389.045233,51.9798728 389.759733,51.6226228 390.116983,51.4439978 C390.831483,50.9081228 391.367358,50.0149979 391.903233,48.7646229 L392.974983,48.7646229 L392.974983,48.2287479 Z" id="Shape" fill="#FFFFFF"></path>
                <path d="M145.579369,48.2287479 L143.971744,54.6592477 L127.35962,54.6592477 L127.35962,43.5844981 L127.35962,42.6913732 L127.35962,33.7601236 C127.35962,32.5097486 127.180995,31.6166236 126.64512,31.0807487 C126.28787,30.7234987 125.394745,30.3662487 124.14437,30.3662487 L124.14437,29.6517487 L143.614494,29.6517487 L143.793119,35.1891235 L142.899994,35.1891235 C142.542744,33.4028736 142.006869,32.1524986 141.292369,31.7952486 C140.756494,31.4379987 139.327494,31.2593737 137.362619,31.2593737 L132.182494,31.2593737 C131.646619,31.2593737 131.289369,31.4379987 131.110744,31.6166236 C130.932119,31.7952486 130.932119,32.1524986 130.932119,32.6883736 L130.932119,39.6547483 L131.646619,39.6547483 L132.539744,39.6547483 L141.649619,39.6547483 L141.649619,46.263873 L140.756494,46.263873 C140.399244,44.6562481 140.041994,43.7631231 139.684744,43.4058731 C139.148869,42.8699982 138.255744,42.6913732 136.648119,42.6913732 L130.932119,42.6913732 L130.932119,44.1203731 L130.932119,52.3371228 L140.399244,52.3371228 C141.470994,52.1584978 142.185494,51.8012478 142.542744,51.6226228 C143.257244,51.0867478 143.793119,50.1936229 144.328994,48.9432479 L145.579369,48.9432479 L145.579369,48.2287479 Z" id="Shape" fill="#FFFFFF"></path>
                <g transform="translate(0.000000, 23.221249)" fill="#FFFFFF">
                    <path d="M75.5583718,15.5403743 L75.5583718,16.6121243 L70.914122,16.6121243 L70.378247,16.6121243 L70.378247,19.1128742 C70.378247,21.7922491 69.842372,23.935749 68.5919971,25.3647489 C67.6988721,26.4364989 66.2698722,27.1509988 64.4836222,27.8654988 L64.1263723,26.9723738 C65.7339972,26.4364989 66.9843721,25.7219989 67.6988721,24.8288739 C68.7706221,23.578499 69.485122,21.7922491 69.485122,19.2914992 L69.485122,16.7907493 L66.9843721,16.7907493 L66.9843721,15.7189993 L69.485122,15.7189993 L69.485122,8.93124962 L70.378247,8.93124962 L70.378247,15.5403743 L70.914122,15.5403743 L75.5583718,15.5403743 L75.5583718,15.5403743 Z" id="Shape"></path>
                    <path d="M352.06986,15.5403743 L352.06986,16.6121243 L347.42561,16.6121243 L346.889735,16.6121243 L346.889735,19.1128742 C346.889735,21.7922491 346.35386,23.935749 345.103485,25.3647489 C344.21036,26.4364989 342.78136,27.1509988 340.99511,27.8654988 L340.63786,26.9723738 C342.245485,26.4364989 343.49586,25.7219989 344.21036,24.8288739 C345.28211,23.578499 345.99661,21.7922491 345.99661,19.2914992 L345.99661,16.7907493 L343.49586,16.7907493 L343.49586,15.7189993 L345.99661,15.7189993 L345.99661,8.93124962 L346.889735,8.93124962 L346.889735,15.5403743 L347.42561,15.5403743 L352.06986,15.5403743 L352.06986,15.5403743 Z" id="Shape"></path>
                    <rect id="Rectangle-path" x="74.4866218" y="9.82437458" width="14.1113744" height="0.893124962"></rect>
                    <rect id="Rectangle-path" x="86.6331213" y="4.82287479" width="0.893124962" height="10.7174995"></rect>
                    <rect id="Rectangle-path" x="105.210121" y="14.1113744" width="18.5769992" height="0.893124962"></rect>
                    <rect id="Rectangle-path" x="125.57337" y="19.8273742" width="11.0747495" height="0.893124962"></rect>
                    <rect id="Rectangle-path" x="169.693743" y="26.6151239" width="11.0747495" height="1.07174995"></rect>
                    <rect id="Rectangle-path" x="132.003869" y="8.93124962" width="0.893124962" height="17.5052493"></rect>
                    <rect id="Rectangle-path" x="373.147609" y="19.8273742" width="11.0747495" height="0.893124962"></rect>
                    <rect id="Rectangle-path" x="379.578109" y="8.93124962" width="0.893124962" height="17.5052493"></rect>
                    <rect id="Rectangle-path" x="212.027866" y="18.3983742" width="11.0747495" height="0.893124962"></rect>
                    <rect id="Rectangle-path" x="218.815616" y="5.89462475" width="0.893124962" height="20.5418741"></rect>
                    <g transform="translate(175.052493, 14.289999)" id="Shape">
                        <polygon points="15.7189993 16.6121243 15.7189993 2.85799988 14.4686244 2.85799988 14.4686244 14.1113744 15.5403743 15.1831244"></polygon>
                        <polygon points="15.5403743 15.1831244 14.4686244 14.1113744 0.893124962 1.60762493 0.178624992 2.3221249 15.7189993 16.7907493"></polygon>
                    </g>
                    <rect id="Rectangle-path" transform="translate(253.395110, 14.684368) rotate(-58.781746) translate(-253.395110, -14.684368) " x="243.927976" y="14.1484922" width="18.9342675" height="1.07175099"></rect>
                    <rect id="Rectangle-path" transform="translate(241.029750, 24.278495) rotate(-59.316289) translate(-241.029750, -24.278495) " x="231.65191" y="23.742618" width="18.7556813" height="1.07175322"></rect>
                    <g transform="translate(153.617493, 3.572500)" id="Shape">
                        <polygon points="1.25037495 25.3647489 2.14349991 25.3647489 2.14349991 18.3983742 1.25037495 17.1479993"></polygon>
                        <polygon points="2.14349991 16.9693743 2.14349991 1.25037495 1.25037495 1.25037495 1.25037495 16.7907493 1.78624992 16.4334993"></polygon>
                        <path d="M1.25037495,17.1479993 L1.25037495,16.7907493"></path>
                        <polygon points="11.2533745 28.5799988 2.14349991 16.9693743 2.14349991 18.3983742 10.5388745 29.1158738"></polygon>
                        <polygon points="1.78624992 16.4334993 1.25037495 16.7907493 1.25037495 17.1479993 2.14349991 18.3983742 2.14349991 16.9693743"></polygon>
                    </g>
                    <g transform="translate(357.249985, 3.572500)" id="Shape">
                        <polygon points="1.07174995 25.9006239 1.96487492 25.9006239 1.96487492 18.9342492 1.07174995 17.8624992"></polygon>
                        <polygon points="1.96487492 17.1479993 1.96487492 1.25037495 1.07174995 1.25037495 1.07174995 16.9693743 1.60762493 16.6121243"></polygon>
                        <path d="M1.07174995,17.8624992 L1.07174995,17.3266243"></path>
                        <polygon points="10.8961245 28.9372488 1.96487492 17.5052493 1.96487492 18.9342492 10.1816246 29.4731237"></polygon>
                        <polygon points="1.60762493 16.9693743 1.07174995 17.3266243 1.07174995 17.8624992 1.96487492 18.9342492 1.96487492 17.5052493"></polygon>
                    </g>
                    <rect id="Rectangle-path" x="103.245246" y="6.25187473" width="0.893124962" height="18.5769992"></rect>
                    <path d="M16.4334993,2.14349991 L16.4334993,2.14349991 L15.5403743,1.25037495 L7.14499969,13.9327494 L6.9663747,13.9327494 C4.82287479,12.6823745 3.39387486,11.4319995 2.50074989,10.3602496 L1.42899994,11.0747495 C2.3221249,12.3251245 3.92974983,13.7541244 6.25187473,15.0044994 L6.43049973,15.0044994 L4.6442498,17.6838742 L5.71599976,18.3983742 L7.50224968,15.7189993 C9.10987461,16.6121243 10.7174995,17.6838742 12.3251245,18.5769992 C14.1113744,19.6487492 15.0044994,20.5418741 15.5403743,21.4349991 C15.7189993,21.7922491 15.7189993,22.1494991 15.7189993,22.328124 C15.7189993,22.863999 15.5403743,23.399874 15.1831244,23.935749 C14.2899994,24.6502489 13.5754994,25.1861239 13.0396244,25.0074989 L12.8609995,26.2578739 C13.9327494,26.4364989 15.0044994,25.9006239 16.0762493,24.471624 C16.6121243,23.757124 16.9693743,23.042624 16.9693743,22.1494991 C16.9693743,21.6136241 16.7907493,21.0777491 16.6121243,20.5418741 C16.2548743,19.6487492 15.3617493,18.7556242 13.9327494,17.8624992 C13.2182494,17.3266243 11.7892495,16.4334993 9.82437458,15.3617493 L8.03812466,14.2899994 L15.7189993,2.85799988 C16.2548743,3.39387486 16.9693743,4.10837482 17.5052493,5.18012478 C18.2197492,6.43049973 18.5769992,7.32362469 18.5769992,8.03812466 L19.8273742,7.85949966 C19.1128742,5.53737476 17.6838742,3.57249985 16.4334993,2.14349991 L16.4334993,2.14349991 Z" id="Shape"></path>
                    <path d="M320.810486,9.4671246 L320.810486,9.4671246 L320.095986,8.75262463 L313.665487,18.3983742 L313.665487,18.3983742 C312.057862,17.3266243 310.807487,16.4334993 310.271612,15.5403743 L309.378487,16.0762493 C310.092987,17.1479993 311.343362,18.0411242 313.129612,19.1128742 L313.308237,19.1128742 L311.879237,21.2563741 L312.772362,21.7922491 L314.201362,19.6487492 C315.451737,20.3632491 316.702111,21.0777491 317.952486,21.7922491 C319.202861,22.685374 320.095986,23.399874 320.453236,23.935749 C320.631861,24.114374 320.631861,24.471624 320.631861,24.6502489 C320.631861,25.0074989 320.453236,25.3647489 320.274611,25.9006239 C319.738736,26.6151239 319.202861,26.9723738 318.666986,26.7937489 L318.488361,27.6868738 C319.381486,27.8654988 320.274611,27.3296238 320.989111,26.4364989 C321.346361,25.9006239 321.703611,25.3647489 321.703611,24.6502489 C321.703611,24.292999 321.524986,23.935749 321.346361,23.399874 C320.989111,22.685374 320.453236,22.1494991 319.381486,21.4349991 C318.845611,21.0777491 317.773861,20.3632491 316.166236,19.4701242 L314.915862,18.7556242 L320.810486,10.0029996 C321.346361,10.3602496 321.703611,11.0747495 322.239486,11.7892495 C322.775361,12.6823745 323.132611,13.3968744 323.132611,13.9327494 L324.025736,13.7541244 C322.953986,11.9678745 321.882236,10.5388745 320.810486,9.4671246 L320.810486,9.4671246 Z" id="Shape"></path>
                    <rect id="Rectangle-path" x="249.181864" y="11.0747495" width="8.39537464" height="1.25037495"></rect>
                    <rect id="Rectangle-path" x="262.578739" y="16.2548743" width="8.39537464" height="1.25037495"></rect>
                    <rect id="Rectangle-path" x="265.615364" y="4.82287479" width="1.25037495" height="28.2227488"></rect>
                    <path d="M51.6226228,18.3983742 L51.6226228,19.2914992 L45.1921231,19.2914992 C44.8348731,22.506749 44.4776231,24.6502489 43.7631231,25.5433739 C42.3341232,26.9723738 40.3692483,27.8654988 37.5112484,27.8654988 C36.9753734,27.8654988 36.4394984,27.8654988 35.7249985,27.6868738 L35.9036235,26.7937489 C36.4394984,26.7937489 36.9753734,26.9723738 37.5112484,26.9723738 C40.0119983,26.9723738 41.7982482,26.2578739 43.0486232,25.0074989 C43.5844981,24.292999 44.1203731,22.506749 44.2989981,19.4701242 L36.4394984,19.4701242 L36.4394984,18.5769992 L44.2989981,18.5769992 L44.2989981,15.8976243 L45.1921231,15.7189993 C45.1921231,16.4334993 45.3707481,17.5052493 45.1921231,18.5769992 L51.6226228,18.3983742 L51.6226228,18.3983742 Z" id="Shape"></path>
                    <path d="M308.128112,18.5769992 L308.128112,19.4701242 L301.697612,19.4701242 C301.340362,22.685374 300.983112,24.8288739 300.268612,25.7219989 C298.839612,27.1509988 296.874737,28.0441238 294.016737,28.0441238 C293.480862,28.0441238 292.944987,28.0441238 292.230488,27.8654988 L292.409113,26.9723738 C292.944987,26.9723738 293.480862,27.1509988 294.016737,27.1509988 C296.517487,27.1509988 298.303737,26.4364989 299.554112,25.1861239 C300.089987,24.471624 300.625862,22.685374 300.804487,19.6487492 L292.944987,19.6487492 L292.944987,18.7556242 L300.804487,18.7556242 L300.804487,16.0762493 L301.697612,15.8976243 C301.697612,16.6121243 301.876237,17.6838742 301.697612,18.7556242 L308.128112,18.5769992 L308.128112,18.5769992 Z" id="Shape"></path>
                </g>
                <polygon id="Shape" fill="#FFE512" points="0.893124962 57.8744975 0.893124962 59.1248725 255.969614 59.1248725 255.076489 57.8744975"></polygon>
                <polygon id="Shape" fill="#FFE512" points="265.436739 57.8744975 266.329864 59.1248725 392.439108 59.1248725 392.439108 57.8744975"></polygon>
            </g>
        </g>
    </g>
</svg>