<?xml version="1.0" encoding="utf-8"?>
<!-- Generator: Adobe Illustrator 19.2.1, SVG Export Plug-In . SVG Version: 6.00 Build 0)  -->
<svg version="1.1" id="Layer_1" xmlns="http://www.w3.org/2000/svg" xmlns:xlink="http://www.w3.org/1999/xlink" x="0px" y="0px"
	 viewBox="0 0 220 47" enable-background="new 0 0 220 47" xml:space="preserve">
<g>
	<path fill="#FFE512" d="M83.9,17.8l-0.6-0.5c7.2-8.3,17.4-13,28.1-13v0.8C100.9,5.1,90.9,9.8,83.9,17.8z"/>
	<path fill="#FFFFFF" d="M108,6.1c9.2,0,17.3,4.2,23.5,11.4l3.9,0C128.8,9.8,117.9,3.9,108,3.9V6.1z"/>
	<path fill="#FFFFFF" d="M6.5,21.2c1,0.6,2.1,1.3,3.2,1.9c1.1,0.7,1.9,1.5,2.5,2.4c0.6,0.9,0.8,1.8,0.8,2.8c0,0.8-0.2,1.5-0.5,2.1
		c-0.5,1-1.3,1.8-2.4,2.4c-1.1,0.6-2.3,0.9-3.5,0.9c-1.6,0-3-0.5-4.2-1.5c-1.2-1-1.9-2.3-2.1-3.9l2.4-0.5c0,1,0.4,1.9,1.2,2.6
		c0.8,0.7,1.8,1.1,2.9,1.1c0.8,0,1.6-0.3,2.2-0.9c0.6-0.6,0.9-1.3,0.9-2c0-0.6-0.2-1.1-0.7-1.6c-0.4-0.5-1.1-1-2-1.6
		c-0.8-0.5-1.7-1-2.5-1.4l-0.6-0.4c-0.9-0.5-1.6-1.1-2.1-1.7c-0.8-0.9-1.2-1.9-1.2-3c0-1.2,0.5-2.2,1.5-3.2c0.8-0.8,2.1-1.1,3.8-1.1
		c0.5,0,1.3,0.2,2.2,0.5c0.9,0.3,1.5,0.5,1.8,0.5c0.6,0,0.9-0.3,1.1-0.9h0.6l0.6,6.1h-0.7c-0.4-1.4-1-2.6-1.8-3.4
		c-1-1-2.1-1.5-3.5-1.5c-1,0-1.7,0.2-2.1,0.5c-0.5,0.4-0.8,1-0.8,1.7c0,0.7,0.2,1.2,0.7,1.6c0.6,0.5,1.2,1,1.8,1.5L6.5,21.2z"/>
	<path fill="#FFFFFF" d="M28.5,27.2c-0.2,1.8-0.9,3.4-2.3,4.6c-1.3,1.2-3,1.8-4.8,1.8c-2,0-3.7-0.7-5.1-2c-1.4-1.4-2.1-3.1-2.1-5.1
		c0-2,0.7-3.6,2.1-5c1.4-1.4,3.1-2.1,5-2.1c1.9,0,3.6,0.7,5,2.1c1.4,1.4,2.1,3.1,2.1,5c0,0,0,0,0,0.1 M25.8,26.7v-0.2
		c0-1.9-0.3-3.3-1-4.3c-1-0.8-2.1-1.2-3.4-1.2c-1.2,0-2.2,0.3-3.2,1c-0.7,1-1.1,2.5-1.1,4.5c0,1.9,0.3,3.3,1,4.4
		c1,0.8,2.1,1.1,3.3,1.1c1.3,0,2.5-0.4,3.5-1.3c0.5-0.9,0.8-2,0.9-3.5"/>
	<path fill="#FFFFFF" d="M172,27.2c-0.2,1.8-0.9,3.4-2.3,4.6c-1.3,1.2-3,1.8-4.8,1.8c-2,0-3.7-0.7-5.1-2c-1.4-1.4-2.1-3.1-2.1-5.1
		c0-2,0.7-3.6,2.1-5c1.4-1.4,3.1-2.1,5-2.1c2,0,3.6,0.7,5,2.1c1.4,1.4,2.1,3.1,2.1,5c0,0,0,0,0,0.1 M169.3,26.7v-0.2
		c0-1.9-0.3-3.3-1-4.3c-1-0.8-2.1-1.2-3.4-1.2c-1.2,0-2.2,0.3-3.2,1c-0.7,1-1.1,2.5-1.1,4.5c0,1.9,0.3,3.3,1,4.4
		c1,0.8,2.1,1.1,3.3,1.1c1.3,0,2.5-0.4,3.5-1.3c0.5-0.9,0.8-2,0.9-3.5"/>
	<path fill="#FFFFFF" d="M39.7,25.4v-5.9l1-0.1v6v0.5v2.3c0,1.6-0.5,2.8-1.5,3.9c-1,1-2.3,1.5-3.9,1.5c-1.6,0-2.8-0.5-3.8-1.6
		c-0.9-1-1.3-2.3-1.3-3.9v-6.6c0-0.8-0.1-1.2-0.4-1.5c-0.2-0.2-0.8-0.4-1.5-0.4v-0.4h4v8.2c0,2.9,1.1,4.4,3.4,4.4
		c1.3,0,2.3-0.4,3.1-1.3c0.7-0.8,1-1.8,1-3v-1.8V25.4z"/>
	<path fill="#FFFFFF" d="M52,23.1h-0.5c-0.1-0.6-0.2-0.9-0.3-1.1c-0.1-0.1-0.2-0.3-0.4-0.4c-0.3-0.2-0.9-0.4-1.8-0.5c0,0-0.9,0-1,0
		c-0.1,0,0-0.1,0,0.1c0,0.3,0,0.9,0,0.9v11.4H44v-0.4c0.9-0.1,1.4-0.2,1.7-0.5c0.2-0.2,0.3-0.8,0.3-1.7v-8.9v-0.5v-0.4h-3.8v-1.6
		h6.2H49h2.8L52,23.1z"/>
	<path fill="#FFFFFF" d="M63.8,25.1v-0.5V24v-4.5h4.1v0.4c-0.8,0.1-1.3,0.2-1.5,0.4c-0.2,0.2-0.4,0.7-0.4,1.5V24v0.5v6.7
		c0,0.7,0.1,1.2,0.4,1.5c0.2,0.2,0.7,0.4,1.5,0.4v0.4h-4.1v-6.7h-5.6h-0.5h-0.4v6.7h-4v-0.4c0.8-0.1,1.4-0.3,1.6-0.5
		c0.2-0.2,0.3-0.8,0.3-1.7v-9.2c0-0.8-0.1-1.2-0.4-1.5c-0.2-0.2-0.7-0.4-1.5-0.4v-0.4h4v5.6h0.4"/>
	<path fill="#FFFFFF" d="M95.8,33.5h-3.4l-4.7-6.1h-0.4h-0.7h-0.4v6.1h-4v-0.4c0.8-0.1,1.3-0.2,1.5-0.5c0.2-0.3,0.3-0.8,0.3-1.7
		V19.5h2.5l0.5,0c1.4,0,2.5,0.3,3.2,0.7c1.3,0.7,1.9,1.8,1.9,3.3c0,0.8-0.2,1.6-0.6,2.2c-0.4,0.6-1,1.1-1.7,1.4l4.1,5.1
		c0.5,0.6,1.1,0.9,1.8,1V33.5z M90.5,23.5c0-1.6-0.9-2.4-4.3-2.4v5c1,0,2.8-0.2,3.3-0.5C90.2,25.1,90.5,24.5,90.5,23.5z"/>
	<path fill="#FFFFFF" d="M209.8,33.5h-3.4l-4.7-6.1h-0.4h-0.7h-0.4v6.1h-4v-0.4c0.8-0.1,1.3-0.2,1.5-0.5c0.2-0.3,0.3-0.8,0.3-1.7
		V19.5h2.5l0.5,0c1.4,0,2.5,0.3,3.2,0.7c1.3,0.7,1.9,1.8,1.9,3.3c0,0.8-0.2,1.6-0.6,2.2c-0.4,0.6-1,1.1-1.7,1.4l4.1,5.1
		c0.5,0.6,1.1,0.9,1.8,1V33.5z M200.1,26c1,0,2.8-0.2,3.3-0.5c0.7-0.4,1.1-1.1,1.1-2c0-1.6-0.9-2.4-4.3-2.4"/>
	<path fill="#FFFFFF" d="M96.8,30.9c0,0,0-0.1,0-0.3c0-0.1,0-0.2,0-0.3v-12l5.4,5.7l5.3,5.2l0-9.8h3.7v0.4c-0.8,0.1-1.4,0.3-1.6,0.6
		c-0.2,0.2-0.3,0.5-0.3,0.8v12.7l-2.2-2L98.6,24v6.8v0.5v1.5c0.3,0.1,0.7,0.2,1.1,0.3v0.4h-5v-0.4c0.9-0.1,1.5-0.3,1.7-0.6
		c0.2-0.2,0.3-0.6,0.3-1.1"/>
	<path fill="#FFFFFF" d="M131.5,29.5l-1.1,4.1h-10.9v-7.1v-0.6v-5.7c0-0.8-0.1-1.4-0.4-1.7c-0.3-0.3-0.8-0.4-1.7-0.5v-0.5h12.8
		l0.1,3.5h-0.6c-0.2-1.2-0.6-1.9-1.1-2.2c-0.4-0.2-1.2-0.3-2.5-0.3h-3.3c-0.4,0-0.6,0.1-0.7,0.2c-0.1,0.1-0.1,0.3-0.1,0.6v4.4h0.4
		h0.6h5.9V28h-0.6c-0.2-1-0.4-1.6-0.7-1.9c-0.3-0.3-1-0.5-1.9-0.5H122l0,0.9v5.2h6.3c0.7-0.1,1.1-0.3,1.4-0.5
		c0.4-0.3,0.8-0.9,1.2-1.7H131.5z"/>
	<path fill="#FFFFFF" d="M153.4,42.6h-3.8l-10.7-14.8l-3.5,5.8h-2l4.4-7.4l-0.2-0.2l-0.3-0.5l-1.6-2.3c-0.9-1.3-1.4-2-1.5-2.1
		c-0.7-0.8-1.4-1.1-2.2-1.2v-0.4h3.9l3.1,4.9l0.9-1.4l0.3-0.5l1.8-3h2l-1.8,3L140,26l11,14.6c0.4,0.6,0.8,1,1.1,1.2
		c0.3,0.2,0.7,0.3,1.3,0.4V42.6z M141.9,22.9l-1.8,3"/>
	<path fill="#FFFFFF" d="M148,23.4v-1.6c0-0.7-0.1-1.2-0.3-1.5l-0.2-0.2l-0.3-0.2c-0.2-0.1-0.5-0.1-1-0.2v-0.4h1h0.5h3.3
		c2.1,0,3.6,0.4,4.5,1.1c0.8,0.6,1.2,1.7,1.2,3c0,1.4-0.5,2.5-1.5,3.2c-0.9,0.6-2,0.9-3.5,0.9h-1.6v5.8H148v-9.6 M155,23.6
		c0-1.7-1.3-2.5-3.9-2.5h-1v2.4v0.5v2.3h1.1C153.8,26.2,155,25.3,155,23.6z"/>
	<path fill="#FFFFFF" d="M176.2,26.2c-0.7-0.5-1.2-0.9-1.5-1.2c-0.6-0.6-0.9-1.4-0.9-2.2c0-0.9,0.4-1.7,1.1-2.4
		c0.5-0.6,1.5-0.8,2.8-0.8c0.5,0,1.1,0.1,1.8,0.4c0.7,0.2,1,0.4,1.1,0.4c0.3,0,0.4-0.1,0.5-0.2c0.1-0.1,0.2-0.3,0.2-0.5h0.4l0.5,4.5
		h-0.5c-0.3-1-0.7-1.9-1.3-2.5c-0.7-0.7-1.6-1.1-2.6-1.1c-0.7,0-1.2,0.1-1.6,0.4c-0.4,0.3-0.6,0.7-0.6,1.2c0,0.5,0.2,0.8,0.5,1.2
		c0.4,0.4,0.9,0.8,1.3,1.1l0.4,0.3c0.8,0.5,1.6,0.9,2.3,1.4c0.8,0.5,1.4,1.1,1.8,1.7c0.4,0.6,0.6,1.3,0.6,2c0,0.6-0.1,1.1-0.3,1.5
		c-0.4,0.7-1,1.3-1.8,1.7c-0.8,0.4-1.7,0.7-2.6,0.7c-1.2,0-2.2-0.4-3.1-1.1c-0.9-0.8-1.4-1.7-1.6-2.9l1.8-0.4c0,0.8,0.3,1.4,0.9,1.9
		c0.6,0.5,1.3,0.8,2.1,0.8c0.6,0,1.1-0.2,1.6-0.7c0.5-0.4,0.7-0.9,0.7-1.5c0-0.4-0.2-0.8-0.5-1.2c-0.3-0.3-0.8-0.7-1.5-1.1
		c-0.6-0.4-1.2-0.7-1.8-1.1"/>
	<path fill="#FFFFFF" d="M194.6,25.4v-5.9l1-0.1v6v0.5v2.3c0,1.5-0.5,2.8-1.5,3.8c-1,1-2.3,1.5-3.9,1.5c-1.6,0-2.8-0.5-3.7-1.5
		c-0.9-1-1.3-2.3-1.3-3.8v-6.5c0-0.7-0.1-1.2-0.4-1.4c-0.2-0.2-0.7-0.4-1.5-0.4v-0.4h3.9v8.2c0,2.9,1.1,4.4,3.3,4.4
		c1.3,0,2.3-0.4,3-1.3c0.7-0.8,1-1.8,1-3v-1.8"/>
	<path fill="#FFFFFF" d="M220,30l-0.9,3.6h-9.3v-6.2v-0.5v-5.1c0-0.7-0.1-1.2-0.4-1.5c-0.2-0.2-0.7-0.4-1.4-0.4v-0.4h10.9l0.1,3.1
		h-0.5c-0.2-1-0.5-1.7-0.9-1.9c-0.3-0.2-1.1-0.3-2.2-0.3h-2.8c-0.3,0-0.5,0.1-0.6,0.2c-0.1,0.1-0.1,0.3-0.1,0.6v3.9h0.4h0.5h5.1v3.7
		h-0.5c-0.2-0.9-0.4-1.4-0.6-1.6c-0.3-0.3-0.8-0.4-1.7-0.4h-3.2l0,0.8v4.6h5.3c0.6-0.1,1-0.3,1.2-0.4c0.4-0.3,0.7-0.8,1-1.5H220z"/>
	<path fill="#FFFFFF" d="M81.5,30l-0.9,3.6h-9.3v-6.2v-0.5v-5c0-0.7-0.1-1.2-0.4-1.5c-0.2-0.2-0.7-0.4-1.4-0.4v-0.4h10.9l0.1,3.1
		h-0.5c-0.2-1-0.5-1.7-0.9-1.9c-0.3-0.2-1.1-0.3-2.2-0.3H74c-0.3,0-0.5,0.1-0.6,0.2c-0.1,0.1-0.1,0.3-0.1,0.6v3.9h0.4h0.5h5.1v3.7
		h-0.5c-0.2-0.9-0.4-1.4-0.6-1.6c-0.3-0.3-0.8-0.4-1.7-0.4h-3.2l0,0.8v4.6h5.3c0.6-0.1,1-0.3,1.2-0.4c0.4-0.3,0.7-0.8,1-1.5H81.5z"
		/>
	<g>
		<path fill="#FFFFFF" d="M42.3,24.7l0,0.6h-2.6h-0.3v1.4c0,1.5-0.3,2.7-1,3.5c-0.5,0.6-1.3,1-2.3,1.4l-0.2-0.5
			c0.9-0.3,1.6-0.7,2-1.2c0.6-0.7,1-1.7,1-3.1v-1.4h-1.4v-0.6h1.4V21h0.5v3.7h0.3L42.3,24.7z"/>
		<path fill="#FFFFFF" d="M197.1,24.7l0,0.6h-2.6h-0.3v1.4c0,1.5-0.3,2.7-1,3.5c-0.5,0.6-1.3,1-2.3,1.4l-0.2-0.5
			c0.9-0.3,1.6-0.7,2-1.2c0.6-0.7,1-1.7,1-3.1v-1.4h-1.4v-0.6h1.4V21h0.5v3.7h0.3L197.1,24.7z"/>
		<rect x="41.7" y="21.5" fill="#FFFFFF" width="7.9" height="0.5"/>
		<rect x="48.5" y="18.7" fill="#FFFFFF" width="0.5" height="6"/>
		<rect x="58.9" y="23.9" fill="#FFFFFF" width="10.4" height="0.5"/>
		<rect x="70.3" y="27.1" fill="#FFFFFF" width="6.2" height="0.5"/>
		<rect x="95" y="30.9" fill="#FFFFFF" width="6.2" height="0.6"/>
		<rect x="73.9" y="21" fill="#FFFFFF" width="0.5" height="9.8"/>
		<rect x="208.9" y="27.1" fill="#FFFFFF" width="6.2" height="0.5"/>
		<rect x="212.5" y="21" fill="#FFFFFF" width="0.5" height="9.8"/>
		<rect x="118.7" y="26.3" fill="#FFFFFF" width="6.2" height="0.5"/>
		<rect x="122.5" y="19.3" fill="#FFFFFF" width="0.5" height="11.5"/>
		<g>
			<polygon fill="#FFFFFF" points="106.8,33.3 106.8,25.6 106.1,25.6 106.1,31.9 106.7,32.5 			"/>
			<polygon fill="#FFFFFF" points="106.7,32.5 106.1,31.9 98.5,24.9 98.1,25.3 106.8,33.4 			"/>
		</g>
		
			<rect x="136.6" y="23.9" transform="matrix(0.5183 -0.8552 0.8552 0.5183 47.6161 133.0308)" fill="#FFFFFF" width="10.6" height="0.6"/>
		
			<rect x="129.7" y="29.3" transform="matrix(0.5103 -0.86 0.86 0.5103 40.6152 130.544)" fill="#FFFFFF" width="10.5" height="0.6"/>
		<g>
			<polygon fill="#FFFFFF" points="86.7,32.2 87.2,32.2 87.2,28.3 86.7,27.6 			"/>
			<polygon fill="#FFFFFF" points="87.2,27.5 87.2,18.7 86.7,18.7 86.7,27.4 87,27.2 			"/>
			<line fill="#FFFFFF" x1="86.7" y1="27.6" x2="86.7" y2="27.4"/>
			<polygon fill="#FFFFFF" points="92.3,34 87.2,27.5 87.2,28.3 91.9,34.3 			"/>
			<polygon fill="#FFFFFF" points="87,27.2 86.7,27.4 86.7,27.6 87.2,28.3 87.2,27.5 			"/>
		</g>
		<g>
			<polygon fill="#FFFFFF" points="200.6,32.5 201.1,32.5 201.1,28.6 200.6,28 			"/>
			<polygon fill="#FFFFFF" points="201.1,27.6 201.1,18.7 200.6,18.7 200.6,27.5 200.9,27.3 			"/>
			<line fill="#FFFFFF" x1="200.6" y1="28" x2="200.6" y2="27.7"/>
			<polygon fill="#FFFFFF" points="206.1,34.2 201.1,27.8 201.1,28.6 205.7,34.5 			"/>
			<polygon fill="#FFFFFF" points="200.9,27.5 200.6,27.7 200.6,28 201.1,28.6 201.1,27.8 			"/>
		</g>
		<rect x="57.8" y="19.5" fill="#FFFFFF" width="0.5" height="10.4"/>
		<g>
			<g>
				<path fill="#FFFFFF" d="M9.2,17.2L9.2,17.2l-0.5-0.5l-4.7,7.1l-0.1,0c-1.2-0.7-2-1.4-2.5-2l-0.6,0.4c0.5,0.7,1.4,1.5,2.7,2.2
					l0.1,0l-1,1.5l0.6,0.4l1-1.5c0.9,0.5,1.8,1.1,2.7,1.6c1,0.6,1.5,1.1,1.8,1.6c0.1,0.2,0.1,0.4,0.1,0.5c0,0.3-0.1,0.6-0.3,0.9
					C8,29.8,7.6,30.1,7.3,30l-0.1,0.7c0.6,0.1,1.2-0.2,1.8-1c0.3-0.4,0.5-0.8,0.5-1.3c0-0.3-0.1-0.6-0.2-0.9c-0.2-0.5-0.7-1-1.5-1.5
					c-0.4-0.3-1.2-0.8-2.3-1.4l-1-0.6l4.3-6.4c0.3,0.3,0.7,0.7,1,1.3c0.4,0.7,0.6,1.2,0.6,1.6l0.7-0.1C10.7,19.1,9.9,18,9.2,17.2z"
					/>
			</g>
		</g>
		<g>
			<g>
				<path fill="#FFFFFF" d="M179.6,21.3L179.6,21.3l-0.4-0.4l-3.6,5.4l0,0c-0.9-0.6-1.6-1.1-1.9-1.6l-0.5,0.3
					c0.4,0.6,1.1,1.1,2.1,1.7l0.1,0l-0.8,1.2l0.5,0.3l0.8-1.2c0.7,0.4,1.4,0.8,2.1,1.2c0.7,0.5,1.2,0.9,1.4,1.2
					c0.1,0.1,0.1,0.3,0.1,0.4c0,0.2-0.1,0.4-0.2,0.7c-0.3,0.4-0.6,0.6-0.9,0.5l-0.1,0.5c0.5,0.1,1-0.2,1.4-0.7
					c0.2-0.3,0.4-0.6,0.4-1c0-0.2-0.1-0.4-0.2-0.7c-0.2-0.4-0.5-0.7-1.1-1.1c-0.3-0.2-0.9-0.6-1.8-1.1l-0.7-0.4l3.3-4.9
					c0.3,0.2,0.5,0.6,0.8,1c0.3,0.5,0.5,0.9,0.5,1.2l0.5-0.1C180.8,22.7,180.2,21.9,179.6,21.3z"/>
			</g>
		</g>
		<rect x="139.5" y="22.2" fill="#FFFFFF" width="4.7" height="0.7"/>
		<rect x="147" y="25.1" fill="#FFFFFF" width="4.7" height="0.7"/>
		<rect x="148.7" y="18.7" fill="#FFFFFF" width="0.7" height="15.8"/>
		<path fill="#FFFFFF" d="M28.9,26.3v0.5h-3.6c-0.2,1.8-0.4,3-0.8,3.5c-0.8,0.8-1.9,1.3-3.5,1.3c-0.3,0-0.6,0-1-0.1l0.1-0.5
			c0.3,0,0.6,0.1,0.9,0.1c1.4,0,2.4-0.4,3.1-1.1c0.3-0.4,0.6-1.4,0.7-3.1h-4.4v-0.5h4.4c0-0.7,0-1.1,0-1.5l0.5-0.1
			c0,0.4,0.1,1,0,1.6L28.9,26.3z"/>
		<path fill="#FFFFFF" d="M172.5,26.4v0.5h-3.6c-0.2,1.8-0.4,3-0.8,3.5c-0.8,0.8-1.9,1.3-3.5,1.3c-0.3,0-0.6,0-1-0.1l0.1-0.5
			c0.3,0,0.6,0.1,0.9,0.1c1.4,0,2.4-0.4,3.1-1.1c0.3-0.4,0.6-1.4,0.7-3.1h-4.4v-0.5h4.4c0-0.7,0-1.1,0-1.5l0.5-0.1
			c0,0.4,0.1,1,0,1.6L172.5,26.4z"/>
	</g>
	<polygon fill="#FFE512" points="0.5,35.4 0.5,36.1 143.3,36.1 142.8,35.4 	"/>
	<polygon fill="#FFE512" points="148.6,35.4 149.1,36.1 219.7,36.1 219.7,35.4 	"/>
</g>
</svg>
