<?xml version="1.0" encoding="UTF-8" standalone="no"?>
<svg width="393px" height="72px" viewBox="0 0 393 72" version="1.1" xmlns="http://www.w3.org/2000/svg" xmlns:xlink="http://www.w3.org/1999/xlink">
    <!-- Generator: Sketch 3.6.1 (26313) - http://www.bohemiancoding.com/sketch -->
    <title>Page 1</title>
    <desc>Created with Sketch.</desc>
    <defs>
        <path id="path-1" d="M0,0.561497279 L0,34.8430934 L22.7081655,34.8430934 L22.7081655,0.561497279 L0,0.561497279 L0,0.561497279 Z"></path>
        <path id="path-3" d="M0,71.2860346 L392.564085,71.2860346 L392.564085,0 L0,0 L0,71.2860346 Z"></path>
    </defs>
    <g id="Welcome" stroke="none" stroke-width="1" fill="none" fill-rule="evenodd">
        <g id="Desktop-HD-Copy" transform="translate(-97.000000, -40.000000)">
            <g id="Page-1" transform="translate(97.000000, 40.000000)">
                <path d="M149.343188,24.846704 L148.265369,23.9111249 C161.074695,9.18605353 179.384877,0.741122475 198.500611,0.741122475 L198.500611,2.16733755 C179.798154,2.16733755 161.881747,10.4332427 149.343188,24.846704 L149.343188,24.846704 Z" id="Fill-1" fill="#FFE412"></path>
                <path d="M192.503149,3.89085554 C208.983212,3.89085554 223.495899,11.3073237 234.555363,24.2406375 L241.478309,24.2451319 C229.678548,10.4459018 210.124036,0.000224718761 192.503149,0.000224718761 L192.503149,3.89085554 Z" id="Fill-3" fill="#FEFEFE"></path>
                <g id="Group-7" transform="translate(0.000000, 18.102594)">
                    <mask id="mask-2" fill="white">
                        <use xlink:href="#path-1"></use>
                    </mask>
                    <g id="Clip-6"></g>
                    <path d="M11.140169,12.715786 C13.0115397,13.8573573 14.9009117,14.9839474 16.8045345,16.0940581 C18.7404095,17.3637191 20.2082542,18.775702 21.2080687,20.3307558 C22.2078832,21.8843115 22.7081655,23.5337472 22.7081655,25.2790629 C22.7081655,26.6431058 22.4223971,27.879808 21.8508602,28.9899187 C20.9620528,30.7674441 19.5414612,32.1876667 17.5905853,33.2498374 C15.6382092,34.3127571 13.5515746,34.8430934 11.3299312,34.8430934 C8.50524891,34.8430934 5.99858713,33.9232446 3.80919584,32.0798017 C1.61905449,30.2378569 0.349222538,27.9329915 -0.000300019362,25.1682017 L4.33272962,24.2161432 C4.30122759,26.0670767 5.03102469,27.6303702 6.52212092,28.9060237 C8.01321715,30.1846735 9.72632771,30.8213766 11.6629527,30.8213766 C13.154799,30.8213766 14.4456323,30.2887932 15.5429531,29.2236262 C16.6372737,28.1584593 17.1863092,26.9419817 17.1863092,25.5749426 C17.1863092,24.5262551 16.797034,23.5704513 16.0184838,22.7120256 C15.2406836,21.8535999 14.0593574,20.932253 12.4722549,19.9442395 C10.9811587,19.0858138 9.50506343,18.2281372 8.04546923,17.3682134 L6.99915171,16.6573531 C5.47730349,15.6760812 4.22472265,14.6790789 3.24440939,13.6655973 C1.78406514,12.1472476 1.05651818,10.3599843 1.05651818,8.30081142 C1.05651818,6.21092694 1.92807443,4.31355153 3.67343707,2.60344176 C5.06777706,1.24314419 7.33742354,0.561497279 10.4778762,0.561497279 C11.4304377,0.561497279 12.7302716,0.843144793 14.3803781,1.40643982 C16.0289845,1.96973485 17.0768021,2.2506333 17.5215808,2.2506333 C18.5041442,2.2506333 19.1386852,1.68808734 19.4252037,0.561497279 L20.4715212,0.561497279 L21.5658418,11.4738403 L20.3275119,11.4738403 C19.6914708,8.94949958 18.6279022,6.90006448 17.136806,5.32178971 C15.4229454,3.55550024 13.3265601,2.67085739 10.8499002,2.67085739 C9.07153545,2.67085739 7.80245355,2.9704824 7.03965432,3.57048149 C6.08709285,4.32853278 5.61156216,5.32328783 5.61156216,6.55249946 C5.61156216,7.72103702 6.00758771,8.66860113 6.80263902,9.39369367 C7.81820457,10.3405087 8.91252519,11.2071741 10.0893511,11.9959369 L11.140169,12.715786 Z" id="Fill-5" fill="#FEFEFE" mask="url(#mask-2)"></path>
                </g>
                <path d="M45.508362,40.6300509 L45.508362,40.2764934 C45.508362,36.9117045 44.9338249,34.3416709 43.7840007,32.5656437 C42.0851411,31.1581551 40.0607604,30.4525382 37.7108588,30.4525382 C35.5949722,30.4525382 33.70185,31.0420505 32.0292421,32.2188277 C30.6971561,34.0502856 30.0311131,36.7454126 30.0311131,40.3034597 C30.0311131,43.6517692 30.633402,46.2562597 31.8379797,48.1131857 C33.5675914,49.4734833 35.529718,50.1543811 37.7311101,50.1543811 C40.0607604,50.1543811 42.130894,49.3955808 43.9370106,47.8764819 C44.8535697,46.3588812 45.3771035,44.2517683 45.508362,41.5543941 M50.4129285,41.5543941 C50.0994083,44.8540146 48.7373204,47.5835985 46.3281649,49.7438948 C43.9197595,51.9026931 41.0523244,52.9835903 37.7273598,52.9835903 C34.1923817,52.9835903 31.1809373,51.7656146 28.6945269,49.3334086 C26.2073664,46.8989553 24.962286,43.889222 24.962286,40.3034597 C24.962286,36.8225661 26.2148668,33.83905 28.7155282,31.3514133 C31.2176897,28.8652747 34.2246338,27.623329 37.7363604,27.623329 C41.2195852,27.623329 44.2197788,28.8630275 46.7354412,31.3439227 C49.2496034,33.8255668 50.5081847,36.8038395 50.5081847,40.2764934 L50.5081847,40.4345456" id="Fill-8" fill="#FEFEFE"></path>
                <path d="M301.909859,40.6300509 L301.909859,40.2764934 C301.909859,36.9117045 301.335322,34.3416709 300.185498,32.5656437 C298.488139,31.1581551 296.463008,30.4525382 294.112356,30.4525382 C291.99647,30.4525382 290.103348,31.0420505 288.43299,32.2188277 C287.099404,34.0502856 286.432611,36.7454126 286.432611,40.3034597 C286.432611,43.6517692 287.034899,46.2562597 288.240227,48.1131857 C289.969089,49.4734833 291.932716,50.1543811 294.134108,50.1543811 C296.463008,50.1543811 298.533142,49.3955808 300.338508,47.8764819 C301.255817,46.3588812 301.779351,44.2517683 301.909859,41.5543941 M306.815176,41.5543941 C306.500156,44.8540146 305.138818,47.5835985 302.731162,49.7438948 C300.322007,51.9026931 297.454572,52.9835903 294.129607,52.9835903 C290.594629,52.9835903 287.582435,51.7656146 285.096774,49.3334086 C282.608114,46.8989553 281.364534,43.889222 281.364534,40.3034597 C281.364534,36.8225661 282.616364,33.83905 285.118526,31.3514133 C287.619187,28.8652747 290.626881,27.623329 294.137108,27.623329 C297.621833,27.623329 300.622026,28.8630275 303.137689,31.3439227 C305.651851,33.8255668 306.909682,36.8038395 306.909682,40.2764934 L306.909682,40.4345456" id="Fill-10" fill="#FEFEFE"></path>
                <path d="M70.5053002,38.3558222 L70.5053002,27.7828044 L72.3129169,27.6232541 L72.3129169,38.3558222 L72.3129169,39.3011391 L72.3129169,43.3865262 C72.3129169,46.163301 71.4083585,48.4674174 69.5999918,50.29513 C67.7916251,52.1243407 65.466475,53.038197 62.6252917,53.038197 C59.8118601,53.038197 57.5744657,52.1153519 55.9138585,50.2681637 C54.3312564,48.5011252 53.5272045,46.199256 53.5017029,43.3625562 L53.5017029,31.6374803 C53.5017029,30.2989055 53.2901892,29.4359855 52.8671619,29.047222 C52.4441346,28.6607057 51.5230752,28.412017 50.1047336,28.304152 L50.1047336,27.6232541 L57.17619,27.6232541 L57.17619,42.3168649 C57.17619,47.5370817 59.1765691,50.1460665 63.1765773,50.1460665 C65.4852262,50.1460665 67.310094,49.373034 68.6526807,47.8254708 C69.8872603,46.4119898 70.5053002,44.6239775 70.5053002,42.4629321 L70.5053002,39.3011391 L70.5053002,38.3558222 Z" id="Fill-12" fill="#FEFEFE"></path>
                <path d="M92.3819621,34.2696111 L91.481154,34.2696111 C91.2621398,33.2374029 91.1053797,32.6089395 91.0101236,32.3849698 C90.9141174,32.1617491 90.7026037,31.8973301 90.3748326,31.5902144 C89.9195532,31.1520128 88.8559845,30.8606275 87.1863768,30.7183056 C87.1848767,30.7183056 85.5745228,30.7213019 85.407262,30.7228 C85.3030052,30.7235491 85.4680159,30.5287928 85.4515148,30.8973316 C85.4305135,31.3639975 85.4432643,32.4156813 85.4432643,32.4156813 L85.4432643,52.8268864 L78.0950401,52.8268864 L78.0950401,52.1437414 C79.6813924,52.0358764 80.681207,51.7632176 81.0922335,51.3265142 C81.5017599,50.8890617 81.7087733,49.8800744 81.7087733,48.2973053 L81.7087733,32.4156813 L81.7087733,31.4501397 L81.7087733,30.710815 L74.9748387,30.710815 L74.9748387,27.8111939 L86.1310587,27.8111939 L87.0993712,27.8111939 L92.1771989,27.8111939 L92.3819621,34.2696111 Z" id="Fill-14" fill="#FEFEFE"></path>
                <path d="M113.401619,37.7603924 L113.401619,36.8510304 L113.401619,35.8847398 L113.401619,27.8113437 L120.654587,27.8113437 L120.654587,28.4937397 C119.272248,28.6023538 118.368439,28.8637766 117.940162,29.2735138 C117.511134,29.6847491 117.29662,30.5611523 117.29662,31.9012252 L117.29662,35.8847398 L117.29662,36.8510304 L117.29662,48.7304132 C117.29662,50.0682389 117.511134,50.943144 117.940162,51.3521321 C118.368439,51.7618693 119.272248,52.021794 120.654587,52.1304081 L120.654587,52.8270363 L113.401619,52.8270363 L113.401619,40.9446572 L103.468728,40.9446572 L102.558919,40.9446572 L101.886876,40.9446572 L101.886876,52.8270363 L94.6684097,52.8270363 L94.6684097,52.129659 C96.1730068,51.9663634 97.1015667,51.6644912 97.4570896,51.2262896 C97.8133626,50.7888371 97.9911241,49.8038198 97.9911241,48.2712379 L97.9911241,31.8997271 C97.9911241,30.5596542 97.7796104,29.6840001 97.355083,29.2735138 C96.9313057,28.8622785 96.0357479,28.6023538 94.6684097,28.4937397 L94.6684097,27.8113437 L101.886876,27.8113437 L101.886876,37.7603924 L102.558919,37.7603924" id="Fill-16" fill="#FEFEFE"></path>
                <path d="M161.242106,34.9294603 C161.242106,32.1324608 159.638503,30.5684182 153.512107,30.5684182 L153.512107,39.4148468 C155.364727,39.3594162 158.433925,39.0830121 159.360235,38.5856346 C160.615066,37.8650364 161.242106,36.6470607 161.242106,34.9294603 L161.242106,34.9294603 Z M170.726468,52.8268115 L164.609073,52.8268115 L156.233283,41.9833822 L155.453983,41.9833822 L154.220903,41.9833822 L153.538359,41.9833822 L153.538359,52.8268115 L146.4219,52.8268115 L146.4219,52.1421684 C147.872493,52.0050899 148.776302,51.7032177 149.132575,51.2350536 C149.488098,50.7691367 149.666609,49.7796251 149.666609,48.2695151 L149.666609,27.715239 L154.220903,27.715239 L155.189216,27.7444524 C157.700378,27.7998831 159.59875,28.1983843 160.881333,28.9377091 C163.119477,30.2275948 164.2393,32.1878914 164.2393,34.8200972 C164.2393,36.3024919 163.862025,37.6126023 163.108977,38.7511774 C162.357428,39.8882543 161.338112,40.7189647 160.051029,41.2395631 L167.442006,50.3309352 C168.290311,51.4013455 169.384632,52.0050899 170.726468,52.1421684 L170.726468,52.8268115 Z" id="Fill-18" fill="#FEFEFE"></path>
                <path d="M357.07652,39.4149966 C358.930639,39.360315 361.998337,39.0831619 362.926147,38.5857844 C364.180978,37.8651862 364.809519,36.6472105 364.809519,34.9296101 C364.809519,32.1318615 363.205915,30.5693171 357.07652,30.5693171 L357.07652,39.4149966 Z M374.292381,52.8269613 L368.173486,52.8269613 L359.800696,41.983532 L359.019145,41.983532 L357.786066,41.983532 L357.102771,41.983532 L357.102771,52.8269613 L349.987812,52.8269613 L349.987812,52.1415691 C351.437656,52.0052397 352.343714,51.7026185 352.697737,51.2352035 C353.05326,50.7692866 353.232522,49.780524 353.232522,48.2696649 L353.232522,27.7161379 L357.786066,27.7161379 L358.753628,27.7446023 C361.26554,27.8000329 363.164663,28.1977851 364.447245,28.9386079 C366.68389,30.2269955 367.805962,32.1887903 367.805962,34.8209961 C367.805962,36.3026418 367.428688,37.6135012 366.676389,38.7505781 C365.924091,39.8884041 364.904025,40.7191145 363.618442,41.240462 L371.006419,50.331085 C371.853223,51.4022444 372.949794,52.0052397 374.292381,52.1415691 L374.292381,52.8269613 Z" id="Fill-20" fill="#FEFEFE"></path>
                <path d="M172.402001,48.0884666 C172.402001,48.0068188 172.419252,47.8555082 172.453005,47.6360329 L172.453005,47.1843482 L172.453005,25.7821333 L182.14138,36.030807 L191.565738,45.2405309 L191.528986,27.7199581 L198.194666,27.7199581 L198.194666,28.4195825 C196.721571,28.5851253 195.767509,28.9416791 195.331731,29.4884948 C195.030962,29.875011 194.826199,30.354411 194.716692,30.9296911 L194.716692,53.5656119 L190.82619,50.0053177 L175.589707,35.8660132 L175.589707,48.0884666 L175.589707,49.0592517 L175.589707,51.6599968 C176.087739,51.8802212 176.766533,52.0315318 177.626089,52.1146778 L177.626089,52.8158003 L168.759766,52.8158003 L168.759766,52.1146778 C170.377621,51.9483859 171.396937,51.5910831 171.816214,51.0405221 C172.122983,50.655504 172.318746,49.9940817 172.402001,49.0592517" id="Fill-22" fill="#FEFEFE"></path>
                <path d="M234.492734,45.6862231 L232.561359,52.9978225 L213.084852,52.9978225 L213.084852,40.3821112 L213.084852,39.2922253 L213.084852,29.0375591 C213.084852,27.5214565 212.839586,26.5154655 212.348304,26.0203352 C211.858523,25.5237067 210.851208,25.2338195 209.326359,25.1521717 L209.326359,24.3244576 L232.153333,24.3244576 L232.316843,30.5506654 L231.207522,30.5506654 C230.796495,28.4765113 230.137202,27.1626556 229.233394,26.6090984 C228.519348,26.1956158 227.010251,25.9873764 224.709102,25.9873764 L218.866975,25.9873764 C218.236934,25.9873764 217.845409,26.0914961 217.693149,26.2974883 C217.54314,26.5057277 217.468135,26.8855024 217.468135,27.4375615 L217.468135,35.348411 L218.208433,35.348411 L219.232999,35.348411 L229.813932,35.348411 L229.813932,42.9573883 L228.825368,42.9573883 C228.468345,41.2210613 228.042317,40.1184412 227.550286,39.648779 C226.973498,39.0982181 225.819924,38.8233121 224.091062,38.8233121 L217.489886,38.8233121 L217.468135,40.3821112 L217.468135,49.6570036 L228.653607,49.6570036 C229.831183,49.4367792 230.669737,49.146892 231.161769,48.7888401 C231.902816,48.2375301 232.613862,47.2030747 233.300907,45.6862231 L234.492734,45.6862231 Z" id="Fill-24" fill="#FEFEFE"></path>
                <path d="M252.980227,33.8329077 L249.735517,39.1534989 L252.980227,33.8329077 Z M273.510552,69.003641 L266.736865,69.003641 L247.600129,42.5632315 L241.402479,52.9849386 L237.829249,52.9849386 L245.713008,39.8089286 L245.425739,39.3976933 L244.850452,38.5370204 L241.976267,34.3887121 C240.415416,32.1160563 239.498107,30.8419009 239.225839,30.5684931 C238.022011,29.2269221 236.692176,28.5280468 235.243832,28.4733652 L235.243832,27.7340405 L242.222282,27.7340405 L247.846145,36.3969487 L249.406246,33.8329077 L249.982283,32.8643698 L253.18424,27.4493967 L256.796473,27.4493967 L253.554764,32.8643698 L249.611759,39.4606145 L269.281029,65.5115115 C270.021326,66.5811728 270.678369,67.2860406 271.253656,67.6276131 C271.826693,67.9706838 272.580492,68.1961516 273.510552,68.3062638 L273.510552,69.003641 Z" id="Fill-26" fill="#FEFEFE"></path>
                <path d="M276.472718,35.0523066 C276.472718,32.063547 274.159569,30.5684182 269.53102,30.5684182 L267.6814,30.5684182 L267.6814,34.7744044 L267.6814,35.680021 L267.6814,39.7002396 L269.69603,39.7002396 C274.212822,39.7002396 276.472718,38.1511783 276.472718,35.0523066 M263.945409,34.7744044 L263.945409,31.8515623 C263.945409,30.5362085 263.757147,29.6710413 263.378373,29.259806 L262.941095,28.9751622 L262.41231,28.7054997 C262.020785,28.5961366 261.451498,28.5002565 260.70445,28.4163615 L260.70445,27.715239 L262.41231,27.715239 L263.378373,27.715239 L269.194998,27.715239 C272.93474,27.715239 275.624413,28.3601819 277.262519,29.6523147 C278.707862,30.8066201 279.433159,32.6208496 279.433159,35.093505 C279.433159,37.6493064 278.555602,39.5714009 276.803489,40.8642828 C275.240388,41.9916219 273.145503,42.5541679 270.518084,42.5541679 L267.6814,42.5541679 L267.6814,52.8268115 L263.945409,52.8268115 L263.945409,35.680021" id="Fill-28" fill="#FEFEFE"></path>
                <path d="M314.222729,39.6820374 C313.021902,38.8363458 312.109843,38.1000173 311.482802,37.4723029 C310.418484,36.3809188 309.888199,35.0565762 309.888199,33.5007733 C309.888199,31.9464686 310.51824,30.5412272 311.775321,29.2850494 C312.757885,28.3022793 314.440243,27.8108943 316.819397,27.8108943 C317.748707,27.8108943 318.808525,28.0198827 319.996602,28.4371106 C321.186179,28.8550875 321.862722,29.0625778 322.025483,29.0625778 C322.492013,29.0625778 322.814534,28.9622034 322.990045,28.7599565 C323.168556,28.5577096 323.299815,28.2416053 323.38007,27.8108943 L324.15937,27.8108943 L325.021176,35.8273616 L324.117368,35.8273616 C323.652338,33.9801734 322.860287,32.4730595 321.738964,31.3022748 C320.453381,29.998906 318.907531,29.3449744 317.103665,29.3449744 C315.845834,29.3449744 314.915774,29.5779328 314.313485,30.0386063 C313.602439,30.5824257 313.247666,31.317256 313.247666,32.2408501 C313.247666,33.0565792 313.547686,33.7502112 314.149974,34.3209968 C314.915774,35.0550781 315.707825,35.6940284 316.527628,36.2370988 L317.303178,36.7719294 C318.698268,37.6198682 320.094108,38.4535748 321.490698,39.2737983 C322.91354,40.2033849 323.988359,41.2355931 324.713656,42.3696738 C325.438203,43.5052526 325.800476,44.7149886 325.800476,45.9996308 C325.800476,47.0116143 325.595713,47.9277178 325.184687,48.7471922 C324.526894,50.0325835 323.480577,51.0722824 322.043484,51.8647905 C320.606391,52.6572987 319.066542,53.0543018 317.425436,53.0543018 C315.345552,53.0543018 313.504933,52.3704077 311.90508,51.0026195 C310.301476,49.6348313 309.364666,47.9389538 309.090898,45.9134887 L312.295105,45.2573099 C312.265853,46.6258471 312.826889,47.77416 313.976713,48.7029975 C315.044032,49.6333332 316.288362,50.0970029 317.713454,50.0970029 C318.808525,50.0970029 319.764837,49.702247 320.58689,48.9082407 C321.407443,48.1157325 321.818469,47.2138612 321.818469,46.2011287 C321.818469,45.4086205 321.529701,44.7052508 320.955914,44.0902704 C320.381377,43.474541 319.491819,42.8116207 318.287241,42.1007603 C317.219923,41.4453306 316.139103,40.802635 315.044032,40.1726734" id="Fill-30" fill="#FEFEFE"></path>
                <path d="M347.240235,38.3645862 L347.240235,27.8747144 L349.034351,27.7151641 L349.034351,38.3645862 L349.034351,39.3024125 L349.034351,43.3555899 C349.034351,46.1106419 348.135043,48.3960317 346.340927,50.2095121 C344.546061,52.0237416 342.238912,52.9308563 339.42098,52.9308563 C336.6308,52.9308563 334.411407,52.0155019 332.762801,50.1817968 C331.192199,48.4297395 330.395648,46.1458479 330.369396,43.3308708 L330.369396,31.6994277 C330.369396,30.3705908 330.160133,29.5151614 329.739356,29.1293942 C329.320829,28.7451251 328.40652,28.4986835 326.999429,28.3915676 L326.999429,27.7151641 L334.016132,27.7151641 L334.016132,42.2934192 C334.016132,47.4724376 336.00076,50.0619468 339.967766,50.0619468 C342.259164,50.0619468 344.06903,49.2949068 345.402616,47.7578304 C346.626695,46.3563344 347.240235,44.5833034 347.240235,42.4387373 L347.240235,39.3024125" id="Fill-32" fill="#FEFEFE"></path>
                <path d="M392.563935,46.4762593 L390.916829,52.832804 L374.291256,52.832804 L374.291256,41.813345 L374.291256,40.854545 L374.291256,31.8395773 C374.291256,30.5069951 374.082742,29.6231013 373.662715,29.1871469 C373.245688,28.7489453 372.386133,28.4950131 371.082549,28.4231031 L371.082549,27.6965124 L390.567306,27.6965124 L390.706815,33.1691633 L389.761004,33.1691633 C389.408481,31.3466942 388.845195,30.1923888 388.073395,29.7047491 C387.465106,29.3407047 386.178023,29.1579335 384.212896,29.1579335 L379.226574,29.1579335 C378.685789,29.1579335 378.355018,29.2500681 378.22526,29.4313413 C378.097001,29.6133635 378.032497,29.9466963 378.032497,30.4320888 L378.032497,37.3871345 L378.665538,37.3871345 L379.540095,37.3871345 L388.569927,37.3871345 L388.569927,44.077012 L387.724623,44.077012 C387.421603,42.5496735 387.05858,41.5811356 386.637803,41.1691513 C386.145771,40.6837587 385.162457,40.4410625 383.685612,40.4410625 L378.049748,40.4410625 L378.032497,41.813345 L378.032497,49.9661417 L387.578363,49.9661417 C388.584178,49.7721345 389.298974,49.5174532 389.722752,49.203596 C390.351292,48.7189526 390.960332,47.8088416 391.546869,46.4762593 L392.563935,46.4762593 Z" id="Fill-34" fill="#FEFEFE"></path>
                <path d="M145.064087,46.5011282 L143.416981,52.9033657 L126.791408,52.9033657 L126.791408,41.8554424 L126.791408,40.9003876 L126.791408,31.9198768 C126.791408,30.591789 126.582144,29.7116405 126.162867,29.2779333 C125.74584,28.8412298 124.885535,28.5880467 123.582701,28.5168857 L123.582701,27.7910441 L143.066708,27.7910441 L143.206967,33.2457175 L142.261156,33.2457175 C141.908633,31.4284918 141.346097,30.2786808 140.572797,29.7925392 C139.964508,29.429993 138.677425,29.2487198 136.712298,29.2487198 L131.726726,29.2487198 C131.185941,29.2487198 130.85592,29.3393564 130.725412,29.5206295 C130.596403,29.7019027 130.533399,30.0344864 130.533399,30.5176318 L130.533399,37.4464603 L131.16569,37.4464603 L132.040247,37.4464603 L141.070829,37.4464603 L141.070829,44.1108697 L140.224775,44.1108697 C139.922505,42.5887746 139.557982,41.623233 139.137205,41.2134958 C138.645923,40.7303504 137.661859,40.4891523 136.185014,40.4891523 L130.5499,40.4891523 L130.533399,41.8554424 L130.533399,49.9775275 L140.080015,49.9775275 C141.08433,49.7842693 141.798376,49.5303371 142.222154,49.2164799 C142.851444,48.7348327 143.458983,47.8292161 144.047021,46.5011282 L145.064087,46.5011282 Z" id="Fill-36" fill="#FEFEFE"></path>
                <path d="M75.0495435,37.1436892 L75.0285421,38.1811408 L70.3377394,38.1811408 L69.7226997,38.1811408 L69.7226997,40.7616612 C69.7226997,43.4448032 69.1091601,45.5002308 67.8783307,46.9286931 C66.9707721,47.981126 65.5771822,48.795357 63.7043113,49.3788767 L63.3982916,48.4185785 C65.0363973,47.9204519 66.2514757,47.2358087 67.0427768,46.3616528 C68.1828503,45.106973 68.7543872,43.2418073 68.7543872,40.7616612 L68.7543872,38.1811408 L66.2514757,38.1811408 L66.2514757,37.1526779 L68.7543872,37.1526779 L68.7543872,30.5212273 L69.7226997,30.5212273 L69.7226997,37.1526779 L70.3377394,37.1526779 L75.0495435,37.1436892 Z" id="Fill-38" fill="#FEFEFE"></path>
                <path d="M351.669421,37.1436892 L351.648419,38.1811408 L346.957617,38.1811408 L346.342577,38.1811408 L346.342577,40.7616612 C346.342577,43.4448032 345.726787,45.5002308 344.498958,46.9286931 C343.590649,47.981126 342.196309,48.795357 340.323439,49.3788767 L340.017419,48.4185785 C341.656275,47.9204519 342.872103,47.2358087 343.661154,46.3616528 C344.801978,45.106973 345.373515,43.2418073 345.373515,40.7616612 L345.373515,38.1811408 L342.872103,38.1811408 L342.872103,37.1526779 L345.373515,37.1526779 L345.373515,30.5212273 L346.342577,30.5212273 L346.342577,37.1526779 L346.957617,37.1526779 L351.669421,37.1436892 Z" id="Fill-40" fill="#FEFEFE"></path>
                <mask id="mask-4" fill="white">
                    <use xlink:href="#path-3"></use>
                </mask>
                <g id="Clip-43"></g>
                <path d="M73.9337715,32.3205504 L87.9814281,32.3205504 L87.9814281,31.429915 L73.9337715,31.429915 L73.9337715,32.3205504 Z" id="Fill-42" fill="#FEFEFE" mask="url(#mask-4)"></path>
                <path d="M86.0523036,37.1055619 L86.9426111,37.1055619 L86.9426111,26.3190613 L86.0523036,26.3190613 L86.0523036,37.1055619 Z" id="Fill-44" fill="#FEFEFE" mask="url(#mask-4)"></path>
                <path d="M104.638503,36.5752256 L123.253204,36.5752256 L123.253204,35.6860884 L104.638503,35.6860884 L104.638503,36.5752256 Z" id="Fill-45" fill="#FEFEFE" mask="url(#mask-4)"></path>
                <path d="M125.021069,42.1572396 L136.016028,42.1572396 L136.016028,41.2681024 L125.021069,41.2681024 L125.021069,42.1572396 Z" id="Fill-46" fill="#FEFEFE" mask="url(#mask-4)"></path>
                <path d="M169.179418,49.0950569 L180.175878,49.0950569 L180.175878,48.0561071 L169.179418,48.0561071 L169.179418,49.0950569 Z" id="Fill-47" fill="#FEFEFE" mask="url(#mask-4)"></path>
                <path d="M131.441483,47.9512384 L132.33179,47.9512384 L132.33179,30.4134372 L131.441483,30.4134372 L131.441483,47.9512384 Z" id="Fill-48" fill="#FEFEFE" mask="url(#mask-4)"></path>
                <path d="M372.764307,42.1572396 L383.759267,42.1572396 L383.759267,41.2681024 L372.764307,41.2681024 L372.764307,42.1572396 Z" id="Fill-49" fill="#FEFEFE" mask="url(#mask-4)"></path>
                <path d="M379.183972,47.9512384 L380.074279,47.9512384 L380.074279,30.4134372 L379.183972,30.4134372 L379.183972,47.9512384 Z" id="Fill-50" fill="#FEFEFE" mask="url(#mask-4)"></path>
                <path d="M211.50015,40.8231593 L222.495109,40.8231593 L222.495109,39.934022 L211.50015,39.934022 L211.50015,40.8231593 Z" id="Fill-51" fill="#FEFEFE" mask="url(#mask-4)"></path>
                <path d="M218.396095,47.9512384 L219.286402,47.9512384 L219.286402,27.4449023 L218.396095,27.4449023 L218.396095,47.9512384 Z" id="Fill-52" fill="#FEFEFE" mask="url(#mask-4)"></path>
                <path d="M190.245728,52.4761005 L190.245728,38.6836119 L189.068902,38.6836119 L189.068902,49.9480144 L190.100969,50.9045672 L190.245728,52.4761005 Z" id="Fill-53" fill="#FEFEFE" mask="url(#mask-4)"></path>
                <path d="M190.100669,50.904792 L189.068602,49.9482391 L175.504727,37.3767225 L174.78168,38.1542494 L190.247678,52.5362502 L190.100669,50.904792 Z" id="Fill-54" fill="#FEFEFE" mask="url(#mask-4)"></path>
                <path d="M258.412977,28.4183091 L248.554341,44.6617302 L247.637032,44.107424 L257.492668,27.8632538 L258.412977,28.4183091 Z" id="Fill-55" fill="#FEFEFE" mask="url(#mask-4)"></path>
                <path d="M245.83204,38.0382946 L236.245672,54.1731016 L235.322362,53.6277841 L244.907981,37.4914789 L245.83204,38.0382946 Z" id="Fill-56" fill="#FEFEFE" mask="url(#mask-4)"></path>
                <path d="M154.388389,50.4651672 L155.280196,50.4651672 L155.280196,43.4412077 L154.388389,42.3033817 L154.388389,50.4651672 Z" id="Fill-57" fill="#FEFEFE" mask="url(#mask-4)"></path>
                <path d="M155.279821,41.9964908 L155.279821,26.319361 L154.388014,26.319361 L154.388014,41.8953674 L154.892046,41.5021096 L155.279821,41.9964908 Z" id="Fill-58" fill="#FEFEFE" mask="url(#mask-4)"></path>
                <path d="M154.388389,42.3030072 L154.388389,41.8955172" id="Fill-59" fill="#FEFEFE" mask="url(#mask-4)"></path>
                <path d="M164.448863,53.7123533 L155.279521,41.9962661 L155.279521,43.4412077 L163.747568,54.2584199 L164.448863,53.7123533 Z" id="Fill-60" fill="#FEFEFE" mask="url(#mask-4)"></path>
                <path d="M154.892346,41.5020346 L154.388314,41.8952925 L154.388314,42.3027825 L155.280121,43.4413576 L155.280121,41.9964159 L154.892346,41.5020346 Z" id="Fill-61" fill="#FEFEFE" mask="url(#mask-4)"></path>
                <path d="M357.92475,51.0372262 L358.816557,51.0372262 L358.816557,44.0132668 L357.92475,42.8754408 L357.92475,51.0372262 Z" id="Fill-62" fill="#FEFEFE" mask="url(#mask-4)"></path>
                <path d="M358.816857,42.2276515 L358.816857,26.3100726 L357.92505,26.3100726 L357.92505,42.1265281 L358.428332,41.7332703 L358.816857,42.2276515 Z" id="Fill-63" fill="#FEFEFE" mask="url(#mask-4)"></path>
                <path d="M357.92475,42.8750663 L357.92475,42.4675763" id="Fill-64" fill="#FEFEFE" mask="url(#mask-4)"></path>
                <path d="M367.645302,53.9449372 L358.817232,42.5681754 L358.817232,44.013117 L366.944757,54.4910038 L367.645302,53.9449372 Z" id="Fill-65" fill="#FEFEFE" mask="url(#mask-4)"></path>
                <path d="M358.428707,42.0740188 L357.924675,42.4672766 L357.924675,42.8747667 L358.817232,44.0133417 L358.817232,42.5684001 L358.428707,42.0740188 Z" id="Fill-66" fill="#FEFEFE" mask="url(#mask-4)"></path>
                <path d="M102.757382,46.3459974 L103.647689,46.3459974 L103.647689,27.7565124 L102.757382,27.7565124 L102.757382,46.3459974 Z" id="Fill-67" fill="#FEFEFE" mask="url(#mask-4)"></path>
                <path d="M15.8486728,23.7254323 L15.8659239,23.6992151 L14.9763665,22.8250591 L6.523321,35.4063135 L6.41306388,35.3411451 C4.2394236,34.0078138 2.76557848,32.7980778 1.99902901,31.7081918 L0.942210808,32.4078162 C1.90827316,33.711185 3.49612563,35.0340294 5.71326872,36.3658626 L5.83102632,36.4370236 L4.02340966,39.1276562 L5.07947782,39.8362694 L6.91634636,37.089457 C8.51094927,38.0295305 10.1093024,38.9673568 11.7039053,39.9029359 C13.403515,40.9898257 14.4588331,41.9538692 14.8668595,42.7913211 C15.0243696,43.101433 15.1023747,43.4287733 15.1023747,43.7695968 C15.1023747,44.2984349 14.9133625,44.8085465 14.5398384,45.305924 C13.821292,46.2362597 13.1462484,46.6564838 12.5184579,46.5643491 L12.2844428,47.7740851 C13.419266,47.9920623 14.5060862,47.4145351 15.5441532,46.0504922 C16.1126899,45.3373847 16.3947081,44.5755881 16.3947081,43.7695968 C16.3947081,43.2422567 16.2709501,42.730647 16.0166837,42.2332695 C15.6086573,41.3943195 14.7401013,40.5096766 13.4155158,39.58009 C12.6924691,39.0512518 11.3393818,38.2130509 9.35250359,37.0632399 L7.61389138,36.0445148 L15.232133,24.6482773 C15.8404223,25.2033327 16.4509617,25.9703727 17.059251,26.9606334 C17.8145497,28.141156 18.1955743,29.0722407 18.1955743,29.7531385 L19.4721567,29.567371 C18.6658546,27.1621312 17.2670144,25.1329208 15.8486728,23.7254323" id="Fill-68" fill="#FEFEFE" mask="url(#mask-4)"></path>
                <path d="M320.427655,30.928942 L320.441155,30.9087173 L319.756361,30.2353101 L313.251941,39.9146962 L313.167936,39.8660072 C311.494578,38.8382934 310.362005,37.9079577 309.771717,37.0697567 L308.957914,37.6083327 C309.701962,38.6113274 310.923041,39.6285543 312.627901,40.6532719 L312.719407,40.7087025 L311.328067,42.7783623 L312.14187,43.3236798 L313.554211,41.2105744 C314.78129,41.9334198 316.01062,42.654767 317.237699,43.3746161 C318.546533,44.2113189 319.358836,44.9536399 319.671606,45.5970846 C319.792364,45.8352865 319.852367,46.0877206 319.852367,46.3506415 C319.852367,46.7573825 319.706858,47.1491422 319.41959,47.5319132 C318.866054,48.248017 318.34777,48.571612 317.866239,48.499702 L317.685478,49.4307867 C318.558534,49.5985767 319.394838,49.1551317 320.192139,48.104946 C320.630918,47.5558832 320.846182,46.9693672 320.846182,46.3506415 C320.846182,45.9446497 320.751675,45.5506428 320.556663,45.1686209 C320.243143,44.5221799 319.574099,43.841282 318.555534,43.1274254 C317.999748,42.7199354 316.957931,42.0749926 315.428582,41.1903497 L314.091246,40.4068303 L319.953624,31.6383042 C320.420154,32.0652699 320.889684,32.6555312 321.358465,33.4173278 C321.939752,34.3251916 322.233021,35.0420444 322.233021,35.5656391 L323.214084,35.4233172 C322.594544,33.5723837 321.518975,32.0113374 320.427655,30.928942" id="Fill-69" fill="#FEFEFE" mask="url(#mask-4)"></path>
                <path d="M248.6898,33.8643683 L257.135345,33.8643683 L257.135345,32.6838457 L248.6898,32.6838457 L248.6898,33.8643683 Z" id="Fill-70" fill="#FEFEFE" mask="url(#mask-4)"></path>
                <path d="M262.079664,38.9055592 L270.525209,38.9055592 L270.525209,37.7257857 L262.079664,37.7257857 L262.079664,38.9055592 Z" id="Fill-71" fill="#FEFEFE" mask="url(#mask-4)"></path>
                <path d="M265.172864,54.4478578 L266.35494,54.4478578 L266.35494,26.3295482 L265.172864,26.3295482 L265.172864,54.4478578 Z" id="Fill-72" fill="#FEFEFE" mask="url(#mask-4)"></path>
                <path d="M51.1505261,39.9139472 L51.1505261,40.8847322 L44.6918593,40.8847322 C44.4120912,44.176113 43.9095588,46.236784 43.1865121,47.0659963 C41.8454256,48.559627 39.7550407,49.3041951 36.9116072,49.3041951 C36.350571,49.3041951 35.7797841,49.2637458 35.1954964,49.1783526 L35.3612571,48.200826 C35.8907913,48.2892154 36.4210755,48.3334101 36.9468595,48.3334101 C39.4842732,48.3334101 41.3218918,47.6989541 42.4634655,46.4322894 C43.0507534,45.7955862 43.4662802,43.9491471 43.7197966,40.8847322 L35.7767839,40.8847322 L35.7767839,39.9154453 L43.7197966,39.9154453 C43.7738,38.7536493 43.7738,37.8824896 43.7197966,37.3042133 L44.6146043,37.1371723 C44.6918593,37.9386692 44.718861,38.8637615 44.6918593,39.9154453 L51.1505261,39.9139472 Z" id="Fill-73" fill="#FEFEFE" mask="url(#mask-4)"></path>
                <path d="M307.695658,40.1048083 L307.695658,41.0763424 L301.236991,41.0763424 C300.957223,44.3677232 300.453941,46.4276452 299.730144,47.2561083 C298.389057,48.749739 296.300172,49.4950563 293.454489,49.4950563 C292.894953,49.4950563 292.323416,49.455356 291.739128,49.3684647 L291.904889,48.3924362 C292.435923,48.4800765 292.964707,48.5242712 293.492741,48.5242712 C296.028655,48.5242712 297.865523,47.8905643 299.006347,46.6224014 C299.595135,45.9871964 300.011412,44.1400082 300.264928,41.0763424 L292.320416,41.0763424 L292.320416,40.1055574 L300.264928,40.1055574 C300.317432,38.9445104 300.317432,38.0733507 300.264928,37.4943253 L301.159736,37.3272844 C301.236991,38.1287813 301.263243,39.0546226 301.236991,40.1055574 L307.695658,40.1048083 Z" id="Fill-74" fill="#FEFEFE" mask="url(#mask-4)"></path>
                <path d="M0.39775067,56.0911512 L0.39775067,57.3623103 L255.539467,57.3623103 L254.568154,56.0911512 L0.39775067,56.0911512 Z" id="Fill-75" fill="#FFE412" mask="url(#mask-4)"></path>
                <path d="M264.952424,56.0926493 L265.925237,57.3638084 L392.10438,57.3638084 L392.10438,56.0926493 L264.952424,56.0926493 Z" id="Fill-76" fill="#FFE412" mask="url(#mask-4)"></path>
                <path d="M293.103391,68.8771993 L294.676993,60.2390101 L295.644555,60.2390101 L294.070954,68.8771993 L293.103391,68.8771993 Z" id="Fill-77" fill="#FEFEFE" mask="url(#mask-4)"></path>
                <path d="M300.13292,63.7427501 C299.992661,63.6948101 299.795398,63.658106 299.468377,63.658106 C298.011033,63.658106 296.810205,65.239377 296.810205,66.8813221 C296.810205,67.53825 297.03147,68.1839419 297.766517,68.1839419 C298.58257,68.1839419 299.538881,67.0888124 299.806649,65.5187774 L300.13292,63.7427501 Z M299.51563,68.8775738 C299.51563,68.5247653 299.573384,67.9652156 299.643888,67.3562278 L299.619887,67.3562278 C299.001847,68.5854394 298.221046,69.0109069 297.428995,69.0109069 C296.426181,69.0109069 295.807391,68.1839419 295.807391,67.0648424 C295.807391,65.0079167 297.253484,62.8543619 299.701642,62.8543619 C300.238677,62.8543619 300.832715,62.95174 301.21749,63.0730882 L300.646703,66.1517352 C300.459191,67.1734565 300.389436,68.2206459 300.412688,68.8775738 L299.51563,68.8775738 Z" id="Fill-78" fill="#FEFEFE" mask="url(#mask-4)"></path>
                <path d="M301.858631,68.8771993 L302.604179,64.7041719 C302.732438,64.047244 302.814193,63.4749602 302.872697,62.9888186 L303.747253,62.9888186 L303.594993,64.1446221 L303.618995,64.1446221 C304.132028,63.316908 304.889577,62.8547365 305.71763,62.8547365 C306.381423,62.8547365 307.139722,63.256234 307.139722,64.4854456 C307.139722,64.7528609 307.093219,65.1296394 307.034715,65.4337588 L306.405425,68.8771993 L305.449113,68.8771993 L306.067153,65.4704628 C306.101655,65.2517366 306.136907,64.9715872 306.136907,64.7161569 C306.136907,64.1318881 305.915643,63.6944356 305.2511,63.6944356 C304.562556,63.6944356 303.583743,64.5581047 303.327226,66.0180275 L302.814193,68.8771993 L301.858631,68.8771993 Z" id="Fill-79" fill="#FEFEFE" mask="url(#mask-4)"></path>
                <path d="M312.444289,63.9131618 C312.257527,63.7670946 311.931256,63.6577315 311.52323,63.6577315 C310.170893,63.6577315 309.121575,65.1663434 309.121575,66.7363785 C309.121575,67.4412464 309.35484,68.1835673 310.182143,68.1835673 C310.928442,68.1835673 311.827,67.2959282 312.071515,65.9693385 L312.444289,63.9131618 Z M314.077145,60.2390101 L312.829064,67.0157789 C312.724057,67.6240176 312.631051,68.3049155 312.595799,68.8771993 L311.709992,68.8771993 L311.861502,67.7086617 L311.8375,67.7086617 C311.325217,68.5483608 310.614171,69.0112815 309.798119,69.0112815 C308.713549,69.0112815 308.11876,68.0742042 308.11876,66.8697117 C308.11876,64.7768309 309.611357,62.8547365 311.604985,62.8547365 C311.966509,62.8547365 312.363284,62.9393805 312.6078,63.0614777 L313.108832,60.2390101 L314.077145,60.2390101 Z" id="Fill-80" fill="#FEFEFE" mask="url(#mask-4)"></path>
                <path d="M314.251231,67.8676877 C314.507748,68.0377249 314.997529,68.2317321 315.463309,68.2317321 C316.116601,68.2317321 316.536628,67.7942795 316.536628,67.2714339 C316.536628,66.8085132 316.337866,66.5163789 315.743077,66.1763045 C315.090535,65.7987769 314.729762,65.2879163 314.729762,64.6796775 C314.729762,63.6452221 315.581067,62.8549612 316.781144,62.8549612 C317.282177,62.8549612 317.737456,63.0010284 317.94747,63.1463465 L317.678952,63.9133865 C317.480939,63.7920384 317.131417,63.6452221 316.71139,63.6452221 C316.116601,63.6452221 315.697324,64.0347347 315.697324,64.5336103 C315.697324,64.9590778 315.965092,65.2272422 316.478125,65.5186276 C317.108165,65.8961551 317.527442,66.4077648 317.527442,67.0759286 C317.527442,68.3178743 316.571881,69.0107571 315.370303,69.0107571 C314.764264,68.9987721 314.227979,68.8167499 313.971463,68.6092596 L314.251231,67.8676877 Z" id="Fill-81" fill="#FEFEFE" mask="url(#mask-4)"></path>
                <path d="M322.412433,68.6460386 C322.120664,68.8040908 321.537876,69.010832 320.779577,69.010832 C319.322983,69.010832 318.611937,67.9891107 318.611937,66.7359291 C318.611937,64.7164565 320.034029,62.8550361 322.06216,62.8550361 C322.586444,62.8550361 323.064975,63.0130883 323.239736,63.1224514 L322.959968,63.9134614 C322.738704,63.8033492 322.424433,63.6947352 322.004406,63.6947352 C320.535062,63.6947352 319.614752,65.2025981 319.614752,66.602596 C319.614752,67.5636432 320.091783,68.183867 321.013592,68.183867 C321.59563,68.183867 322.026908,68.0010957 322.318677,67.8550285 L322.412433,68.6460386 Z" id="Fill-82" fill="#FEFEFE" mask="url(#mask-4)"></path>
                <path d="M327.671547,63.7427501 C327.532038,63.6948101 327.333275,63.658106 327.006254,63.658106 C325.54966,63.658106 324.348083,65.239377 324.348083,66.8813221 C324.348083,67.53825 324.570097,68.1839419 325.304394,68.1839419 C326.121197,68.1839419 327.076759,67.0888124 327.345276,65.5187774 L327.671547,63.7427501 Z M327.053507,68.8775738 C327.053507,68.5247653 327.112011,67.9652156 327.181765,67.3562278 L327.157764,67.3562278 C326.540474,68.5854394 325.758924,69.0109069 324.966873,69.0109069 C323.964058,69.0109069 323.345268,68.1839419 323.345268,67.0648424 C323.345268,65.0079167 324.791361,62.8543619 327.240269,62.8543619 C327.776554,62.8543619 328.371342,62.95174 328.755367,63.0730882 L328.18458,66.1517352 C327.997818,67.1734565 327.928064,68.2206459 327.951315,68.8775738 L327.053507,68.8775738 Z" id="Fill-83" fill="#FEFEFE" mask="url(#mask-4)"></path>
                <path d="M330.468853,67.8918075 C330.726119,68.0985487 331.086892,68.2206459 331.553423,68.2206459 C332.800753,68.2206459 333.83807,66.6019218 333.83807,65.0566058 C333.83807,64.436382 333.581553,63.694061 332.75425,63.694061 C331.996701,63.694061 331.05164,64.5944342 330.760621,66.2491133 L330.468853,67.8918075 Z M328.884,71.2858098 L330.015073,65.0813248 C330.142582,64.3757079 330.259589,63.5719638 330.329344,62.9764591 L331.215151,62.9764591 L331.063641,64.0955585 L331.086892,64.0955585 C331.587925,63.3172826 332.334223,62.8543619 333.115773,62.8543619 C334.328602,62.8543619 334.840885,63.9008023 334.840885,64.9839467 C334.840885,67.0648424 333.418793,69.0109069 331.542172,69.0109069 C330.947383,69.0109069 330.550608,68.8775738 330.329344,68.7434916 L330.306092,68.7434916 L329.851563,71.2858098 L328.884,71.2858098 Z" id="Fill-84" fill="#FEFEFE" mask="url(#mask-4)"></path>
                <path d="M339.421805,64.3879177 C339.421805,63.913012 339.072283,63.6455967 338.55925,63.6455967 C337.63819,63.6455967 336.950396,64.5826739 336.717881,65.5070171 C338.232979,65.5309871 339.421805,65.3122608 339.421805,64.3999027 L339.421805,64.3879177 Z M339.631819,68.5489601 C339.212542,68.7924054 338.524748,69.0111316 337.766449,69.0111316 C336.274602,69.0111316 335.62131,67.9399722 335.62131,66.6388506 C335.62131,64.8620742 336.879891,62.8545866 338.698759,62.8545866 C339.772078,62.8545866 340.354866,63.5242485 340.354866,64.3751836 C340.354866,65.9204996 338.688258,66.3219971 336.600123,66.2852931 C336.55437,66.5414725 336.588873,67.0890372 336.717881,67.4043925 C336.939145,67.9399722 337.393675,68.1961516 337.976462,68.1961516 C338.641005,68.1961516 339.142037,67.9894103 339.49231,67.7946541 L339.631819,68.5489601 Z" id="Fill-85" fill="#FEFEFE" mask="url(#mask-4)"></path>
                <path d="M346.347302,61.2607314 C345.752514,61.2607314 345.262732,61.8689702 345.262732,62.6727143 C345.262732,63.1348858 345.37899,63.5483684 345.636256,63.9738359 C346.580567,63.4989302 347.140104,62.9640996 347.140104,62.1850745 C347.140104,61.711667 346.92934,61.2607314 346.358553,61.2607314 L346.347302,61.2607314 Z M345.22748,68.2202714 C345.84552,68.2202714 346.369804,67.928137 346.767329,67.4899354 C346.393805,66.9184007 345.717262,65.9206494 345.134474,64.8981791 C344.621441,65.2270175 343.817389,65.8112863 343.817389,66.8082885 C343.817389,67.6000476 344.318421,68.2202714 345.216229,68.2202714 L345.22748,68.2202714 Z M347.71089,68.8771993 C347.512878,68.6337539 347.361368,68.4150277 347.175356,68.1228933 C346.521314,68.7431171 345.822268,69.0112815 344.958963,69.0112815 C343.607376,69.0112815 342.837826,68.0989233 342.837826,66.9670898 C342.837826,65.6772041 343.817389,64.813535 344.784952,64.3146593 L344.784952,64.2779553 C344.505183,63.7551096 344.353674,63.280204 344.353674,62.7940624 C344.353674,61.5648508 345.22748,60.5431295 346.440308,60.5431295 C347.488876,60.5431295 348.025911,61.2847014 348.025911,62.1611045 C348.025911,63.1348858 347.361368,63.8891918 346.009031,64.5461197 L346.009031,64.5828237 C346.440308,65.3491147 347.011845,66.2487388 347.419872,66.8577267 C347.897652,66.2375029 348.270426,65.4337588 348.608698,64.3993034 L349.518507,64.3993034 C349.086479,65.7139082 348.585447,66.7363785 347.8624,67.5146545 C348.154169,67.940122 348.468439,68.3910577 348.853964,68.8771993 L347.71089,68.8771993 Z" id="Fill-86" fill="#FEFEFE" mask="url(#mask-4)"></path>
                <path d="M352.012943,67.8676877 C352.26946,68.0377249 352.758491,68.2317321 353.225021,68.2317321 C353.877563,68.2317321 354.29759,67.7942795 354.29759,67.2714339 C354.29759,66.8085132 354.099578,66.5163789 353.504789,66.1763045 C352.852247,65.7987769 352.490724,65.2879163 352.490724,64.6796775 C352.490724,63.6452221 353.342029,62.8549612 354.542856,62.8549612 C355.043889,62.8549612 355.499168,63.0010284 355.708432,63.1463465 L355.439914,63.9133865 C355.242651,63.7920384 354.892379,63.6452221 354.472352,63.6452221 C353.877563,63.6452221 353.458286,64.0347347 353.458286,64.5336103 C353.458286,64.9590778 353.726804,65.2272422 354.239837,65.5186276 C354.869127,65.8961551 355.288404,66.4077648 355.288404,67.0759286 C355.288404,68.3178743 354.332843,69.0107571 353.132015,69.0107571 C352.525976,68.9987721 351.989692,68.8167499 351.733175,68.6092596 L352.012943,67.8676877 Z" id="Fill-87" fill="#FEFEFE" mask="url(#mask-4)"></path>
                <path d="M357.387115,67.8918075 C357.643631,68.0985487 358.005155,68.2206459 358.470935,68.2206459 C359.719015,68.2206459 360.756332,66.6019218 360.756332,65.0566058 C360.756332,64.436382 360.499816,63.694061 359.672512,63.694061 C358.914213,63.694061 357.969902,64.5944342 357.678884,66.2491133 L357.387115,67.8918075 Z M355.801513,71.2858098 L356.931835,65.0813248 C357.060094,64.3757079 357.177851,63.5719638 357.247606,62.9764591 L358.133413,62.9764591 L357.981903,64.0955585 L358.005155,64.0955585 C358.506187,63.3172826 359.252485,62.8543619 360.033286,62.8543619 C361.246864,62.8543619 361.759147,63.9008023 361.759147,64.9839467 C361.759147,67.0648424 360.337055,69.0109069 358.460434,69.0109069 C357.865646,69.0109069 357.46887,68.8775738 357.247606,68.7434916 L357.223604,68.7434916 L356.769825,71.2858098 L355.801513,71.2858098 Z" id="Fill-88" fill="#FEFEFE" mask="url(#mask-4)"></path>
                <path d="M362.447016,68.8771993 L363.134811,65.0816994 C363.27507,64.3146593 363.356075,63.5356343 363.414579,62.9888186 L364.265884,62.9888186 C364.230632,63.4015521 364.184129,63.8037987 364.114374,64.2659703 L364.149626,64.2659703 C364.5224,63.4629752 365.117189,62.8547365 365.873988,62.8547365 C365.967744,62.8547365 366.07275,62.8674705 366.153756,62.8787065 L365.967744,63.8764578 C365.897989,63.8644728 365.804983,63.8524878 365.699976,63.8524878 C364.871923,63.8524878 364.125625,64.9109131 363.881109,66.2734579 L363.414579,68.8771993 L362.447016,68.8771993 Z" id="Fill-89" fill="#FEFEFE" mask="url(#mask-4)"></path>
                <path d="M367.950047,61.9058989 C367.611775,61.9058989 367.37851,61.6257495 367.37851,61.2489711 C367.39051,60.8474736 367.682279,60.5306201 368.043053,60.5306201 C368.404576,60.5306201 368.649842,60.8107695 368.649842,61.187548 C368.637841,61.6130155 368.346072,61.9058989 367.962047,61.9058989 L367.950047,61.9058989 Z M366.14318,68.877424 L367.215749,62.9882943 L368.182562,62.9882943 L367.110742,68.877424 L366.14318,68.877424 Z" id="Fill-90" fill="#FEFEFE" mask="url(#mask-4)"></path>
                <path d="M368.823853,68.8771993 L369.570151,64.7041719 C369.698409,64.047244 369.780165,63.4749602 369.838668,62.9888186 L370.713225,62.9888186 L370.560965,64.1446221 L370.584967,64.1446221 C371.09725,63.316908 371.855549,62.8547365 372.682852,62.8547365 C373.347395,62.8547365 374.105694,63.256234 374.105694,64.4854456 C374.105694,64.7528609 374.058441,65.1296394 374.000687,65.4337588 L373.370646,68.8771993 L372.415085,68.8771993 L373.032375,65.4704628 C373.067627,65.2517366 373.102879,64.9715872 373.102879,64.7161569 C373.102879,64.1318881 372.881615,63.6944356 372.216322,63.6944356 C371.528527,63.6944356 370.549714,64.5581047 370.293198,66.0180275 L369.780165,68.8771993 L368.823853,68.8771993 Z" id="Fill-91" fill="#FEFEFE" mask="url(#mask-4)"></path>
                <path d="M375.038154,68.8771993 L376.612506,60.2390101 L377.580068,60.2390101 L376.588504,65.652485 L376.612506,65.652485 C376.775266,65.4464928 376.98528,65.2270175 377.136789,65.0689653 L379.118417,62.9888186 L380.319245,62.9888186 L377.859836,65.4097888 L379.538444,68.8771993 L378.477876,68.8771993 L377.113538,65.9820725 L376.401742,66.6390004 L375.993716,68.8771993 L375.038154,68.8771993 Z" id="Fill-92" fill="#FEFEFE" mask="url(#mask-4)"></path>
                <path d="M380.446003,68.8771993 L382.019605,60.2390101 L382.987917,60.2390101 L381.413565,68.8771993 L380.446003,68.8771993 Z" id="Fill-93" fill="#FEFEFE" mask="url(#mask-4)"></path>
                <path d="M386.962724,64.3879177 C386.962724,63.913012 386.613201,63.6455967 386.100168,63.6455967 C385.179108,63.6455967 384.491314,64.5826739 384.258049,65.5070171 C385.773897,65.5309871 386.962724,65.3122608 386.962724,64.3999027 L386.962724,64.3879177 Z M387.172737,68.5489601 C386.75346,68.7924054 386.064916,69.0111316 385.307367,69.0111316 C383.81477,69.0111316 383.162228,67.9399722 383.162228,66.6388506 C383.162228,64.8620742 384.42081,62.8545866 386.239677,62.8545866 C387.312996,62.8545866 387.895034,63.5242485 387.895034,64.3751836 C387.895034,65.9204996 386.228426,66.3219971 384.141041,66.2852931 C384.094538,66.5414725 384.129791,67.0890372 384.258049,67.4043925 C384.480063,67.9399722 384.934593,68.1961516 385.51663,68.1961516 C386.181923,68.1961516 386.682956,67.9894103 387.033228,67.7946541 L387.172737,68.5489601 Z" id="Fill-94" fill="#FEFEFE" mask="url(#mask-4)"></path>
                <path d="M388.38519,68.8771993 L389.072985,65.0816994 C389.213244,64.3146593 389.294249,63.5356343 389.352753,62.9888186 L390.204058,62.9888186 C390.168805,63.4015521 390.121552,63.8037987 390.052548,64.2659703 L390.08705,64.2659703 C390.460574,63.4629752 391.055363,62.8547365 391.812162,62.8547365 C391.905918,62.8547365 392.010924,62.8674705 392.09193,62.8787065 L391.905918,63.8764578 C391.836163,63.8644728 391.743157,63.8524878 391.6374,63.8524878 C390.809347,63.8524878 390.063799,64.9109131 389.818533,66.2734579 L389.352753,68.8771993 L388.38519,68.8771993 Z" id="Fill-95" fill="#FEFEFE" mask="url(#mask-4)"></path>
            </g>
        </g>
    </g>
</svg>