<?xml version="1.0" encoding="UTF-8" standalone="no"?>
<svg width="393px" height="74px" viewBox="0 0 393 74" version="1.1" xmlns="http://www.w3.org/2000/svg" xmlns:xlink="http://www.w3.org/1999/xlink">
    <!-- Generator: Sketch 3.6.1 (26313) - http://www.bohemiancoding.com/sketch -->
    <title>logo_cl</title>
    <desc>Created with Sketch.</desc>
    <defs>
        <path id="path-1" d="M0.0450257275,0.634654813 L392.474258,0.634654813 L392.474258,73.0142554 L0.0450257275,73.0142554"></path>
        <path id="path-3" d="M0.0450257275,0.634654813 L392.474258,0.634654813 L392.474258,73.0142554 L0.0450257275,73.0142554"></path>
        <path id="path-5" d="M0.0450257275,0.634654813 L392.474258,0.634654813 L392.474258,73.0142554 L0.0450257275,73.0142554 L0.0450257275,0.634654813 Z"></path>
        <path id="path-7" d="M0.0450257275,0.634654813 L392.474258,0.634654813 L392.474258,73.0142554 L0.0450257275,73.0142554"></path>
    </defs>
    <g id="Welcome" stroke="none" stroke-width="1" fill="none" fill-rule="evenodd">
        <g id="Desktop-HD-Copy-2" transform="translate(-225.000000, -41.000000)">
            <g id="logo_cl" transform="translate(225.000000, 41.000000)">
                <g id="Group-5">
                    <mask id="mask-2" fill="white">
                        <use xlink:href="#path-1"></use>
                    </mask>
                    <g id="Clip-2"></g>
                    <path d="M148.879819,25.4311441 C161.13207,11.1129353 178.871456,2.11348434 198.60173,2.11348434" id="Stroke-1" stroke="#FFE32C" stroke-width="1.904" mask="url(#mask-2)"></path>
                    <path d="M192.601302,4.59191424 C209.088973,4.59191424 223.60977,12.1361543 234.674842,25.2901943 L241.6013,25.2947657 C229.794804,11.2592183 210.231125,0.634654813 192.601302,0.634654813 L192.601302,4.59191424" id="Fill-3" fill="#1A1918" mask="url(#mask-2)"></path>
                    <path d="M11.1461188,31.981117 C13.0184387,33.1422382 14.9080184,34.2881215 16.8126067,35.4164814 C18.7494634,36.7086477 20.2180525,38.1448114 21.2183741,39.7264961 C22.2186957,41.3066571 22.7192317,42.98434 22.7192317,44.759545 C22.7192317,46.1461858 22.4340687,47.4048289 21.862242,48.5331888 C20.9722334,50.341155 19.5516717,51.7864614 17.599056,52.8668221 C15.6464403,53.9479448 13.557997,54.4873633 11.3359773,54.4873633 C8.5098625,54.4873633 6.00192948,53.5509998 3.8106774,51.6759872 C1.61942533,49.8024984 0.349699817,47.4589231 0,44.6467852 L4.3344767,43.6776604 C4.30295869,45.5610538 5.03387633,47.1511194 6.52497834,48.4486189 C8.01758121,49.7491661 9.73156057,50.3960111 11.6691677,50.3960111 C13.1610201,50.3960111 14.4532585,49.8550689 15.5511359,48.7716605 C16.6460115,47.6882522 17.1945749,46.450942 17.1945749,45.0604917 C17.1945749,43.9930831 16.8058528,43.0216727 16.0269077,42.1477842 C15.2479626,41.2754196 14.0660373,40.3375323 12.4788804,39.3333606 C10.9870279,38.4602341 9.51018408,37.5878694 8.04984965,36.7132191 L7.00225106,35.9894231 C5.48038147,34.9921084 4.22716538,33.9780321 3.24560452,32.9464323 C1.7852701,31.4028421 1.05660374,29.5842094 1.05660374,27.4905342 C1.05660374,25.3648596 1.92860199,23.4349909 3.67484979,21.6955948 C5.07064735,20.3112397 7.34069444,19.6186812 10.4834902,19.6186812 C11.4357844,19.6186812 12.7370279,19.905152 14.3879712,20.4780937 C16.0374137,21.0510354 17.0857627,21.3367444 17.5300166,21.3367444 C18.5138287,21.3367444 19.1486915,20.7645646 19.4353553,19.6186812 L20.4822034,19.6186812 L21.577079,30.7171406 L20.3381211,30.7171406 C19.7017575,28.1495695 18.6376495,26.0657989 17.145797,24.4604955 C15.4310672,22.6639577 13.3336188,21.7641649 10.8557029,21.7641649 C9.07643624,21.7641649 7.80596029,22.0689212 7.04352464,22.6791955 C6.08972964,23.4494668 5.61395779,24.4620193 5.61395779,25.7122817 C5.61395779,26.9008309 6.01093462,27.8638605 6.80563871,28.6021325 C7.82246973,29.5651621 8.91734533,30.4466694 10.0940177,31.2489402 L11.1461188,31.981117" id="Fill-4" fill="#1A1918" mask="url(#mask-2)"></path>
                </g>
                <path d="M50.4385704,42.901294 C50.1248911,46.2566599 48.7621125,49.0337509 46.3517352,51.2302813 C43.9421083,53.4260498 41.0732191,54.5254578 37.7465682,54.5254578 C34.2097973,54.5254578 31.1968257,53.2873857 28.7091543,50.8127653 C26.2207324,48.336621 24.9750206,45.2753449 24.9750206,41.6281749 C24.9750206,38.0876696 26.2282367,35.0530596 28.7301663,32.523583 C31.2335967,29.9941065 34.2420658,28.730892 37.7555734,28.730892 C41.2405647,28.730892 44.2422798,29.9918208 46.759218,32.5152022 C49.2746553,35.0393456 50.5338748,38.0686223 50.5338748,41.6015087 L50.5338748,41.7615057 M45.5315165,41.9603592 L45.5315165,41.6015087 C45.5315165,38.1783346 44.9566881,35.5642882 43.8062807,33.7586076 C42.1065595,32.3262534 40.0811522,31.6085525 37.7293084,31.6085525 C35.6130992,31.6085525 33.7190169,32.2089223 32.0455607,33.4050904 C30.7127992,35.2679127 30.0464184,38.0091949 30.0464184,41.6281749 C30.0464184,45.0338256 30.6490127,47.682919 31.8542014,49.5716456 C33.5846901,50.9552388 35.5478119,51.6477973 37.7503204,51.6477973 C40.0811522,51.6477973 42.1523357,50.8760022 43.9593682,49.3308882 C44.8763922,47.787298 45.4001915,45.6440999 45.5315165,42.901294" id="Fill-6" fill="#1A1918"></path>
                <path d="M306.971152,42.901294 C306.655972,46.2566599 305.293944,49.0337509 302.885067,51.2302813 C300.47469,53.4260498 297.605801,54.5254578 294.27915,54.5254578 C290.742379,54.5254578 287.728657,53.2873857 285.241736,50.8127653 C282.751813,48.336621 281.507602,45.2753449 281.507602,41.6281749 C281.507602,38.0876696 282.760068,35.0530596 285.263498,32.523583 C287.765428,29.9941065 290.774647,28.730892 294.286654,28.730892 C297.773146,28.730892 300.774861,29.9918208 303.2918,32.5152022 C305.807237,35.0393456 307.065706,38.0686223 307.065706,41.6015087 L307.065706,41.7615057 M302.063348,41.9603592 L302.063348,41.6015087 C302.063348,38.1783346 301.488519,35.5642882 300.338112,33.7586076 C298.639141,32.3262534 296.613734,31.6085525 294.26189,31.6085525 C292.14493,31.6085525 290.250848,32.2089223 288.579643,33.4050904 C287.245381,35.2679127 286.57825,38.0091949 286.57825,41.6281749 C286.57825,45.0338256 287.180844,47.682919 288.386783,49.5716456 C290.116521,50.9552388 292.081144,51.6477973 294.283652,51.6477973 C296.613734,51.6477973 298.684917,50.8760022 300.491199,49.3308882 C301.408974,47.787298 301.932773,45.6440999 302.063348,42.901294" id="Fill-7" fill="#1A1918"></path>
                <path d="M70.5410569,39.6472595 L70.5410569,28.8931747 L72.3495902,28.730892 L72.3495902,44.7641163 C72.3495902,47.5884445 71.4445731,49.9320198 69.6352893,51.7910327 C67.8260055,53.6515694 65.4996762,54.5810758 62.657052,54.5810758 C59.8421936,54.5810758 57.6036645,53.6424267 55.9422151,51.7636047 C54.3595608,49.9663049 53.5543507,47.6250153 53.5288361,44.7397358 L53.5288361,32.8138633 C53.5288361,31.452365 53.3172152,30.5746671 52.8939734,30.1792459 C52.4707315,29.7861104 51.549205,29.5331627 50.1301441,29.4234505 L50.1301441,28.730892 L57.2059372,28.730892 L57.2059372,43.6761367 C57.2059372,48.9857518 59.2073308,51.6394165 63.2086171,51.6394165 C65.5184369,51.6394165 67.3442302,50.8531455 68.6874977,49.2790796 C69.9227035,47.8413922 70.5410569,46.0227595 70.5410569,43.8247053 L70.5410569,39.6472595" id="Fill-8" fill="#1A1918"></path>
                <path d="M92.4288134,35.4911467 L91.5275484,35.4911467 C91.3084232,34.4412615 91.1515836,33.8020354 91.0562792,33.5742301 C90.9602243,33.3471867 90.7486034,33.0782393 90.4214164,32.7658642 C89.9651557,32.3201583 88.9010477,32.0237829 87.2313436,31.8790237 C87.2298428,31.8790237 85.6179217,31.8820712 85.4513265,31.883595 C85.3470169,31.8843569 85.5121112,31.6862653 85.4948514,32.0611155 C85.4745898,32.5357733 85.4865967,33.6054676 85.4865967,33.6054676 L85.4865967,54.3662227 L78.1353962,54.3662227 L78.1353962,53.6713785 C79.7225531,53.5616663 80.7228747,53.2843382 81.1341097,52.840156 C81.5438438,52.3952119 81.7502117,51.3689454 81.7502117,49.7590707 L81.7502117,31.8714047 L75.012862,31.8714047 L75.012862,28.9221265 L92.2246968,28.9221265 L92.4288134,35.4911467" id="Fill-9" fill="#1A1918"></path>
                <path d="M113.45958,39.0415565 L113.45958,28.9221265 L120.716227,28.9221265 L120.716227,29.6162088 C119.333186,29.7274448 118.42892,29.9925827 118.000425,30.4093368 C117.57118,30.8276147 117.356557,31.7190266 117.356557,33.0820488 L117.356557,50.2002053 C117.356557,51.5601799 117.57118,52.450068 118.000425,52.8660603 C118.42892,53.2835763 119.333186,53.5471904 120.716227,53.6584264 L120.716227,54.3662227 L113.45958,54.3662227 L113.45958,42.2803532 L101.938997,42.2803532 L101.938997,54.3662227 L94.7168708,54.3662227 L94.7168708,53.6569026 C96.222231,53.4908105 97.1505114,53.1845305 97.5069651,52.7388245 C97.8634187,52.2938805 98.0412704,51.2912325 98.0412704,49.7324045 L98.0412704,33.080525 C98.0412704,31.7175029 97.8296494,30.8268528 97.4049067,30.4093368 C96.9809145,29.9910589 96.0849025,29.7274448 94.7168708,29.6162088 L94.7168708,28.9221265 L101.938997,28.9221265 L101.938997,39.0415565 L102.611382,39.0415565" id="Fill-10" fill="#1A1918"></path>
                <path d="M170.813352,54.3662227 L164.692855,54.3662227 L156.312816,43.3370954 L153.616526,43.3370954 L153.616526,54.3662227 L146.496457,54.3662227 L146.496457,53.6690929 C147.947787,53.5304288 148.852053,53.2233869 149.208507,52.7479672 C149.56421,52.2733094 149.742812,51.266852 149.742812,49.7316426 L149.742812,28.8246045 L154.299416,28.8246045 L155.26822,28.8543182 C157.780655,28.9106981 159.67999,29.3160239 160.963224,30.0680099 C163.202503,31.3799854 164.322893,33.3738529 164.322893,36.0511362 C164.322893,37.5589176 163.945428,38.8914641 163.191997,40.0487758 C162.440068,41.2060875 161.420235,42.0502623 160.132499,42.5805381 L167.527224,51.8276035 C168.375959,52.916345 169.470835,53.5304288 170.813352,53.6690929 L170.813352,54.3662227 L170.813352,54.3662227 Z M161.32418,36.1623722 C161.32418,33.317473 159.719763,31.7266455 153.590261,31.7266455 L153.590261,40.7245727 C155.44382,40.6681928 158.514575,40.3870552 159.441354,39.8811599 C160.696821,39.1482212 161.32418,37.9093872 161.32418,36.1623722 L161.32418,36.1623722 Z" id="Fill-11" fill="#1A1918"></path>
                <path d="M374.482728,54.3662227 L368.36073,54.3662227 L359.983693,43.3370954 L357.284401,43.3370954 L357.284401,54.3662227 L350.165833,54.3662227 L350.165833,53.6690929 C351.616412,53.5304288 352.52218,53.2233869 352.877132,52.7479672 C353.232836,52.2733094 353.412188,51.2676139 353.412188,49.7316426 L353.412188,28.8253664 L357.968041,28.8253664 L358.936095,28.8543182 C361.449281,28.9106981 363.349366,29.3160239 364.632599,30.0687717 C366.869628,31.3799854 367.992269,33.3746148 367.992269,36.0518981 C367.992269,37.5589176 367.615554,38.892226 366.862874,40.0487758 C366.110194,41.2060875 365.08886,42.0510241 363.802625,42.5813 L371.195099,51.8276035 C372.042333,52.9171069 373.13946,53.5304288 374.482728,53.6690929 L374.482728,54.3662227 L374.482728,54.3662227 Z M357.258136,40.7245727 C359.112445,40.6689547 362.182449,40.3870552 363.11073,39.8811599 C364.365447,39.1482212 364.994306,37.9093872 364.994306,36.1623722 C364.994306,33.317473 363.39064,31.7274074 357.258136,31.7274074 L357.258136,40.7245727 Z" id="Fill-12" fill="#1A1918"></path>
                <path d="M172.48981,49.5465032 C172.48981,49.4634571 172.506319,49.3103171 172.540839,49.0870832 L172.540839,48.6269013 L172.540839,26.858165 L182.234128,37.2831132 L191.663266,46.6497954 L191.626495,28.8291758 L198.295555,28.8291758 L198.295555,29.5407816 C196.821713,29.7091594 195.867168,30.0718193 195.431169,30.6279994 C195.130247,31.0211349 194.924629,31.5087449 194.815817,32.0938768 L194.815817,55.1174468 L190.922592,51.4961811 L175.679132,37.1147354 L175.679132,53.1791973 C176.177417,53.403955 176.856555,53.557095 177.716546,53.6416648 L177.716546,54.3547944 L168.845728,54.3547944 L168.845728,53.6416648 C170.464403,53.473287 171.484235,53.1091033 171.903725,52.5498757 C172.21065,52.1575021 172.406512,51.4847527 172.48981,50.5339133" id="Fill-13" fill="#1A1918"></path>
                <path d="M234.611806,47.1031203 L232.679452,54.5399338 L213.193068,54.5399338 L213.193068,30.1701032 C213.193068,28.6272749 212.947677,27.6048178 212.456897,27.1004462 C211.966117,26.5953128 210.959041,26.3012231 209.432669,26.2174151 L209.432669,25.376288 L232.271219,25.376288 L232.434812,31.7083602 L231.324928,31.7083602 C230.914444,29.5994472 230.254817,28.2630912 229.35055,27.6992922 C228.635391,27.2794905 227.126279,27.066923 224.823213,27.066923 L218.978123,27.066923 C218.347763,27.066923 217.956039,27.1728258 217.804453,27.3823457 C217.654367,27.5941513 217.578573,27.9811917 217.578573,28.5419431 L217.578573,36.5890309 L229.930631,36.5890309 L229.930631,44.3283149 L228.942317,44.3283149 C228.584362,42.5614908 228.158869,41.4407498 227.665837,40.9630445 C227.088758,40.402293 225.935348,40.1226792 224.20486,40.1226792 L217.600336,40.1226792 L217.578573,41.7081734 L217.578573,51.141902 L228.769718,51.141902 C229.947891,50.9179062 230.787621,50.6230545 231.279902,50.2588709 C232.020576,49.6988813 232.731982,48.6467105 233.419375,47.1031203 L234.611806,47.1031203" id="Fill-14" fill="#1A1918"></path>
                <path d="M273.649862,70.8200106 L266.871989,70.8200106 L247.7263,43.9267986 L241.524756,54.5269816 L237.949713,54.5269816 L245.83747,41.1253271 L245.550056,40.7070492 L244.975228,39.831637 L242.099585,35.6122873 C240.537942,33.3007114 239.620168,32.0047356 239.347762,31.7266455 C238.142574,30.3620996 236.812814,29.6512557 235.362985,29.5956377 L235.362985,28.8436518 L242.345725,28.8436518 L247.97244,37.6549158 L249.533332,35.0469645 L250.109662,34.06184 L253.313242,28.5541334 L256.927307,28.5541334 L253.683203,34.06184 L249.738199,40.7710481 L269.418194,67.268077 C270.158117,68.3560567 270.815493,69.0729957 271.391822,69.4204177 C271.96515,69.7693636 272.719331,69.9986927 273.649862,70.1099287 L273.649862,70.8200106 L273.649862,70.8200106 Z M253.109125,35.0469645 L249.86277,40.4586729 L253.109125,35.0469645 Z" id="Fill-15" fill="#1A1918"></path>
                <path d="M264.079644,36.0046609 L264.079644,33.031764 C264.079644,31.6938843 263.891286,30.8139007 263.51232,30.3956228 L263.07482,30.1061044 L262.545768,29.8318238 C262.154044,29.7205878 261.584468,29.6230658 260.837041,29.537734 L260.837041,28.8246045 L269.331895,28.8246045 C273.073533,28.8246045 275.764571,29.4805923 277.403507,30.7948534 C278.849583,31.9689267 279.575248,33.8142256 279.575248,36.3292262 C279.575248,38.9287967 278.697246,40.8838079 276.944245,42.1988309 C275.380351,43.3454762 273.284404,43.917656 270.655651,43.917656 L267.81753,43.917656 L267.81753,54.3662227 L264.079644,54.3662227 L264.079644,36.9257865 M276.613306,36.2873223 C276.613306,33.247379 274.298983,31.7266455 269.668087,31.7266455 L267.81753,31.7266455 L267.81753,41.014853 L269.833182,41.014853 C274.352264,41.014853 276.613306,39.4392634 276.613306,36.2873223" id="Fill-16" fill="#1A1918"></path>
                <path d="M314.382387,40.9965676 C313.18095,40.1363932 312.268429,39.386693 311.64107,38.7482287 C310.576212,37.6381542 310.045659,36.2918936 310.045659,34.709447 C310.045659,33.1285241 310.676019,31.6984556 311.933738,30.4215271 C312.916799,29.4211648 314.600011,28.9221265 316.980371,28.9221265 C317.910152,28.9221265 318.970508,29.1339321 320.159188,29.559067 C321.349368,29.98344 322.026254,30.1952456 322.189097,30.1952456 C322.655864,30.1952456 322.978549,30.0931522 323.154149,29.8874418 C323.332751,29.6817314 323.464076,29.3602136 323.544372,28.9221265 L324.324067,28.9221265 L325.18631,37.075879 L324.282043,37.075879 C323.816777,35.196295 323.024325,33.6641332 321.902434,32.4732983 C320.616199,31.1476087 319.069565,30.4824783 317.264784,30.4824783 C316.006315,30.4824783 315.075783,30.7186644 314.473189,31.1879889 C313.761782,31.7411215 313.406829,32.4885361 313.406829,33.4279471 C313.406829,34.2576459 313.707751,34.9631565 314.309595,35.5429552 C315.075783,36.2903698 315.868986,36.9395006 316.688454,37.4926331 L317.464398,38.0366229 C318.860195,38.899083 320.256743,39.7470672 321.654042,40.5813373 C323.077605,41.5268435 324.15297,42.5767286 324.878634,43.7302309 C325.603548,44.8852569 325.966756,46.1149482 325.966756,47.4215905 C325.966756,48.4516665 325.761138,49.3826967 325.349904,50.216205 C324.691777,51.524371 323.644929,52.5818751 322.207108,53.3871934 C320.769286,54.1940354 319.228656,54.5970755 317.586718,54.5970755 C315.505779,54.5970755 313.664226,53.9022314 312.063562,52.5110193 C310.459895,51.1198072 309.521859,49.394887 309.247953,47.334735 L312.453785,46.6673189 C312.424518,48.058531 312.985839,49.2265092 314.136246,50.1720153 C315.204106,51.1182834 316.449068,51.5898936 317.874882,51.5898936 C318.970508,51.5898936 319.927305,51.1883773 320.749775,50.3807733 C321.570744,49.5739313 321.981979,48.6566151 321.981979,47.627301 C321.981979,46.8212208 321.693064,46.1058056 321.118986,45.4795315 C320.544158,44.8540194 319.654149,44.1789844 318.44896,43.4567122 C317.3811,42.7892961 316.299732,42.1363559 315.204106,41.4956059" id="Fill-17" fill="#1A1918"></path>
                <g id="Group-21">
                    <mask id="mask-4" fill="white">
                        <use xlink:href="#path-3"></use>
                    </mask>
                    <g id="Clip-19"></g>
                    <path d="M347.417013,39.6564022 L347.417013,28.9868872 L349.211288,28.8246045 L349.211288,44.7328788 C349.211288,47.5351122 348.312274,49.8588783 346.516498,51.7034153 C344.721472,53.5494761 342.413153,54.4721255 339.593792,54.4721255 C336.802197,54.4721255 334.580928,53.5403334 332.932236,51.6759872 C331.360838,49.8931634 330.563883,47.5701592 330.536867,44.7077364 L330.536867,32.8763384 C330.536867,31.5255064 330.327498,30.6546656 329.907258,30.2630538 C329.488518,29.872204 328.572995,29.621542 327.165191,29.5118298 L327.165191,28.8246045 L334.186203,28.8246045 L334.186203,43.652518 C334.186203,48.9202292 336.171087,51.5540848 340.140105,51.5540848 C342.433415,51.5540848 344.2442,50.7739089 345.577712,49.2105095 C346.802411,47.7850123 347.417013,45.9816174 347.417013,43.7995629 L347.417013,40.6102892" id="Fill-18" fill="#1A1918" mask="url(#mask-4)"></path>
                    <path d="M392.763173,47.9069148 L391.115232,54.3723178 L374.481227,54.3723178 L374.481227,33.0195738 C374.481227,31.6641705 374.273358,30.7651397 373.852368,30.3217194 C373.435129,29.8760134 372.575138,29.6177326 371.271643,29.5445911 L371.271643,28.8055572 L390.765532,28.8055572 L390.905862,34.3719295 L389.958821,34.3719295 C389.606119,32.5182498 389.042547,31.3441765 388.270356,30.8481858 C387.661758,30.477907 386.374773,30.2920057 384.407899,30.2920057 L379.419048,30.2920057 C378.877989,30.2920057 378.54705,30.3857182 378.417226,30.5700957 C378.288903,30.7552351 378.224366,31.0942764 378.224366,31.5879815 L378.224366,38.6621351 L388.76714,38.6621351 L388.76714,45.4665794 L387.921407,45.4665794 C387.618233,43.9130846 387.255026,42.9279601 386.834035,42.5089204 C386.342504,42.0152153 385.357942,41.7683628 383.880348,41.7683628 L378.242376,41.7683628 L378.224366,43.1641462 L378.224366,51.4565628 L387.775823,51.4565628 C388.782148,51.2592331 389.497307,51.0001903 389.920549,50.6809582 C390.549408,50.188015 391.159507,49.262318 391.745592,47.9069148 L392.763173,47.9069148" id="Fill-20" fill="#1A1918" mask="url(#mask-4)"></path>
                </g>
                <path d="M145.138181,47.9320572 L143.489489,54.4439355 L126.855485,54.4439355 L126.855485,33.1010961 C126.855485,31.7502642 126.646865,30.8550428 126.227376,30.4139082 C125.810137,29.969726 124.948645,29.712207 123.645901,29.6398274 L123.645901,28.9023173 L143.139789,28.9023173 L143.28012,34.4496423 L142.333078,34.4496423 C141.981127,32.6012959 141.418306,31.4317939 140.643863,30.937327 C140.036016,30.5685719 138.74828,30.3841944 136.782157,30.3841944 L131.794057,30.3841944 C131.252997,30.3841944 130.922058,30.4763832 130.792234,30.6607607 C130.66316,30.8451382 130.600124,31.1834176 130.600124,31.674837 L130.600124,38.7223244 L141.142898,38.7223244 L141.142898,45.5008645 L140.296415,45.5008645 C139.993242,43.9527029 139.629284,42.970626 139.207543,42.5546338 C138.716762,42.0624525 137.7322,41.8171238 136.254605,41.8171238 L130.616634,41.8171238 L130.600124,43.2068121 L130.600124,51.4679911 L140.150832,51.4679911 C141.156406,51.2714234 141.870814,51.0131425 142.294807,50.6939103 C142.924416,50.2047766 143.532264,49.2828891 144.119849,47.9320572 L145.138181,47.9320572" id="Fill-22" fill="#1A1918"></path>
                <path d="M75.0879049,38.4145206 L75.0668929,39.469739 L69.7583596,39.469739 L69.7583596,42.0944519 C69.7583596,44.8235438 69.1445089,46.9141714 67.9123048,48.3670967 C67.004286,49.4375529 65.6107397,50.2657279 63.736919,50.8592406 L63.4299936,49.8824969 C65.0696805,49.3758397 66.2853752,48.6794718 67.0770775,47.7903455 C68.2169789,46.5141789 68.7888056,44.6170715 68.7888056,42.0944519 L68.7888056,39.469739 L66.2853752,39.469739 L66.2853752,38.4236633 L68.7888056,38.4236633 L68.7888056,31.6786464 L69.7583596,31.6786464 L69.7583596,38.4236633 L70.3729608,38.4236633 L75.0879049,38.4145206" id="Fill-23" fill="#1A1918"></path>
                <path d="M351.848295,38.4145206 L351.826532,39.469739 L346.517999,39.469739 L346.517999,42.0944519 C346.517999,44.8235438 345.902647,46.9141714 344.673445,48.3670967 C343.764676,49.4375529 342.370379,50.2657279 340.496558,50.8592406 L340.190383,49.8824969 C341.82932,49.3758397 343.045765,48.6794718 343.835966,47.7903455 C344.977369,46.5141789 345.548445,44.6170715 345.548445,42.0944519 L345.548445,39.469739 L343.045765,39.469739 L343.045765,38.4236633 L345.548445,38.4236633 L345.548445,31.6786464 L346.517999,31.6786464 L346.517999,38.4236633 L347.134101,38.4236633 L351.848295,38.4145206" id="Fill-24" fill="#1A1918"></path>
                <path d="M73.9712669,32.6028197 L88.0260477,32.6028197 L88.0260477,33.5087075 L73.9712669,33.5087075 L73.9712669,32.6028197 Z" id="Fill-25" fill="#1A1918"></path>
                <path d="M86.0966953,27.4044406 L86.9874543,27.4044406 L86.9874543,38.3756642 L86.0966953,38.3756642 L86.0966953,27.4044406 Z" id="Fill-26" fill="#1A1918"></path>
                <path d="M104.69157,36.9318817 L123.316462,36.9318817 L123.316462,37.8362457 L104.69157,37.8362457 L104.69157,36.9318817 Z" id="Fill-27" fill="#1A1918"></path>
                <path d="M125.084473,42.6094899 L136.085008,42.6094899 L136.085008,43.513854 L125.084473,43.513854 L125.084473,42.6094899 Z" id="Fill-28" fill="#1A1918"></path>
                <path d="M169.265217,49.5137419 L180.267254,49.5137419 L180.267254,50.5704841 L169.265217,50.5704841 L169.265217,49.5137419 Z" id="Fill-29" fill="#1A1918"></path>
                <path d="M131.508143,31.5689342 L132.398902,31.5689342 L132.398902,49.4070772 L131.508143,49.4070772 L131.508143,31.5689342 Z" id="Fill-30" fill="#1A1918"></path>
                <path d="M372.954104,42.6094899 L383.95464,42.6094899 L383.95464,43.513854 L372.954104,43.513854 L372.954104,42.6094899 Z" id="Fill-31" fill="#1A1918"></path>
                <path d="M379.376274,31.5689342 L380.267783,31.5689342 L380.267783,49.4070772 L379.376274,49.4070772 L379.376274,31.5689342 Z" id="Fill-32" fill="#1A1918"></path>
                <path d="M211.607412,41.2525629 L222.607947,41.2525629 L222.607947,42.1576888 L211.607412,42.1576888 L211.607412,41.2525629 Z" id="Fill-33" fill="#1A1918"></path>
                <path d="M218.506854,28.549562 L219.398363,28.549562 L219.398363,49.4070772 L218.506854,49.4070772 L218.506854,28.549562 Z" id="Fill-34" fill="#1A1918"></path>
                <path d="M190.342511,54.0096579 L190.342511,39.9809676 L189.165088,39.9809676 L189.165088,51.4382774 L190.197678,52.4112116 L190.342511,54.0096579" id="Fill-35" fill="#1A1918"></path>
                <path d="M190.197678,52.4112116 L175.594334,38.6507067 L174.87092,39.442311 L190.344762,54.0706092 L190.197678,52.4112116" id="Fill-36" fill="#1A1918"></path>
                <path d="M258.544481,29.5392578 L248.680845,46.0616159 L247.763071,45.4978169 L257.623705,28.9746969 L258.544481,29.5392578" id="Fill-37" fill="#1A1918"></path>
                <path d="M245.956789,39.3242179 L236.365558,55.73534 L235.442531,55.1806837 L245.03226,38.7680378 L245.956789,39.3242179" id="Fill-38" fill="#1A1918"></path>
                <path d="M154.466762,51.9639819 L155.359021,51.9639819 L155.359021,44.8197343 L154.466762,43.6624226 L154.466762,51.9639819" id="Fill-39" fill="#1A1918"></path>
                <path d="M155.359021,43.3500475 L155.359021,27.4052024 L154.466762,27.4052024 L154.466762,43.2479542 L154.97105,42.8471998 L155.359021,43.3500475" id="Fill-40" fill="#1A1918"></path>
                <path d="M154.466762,43.6624226 L154.466762,43.2479542" id="Fill-41" fill="#1A1918"></path>
                <path d="M164.532263,55.2667773 L155.359021,43.3500475 L155.359021,44.8197343 L163.831363,55.8229574 L164.532263,55.2667773" id="Fill-42" fill="#1A1918"></path>
                <path d="M154.97105,42.8471998 L154.466762,43.2479542 L154.466762,43.6624226 L155.359021,44.8197343 L155.359021,43.3500475 L154.97105,42.8471998" id="Fill-43" fill="#1A1918"></path>
                <path d="M358.106871,52.5460662 L358.999131,52.5460662 L358.999131,45.4018187 L358.106871,44.2437451 L358.106871,52.5460662" id="Fill-44" fill="#1A1918"></path>
                <path d="M358.999131,43.5854717 L358.999131,27.3952979 L358.106871,27.3952979 L358.106871,43.4826165 L358.611159,43.0826239 L358.999131,43.5854717" id="Fill-45" fill="#1A1918"></path>
                <path d="M358.106871,44.2437451 L358.106871,43.8292766" id="Fill-46" fill="#1A1918"></path>
                <path d="M367.832428,55.5037253 L358.999131,43.9321319 L358.999131,45.4018187 L367.130777,56.0583816 L367.832428,55.5037253" id="Fill-47" fill="#1A1918"></path>
                <path d="M358.611159,43.4292841 L358.106871,43.8292766 L358.106871,44.2437451 L358.999131,45.4018187 L358.999131,43.9321319 L358.611159,43.4292841" id="Fill-48" fill="#1A1918"></path>
                <path d="M102.809495,28.8665085 L103.701004,28.8665085 L103.701004,47.7743458 L102.809495,47.7743458 L102.809495,28.8665085 Z" id="Fill-49" fill="#1A1918"></path>
                <path d="M15.8565604,24.7660136 L15.8738202,24.7401094 L14.9838117,23.8509831 L6.52722963,36.6476965 L6.41616617,36.581412 C4.24142353,35.224485 2.76758138,33.9940318 1.99989273,32.885481 L0.942538562,33.5978487 C1.90909085,34.9235382 3.4977486,36.2690369 5.71601611,37.6236783 L5.83383343,37.6960579 L4.02530004,40.4320068 L5.08190378,41.1535171 L6.91970389,38.3589026 C8.5151155,39.3158371 10.1142793,40.2697241 11.7104413,41.2213254 C13.4101625,42.3268285 14.4660158,43.3073816 14.8742491,44.1584134 C15.0318391,44.473836 15.1098837,44.8075441 15.1098837,45.1542043 C15.1098837,45.692099 14.9207757,46.2101846 14.5470621,46.7160799 C13.8281513,47.6631098 13.1527654,48.0897685 12.525407,47.996056 L12.2905228,49.2265092 C13.4266719,49.4482193 14.5132928,48.8615636 15.5518863,47.474161 C16.1214617,46.7480793 16.4028725,45.9739985 16.4028725,45.1542043 C16.4028725,44.6178333 16.2790518,44.0974621 16.0254068,43.5915668 C15.6171736,42.7382494 14.7474266,41.8376948 13.4221694,40.8929505 C12.698756,40.3550558 11.3449825,39.5025003 9.3570966,38.3329983 L7.61760266,37.2968272 L15.2397079,25.7046628 C15.8483057,26.2692237 16.4591547,27.0501615 17.0677524,28.0566189 C17.8234342,29.2573583 18.2046521,30.2051502 18.2046521,30.8977086 L19.4818819,30.7087598 C18.6759213,28.2615674 17.2756212,26.197606 15.8565604,24.7660136" id="Fill-50" fill="#1A1918"></path>
                <path d="M320.590684,32.0931149 L320.604192,32.0725438 L319.91905,31.3876043 L313.411332,41.2327537 L313.327284,41.1832308 C311.652327,40.1386789 310.51993,39.191649 309.928592,38.3390935 L309.115127,38.8868928 C309.859552,39.9070642 311.08125,40.9417115 312.786975,41.9847397 L312.877777,42.0403577 L311.486482,44.1454612 L312.300697,44.7001175 L313.713755,42.5508243 C314.940706,43.2868106 316.171409,44.0197493 317.39911,44.7519261 C318.708609,45.6029578 319.521323,46.3579913 319.834252,47.0124553 C319.955071,47.2554984 320.015105,47.5114936 320.015105,47.7789172 C320.015105,48.1926237 319.869522,48.5910925 319.582108,48.9804185 C319.027541,49.7087859 318.509745,50.0379226 318.027219,49.9647811 L317.846366,50.911811 C318.719865,51.0824745 319.557344,50.6314353 320.355049,49.5632648 C320.79405,49.004799 321.009423,48.4082387 321.009423,47.7789172 C321.009423,47.3659725 320.914869,46.96598 320.719007,46.5766539 C320.405328,45.9199043 319.736696,45.2265839 318.716863,44.5005022 C318.161546,44.0860338 317.119201,43.430046 315.588326,42.5302533 L314.251062,41.7333158 L320.116413,32.8146252 C320.58318,33.2496647 321.052948,33.8492726 321.521966,34.6241152 C322.103549,35.5475266 322.396966,36.2766558 322.396966,36.8092173 L323.377777,36.6644581 C322.758673,34.7818266 321.682558,33.1940467 320.590684,32.0931149" id="Fill-51" fill="#1A1918"></path>
                <path d="M248.816673,33.8782244 L257.266501,33.8782244 L257.266501,35.0789639 L248.816673,35.0789639 L248.816673,33.8782244 Z" id="Fill-52" fill="#1A1918"></path>
                <path d="M262.213328,39.0057477 L270.662405,39.0057477 L270.662405,40.2057253 L262.213328,40.2057253 L262.213328,39.0057477 Z" id="Fill-53" fill="#1A1918"></path>
                <path d="M265.308096,27.415107 L266.490772,27.415107 L266.490772,56.0149538 L265.308096,56.0149538 L265.308096,27.415107 Z" id="Fill-54" fill="#1A1918"></path>
                <path d="M51.1762419,41.2319918 L51.1762419,42.219402 L44.7142996,42.219402 C44.4343896,45.5679108 43.9316023,47.6638717 43.208189,48.5065226 C41.8664223,50.0257323 39.7749772,50.7830515 36.9301017,50.7830515 C36.368781,50.7830515 35.7977047,50.7426713 35.2131206,50.6550539 L35.3797158,49.6615487 C35.9095185,49.7506899 36.4400717,49.7956414 36.9661223,49.7956414 C39.5048229,49.7956414 41.3433734,49.151082 42.4847756,47.8619632 C43.0731118,47.2151182 43.4880989,45.3362961 43.7417438,42.219402 L35.7947029,42.219402 L35.7947029,41.2335156 L43.7417438,41.2335156 C43.7957747,40.0518234 43.7957747,39.1657447 43.7417438,38.5775652 L44.6377558,38.4076636 C44.7142996,39.2228865 44.741315,40.1638213 44.7142996,41.2335156 L51.1762419,41.2319918" id="Fill-55" fill="#1A1918"></path>
                <path d="M307.852155,41.4262739 L307.852155,42.4144459 L301.390213,42.4144459 C301.109553,45.7621929 300.606765,47.8573919 299.882602,48.7000428 C298.540835,50.2192525 296.450891,50.9773336 293.603764,50.9773336 C293.043194,50.9773336 292.472117,50.9369534 291.886783,50.8485741 L292.053378,49.8558308 C292.584682,49.944972 293.113734,49.9899235 293.641285,49.9899235 C296.179236,49.9899235 298.016285,49.3453641 299.158438,48.0554834 C299.747524,47.4094003 300.164012,45.5305782 300.417657,42.4144459 L292.469116,42.4144459 L292.469116,41.4270358 L300.417657,41.4270358 C300.470187,40.2461055 300.470187,39.3600268 300.417657,38.7710854 L301.312919,38.6011838 C301.390213,39.4164067 301.416478,40.3581034 301.390213,41.4270358 L307.852155,41.4262739" id="Fill-56" fill="#1A1918"></path>
                <path d="M0.39772726,57.6865416 L0.39772726,58.9794699 L255.669588,58.9794699 L254.697783,57.6865416 L0.39772726,57.6865416" id="Fill-57" fill="#FFE32C"></path>
                <path d="M265.08747,57.6880654 L266.060026,58.9809937 L392.303911,58.9809937 L392.303911,57.6880654 L265.08747,57.6880654" id="Fill-58" fill="#FFE32C"></path>
                <path d="M293.252563,70.6912511 L294.826212,61.9051295 L295.795016,61.9051295 L294.220616,70.6912511 L293.252563,70.6912511" id="Fill-59" fill="#1A1918"></path>
                <path d="M299.667979,70.6912511 C299.667979,70.3331626 299.725762,69.7632685 299.796302,69.1446134 L299.772289,69.1446134 C299.153935,70.3948757 298.372739,70.8276295 297.579536,70.8276295 C296.576963,70.8276295 295.957859,69.9857405 295.957859,68.8474761 C295.957859,66.7560865 297.404686,64.5656513 299.854085,64.5656513 C300.390642,64.5656513 300.984982,64.664697 301.370702,64.7881233 L300.798875,67.9194934 C300.612018,68.9587121 300.542229,70.0230731 300.565492,70.6912511 L299.667979,70.6912511 L299.667979,70.6912511 Z M300.285582,65.4692534 C300.145252,65.4197306 299.947889,65.3823979 299.620702,65.3823979 C298.162619,65.3823979 296.961182,66.9915107 296.961182,68.6615748 C296.961182,69.3297528 297.182559,69.9857405 297.917979,69.9857405 C298.733695,69.9857405 299.691242,68.8726184 299.959145,67.2756959 L300.285582,65.4692534 L300.285582,65.4692534 Z" id="Fill-60" fill="#1A1918"></path>
                <path d="M302.012319,70.6912511 L302.758245,66.446759 C302.886568,65.778581 302.968365,65.1964966 303.026148,64.7020297 L303.901148,64.7020297 L303.749561,65.8776268 L303.772824,65.8776268 C304.286868,65.0357377 305.044801,64.5656513 305.872524,64.5656513 C306.537404,64.5656513 307.296088,64.9740246 307.296088,66.224287 C307.296088,66.4962819 307.248811,66.8795128 307.191028,67.1896023 L306.560667,70.6912511 L305.604621,70.6912511 L306.222974,67.226173 C306.257494,67.003701 306.292764,66.7187539 306.292764,66.4597111 C306.292764,65.8646746 306.071388,65.4197306 305.406508,65.4197306 C304.717614,65.4197306 303.737554,66.2989522 303.481658,67.783115 L302.968365,70.6912511 L302.012319,70.6912511" id="Fill-61" fill="#1A1918"></path>
                <path d="M314.236804,61.9051295 L312.98809,68.7979532 C312.88303,69.4166083 312.789977,70.1099287 312.754707,70.6912511 L311.8677,70.6912511 L312.020037,69.5034638 L311.996023,69.5034638 C311.48348,70.3575431 310.772074,70.8276295 309.955607,70.8276295 C308.870487,70.8276295 308.275397,69.8745045 308.275397,68.6501464 C308.275397,66.5214243 309.768751,64.5656513 311.76339,64.5656513 C312.125097,64.5656513 312.522074,64.6517449 312.766714,64.7766949 L313.268,61.9051295 L314.236804,61.9051295 L314.236804,61.9051295 Z M312.60312,65.6422026 C312.416263,65.4936339 312.089827,65.3823979 311.681594,65.3823979 C310.32857,65.3823979 309.278721,66.9168454 309.278721,68.513768 C309.278721,69.230707 309.512104,69.9857405 310.339827,69.9857405 C311.086503,69.9857405 311.985517,69.0829002 312.230157,67.7335921 L312.60312,65.6422026 L312.60312,65.6422026 Z" id="Fill-62" fill="#1A1918"></path>
                <path d="M314.410903,69.6649846 C314.66755,69.8371719 315.15758,70.0352634 315.623596,70.0352634 C316.277219,70.0352634 316.69746,69.5903193 316.69746,69.0585197 C316.69746,68.5869095 316.498596,68.2905341 315.903506,67.9446358 C315.250633,67.5606429 314.889677,67.0402717 314.889677,66.4223785 C314.889677,65.3702077 315.741413,64.5656513 316.942099,64.5656513 C317.443386,64.5656513 317.898896,64.7142199 318.109016,64.8627886 L317.840363,65.6422026 C317.642249,65.5187763 317.29255,65.3702077 316.872309,65.3702077 C316.277219,65.3702077 315.85773,65.7656289 315.85773,66.2730479 C315.85773,66.7065637 316.125633,66.9785586 316.638926,67.2756959 C317.269286,67.6596887 317.688776,68.1792981 317.688776,68.8596663 C317.688776,70.1221189 316.73273,70.8276295 315.530543,70.8276295 C314.924196,70.8146774 314.38764,70.629538 314.130993,70.4192562 L314.410903,69.6649846" id="Fill-63" fill="#1A1918"></path>
                <path d="M322.576319,70.4565889 C322.284402,70.6173478 321.701319,70.8276295 320.942635,70.8276295 C319.485303,70.8276295 318.773896,69.7884109 318.773896,68.513768 C318.773896,66.4597111 320.196709,64.5656513 322.225868,64.5656513 C322.750418,64.5656513 323.229192,64.7264102 323.404792,64.8384081 L323.124132,65.6422026 C322.902755,65.5309666 322.588326,65.4197306 322.168085,65.4197306 C320.697995,65.4197306 319.777219,66.9541781 319.777219,68.3773896 C319.777219,69.3548952 320.254492,69.9857405 321.176769,69.9857405 C321.759102,69.9857405 322.190598,69.7998392 322.482515,69.6520325 L322.576319,70.4565889" id="Fill-64" fill="#1A1918"></path>
                <g id="Group-68">
                    <mask id="mask-6" fill="white">
                        <use xlink:href="#path-5"></use>
                    </mask>
                    <g id="Clip-66"></g>
                    <path d="M327.219222,70.6912511 C327.219222,70.3331626 327.278506,69.7632685 327.347545,69.1446134 L327.324282,69.1446134 C326.706679,70.3948757 325.924732,70.8276295 325.131529,70.8276295 C324.128205,70.8276295 323.509852,69.9857405 323.509852,68.8474761 C323.509852,66.7560865 324.956679,64.5656513 327.406078,64.5656513 C327.942635,64.5656513 328.537725,64.664697 328.922695,64.7881233 L328.350868,67.9194934 C328.164011,68.9587121 328.094972,70.0230731 328.118235,70.6912511 L327.219222,70.6912511 L327.219222,70.6912511 Z M327.838325,65.4692534 C327.697995,65.4197306 327.499132,65.3823979 327.172695,65.3823979 C325.715362,65.3823979 324.513175,66.9915107 324.513175,68.6615748 C324.513175,69.3297528 324.735302,69.9857405 325.469222,69.9857405 C326.286439,69.9857405 327.243235,68.8726184 327.511138,67.2756959 L327.838325,65.4692534 L327.838325,65.4692534 Z" id="Fill-65" fill="#1A1918" mask="url(#mask-6)"></path>
                    <path d="M329.051018,73.1414911 L330.182665,66.8307518 C330.310988,66.1130509 330.427305,65.2955424 330.497095,64.6890775 L331.383351,64.6890775 L331.231764,65.827342 L331.255028,65.827342 C331.756314,65.0357377 332.502991,64.5656513 333.284938,64.5656513 C334.498381,64.5656513 335.010924,65.6300123 335.010924,66.731706 C335.010924,68.8474761 333.588111,70.8276295 331.710538,70.8276295 C331.115448,70.8276295 330.719222,70.6912511 330.497095,70.5556346 L330.473831,70.5556346 L330.019071,73.1414911 L329.051018,73.1414911 L329.051018,73.1414911 Z M330.636674,69.6893651 C330.894071,69.8996469 331.255028,70.0230731 331.721794,70.0230731 C332.970508,70.0230731 334.0076,68.3773896 334.0076,66.8056094 C334.0076,66.1740022 333.751704,65.4197306 332.923231,65.4197306 C332.165298,65.4197306 331.220508,66.3347611 330.928591,68.0177773 L330.636674,69.6893651 L330.636674,69.6893651 Z" id="Fill-67" fill="#1A1918" mask="url(#mask-6)"></path>
                </g>
                <path d="M339.804663,70.3575431 C339.384423,70.6051575 338.69628,70.8276295 337.938346,70.8276295 C336.444993,70.8276295 335.79137,69.7381261 335.79137,68.4147222 C335.79137,66.6075179 337.05134,64.5656513 338.871129,64.5656513 C339.944243,64.5656513 340.528076,65.2467814 340.528076,66.1130509 C340.528076,67.6840692 338.859873,68.0924425 336.77143,68.0551099 C336.724903,68.3156765 336.759423,68.8726184 336.888497,69.1933744 C337.109873,69.7381261 337.565383,69.9986927 338.148467,69.9986927 C338.813346,69.9986927 339.314633,69.7884109 339.664333,69.5903193 L339.804663,70.3575431 L339.804663,70.3575431 Z M339.594543,66.1252412 C339.594543,65.6422026 339.244843,65.3702077 338.730799,65.3702077 C337.810023,65.3702077 337.12188,66.3233327 336.888497,67.2635056 C338.405113,67.2878861 339.594543,67.0654141 339.594543,66.1374314 L339.594543,66.1252412 L339.594543,66.1252412 Z" id="Fill-69" fill="#1A1918"></path>
                <path d="M347.887531,70.6912511 C347.689418,70.4436367 347.537832,70.2211647 347.351725,69.9240274 C346.698102,70.5556346 345.997952,70.8276295 345.134208,70.8276295 C343.781935,70.8276295 343.011996,69.8996469 343.011996,68.7484303 C343.011996,67.4372167 343.992056,66.557995 344.960109,66.0505759 L344.960109,66.0140052 C344.680199,65.4814437 344.528612,64.9984051 344.528612,64.5039381 C344.528612,63.2544377 345.402862,62.2144571 346.616305,62.2144571 C347.666155,62.2144571 348.202712,62.9687287 348.202712,63.8601406 C348.202712,64.8505983 347.537832,65.6178221 346.184808,66.2860001 L346.184808,66.3233327 C346.616305,67.1027467 347.188132,68.0177773 347.596365,68.6371943 C348.074388,68.0063489 348.448102,67.1896023 348.785795,66.1374314 L349.696065,66.1374314 C349.263818,67.4745493 348.762531,68.513768 348.039868,69.3053723 C348.331035,69.7381261 348.645464,70.1967842 349.031185,70.6912511 L347.887531,70.6912511 L347.887531,70.6912511 Z M345.402862,70.0230731 C346.021215,70.0230731 346.545765,69.7266977 346.943492,69.2809918 C346.569778,68.6989074 345.892892,67.6840692 345.309809,66.6448505 C344.796515,66.9785586 343.992056,67.5728332 343.992056,68.5869095 C343.992056,69.3922278 344.493342,70.0230731 345.391605,70.0230731 L345.402862,70.0230731 L345.402862,70.0230731 Z M346.523252,62.9443482 C345.928162,62.9443482 345.438132,63.5637652 345.438132,64.3805119 C345.438132,64.8505983 345.554448,65.2711619 345.811845,65.7039157 C346.756635,65.221639 347.316455,64.6776492 347.316455,63.885283 C347.316455,63.4030063 347.105585,62.9443482 346.534508,62.9443482 L346.523252,62.9443482 L346.523252,62.9443482 Z" id="Fill-70" fill="#1A1918"></path>
                <g id="Group-74">
                    <mask id="mask-8" fill="white">
                        <use xlink:href="#path-7"></use>
                    </mask>
                    <g id="Clip-72"></g>
                    <path d="M352.191991,69.6649846 C352.448638,69.8371719 352.937917,70.0352634 353.404684,70.0352634 C354.057557,70.0352634 354.477797,69.5903193 354.477797,69.0585197 C354.477797,68.5869095 354.279684,68.2905341 353.684594,67.9446358 C353.031721,67.5606429 352.670014,67.0402717 352.670014,66.4223785 C352.670014,65.3702077 353.521,64.5656513 354.723187,64.5656513 C355.224474,64.5656513 355.679234,64.7142199 355.889354,64.8627886 L355.6207,65.6422026 C355.422587,65.5187763 355.072887,65.3702077 354.652647,65.3702077 C354.057557,65.3702077 353.638067,65.7656289 353.638067,66.2730479 C353.638067,66.7065637 353.906721,66.9785586 354.420014,67.2756959 C355.048873,67.6596887 355.469113,68.1792981 355.469113,68.8596663 C355.469113,70.1221189 354.513067,70.8276295 353.311631,70.8276295 C352.704534,70.8146774 352.168728,70.629538 351.912081,70.4192562 L352.191991,69.6649846" id="Fill-71" fill="#1A1918" mask="url(#mask-8)"></path>
                    <path d="M355.982407,73.1414911 L357.113303,66.8307518 C357.241626,66.1130509 357.359444,65.2955424 357.428483,64.6890775 L358.31549,64.6890775 L358.163903,65.827342 L358.187167,65.827342 C358.688453,65.0357377 359.43513,64.5656513 360.216326,64.5656513 C361.429769,64.5656513 361.943063,65.6300123 361.943063,66.731706 C361.943063,68.8474761 360.519499,70.8276295 358.641926,70.8276295 C358.047587,70.8276295 357.65061,70.6912511 357.428483,70.5556346 L357.40522,70.5556346 L356.95121,73.1414911 L355.982407,73.1414911 L355.982407,73.1414911 Z M357.568813,69.6893651 C357.82546,69.8996469 358.187167,70.0230731 358.653183,70.0230731 C359.901896,70.0230731 360.939739,68.3773896 360.939739,66.8056094 C360.939739,66.1740022 360.683093,65.4197306 359.85537,65.4197306 C359.096686,65.4197306 358.151896,66.3347611 357.86073,68.0177773 L357.568813,69.6893651 L357.568813,69.6893651 Z" id="Fill-73" fill="#1A1918" mask="url(#mask-8)"></path>
                </g>
                <path d="M362.631206,70.6912511 L363.319349,66.8307518 C363.458929,66.0505759 363.540726,65.2582098 363.599259,64.7020297 L364.450996,64.7020297 C364.415726,65.1225932 364.369199,65.5309666 364.299409,66.001053 L364.333929,66.001053 C364.707642,65.1850683 365.302732,64.5656513 366.059915,64.5656513 C366.153719,64.5656513 366.258779,64.5786034 366.339825,64.5900318 L366.153719,65.60487 C366.083929,65.5926797 365.990125,65.5804895 365.885816,65.5804895 C365.057342,65.5804895 364.310666,66.6570408 364.066026,68.0436815 L363.599259,70.6912511 L362.631206,70.6912511" id="Fill-75" fill="#1A1918"></path>
                <path d="M366.329319,70.6912511 L367.401682,64.7020297 L368.369735,64.7020297 L367.297372,70.6912511 L366.329319,70.6912511 L366.329319,70.6912511 Z M368.137102,63.6010979 C367.798659,63.6010979 367.565275,63.3161508 367.565275,62.9329199 C367.577282,62.5245465 367.868448,62.2022668 368.230155,62.2022668 C368.591862,62.2022668 368.836502,62.4872139 368.836502,62.8704448 C368.825245,63.3031987 368.533328,63.6010979 368.148358,63.6010979 L368.137102,63.6010979 L368.137102,63.6010979 Z" id="Fill-76" fill="#1A1918"></path>
                <path d="M369.011351,70.6912511 L369.758028,66.446759 C369.886351,65.778581 369.968148,65.1964966 370.025931,64.7020297 L370.900931,64.7020297 L370.749345,65.8776268 L370.773358,65.8776268 C371.285901,65.0357377 372.044585,64.5656513 372.872308,64.5656513 C373.537188,64.5656513 374.295871,64.9740246 374.295871,66.224287 C374.295871,66.4962819 374.248594,66.8795128 374.190811,67.1896023 L373.560451,70.6912511 L372.604405,70.6912511 L373.222007,67.226173 C373.257278,67.003701 373.292548,66.7187539 373.292548,66.4597111 C373.292548,65.8646746 373.071171,65.4197306 372.405541,65.4197306 C371.717398,65.4197306 370.738088,66.2989522 370.481441,67.783115 L369.968148,70.6912511 L369.011351,70.6912511" id="Fill-77" fill="#1A1918"></path>
                <path d="M375.228654,70.6912511 L376.803804,61.9051295 L377.771857,61.9051295 L376.77979,67.4113124 L376.803804,67.4113124 C376.966647,67.2017925 377.176767,66.9785586 377.328354,66.8177997 L379.311737,64.7020297 L380.512423,64.7020297 L378.051767,67.1644599 L379.731227,70.6912511 L378.67012,70.6912511 L377.30509,67.7465442 L376.592934,68.4147222 L376.1847,70.6912511 L375.228654,70.6912511" id="Fill-78" fill="#1A1918"></path>
                <path d="M380.639246,70.6912511 L382.213645,61.9051295 L383.182449,61.9051295 L381.607299,70.6912511 L380.639246,70.6912511" id="Fill-79" fill="#1A1918"></path>
                <path d="M387.369841,70.3575431 C386.949601,70.6051575 386.260708,70.8276295 385.502775,70.8276295 C384.009421,70.8276295 383.356548,69.7381261 383.356548,68.4147222 C383.356548,66.6075179 384.616518,64.5656513 386.436308,64.5656513 C387.509421,64.5656513 388.092504,65.2467814 388.092504,66.1130509 C388.092504,67.6840692 386.424301,68.0924425 384.336608,68.0551099 C384.289331,68.3156765 384.324601,68.8726184 384.452925,69.1933744 C384.675052,69.7381261 385.129811,69.9986927 385.712895,69.9986927 C386.377775,69.9986927 386.879061,69.7884109 387.229511,69.5903193 L387.369841,70.3575431 L387.369841,70.3575431 Z M387.159721,66.1252412 C387.159721,65.6422026 386.810022,65.3702077 386.295978,65.3702077 C385.375202,65.3702077 384.687059,66.3233327 384.452925,67.2635056 C385.970292,67.2878861 387.159721,67.0654141 387.159721,66.1374314 L387.159721,66.1252412 L387.159721,66.1252412 Z" id="Fill-80" fill="#1A1918"></path>
                <path d="M388.582534,70.6912511 L389.270678,66.8307518 C389.411008,66.0505759 389.492054,65.2582098 389.550588,64.7020297 L390.402324,64.7020297 C390.367054,65.1225932 390.319777,65.5309666 390.250738,66.001053 L390.285257,66.001053 C390.658971,65.1850683 391.254061,64.5656513 392.011244,64.5656513 C392.105047,64.5656513 392.210107,64.5786034 392.291153,64.5900318 L392.105047,65.60487 C392.035257,65.5926797 391.942204,65.5804895 391.836394,65.5804895 C391.00792,65.5804895 390.261994,66.6570408 390.016604,68.0436815 L389.550588,70.6912511 L388.582534,70.6912511" id="Fill-81" fill="#1A1918"></path>
            </g>
        </g>
    </g>
</svg>