<?xml version="1.0" encoding="UTF-8" standalone="no"?>
<svg width="250px" height="47px" viewBox="0 0 250 47" version="1.1" xmlns="http://www.w3.org/2000/svg" xmlns:xlink="http://www.w3.org/1999/xlink">
    <!-- Generator: Sketch 3.6.1 (26313) - http://www.bohemiancoding.com/sketch -->
    <title>logo_cl</title>
    <desc>Created with Sketch.</desc>
    <defs>
        <path id="path-1" d="M0.0286423203,0.403724436 L249.665559,0.403724436 L249.665559,46.4467273 L0.0286423203,46.4467273"></path>
        <path id="path-3" d="M0.0286423203,0.403724436 L249.665559,0.403724436 L249.665559,46.4467273 L0.0286423203,46.4467273"></path>
        <path id="path-5" d="M0.0286423203,0.403724436 L249.665559,0.403724436 L249.665559,46.4467273 L0.0286423203,46.4467273 L0.0286423203,0.403724436 Z"></path>
        <path id="path-7" d="M0.0286423203,0.403724436 L249.665559,0.403724436 L249.665559,46.4467273 L0.0286423203,46.4467273"></path>
    </defs>
    <g id="Welcome" stroke="none" stroke-width="1" fill="none" fill-rule="evenodd">
        <g id="Desktop-HD-Copy-2" transform="translate(-225.000000, -41.000000)">
            <g id="logo_cl" transform="translate(225.000000, 41.000000)">
                <g id="Group-5">
                    <mask id="mask-2" fill="white">
                        <use xlink:href="#path-1"></use>
                    </mask>
                    <g id="Clip-2"></g>
                    <path d="M94.7072642,16.1775726 C102.501317,7.06929727 113.785914,1.34445568 126.336978,1.34445568" id="Stroke-1" stroke="#FFE32C" stroke-width="1.904" mask="url(#mask-2)"></path>
                    <path d="M122.519912,2.92106504 C133.008252,2.92106504 142.245401,7.72019993 149.284251,16.0879099 L153.690394,16.0908179 C146.179901,7.1623526 133.734812,0.403724436 122.519912,0.403724436 L122.519912,2.92106504" id="Fill-3" fill="#1A1918" mask="url(#mask-2)"></path>
                    <path d="M7.09040639,20.344222 C8.28144954,21.0828487 9.48347225,21.8117821 10.6950424,22.5295683 C11.9271395,23.3515571 12.8613566,24.2651472 13.4976934,25.271308 C14.1340303,26.2764994 14.4524374,27.3437278 14.4524374,28.472993 C14.4524374,29.35508 14.2710361,30.1557436 13.9072786,30.8735298 C13.3411154,32.0236355 12.4374502,32.9430416 11.1953283,33.630294 C9.9532063,34.318031 8.62468001,34.6611726 7.21118151,34.6611726 C5.41339854,34.6611726 3.8180213,34.0655215 2.42409504,32.8727654 C1.03016879,31.6809786 0.222455354,30.1901547 0,28.4012628 L2.7573007,27.7847713 C2.73725108,28.9828587 3.20221141,29.9943507 4.15074958,30.8197322 C5.1002425,31.6470522 6.19056016,32.0585313 7.42313468,32.0585313 C8.37215022,32.0585313 9.19418481,31.7144204 9.89258006,31.0252293 C10.5890658,30.3360383 10.9380247,29.5489453 10.9380247,28.664435 C10.9380247,27.9854218 10.6907461,27.3674763 10.1952339,26.8115676 C9.69972177,26.2566282 8.94786086,25.6600078 7.93821907,25.0212218 C6.98920352,24.4657978 6.04973542,23.9108584 5.1207695,23.3544651 L4.45435818,22.894035 C3.48624775,22.2596109 2.6890365,21.6145242 2.06463392,20.9582903 C1.135668,19.9763626 0.672139783,18.8194716 0.672139783,17.4876172 C0.672139783,16.1354069 1.22684605,14.907755 2.33769071,13.801269 C3.22560264,12.9206359 4.66965295,12.4800771 6.66888691,12.4800771 C7.27467198,12.4800771 8.10243504,12.6623105 9.15265345,13.0267772 C10.2019171,13.3912439 10.8688058,13.5729926 11.15141,13.5729926 C11.7772447,13.5729926 12.1811014,13.2090105 12.3634576,12.4800771 L13.0293915,12.4800771 L13.7258773,19.5401658 L12.9377361,19.5401658 C12.5329246,17.9068508 11.8560111,16.581297 10.9069956,15.5601117 C9.81620054,14.4172759 8.48194578,13.8448886 6.90566342,13.8448886 C5.7738144,13.8448886 4.9656236,14.0387539 4.48061364,14.4269691 C3.87387382,14.9169636 3.57121997,15.561081 3.57121997,16.3564133 C3.57121997,17.1124879 3.82374976,17.7251021 4.32928671,18.1947408 C4.97612578,18.807355 5.67261153,19.3681103 6.42113084,19.8784607 L7.09040639,20.344222" id="Fill-4" fill="#1A1918" mask="url(#mask-2)"></path>
                </g>
                <path d="M32.0856046,27.2908995 C31.8860631,29.4253562 31.0191555,31.1919535 29.4858366,32.5892375 C27.9529951,33.9860368 26.1280019,34.6854057 24.0118118,34.6854057 C21.7619576,34.6854057 19.845309,33.8978281 18.2628208,32.323642 C16.6798552,30.7484867 15.8874177,28.80111 15.8874177,26.4810273 C15.8874177,24.2287975 16.6846289,22.298384 18.2761872,20.6893022 C19.8687002,19.0802204 21.7824846,18.2766488 24.0175403,18.2766488 C26.2344559,18.2766488 28.1439439,19.0787664 29.7450496,20.6839709 C31.3452006,22.28966 32.1462308,24.2166809 32.1462308,26.4640641 L32.1462308,26.5658433 M28.964069,26.6923404 L28.964069,26.4640641 C28.964069,24.2864724 28.5984021,22.623593 27.8665908,21.4749412 C26.7853432,20.5637744 25.4969162,20.1072217 24.0008323,20.1072217 C22.6546432,20.1072217 21.4497563,20.4891363 20.3852167,21.2500575 C19.537404,22.435059 19.1134977,24.1788771 19.1134977,26.4810273 C19.1134977,28.6474717 19.4968274,30.3326456 20.2634869,31.5341257 C21.3643067,32.414274 22.6131119,32.8548329 24.0141987,32.8548329 C25.4969162,32.8548329 26.8144629,32.3638691 27.9639747,31.3809721 C28.5473233,30.3990445 28.8805289,29.035687 28.964069,27.2908995" id="Fill-6" fill="#1A1918"></path>
                <path d="M195.27427,27.2908995 C195.073773,29.4253562 194.207343,31.1919535 192.674979,32.5892375 C191.14166,33.9860368 189.316667,34.6854057 187.200477,34.6854057 C184.950623,34.6854057 183.033497,33.8978281 181.451486,32.323642 C179.867566,30.7484867 179.076083,28.80111 179.076083,26.4810273 C179.076083,24.2287975 179.872817,22.298384 181.46533,20.6893022 C183.056888,19.0802204 184.97115,18.2766488 187.205251,18.2766488 C189.423121,18.2766488 191.332609,19.0787664 192.933715,20.6839709 C194.533866,22.28966 195.334419,24.2166809 195.334419,26.4640641 L195.334419,26.5658433 M192.152257,26.6923404 L192.152257,26.4640641 C192.152257,24.2864724 191.78659,22.623593 191.054779,21.4749412 C189.974008,20.5637744 188.685581,20.1072217 187.189497,20.1072217 C185.842831,20.1072217 184.637944,20.4891363 183.574837,21.2500575 C182.726069,22.435059 182.301685,24.1788771 182.301685,26.4810273 C182.301685,28.6474717 182.685015,30.3326456 183.452152,31.5341257 C184.552494,32.414274 185.802254,32.8548329 187.203341,32.8548329 C188.685581,32.8548329 190.003128,32.3638691 191.152162,31.3809721 C191.735988,30.3990445 192.069194,29.035687 192.152257,27.2908995" id="Fill-7" fill="#1A1918"></path>
                <path d="M44.8734458,25.220903 L44.8734458,18.3798821 L46.0239124,18.2766488 L46.0239124,28.475901 C46.0239124,30.2725474 45.4482017,31.7633714 44.2972578,32.9459496 C43.1463139,34.1294971 41.6664607,34.7207862 39.8581756,34.7207862 C38.0675532,34.7207862 36.6435525,34.1236811 35.5866509,32.9285017 C34.5798733,31.7851812 34.0676531,30.2958112 34.0514225,28.4603918 L34.0514225,20.8739589 C34.0514225,20.0078657 33.9168036,19.4495338 33.6475658,19.1979936 C33.378328,18.9479074 32.7921151,18.7869992 31.8894047,18.7172077 L31.8894047,18.2766488 L36.3905453,18.2766488 L36.3905453,27.7838019 C36.3905453,31.1614197 37.6636964,32.8495016 40.209044,32.8495016 C41.678395,32.8495016 42.8398411,32.3493292 43.694337,31.348015 C44.4800913,30.4334556 44.8734458,29.2765646 44.8734458,27.8783113 L44.8734458,25.220903" id="Fill-8" fill="#1A1918"></path>
                <path d="M58.7969551,22.5770653 L58.2236313,22.5770653 C58.0842387,21.9091994 57.9844679,21.502567 57.9238417,21.3576527 C57.8627381,21.2132231 57.7281192,21.042137 57.519985,20.8434251 C57.2297428,20.5598971 56.5528293,20.3713631 55.4906766,20.2792771 C55.4897219,20.2792771 54.4643268,20.2812158 54.3583502,20.2821851 C54.2919955,20.2826698 54.3970173,20.1566573 54.3860378,20.3951116 C54.3731487,20.6970568 54.3807867,21.3775239 54.3807867,21.3775239 L54.3807867,34.5841111 L49.7044505,34.5841111 L49.7044505,34.1420983 C50.7140923,34.0723068 51.3504292,33.8958894 51.6120291,33.6133308 C51.8726742,33.3302875 52.0039515,32.6774462 52.0039515,31.6533528 L52.0039515,20.2744305 L47.7181056,20.2744305 L47.7181056,18.3982993 L58.6671099,18.3982993 L58.7969551,22.5770653" id="Fill-9" fill="#1A1918"></path>
                <path d="M72.1753055,24.8355958 L72.1753055,18.3982993 L76.7914928,18.3982993 L76.7914928,18.8398275 C75.9116962,18.9105883 75.336463,19.0792511 75.0638835,19.3443618 C74.7908268,19.6104419 74.6542984,20.1774979 74.6542984,21.0445603 L74.6542984,31.9339728 C74.6542984,32.7990966 74.7908268,33.3651832 75.0638835,33.6298093 C75.336463,33.8954047 75.9116962,34.0630982 76.7914928,34.133859 L76.7914928,34.5841111 L72.1753055,34.5841111 L72.1753055,26.895899 L64.8466905,26.895899 L64.8466905,34.5841111 L60.2524623,34.5841111 L60.2524623,34.1328897 C61.2100706,34.0272331 61.8005798,33.8323985 62.0273315,33.5488706 C62.2540832,33.2658273 62.3672203,32.6280105 62.3672203,31.6363896 L62.3672203,21.043591 C62.3672203,20.1765285 62.2326014,19.6099573 61.9624089,19.3443618 C61.6926937,19.0782818 61.1227115,18.9105883 60.2524623,18.8398275 L60.2524623,18.3982993 L64.8466905,18.3982993 L64.8466905,24.8355958 L65.2744158,24.8355958" id="Fill-10" fill="#1A1918"></path>
                <path d="M108.659893,34.5841111 L104.766447,34.5841111 L99.4356339,27.5681268 L97.7204363,27.5681268 L97.7204363,34.5841111 L93.1911307,34.5841111 L93.1911307,34.1406443 C94.1143681,34.0524356 94.6896014,33.8571164 94.9163531,33.5546865 C95.1426274,33.2527414 95.256242,32.6125013 95.256242,31.635905 L95.256242,18.3362624 L98.1548448,18.3362624 L98.7711321,18.3551643 C100.369374,18.3910293 101.577602,18.6488702 102.393908,19.1272327 C103.818386,19.9618227 104.531103,21.2301863 104.531103,22.9332928 C104.531103,23.8924412 104.290985,24.7401171 103.811703,25.4763205 C103.333376,26.2125239 102.684628,26.7495307 101.865457,27.0868563 L106.569481,32.9692134 C107.109389,33.6617971 107.805875,34.0524356 108.659893,34.1406443 L108.659893,34.5841111 L108.659893,34.5841111 Z M102.623524,23.0040536 C102.623524,21.1943212 101.602903,20.1823445 97.7037282,20.1823445 L97.7037282,25.9062167 C98.8828371,25.8703517 100.836243,25.691511 101.425798,25.3696946 C102.224441,24.9034486 102.623524,24.1153863 102.623524,23.0040536 L102.623524,23.0040536 Z" id="Fill-11" fill="#1A1918"></path>
                <path d="M238.220565,34.5841111 L234.326164,34.5841111 L228.99726,27.5681268 L227.280153,27.5681268 L227.280153,34.5841111 L222.751802,34.5841111 L222.751802,34.1406443 C223.674562,34.0524356 224.25075,33.8571164 224.476547,33.5546865 C224.702822,33.2527414 224.816914,32.612986 224.816914,31.635905 L224.816914,18.3367471 L227.715039,18.3367471 L228.330849,18.3551643 C229.929568,18.3910293 231.138274,18.6488702 231.95458,19.1277174 C233.377626,19.9618227 234.091774,21.230671 234.091774,22.9337774 C234.091774,23.8924412 233.852134,24.7406018 233.373329,25.4763205 C232.894525,26.2125239 232.244822,26.7500154 231.426606,27.0873409 L236.129198,32.9692134 C236.668151,33.6622818 237.366069,34.0524356 238.220565,34.1406443 L238.220565,34.5841111 L238.220565,34.5841111 Z M227.263445,25.9062167 C228.443031,25.8708363 230.39596,25.691511 230.986469,25.3696946 C231.784635,24.9034486 232.184673,24.1153863 232.184673,23.0040536 C232.184673,21.1943212 231.164529,20.1828292 227.263445,20.1828292 L227.263445,25.9062167 Z" id="Fill-12" fill="#1A1918"></path>
                <path d="M109.726342,31.5181318 C109.726342,31.4653035 109.736844,31.3678862 109.758803,31.2258799 L109.758803,30.9331433 L109.758803,17.0853467 L115.925018,23.7169931 L121.923197,29.6754424 L121.899806,18.3391704 L126.142211,18.3391704 L126.142211,18.7918458 C125.204652,18.8989564 124.597435,19.129656 124.320082,19.4834602 C124.128656,19.7335464 123.997856,20.0437308 123.928637,20.4159522 L123.928637,35.061989 L121.452031,32.7583849 L111.755173,23.6098826 L111.755173,33.8290059 C112.072148,33.9719815 112.50417,34.0693988 113.051238,34.1231964 L113.051238,34.5768412 L107.408224,34.5768412 L107.408224,34.1231964 C108.437915,34.0160859 109.086664,33.7844169 109.353515,33.4286741 C109.54876,33.1790726 109.673354,32.751115 109.726342,32.1462553" id="Fill-13" fill="#1A1918"></path>
                <path d="M149.244152,29.963817 L148.014919,34.6946143 L135.619,34.6946143 L135.619,19.1921776 C135.619,18.2107346 135.462899,17.5603166 135.150698,17.2394696 C134.838497,16.9181379 134.197863,16.7310579 133.226889,16.677745 L133.226889,16.1426768 L147.755228,16.1426768 L147.859295,20.1707126 L147.153262,20.1707126 C146.89214,18.8291649 146.47253,17.9790656 145.897296,17.6204149 C145.442361,17.3533655 144.482366,17.2181444 143.017311,17.2181444 L139.299061,17.2181444 C138.898068,17.2181444 138.64888,17.2855126 138.552451,17.418795 C138.456976,17.5535314 138.408762,17.7997403 138.408762,18.1564524 L138.408762,23.275465 L146.266305,23.275465 L146.266305,28.1986736 L145.637606,28.1986736 C145.4099,27.0747397 145.13923,26.3618001 144.825596,26.0579163 C144.458497,25.7012042 143.724776,25.5233328 142.623957,25.5233328 L138.422606,25.5233328 L138.408762,26.5319169 L138.408762,32.5330165 L145.52781,32.5330165 C146.277284,32.3905255 146.811464,32.2029609 147.12462,31.9712919 C147.595786,31.6150644 148.048335,30.9457446 148.485607,29.963817 L149.244152,29.963817" id="Fill-14" fill="#1A1918"></path>
                <path d="M174.077521,45.0508974 L169.765897,45.0508974 L157.586705,27.9432561 L153.641702,34.6863751 L151.367502,34.6863751 L156.385159,26.1611496 L156.202326,25.8950695 L155.836659,25.3381915 L154.007369,22.6541268 C153.013958,21.1836586 152.430132,20.3592466 152.256846,20.1823445 C151.490187,19.3143127 150.644284,18.862122 149.722001,18.8267416 L149.722001,18.348379 L154.163947,18.348379 L157.743283,23.9535088 L158.736216,22.2945067 L159.102838,21.6678372 L161.140739,18.164207 L163.439763,18.164207 L161.376084,21.6678372 L158.866539,25.9357812 L171.38562,42.7913976 C171.856309,43.4834966 172.274487,43.9395647 172.641108,44.1605711 C173.00582,44.3825468 173.485579,44.5284304 174.077521,44.5991913 L174.077521,45.0508974 L174.077521,45.0508974 Z M161.010894,22.2945067 L158.945783,25.7370693 L161.010894,22.2945067 Z" id="Fill-15" fill="#1A1918"></path>
                <path d="M167.989595,22.9037283 L167.989595,21.0125725 C167.989595,20.161504 167.869775,19.601718 167.628702,19.3356379 L167.350394,19.1514659 L167.013847,18.9769871 C166.764659,18.9062263 166.402333,18.8441894 165.926871,18.7899072 L165.926871,18.3362624 L171.330722,18.3362624 C173.710899,18.3362624 175.422755,18.7535574 176.465335,19.5896014 C177.385231,20.3364674 177.84685,21.5103216 177.84685,23.1101948 C177.84685,24.7638656 177.288325,26.0075114 176.173184,26.84404 C175.17834,27.5734581 173.84504,27.9374402 172.172806,27.9374402 L170.367385,27.9374402 L170.367385,34.5841111 L167.989595,34.5841111 L167.989595,23.4896861 M175.962663,23.0835383 C175.962663,21.1497322 174.490447,20.1823445 171.544585,20.1823445 L170.367385,20.1823445 L170.367385,26.0908734 L171.649607,26.0908734 C174.524341,26.0908734 175.962663,25.08859 175.962663,23.0835383" id="Fill-16" fill="#1A1918"></path>
                <path d="M199.988796,26.0792415 C199.224523,25.5320568 198.644039,25.0551482 198.244956,24.6490004 C197.567565,23.9428462 197.230063,23.0864463 197.230063,22.0798009 C197.230063,21.0741248 197.631055,20.164412 198.431131,19.3521165 C199.056488,18.7157537 200.127234,18.3982993 201.641458,18.3982993 C202.232921,18.3982993 202.907448,18.5330357 203.663605,18.8034777 C204.420717,19.0734351 204.851307,19.2081715 204.954897,19.2081715 C205.251822,19.2081715 205.457092,19.1432266 205.568797,19.0123676 C205.682412,18.8815085 205.765952,18.6769806 205.81703,18.3982993 L206.31302,18.3982993 L206.86152,23.5851647 L206.286287,23.5851647 C205.990316,22.3895007 205.486212,21.414843 204.77254,20.6573144 C203.954325,19.8140005 202.970461,19.3908895 201.822381,19.3908895 C201.021829,19.3908895 200.429887,19.5411351 200.046558,19.8396876 C199.594009,20.1915531 199.368212,20.6670077 199.368212,21.2645974 C199.368212,21.7923956 199.559638,22.2411937 199.942491,22.6100224 C200.429887,23.085477 200.93447,23.49841 201.45576,23.8502755 L201.949362,24.196325 C202.837274,24.7449637 203.725664,25.2843939 204.61453,25.8151001 C205.520105,26.4165671 206.204179,27.084433 206.665798,27.818213 C207.126939,28.5529624 207.357987,29.3352088 207.357987,30.1664062 C207.357987,30.8216708 207.227187,31.4139292 206.965587,31.9441508 C206.546932,32.7763174 205.880998,33.44903 204.966354,33.9613189 C204.051709,34.4745773 203.071664,34.7309641 202.027174,34.7309641 C200.703422,34.7309641 199.531951,34.2889513 198.513716,33.4039563 C197.493572,32.5189613 196.896857,31.4216838 196.722616,30.1111546 L198.76195,29.6865896 C198.743332,30.5715846 199.100406,31.3145733 199.832218,31.9160403 C200.511518,32.517992 201.303478,32.8179985 202.210485,32.8179985 C202.907448,32.8179985 203.516097,32.562581 204.039297,32.048838 C204.561542,31.5355797 204.823142,30.9520452 204.823142,30.2972652 C204.823142,29.7844916 204.639354,29.3293928 204.274164,28.9309997 C203.908497,28.5330912 203.342334,28.1036796 202.575675,27.6442189 C201.896374,27.219654 201.208481,26.8042976 200.511518,26.3966959" id="Fill-17" fill="#1A1918"></path>
                <g id="Group-21">
                    <mask id="mask-4" fill="white">
                        <use xlink:href="#path-3"></use>
                    </mask>
                    <g id="Clip-19"></g>
                    <path d="M221.003189,25.226719 L221.003189,18.4394957 L222.144585,18.3362624 L222.144585,28.4560298 C222.144585,30.238621 221.572693,31.7168437 220.430342,32.8902133 C219.288468,34.0645522 217.820072,34.6514793 216.026586,34.6514793 C214.250762,34.6514793 212.837741,34.0587362 211.788954,32.8727654 C210.789337,31.7386536 210.282368,30.2609155 210.265183,28.4400359 L210.265183,20.9137012 C210.265183,20.0543934 210.131996,19.5004234 209.864668,19.2513065 C209.598294,19.0026743 209.0159,18.8432201 208.12035,18.7734286 L208.12035,18.3362624 L212.586643,18.3362624 L212.586643,27.7687774 C212.586643,31.1197387 213.849292,32.7952193 216.374112,32.7952193 C217.832961,32.7952193 218.98486,32.2989242 219.83315,31.3043953 C220.612221,30.3975905 221.003189,29.2503927 221.003189,27.8623174 L221.003189,25.8335173" id="Fill-18" fill="#1A1918" mask="url(#mask-4)"></path>
                    <path d="M249.849347,30.4751366 L248.801038,34.5879884 L238.21961,34.5879884 L238.21961,21.0048179 C238.21961,20.1426021 238.087378,19.5706995 237.819572,19.2886256 C237.554153,19.0050976 237.007085,18.8407968 236.17789,18.7942691 L236.17789,18.3241458 L248.578583,18.3241458 L248.667851,21.8650951 L248.065408,21.8650951 C247.841043,20.6859095 247.482536,19.9390436 246.991321,19.6235278 C246.604172,19.3879815 245.785479,19.2697237 244.534287,19.2697237 L241.360718,19.2697237 C241.016533,19.2697237 240.806012,19.3293373 240.723426,19.4466258 C240.641796,19.5643989 240.600742,19.780074 240.600742,20.0941358 L240.600742,24.5942335 L247.307341,24.5942335 L247.307341,28.9227604 L246.769343,28.9227604 C246.576484,27.9345322 246.345436,27.3078627 246.077631,27.0412979 C245.764952,26.7272362 245.13864,26.5702053 244.198694,26.5702053 L240.612198,26.5702053 L240.600742,27.4581083 L240.600742,32.7331824 L246.676732,32.7331824 C247.316888,32.6076547 247.771824,32.4428692 248.041062,32.2397953 C248.441099,31.9262182 248.829203,31.3373524 249.20203,30.4751366 L249.849347,30.4751366" id="Fill-20" fill="#1A1918" mask="url(#mask-4)"></path>
                </g>
                <path d="M92.3270874,30.4911305 L91.2783011,34.6335468 L80.6968732,34.6335468 L80.6968732,21.0566769 C80.6968732,20.1973691 80.5641638,19.6278898 80.2973128,19.3472698 C80.031894,19.0647112 79.4838709,18.900895 78.6551531,18.854852 L78.6551531,18.3856981 L91.0558457,18.3856981 L91.1451143,21.9145307 L90.5426708,21.9145307 C90.3187833,20.7387378 89.9607543,19.9947798 89.4681064,19.6802334 C89.0814351,19.4456564 88.2622647,19.328368 87.0115501,19.328368 L83.8384584,19.328368 C83.4942731,19.328368 83.2837521,19.3870122 83.2011667,19.5043007 C83.1190588,19.6215892 83.0789595,19.8367796 83.0789595,20.1493874 L83.0789595,24.6325219 L89.7855588,24.6325219 L89.7855588,28.9445703 L89.2470832,28.9445703 C89.0542249,27.9597347 88.8226995,27.3350038 88.5544164,27.0703777 C88.2422151,26.7572853 87.615903,26.6012238 86.6759576,26.6012238 L83.0894617,26.6012238 L83.0789595,27.4852494 L83.0789595,32.7404524 L89.154473,32.7404524 C89.7941515,32.6154093 90.2486096,32.4511084 90.5183248,32.2480346 C90.9188399,31.9368808 91.3055113,31.3504383 91.6792935,30.4911305 L92.3270874,30.4911305" id="Fill-22" fill="#1A1918"></path>
                <path d="M47.7658428,24.436718 L47.7524764,25.1079765 L44.3755468,25.1079765 L44.3755468,26.7776412 C44.3755468,28.5137047 43.9850565,29.8436205 43.2012117,30.7678732 C42.6235916,31.448825 41.7371118,31.9756539 40.5451139,32.3532065 L40.3498687,31.7318683 C41.3929265,31.4095673 42.1662692,30.9665851 42.6698967,30.4009832 C43.3950247,29.5891723 43.7587822,28.382361 43.7587822,26.7776412 L43.7587822,25.1079765 L42.1662692,25.1079765 L42.1662692,24.4425339 L43.7587822,24.4425339 L43.7587822,20.1518107 L44.3755468,20.1518107 L44.3755468,24.4425339 L44.7665145,24.4425339 L47.7658428,24.436718" id="Fill-23" fill="#1A1918"></path>
                <path d="M223.82207,24.436718 L223.808227,25.1079765 L220.431297,25.1079765 L220.431297,26.7776412 C220.431297,28.5137047 220.039852,29.8436205 219.257917,30.7678732 C218.679819,31.448825 217.792862,31.9756539 216.600864,32.3532065 L216.406096,31.7318683 C217.448677,31.4095673 218.222497,30.9665851 218.725169,30.4009832 C219.451252,29.5891723 219.814532,28.382361 219.814532,26.7776412 L219.814532,25.1079765 L218.222497,25.1079765 L218.222497,24.4425339 L219.814532,24.4425339 L219.814532,20.1518107 L220.431297,20.1518107 L220.431297,24.4425339 L220.823219,24.4425339 L223.82207,24.436718" id="Fill-24" fill="#1A1918"></path>
                <path d="M47.0555133,20.7397072 L55.9962135,20.7397072 L55.9962135,21.3159717 L47.0555133,21.3159717 L47.0555133,20.7397072 Z" id="Fill-25" fill="#1A1918"></path>
                <path d="M54.7688901,17.4328502 L55.3355307,17.4328502 L55.3355307,24.4120001 L54.7688901,24.4120001 L54.7688901,17.4328502 Z" id="Fill-26" fill="#1A1918"></path>
                <path d="M66.597691,23.4935634 L78.4455868,23.4935634 L78.4455868,24.0688586 L66.597691,24.0688586 L66.597691,23.4935634 Z" id="Fill-27" fill="#1A1918"></path>
                <path d="M79.5702753,27.1052735 L86.5680715,27.1052735 L86.5680715,27.6805687 L79.5702753,27.6805687 L79.5702753,27.1052735 Z" id="Fill-28" fill="#1A1918"></path>
                <path d="M107.675075,31.4972913 L114.673826,31.4972913 L114.673826,32.1695191 L107.675075,32.1695191 L107.675075,31.4972913 Z" id="Fill-29" fill="#1A1918"></path>
                <path d="M83.6565796,20.0820192 L84.2232202,20.0820192 L84.2232202,31.4294384 L83.6565796,31.4294384 L83.6565796,20.0820192 Z" id="Fill-30" fill="#1A1918"></path>
                <path d="M237.248158,27.1052735 L244.245954,27.1052735 L244.245954,27.6805687 L237.248158,27.6805687 L237.248158,27.1052735 Z" id="Fill-31" fill="#1A1918"></path>
                <path d="M241.333508,20.0820192 L241.900626,20.0820192 L241.900626,31.4294384 L241.333508,31.4294384 L241.333508,20.0820192 Z" id="Fill-32" fill="#1A1918"></path>
                <path d="M134.610313,26.2420883 L141.608109,26.2420883 L141.608109,26.8178682 L134.610313,26.8178682 L134.610313,26.2420883 Z" id="Fill-33" fill="#1A1918"></path>
                <path d="M138.999271,18.161299 L139.566389,18.161299 L139.566389,31.4294384 L138.999271,31.4294384 L138.999271,18.161299 Z" id="Fill-34" fill="#1A1918"></path>
                <path d="M121.083022,34.3572888 L121.083022,25.4331855 L120.334026,25.4331855 L120.334026,32.7215505 L120.990889,33.3404654 L121.083022,34.3572888" id="Fill-35" fill="#1A1918"></path>
                <path d="M120.990889,33.3404654 L111.70123,24.5869636 L111.241044,25.0905286 L121.084454,34.3960618 L120.990889,33.3404654" id="Fill-36" fill="#1A1918"></path>
                <path d="M164.468499,18.7908765 L158.193922,29.3012824 L157.610096,28.9426316 L163.882764,18.4317411 L164.468499,18.7908765" id="Fill-37" fill="#1A1918"></path>
                <path d="M156.461061,25.0154058 L150.35977,35.4550509 L149.772602,35.1022161 L155.872939,24.6616017 L156.461061,25.0154058" id="Fill-38" fill="#1A1918"></path>
                <path d="M98.2612987,33.0559681 L98.8288941,33.0559681 L98.8288941,28.5112814 L98.2612987,27.775078 L98.2612987,33.0559681" id="Fill-39" fill="#1A1918"></path>
                <path d="M98.8288941,27.5763661 L98.8288941,17.4333349 L98.2612987,17.4333349 L98.2612987,27.5114212 L98.5820927,27.2564884 L98.8288941,27.5763661" id="Fill-40" fill="#1A1918"></path>
                <path id="Fill-41" fill="#1A1918" d="M98.2612987,27.7834212 L98.2612987,27.5114212"></path>
                <path d="M104.664289,35.156983 L98.8288941,27.5763661 L98.8288941,28.5112814 L104.218424,35.5107872 L104.664289,35.156983" id="Fill-42" fill="#1A1918"></path>
                <path d="M98.5820927,27.2564884 L98.2612987,27.5114212 L98.2612987,27.775078 L98.8288941,28.5112814 L98.8288941,27.5763661 L98.5820927,27.2564884" id="Fill-43" fill="#1A1918"></path>
                <path d="M227.803353,33.4262508 L228.370948,33.4262508 L228.370948,28.8815641 L227.803353,28.144876 L227.803353,33.4262508" id="Fill-44" fill="#1A1918"></path>
                <path d="M228.370948,27.726127 L228.370948,17.4270343 L227.803353,17.4270343 L227.803353,27.6606975 L228.124147,27.4062493 L228.370948,27.726127" id="Fill-45" fill="#1A1918"></path>
                <path id="Fill-46" fill="#1A1918" d="M227.803353,28.1532192 L227.803353,27.8812192"></path>
                <path d="M233.990094,35.3077133 L228.370948,27.9466488 L228.370948,28.8815641 L233.543751,35.6605481 L233.990094,35.3077133" id="Fill-47" fill="#1A1918"></path>
                <path d="M228.124147,27.6267711 L227.803353,27.8812192 L227.803353,28.144876 L228.370948,28.8815641 L228.370948,27.9466488 L228.124147,27.6267711" id="Fill-48" fill="#1A1918"></path>
                <path d="M65.400442,18.3629189 L65.96756,18.3629189 L65.96756,30.3908052 L65.400442,30.3908052 L65.400442,18.3629189 Z" id="Fill-49" fill="#1A1918"></path>
                <path d="M10.0868705,15.7544616 L10.09785,15.7379831 L9.53168682,15.1723811 L4.1521817,23.312784 L4.08153064,23.2706183 C2.69810657,22.4074332 1.76054795,21.6247021 1.27219639,20.9195172 L0.599579238,21.3726773 C1.21443438,22.2159912 2.22503091,23.0719064 3.63614256,23.9336376 L3.71108997,23.9796806 L2.56062343,25.7201061 L3.23276322,26.1790821 L4.40184726,24.4013375 C5.41674014,25.0100745 6.43401988,25.6168728 7.44939014,26.2222171 C8.53063773,26.9254634 9.20230014,27.549225 9.46199051,28.0905937 C9.56223863,28.2912443 9.61188532,28.5035268 9.61188532,28.7240485 C9.61188532,29.0662207 9.49158757,29.3957917 9.25385632,29.7176081 C8.79653393,30.3200444 8.36689913,30.5914558 7.96781613,30.5318422 L7.8183987,31.3145733 C8.54113991,31.4556103 9.23237458,31.0824196 9.89305743,30.1998479 C10.2553828,29.7379639 10.4343973,29.2455461 10.4343973,28.7240485 C10.4343973,28.3828456 10.3556309,28.0518207 10.1942792,27.7300043 C9.93458879,27.1871816 9.38131464,26.6143097 8.53827568,26.0133273 C8.07808907,25.6711551 7.21690997,25.128817 5.95235153,24.384859 L4.84580322,23.7257171 L9.69447068,16.3515667 C10.0816194,16.7107021 10.4702002,17.2074818 10.8573489,17.8477219 C11.3380625,18.6115511 11.5805675,19.2144721 11.5805675,19.6550309 L12.3930546,19.5348345 C11.8803571,17.9780963 10.9895809,16.6651437 10.0868705,15.7544616" id="Fill-50" fill="#1A1918"></path>
                <path d="M203.938094,20.4154675 L203.946687,20.4023816 L203.510846,19.9666694 L199.371076,26.2294871 L199.317611,26.197984 C198.252116,25.5335108 197.531762,24.9310744 197.155593,24.3887363 L196.638122,24.7372091 C197.111675,25.3861731 197.888836,26.0443458 198.973903,26.7078497 L199.031665,26.7432301 L198.146617,28.0823545 L198.664566,28.4351893 L199.563457,27.0679544 C200.34396,27.5361391 201.12685,28.002385 201.907831,28.4681464 C202.740845,29.0095151 203.257839,29.4898164 203.456903,29.906142 C203.53376,30.0607496 203.57195,30.2235964 203.57195,30.3937132 C203.57195,30.6568853 203.47934,30.9103642 203.296506,31.1580271 C202.943728,31.6213651 202.614342,31.8307396 202.307391,31.7842119 L202.192345,32.3866482 C202.748006,32.4952128 203.280753,32.2082922 203.788199,31.5287944 C204.067462,31.1735363 204.204468,30.794045 204.204468,30.3937132 C204.204468,30.1310258 204.144319,29.8765776 204.019725,29.6289147 C203.820183,29.211135 203.394845,28.7700915 202.746096,28.3082075 C202.392841,28.0445507 201.729771,27.6272557 200.755932,27.0548685 L199.905256,26.5479108 L203.636395,20.8744435 C203.933321,21.1511862 204.232155,21.5326161 204.530513,22.0255186 C204.900476,22.6129304 205.087129,23.0767531 205.087129,23.4155326 L205.711054,23.3234466 C205.317222,22.1258439 204.63267,21.1158058 203.938094,20.4154675" id="Fill-51" fill="#1A1918"></path>
                <path d="M158.280326,21.5510333 L163.655535,21.5510333 L163.655535,22.3148625 L158.280326,22.3148625 L158.280326,21.5510333 Z" id="Fill-52" fill="#1A1918"></path>
                <path d="M166.802371,24.8128166 L172.177103,24.8128166 L172.177103,25.5761611 L166.802371,25.5761611 L166.802371,24.8128166 Z" id="Fill-53" fill="#1A1918"></path>
                <path d="M168.771053,17.4396355 L169.523392,17.4396355 L169.523392,35.6329223 L168.771053,35.6329223 L168.771053,17.4396355 Z" id="Fill-54" fill="#1A1918"></path>
                <path d="M32.5548612,26.2290024 L32.5548612,26.8571259 L28.4442109,26.8571259 C28.2661512,28.9872206 27.9463119,30.3205291 27.4861253,30.8565666 C26.6325842,31.822985 25.3021484,32.3047402 23.4924311,32.3047402 C23.1353568,32.3047402 22.7720768,32.279053 22.400204,32.2233167 L22.5061805,31.5913159 C22.8432052,31.6480215 23.1807072,31.6766167 23.515345,31.6766167 C25.1302945,31.6766167 26.2998559,31.2665916 27.0259387,30.4465415 C27.4001983,30.0350625 27.6641851,28.839883 27.8255368,26.8571259 L22.7701673,26.8571259 L22.7701673,26.2299718 L27.8255368,26.2299718 C27.8599076,25.4782592 27.8599076,24.9145959 27.8255368,24.5404359 L28.395519,24.432356 C28.4442109,24.9509456 28.4613963,25.5495046 28.4442109,26.2299718 L32.5548612,26.2290024" id="Fill-55" fill="#1A1918"></path>
                <path d="M195.834704,26.3525915 L195.834704,26.9811997 L191.724054,26.9811997 C191.545517,29.1108098 191.225678,30.4436335 190.765014,30.979671 C189.911473,31.9460894 188.581992,32.4283293 186.770842,32.4283293 C186.414245,32.4283293 186.050965,32.4026421 185.678615,32.3464212 L185.784592,31.7149051 C186.122571,31.7716107 186.459118,31.8002058 186.794711,31.8002058 C188.409183,31.8002058 189.57779,31.3901807 190.30435,30.5696459 C190.679087,30.1586516 190.944028,28.9634721 191.10538,26.9811997 L186.049056,26.9811997 L186.049056,26.3530762 L191.10538,26.3530762 C191.138796,25.6018483 191.138796,25.038185 191.10538,24.6635403 L191.674885,24.5554604 C191.724054,25.0740501 191.740762,25.6730938 191.724054,26.3530762 L195.834704,26.3525915" id="Fill-56" fill="#1A1918"></path>
                <path d="M0.253007163,36.6962733 L0.253007163,37.5187467 L162.639687,37.5187467 L162.021491,36.6962733 L0.253007163,36.6962733" id="Fill-57" fill="#FFE32C"></path>
                <path d="M168.630706,36.6972426 L169.24938,37.5197161 L249.557195,37.5197161 L249.557195,36.6972426 L168.630706,36.6972426" id="Fill-58" fill="#FFE32C"></path>
                <path d="M186.547432,44.9689893 L187.548481,39.3798534 L188.164768,39.3798534 L187.163242,44.9689893 L186.547432,44.9689893" id="Fill-59" fill="#1A1918"></path>
                <path d="M190.628485,44.9689893 C190.628485,44.7411976 190.665243,44.3786695 190.710116,43.985123 L190.69484,43.985123 C190.301486,44.7804553 189.804541,45.055744 189.299959,45.055744 C188.66219,45.055744 188.268358,44.5201912 188.268358,43.7961044 C188.268358,42.4657039 189.188731,41.0722972 190.746874,41.0722972 C191.088195,41.0722972 191.466273,41.1353035 191.711642,41.2138189 L191.347885,43.2057846 C191.229019,43.8668652 191.184624,44.5439397 191.199422,44.9689893 L190.628485,44.9689893 L190.628485,44.9689893 Z M191.021363,41.6471078 C190.932094,41.6156047 190.806545,41.5918562 190.598411,41.5918562 C189.670877,41.5918562 188.906605,42.6154648 188.906605,43.6778465 C188.906605,44.1028962 189.047429,44.5201912 189.515254,44.5201912 C190.034157,44.5201912 190.643284,43.8120982 190.813706,42.7962442 L191.021363,41.6471078 L191.021363,41.6471078 Z" id="Fill-60" fill="#1A1918"></path>
                <path d="M192.119795,44.9689893 L192.594303,42.2689307 C192.675934,41.843881 192.727967,41.4735984 192.764725,41.159052 L193.321341,41.159052 L193.224912,41.9068873 L193.23971,41.9068873 C193.56671,41.3713344 194.048856,41.0722972 194.575397,41.0722972 C194.998349,41.0722972 195.480972,41.3320767 195.480972,42.127409 C195.480972,42.3004338 195.450897,42.5442193 195.41414,42.7414773 L195.013147,44.9689893 L194.404975,44.9689893 L194.79833,42.7647411 C194.820289,42.6232194 194.842725,42.4419554 194.842725,42.2771699 C194.842725,41.898648 194.701901,41.6156047 194.278949,41.6156047 C193.840722,41.6156047 193.217274,42.174906 193.05449,43.1190299 L192.727967,44.9689893 L192.119795,44.9689893" id="Fill-61" fill="#1A1918"></path>
                <path d="M199.896185,39.3798534 L199.101838,43.7646013 C199.035006,44.1581478 198.975812,44.5991913 198.953376,44.9689893 L198.389122,44.9689893 L198.486029,44.2133994 L198.470753,44.2133994 C198.144708,44.7567068 197.692159,45.055744 197.172778,45.055744 C196.482498,45.055744 196.103942,44.4494303 196.103942,43.6705766 C196.103942,42.3164276 197.053913,41.0722972 198.322767,41.0722972 C198.552861,41.0722972 198.80539,41.1270642 198.961014,41.2065489 L199.279898,39.3798534 L199.896185,39.3798534 L199.896185,39.3798534 Z M198.856947,41.7571263 C198.738081,41.662617 198.530424,41.5918562 198.270734,41.5918562 C197.410032,41.5918562 196.742189,42.5679678 196.742189,43.5838219 C196.742189,44.0398899 196.890651,44.5201912 197.417193,44.5201912 C197.892178,44.5201912 198.464069,43.9458653 198.619693,43.0875268 L198.856947,41.7571263 L198.856947,41.7571263 Z" id="Fill-62" fill="#1A1918"></path>
                <path d="M200.006936,44.316148 C200.170197,44.4256818 200.481921,44.5516943 200.778369,44.5516943 C201.19416,44.5516943 201.461488,44.268651 201.461488,43.9303561 C201.461488,43.6303496 201.334985,43.4418156 200.956429,43.2217785 C200.541115,42.9775082 200.311499,42.6464833 200.311499,42.2534214 C200.311499,41.5841016 200.853316,41.0722972 201.617112,41.0722972 C201.935996,41.0722972 202.225761,41.1668066 202.359425,41.2613159 L202.188526,41.7571263 C202.0625,41.6786109 201.840044,41.5841016 201.572716,41.5841016 C201.19416,41.5841016 200.927309,41.8356418 200.927309,42.1584274 C200.927309,42.4342008 201.097731,42.6072256 201.424253,42.7962442 C201.825246,43.0405145 202.092097,43.3710547 202.092097,43.803859 C202.092097,44.6069459 201.483925,45.055744 200.719175,45.055744 C200.333458,45.0475047 199.992137,44.9297316 199.828876,44.7959645 L200.006936,44.316148" id="Fill-63" fill="#1A1918"></path>
                <path d="M205.201221,44.819713 C205.015523,44.9219769 204.644605,45.055744 204.161982,45.055744 C203.234925,45.055744 202.782377,44.3946634 202.782377,43.5838219 C202.782377,42.2771699 203.687474,41.0722972 204.978288,41.0722972 C205.311971,41.0722972 205.616534,41.1745612 205.728239,41.2458067 L205.549702,41.7571263 C205.408877,41.6863655 205.208858,41.6156047 204.94153,41.6156047 C204.006358,41.6156047 203.420623,42.5917163 203.420623,43.4970672 C203.420623,44.11889 203.724232,44.5201912 204.310922,44.5201912 C204.681362,44.5201912 204.955851,44.4019333 205.141549,44.3079087 L205.201221,44.819713" id="Fill-64" fill="#1A1918"></path>
                <g id="Group-68">
                    <mask id="mask-6" fill="white">
                        <use xlink:href="#path-5"></use>
                    </mask>
                    <g id="Clip-66"></g>
                    <path d="M208.154721,44.9689893 C208.154721,44.7411976 208.192434,44.3786695 208.236352,43.985123 L208.221553,43.985123 C207.828676,44.7804553 207.331254,45.055744 206.826672,45.055744 C206.188426,45.055744 205.795071,44.5201912 205.795071,43.7961044 C205.795071,42.4657039 206.715445,41.0722972 208.273587,41.0722972 C208.614908,41.0722972 208.993464,41.1353035 209.238356,41.2138189 L208.874598,43.2057846 C208.755732,43.8668652 208.711814,44.5439397 208.726613,44.9689893 L208.154721,44.9689893 L208.154721,44.9689893 Z M208.548553,41.6471078 C208.459284,41.6156047 208.332781,41.5918562 208.125124,41.5918562 C207.198068,41.5918562 206.433318,42.6154648 206.433318,43.6778465 C206.433318,44.1028962 206.57462,44.5201912 207.04149,44.5201912 C207.561348,44.5201912 208.169997,43.8120982 208.340419,42.7962442 L208.548553,41.6471078 L208.548553,41.6471078 Z" id="Fill-65" fill="#1A1918" mask="url(#mask-6)"></path>
                    <path d="M209.319986,46.5276661 L210.039863,42.5132009 C210.121494,42.0566482 210.195486,41.5366046 210.239882,41.1508127 L210.803658,41.1508127 L210.707229,41.8748995 L210.722028,41.8748995 C211.040912,41.3713344 211.515897,41.0722972 212.013319,41.0722972 C212.78523,41.0722972 213.111275,41.7493717 213.111275,42.4501947 C213.111275,43.7961044 212.206177,45.055744 211.011793,45.055744 C210.633237,45.055744 210.381184,44.9689893 210.239882,44.8827192 L210.225084,44.8827192 L209.935796,46.5276661 L209.319986,46.5276661 L209.319986,46.5276661 Z M210.328673,44.3316572 C210.492412,44.4654242 210.722028,44.5439397 211.018953,44.5439397 C211.8133,44.5439397 212.473028,43.4970672 212.473028,42.497207 C212.473028,42.0954212 212.310244,41.6156047 211.783226,41.6156047 C211.30108,41.6156047 210.700069,42.1976852 210.514371,43.2683061 L210.328673,44.3316572 L210.328673,44.3316572 Z" id="Fill-67" fill="#1A1918" mask="url(#mask-6)"></path>
                </g>
                <path d="M216.160727,44.7567068 C215.893399,44.9142223 215.455649,45.055744 214.973503,45.055744 C214.023533,45.055744 213.607742,44.3626756 213.607742,43.5208157 C213.607742,42.3711946 214.409249,41.0722972 215.566876,41.0722972 C216.249518,41.0722972 216.620914,41.5055861 216.620914,42.0566482 C216.620914,43.0560237 215.559716,43.3158031 214.231189,43.2920546 C214.201592,43.4578095 214.223551,43.8120982 214.305659,44.0161414 C214.446484,44.3626756 214.736249,44.5284304 215.107167,44.5284304 C215.530119,44.5284304 215.849003,44.3946634 216.071458,44.268651 L216.160727,44.7567068 L216.160727,44.7567068 Z M216.027063,42.0644028 C216.027063,41.7571263 215.804608,41.5841016 215.477608,41.5841016 C214.891872,41.5841016 214.454122,42.1904152 214.305659,42.7884896 C215.270428,42.8039988 216.027063,42.6624772 216.027063,42.0721574 L216.027063,42.0644028 L216.027063,42.0644028 Z" id="Fill-69" fill="#1A1918"></path>
                <path d="M221.302501,44.9689893 C221.176475,44.8114737 221.080046,44.6699521 220.961657,44.4809334 C220.545866,44.8827192 220.100478,45.055744 219.551023,45.055744 C218.690799,45.055744 218.201015,44.4654242 218.201015,43.7330981 C218.201015,42.8989928 218.824463,42.3396915 219.440273,42.0169058 L219.440273,41.993642 C219.262213,41.6548624 219.165784,41.3475859 219.165784,41.0330395 C219.165784,40.2381919 219.721922,39.5766266 220.493833,39.5766266 C221.161676,39.5766266 221.502997,40.0564432 221.502997,40.6234991 C221.502997,41.2535613 221.080046,41.7416171 220.219344,42.1666667 L220.219344,42.1904152 C220.493833,42.6862257 220.85759,43.2683061 221.117281,43.6623373 C221.421367,43.2610362 221.659098,42.7414773 221.873915,42.0721574 L222.452967,42.0721574 C222.178001,42.9227413 221.859117,43.5838219 221.399407,44.0873869 C221.584628,44.3626756 221.784647,44.6544429 222.030016,44.9689893 L221.302501,44.9689893 L221.302501,44.9689893 Z M219.721922,44.5439397 C220.115277,44.5439397 220.44896,44.3554057 220.701967,44.0718777 C220.464236,43.701595 220.033646,43.0560237 219.662728,42.3949431 C219.336206,42.6072256 218.824463,42.9852628 218.824463,43.6303496 C218.824463,44.1426385 219.143347,44.5439397 219.714762,44.5439397 L219.721922,44.5439397 L219.721922,44.5439397 Z M220.434639,40.040934 C220.056083,40.040934 219.744359,40.4349651 219.744359,40.9545241 C219.744359,41.2535613 219.818351,41.5210954 219.98209,41.796384 C220.583101,41.4895922 220.939221,41.1435427 220.939221,40.639493 C220.939221,40.3327012 220.805079,40.040934 220.441799,40.040934 L220.434639,40.040934 L220.434639,40.040934 Z" id="Fill-70" fill="#1A1918"></path>
                <g id="Group-74">
                    <mask id="mask-8" fill="white">
                        <use xlink:href="#path-7"></use>
                    </mask>
                    <g id="Clip-72"></g>
                    <path d="M224.040707,44.316148 C224.203968,44.4256818 224.515214,44.5516943 224.81214,44.5516943 C225.227454,44.5516943 225.494782,44.268651 225.494782,43.9303561 C225.494782,43.6303496 225.368756,43.4418156 224.9902,43.2217785 C224.574886,42.9775082 224.344793,42.6464833 224.344793,42.2534214 C224.344793,41.5841016 224.886133,41.0722972 225.650882,41.0722972 C225.969767,41.0722972 226.259054,41.1668066 226.392719,41.2613159 L226.221819,41.7571263 C226.095793,41.6786109 225.873338,41.5841016 225.60601,41.5841016 C225.227454,41.5841016 224.960603,41.8356418 224.960603,42.1584274 C224.960603,42.4342008 225.131502,42.6072256 225.458024,42.7962442 C225.858062,43.0405145 226.12539,43.3710547 226.12539,43.803859 C226.12539,44.6069459 225.517218,45.055744 224.752946,45.055744 C224.366752,45.0475047 224.025908,44.9297316 223.862647,44.7959645 L224.040707,44.316148" id="Fill-71" fill="#1A1918" mask="url(#mask-8)"></path>
                    <path d="M226.451913,46.5276661 L227.171312,42.5132009 C227.252943,42.0566482 227.32789,41.5366046 227.371809,41.1508127 L227.936062,41.1508127 L227.839633,41.8748995 L227.854432,41.8748995 C228.173316,41.3713344 228.648301,41.0722972 229.145246,41.0722972 C229.917156,41.0722972 230.243679,41.7493717 230.243679,42.4501947 C230.243679,43.7961044 229.338104,45.055744 228.143719,45.055744 C227.76564,45.055744 227.513111,44.9689893 227.371809,44.8827192 L227.35701,44.8827192 L227.0682,46.5276661 L226.451913,46.5276661 L226.451913,46.5276661 Z M227.461077,44.3316572 C227.624338,44.4654242 227.854432,44.5439397 228.15088,44.5439397 C228.945227,44.5439397 229.605432,43.4970672 229.605432,42.497207 C229.605432,42.0954212 229.442171,41.6156047 228.91563,41.6156047 C228.433007,41.6156047 227.831995,42.1976852 227.646775,43.2683061 L227.461077,44.3316572 L227.461077,44.3316572 Z" id="Fill-73" fill="#1A1918" mask="url(#mask-8)"></path>
                </g>
                <path d="M230.681429,44.9689893 L231.119179,42.5132009 C231.20797,42.0169058 231.260004,41.5128561 231.297239,41.159052 L231.839056,41.159052 C231.816619,41.426586 231.787022,41.6863655 231.742627,41.9854027 L231.764586,41.9854027 C232.002317,41.4663284 232.380873,41.0722972 232.862541,41.0722972 C232.922213,41.0722972 232.989045,41.0805365 233.040601,41.0878065 L232.922213,41.7333778 C232.877817,41.7256232 232.818146,41.7178686 232.751791,41.7178686 C232.224772,41.7178686 231.749787,42.4026977 231.594164,43.2847847 L231.297239,44.9689893 L230.681429,44.9689893" id="Fill-75" fill="#1A1918"></path>
                <path d="M233.033918,44.9689893 L233.716083,41.159052 L234.331892,41.159052 L233.649728,44.9689893 L233.033918,44.9689893 L233.033918,44.9689893 Z M234.183907,40.4587136 C233.968612,40.4587136 233.82015,40.2774496 233.82015,40.033664 C233.827788,39.7738846 234.013008,39.568872 234.243101,39.568872 C234.473195,39.568872 234.628818,39.7501361 234.628818,39.9939216 C234.621657,40.2692103 234.43596,40.4587136 234.191068,40.4587136 L234.183907,40.4587136 L234.183907,40.4587136 Z" id="Fill-76" fill="#1A1918"></path>
                <path d="M234.740045,44.9689893 L235.215031,42.2689307 C235.296661,41.843881 235.348695,41.4735984 235.385452,41.159052 L235.942068,41.159052 L235.845639,41.9068873 L235.860915,41.9068873 C236.18696,41.3713344 236.669583,41.0722972 237.196124,41.0722972 C237.619076,41.0722972 238.101699,41.3320767 238.101699,42.127409 C238.101699,42.3004338 238.071625,42.5442193 238.034867,42.7414773 L237.633875,44.9689893 L237.025703,44.9689893 L237.41858,42.7647411 C237.441016,42.6232194 237.463453,42.4419554 237.463453,42.2771699 C237.463453,41.898648 237.322628,41.6156047 236.899199,41.6156047 C236.461449,41.6156047 235.838478,42.174906 235.675217,43.1190299 L235.348695,44.9689893 L234.740045,44.9689893" id="Fill-77" fill="#1A1918"></path>
                <path d="M238.695073,44.9689893 L239.697076,39.3798534 L240.312886,39.3798534 L239.6818,42.8825143 L239.697076,42.8825143 C239.800666,42.7492319 239.93433,42.6072256 240.030759,42.5049616 L241.292454,41.159052 L242.056249,41.159052 L240.490946,42.7254834 L241.559305,44.9689893 L240.884301,44.9689893 L240.015961,43.0957661 L239.562935,43.5208157 L239.303244,44.9689893 L238.695073,44.9689893" id="Fill-78" fill="#1A1918"></path>
                <path d="M242.136925,44.9689893 L243.138451,39.3798534 L243.754738,39.3798534 L242.752735,44.9689893 L242.136925,44.9689893" id="Fill-79" fill="#1A1918"></path>
                <path d="M246.418474,44.7567068 C246.151146,44.9142223 245.712918,45.055744 245.230773,45.055744 C244.280802,45.055744 243.865489,44.3626756 243.865489,43.5208157 C243.865489,42.3711946 244.666996,41.0722972 245.824623,41.0722972 C246.507265,41.0722972 246.878183,41.5055861 246.878183,42.0566482 C246.878183,43.0560237 245.816985,43.3158031 244.488937,43.2920546 C244.458862,43.4578095 244.481299,43.8120982 244.562929,44.0161414 C244.704231,44.3626756 244.993519,44.5284304 245.364437,44.5284304 C245.787388,44.5284304 246.106273,44.3946634 246.329206,44.268651 L246.418474,44.7567068 L246.418474,44.7567068 Z M246.28481,42.0644028 C246.28481,41.7571263 246.062355,41.5841016 245.735355,41.5841016 C245.149619,41.5841016 244.711869,42.1904152 244.562929,42.7884896 C245.528175,42.8039988 246.28481,42.6624772 246.28481,42.0721574 L246.28481,42.0644028 L246.28481,42.0644028 Z" id="Fill-80" fill="#1A1918"></path>
                <path d="M247.189907,44.9689893 L247.627657,42.5132009 C247.716926,42.0169058 247.768482,41.5128561 247.805717,41.159052 L248.347534,41.159052 C248.325098,41.426586 248.295024,41.6863655 248.251105,41.9854027 L248.273064,41.9854027 C248.510796,41.4663284 248.889352,41.0722972 249.37102,41.0722972 C249.430692,41.0722972 249.497524,41.0805365 249.54908,41.0878065 L249.430692,41.7333778 C249.386296,41.7256232 249.327102,41.7178686 249.259792,41.7178686 C248.732774,41.7178686 248.258266,42.4026977 248.102165,43.2847847 L247.805717,44.9689893 L247.189907,44.9689893" id="Fill-81" fill="#1A1918"></path>
            </g>
        </g>
    </g>
</svg>