<?xml version="1.0" encoding="utf-8"?>
<!-- Generator: Adobe Illustrator 19.2.1, SVG Export Plug-In . SVG Version: 6.00 Build 0)  -->
<svg version="1.1" id="Layer_1" xmlns="http://www.w3.org/2000/svg" xmlns:xlink="http://www.w3.org/1999/xlink" x="0px" y="0px"
	 viewBox="0 0 422 77" enable-background="new 0 0 422 77" xml:space="preserve">
<g>
	<path fill="#FFE512" d="M160.6,27.9l-1.2-1c13.7-15.8,33.3-24.9,53.8-24.9v1.5C193.2,3.6,174,12.5,160.6,27.9z"/>
	<path fill="#FFFFFF" d="M206.8,5.5c17.7,0,33.2,8,45,21.8l7.4,0c-12.6-14.8-33.6-26-52.5-26V5.5z"/>
	<path fill="#FFFFFF" d="M12.5,34.3c2,1.2,4,2.4,6.1,3.6c2.1,1.4,3.6,2.9,4.7,4.5c1.1,1.7,1.6,3.4,1.6,5.3c0,1.5-0.3,2.8-0.9,4
		c-1,1.9-2.5,3.4-4.6,4.6c-2.1,1.1-4.3,1.7-6.7,1.7c-3,0-5.7-1-8.1-3c-2.3-2-3.7-4.4-4.1-7.4l4.6-1c0,2,0.7,3.7,2.3,5
		c1.6,1.4,3.4,2.1,5.5,2.1c1.6,0,3-0.6,4.2-1.7c1.2-1.1,1.8-2.4,1.8-3.9c0-1.1-0.4-2.1-1.3-3.1c-0.8-0.9-2.1-1.9-3.8-3
		c-1.6-0.9-3.2-1.8-4.7-2.8l-1.1-0.8c-1.6-1.1-3-2.1-4-3.2c-1.6-1.6-2.3-3.5-2.3-5.8c0-2.2,0.9-4.3,2.8-6.1c1.5-1.5,3.9-2.2,7.3-2.2
		c1,0,2.4,0.3,4.2,0.9c1.8,0.6,2.9,0.9,3.4,0.9c1.1,0,1.7-0.6,2-1.8h1.1L23.7,33h-1.3c-0.7-2.7-1.8-4.9-3.4-6.6
		c-1.8-1.9-4.1-2.8-6.7-2.8c-1.9,0-3.3,0.3-4.1,1c-1,0.8-1.5,1.9-1.5,3.2c0,1.3,0.4,2.3,1.3,3c1.1,1,2.3,1.9,3.5,2.8L12.5,34.3z"/>
	<path fill="#FFFFFF" d="M54.6,45.9c-0.3,3.5-1.8,6.5-4.4,8.8c-2.6,2.3-5.7,3.5-9.2,3.5c-3.8,0-7-1.3-9.7-3.9c-2.7-2.6-4-5.8-4-9.7
		c0-3.7,1.3-6.9,4-9.6c2.7-2.7,5.9-4,9.7-4c3.7,0,6.9,1.3,9.6,4c2.7,2.7,4,5.9,4,9.6c0,0,0,0.1,0,0.2 M49.3,44.9v-0.4
		c0-3.6-0.6-6.4-1.8-8.3c-1.8-1.5-4-2.3-6.5-2.3c-2.3,0-4.3,0.6-6.1,1.9c-1.4,2-2.1,4.9-2.1,8.7c0,3.6,0.6,6.4,1.9,8.4
		c1.9,1.5,4,2.2,6.3,2.2c2.5,0,4.7-0.8,6.6-2.4c1-1.6,1.5-3.9,1.7-6.8"/>
	<path fill="#FFFFFF" d="M329.2,45.9c-0.3,3.5-1.8,6.5-4.4,8.8c-2.6,2.3-5.7,3.5-9.2,3.5c-3.8,0-7-1.3-9.7-3.9c-2.7-2.6-4-5.8-4-9.7
		c0-3.7,1.3-6.9,4-9.6c2.7-2.7,5.9-4,9.7-4c3.7,0,6.9,1.3,9.6,4c2.7,2.7,4,5.9,4,9.6c0,0,0,0.1,0,0.2 M324,44.9v-0.4
		c0-3.6-0.6-6.4-1.8-8.3c-1.8-1.5-4-2.3-6.5-2.3c-2.3,0-4.3,0.6-6.1,1.9c-1.4,2-2.1,4.9-2.1,8.7c0,3.6,0.6,6.4,1.9,8.4
		c1.9,1.5,4,2.2,6.3,2.2c2.5,0,4.7-0.8,6.6-2.4c1-1.6,1.5-3.9,1.7-6.8"/>
	<path fill="#FFFFFF" d="M76.1,42.4V31.1l1.9-0.2v11.5v1v4.4c0,3-1,5.4-2.9,7.4c-1.9,2-4.4,2.9-7.5,2.9c-3,0-5.4-1-7.2-3
		c-1.7-1.9-2.6-4.4-2.6-7.4V35.2c0-1.4-0.2-2.4-0.7-2.8c-0.5-0.4-1.4-0.7-3-0.8v-0.7h7.6v15.8c0,5.6,2.1,8.4,6.4,8.4
		c2.5,0,4.4-0.8,5.9-2.5c1.3-1.5,2-3.4,2-5.8v-3.4V42.4z"/>
	<path fill="#FFFFFF" d="M99.5,38.1h-1c-0.2-1.1-0.4-1.8-0.5-2c-0.1-0.2-0.3-0.5-0.7-0.9c-0.5-0.5-1.6-0.8-3.4-0.9c0,0-1.7,0-1.9,0
		c-0.1,0,0.1-0.2,0,0.2c0,0.5,0,1.6,0,1.6V58h-7.9v-0.7c1.7-0.1,2.8-0.4,3.2-0.9c0.4-0.5,0.7-1.6,0.7-3.2v-17v-1v-0.8h-7.2v-3.1h12
		h1h5.4L99.5,38.1z"/>
	<path fill="#FFFFFF" d="M122.1,41.8v-1v-1v-8.7h7.8v0.7c-1.5,0.1-2.4,0.4-2.9,0.8c-0.5,0.4-0.7,1.4-0.7,2.8v4.3v1v12.7
		c0,1.4,0.2,2.4,0.7,2.8c0.5,0.4,1.4,0.7,2.9,0.8V58h-7.8V45.2h-10.6h-1h-0.7V58H102v-0.7c1.6-0.2,2.6-0.5,3-1
		c0.4-0.5,0.6-1.5,0.6-3.2V35.5c0-1.4-0.2-2.4-0.7-2.8c-0.5-0.4-1.4-0.7-2.9-0.8v-0.7h7.7v10.7h0.7"/>
	<path fill="#FFFFFF" d="M183.5,58h-6.6l-9-11.6h-0.8h-1.3H165V58h-7.6v-0.7c1.6-0.1,2.5-0.5,2.9-1c0.4-0.5,0.6-1.6,0.6-3.2V31h4.9
		l1,0c2.7,0.1,4.7,0.5,6.1,1.3c2.4,1.4,3.6,3.5,3.6,6.3c0,1.6-0.4,3-1.2,4.2c-0.8,1.2-1.9,2.1-3.3,2.7l7.9,9.8
		c0.9,1.1,2.1,1.8,3.5,1.9V58z M173.3,38.8c0-3-1.7-4.7-8.3-4.7v9.5c2-0.1,5.3-0.4,6.3-0.9C172.6,41.9,173.3,40.6,173.3,38.8z"/>
	<path fill="#FFFFFF" d="M401.5,58H395l-9-11.6h-0.8h-1.3h-0.7V58h-7.6v-0.7c1.6-0.1,2.5-0.5,2.9-1c0.4-0.5,0.6-1.6,0.6-3.2V31h4.9
		l1,0c2.7,0.1,4.7,0.5,6.1,1.3c2.4,1.4,3.6,3.5,3.6,6.3c0,1.6-0.4,3-1.2,4.2c-0.8,1.2-1.9,2.1-3.3,2.7l7.9,9.8
		c0.9,1.1,2.1,1.8,3.5,1.9V58z M383.1,43.6c2-0.1,5.3-0.4,6.3-0.9c1.3-0.8,2-2.1,2-3.9c0-3-1.7-4.7-8.3-4.7"/>
	<path fill="#FFFFFF" d="M185.3,52.9c0-0.1,0-0.2,0.1-0.5c0-0.2,0-0.4,0-0.5v-23l10.4,11l10.1,9.9l0-18.8h7.1v0.8
		c-1.6,0.2-2.6,0.6-3.1,1.1c-0.3,0.4-0.5,0.9-0.7,1.5v24.3l-4.2-3.8l-16.3-15.2v13.1v1v2.8c0.5,0.2,1.3,0.4,2.2,0.5v0.8h-9.5v-0.8
		c1.7-0.2,2.8-0.6,3.3-1.2c0.3-0.4,0.5-1.1,0.6-2.1"/>
	<path fill="#FFFFFF" d="M251.8,50.3l-2.1,7.8h-20.9V44.6v-1.2v-11c0-1.6-0.3-2.7-0.8-3.2c-0.5-0.5-1.6-0.8-3.2-0.9v-0.9h24.5
		l0.2,6.7h-1.2c-0.4-2.2-1.1-3.6-2.1-4.2c-0.8-0.4-2.4-0.7-4.8-0.7H235c-0.7,0-1.1,0.1-1.3,0.3c-0.2,0.2-0.2,0.6-0.2,1.2v8.5h0.8
		h1.1h11.3v8.2h-1.1c-0.4-1.9-0.8-3-1.4-3.5c-0.6-0.6-1.9-0.9-3.7-0.9h-7.1l0,1.7v9.9h12c1.3-0.2,2.2-0.5,2.7-0.9
		c0.8-0.6,1.6-1.7,2.3-3.3H251.8z"/>
	<path fill="#FFFFFF" d="M293.6,75.3h-7.3l-20.5-28.4l-6.6,11.2h-3.8l8.4-14.1l-0.3-0.4l-0.6-0.9l-3.1-4.4c-1.7-2.4-2.7-3.8-2.9-4.1
		c-1.3-1.4-2.7-2.2-4.3-2.2V31h7.5l6,9.3l1.7-2.7l0.6-1l3.4-5.8h3.9l-3.5,5.8l-4.2,7.1L289,71.6c0.8,1.1,1.5,1.9,2.1,2.3
		c0.6,0.4,1.4,0.6,2.4,0.7V75.3z M271.6,37.6l-3.5,5.7"/>
	<path fill="#FFFFFF" d="M283.3,38.6v-3.1c0-1.4-0.2-2.3-0.6-2.8l-0.5-0.3l-0.6-0.3c-0.4-0.1-1-0.2-1.8-0.3V31h1.8h1h6.2
		c4,0,6.9,0.7,8.6,2.1c1.5,1.2,2.3,3.2,2.3,5.8c0,2.7-0.9,4.8-2.8,6.2c-1.7,1.2-3.9,1.8-6.7,1.8h-3v11h-4V39.6 M296.7,38.9
		c0-3.2-2.5-4.8-7.4-4.8h-2v4.5v1v4.3h2.2C294.3,43.9,296.7,42.2,296.7,38.9z"/>
	<path fill="#FFFFFF" d="M337.2,43.9c-1.3-0.9-2.3-1.7-2.9-2.4c-1.1-1.2-1.7-2.6-1.7-4.3c0-1.7,0.7-3.2,2-4.5
		c1.1-1.1,2.9-1.6,5.4-1.6c1,0,2.1,0.2,3.4,0.7c1.3,0.4,2,0.7,2.2,0.7c0.5,0,0.8-0.1,1-0.3c0.2-0.2,0.3-0.6,0.4-1h0.8l0.9,8.6h-1
		c-0.5-2-1.3-3.6-2.5-4.9c-1.4-1.4-3-2.1-5-2.1c-1.3,0-2.3,0.2-3,0.7c-0.8,0.6-1.1,1.4-1.1,2.4c0,0.9,0.3,1.6,1,2.2
		c0.8,0.8,1.7,1.5,2.5,2.1l0.8,0.6c1.5,0.9,3,1.8,4.5,2.7c1.5,1,2.7,2.1,3.5,3.3c0.8,1.2,1.2,2.5,1.2,3.9c0,1.1-0.2,2.1-0.7,2.9
		c-0.7,1.4-1.8,2.5-3.4,3.3c-1.5,0.9-3.2,1.3-4.9,1.3c-2.2,0-4.2-0.7-5.9-2.2c-1.7-1.5-2.7-3.3-3-5.5l3.4-0.7c0,1.5,0.6,2.7,1.8,3.7
		c1.1,1,2.5,1.5,4,1.5c1.2,0,2.2-0.4,3.1-1.3c0.9-0.9,1.3-1.8,1.3-2.9c0-0.8-0.3-1.6-0.9-2.3c-0.6-0.7-1.6-1.4-2.9-2.1
		c-1.1-0.7-2.3-1.4-3.5-2.1"/>
	<path fill="#FFFFFF" d="M372.5,42.4V31.2l1.9-0.2v11.4v1v4.3c0,3-1,5.4-2.9,7.4c-1.9,1.9-4.4,2.9-7.4,2.9c-3,0-5.4-1-7.1-2.9
		c-1.7-1.9-2.5-4.3-2.6-7.3V35.3c0-1.4-0.2-2.3-0.7-2.8c-0.4-0.4-1.4-0.7-2.9-0.8V31h7.5v15.6c0,5.6,2.1,8.3,6.4,8.3
		c2.5,0,4.4-0.8,5.8-2.5c1.3-1.5,2-3.4,2-5.7v-3.4"/>
	<path fill="#FFFFFF" d="M421.1,51.1l-1.8,6.8h-17.8V46.1v-1v-9.7c0-1.4-0.2-2.4-0.7-2.8c-0.4-0.5-1.4-0.7-2.8-0.8V31h20.9l0.1,5.9
		h-1c-0.4-2-1-3.2-1.8-3.7c-0.7-0.4-2-0.6-4.1-0.6h-5.3c-0.6,0-0.9,0.1-1.1,0.3c-0.1,0.2-0.2,0.6-0.2,1.1v7.5h0.7h0.9h9.7v7.2h-0.9
		c-0.3-1.6-0.7-2.7-1.2-3.1c-0.5-0.5-1.6-0.8-3.2-0.8h-6l0,1.5v8.7h10.2c1.1-0.2,1.8-0.5,2.3-0.8c0.7-0.5,1.3-1.5,2-2.9H421.1z"/>
	<path fill="#FFFFFF" d="M156,51.2l-1.8,6.9h-17.8V46.2v-1v-9.6c0-1.4-0.2-2.4-0.7-2.8c-0.4-0.5-1.4-0.7-2.8-0.8v-0.8h20.9L154,37
		h-1c-0.4-1.9-1-3.2-1.8-3.7c-0.7-0.4-2-0.6-4.1-0.6h-5.3c-0.6,0-0.9,0.1-1.1,0.3c-0.1,0.2-0.2,0.6-0.2,1.1v7.4h0.7h0.9h9.7v7.1
		h-0.9c-0.3-1.6-0.7-2.7-1.2-3.1c-0.5-0.5-1.6-0.8-3.2-0.8h-6l0,1.5v8.7h10.2c1.1-0.2,1.8-0.5,2.3-0.8c0.7-0.5,1.3-1.5,2-2.9H156z"
		/>
	<g>
		<path fill="#FFFFFF" d="M81,41.1l0,1.1h-5h-0.7V45c0,2.9-0.7,5.1-2,6.6c-1,1.1-2.5,2-4.5,2.6l-0.3-1c1.8-0.5,3.1-1.3,3.9-2.2
			c1.2-1.3,1.8-3.3,1.8-6v-2.8h-2.7v-1.1h2.7V34h1v7.1h0.7L81,41.1z"/>
		<path fill="#FFFFFF" d="M377.3,41.1l0,1.1h-5h-0.7V45c0,2.9-0.7,5.1-2,6.6c-1,1.1-2.5,2-4.5,2.6l-0.3-1c1.8-0.5,3.1-1.3,3.9-2.2
			c1.2-1.3,1.8-3.3,1.8-6v-2.8h-2.7v-1.1h2.7V34h1v7.1h0.7L377.3,41.1z"/>
		<rect x="79.8" y="35" fill="#FFFFFF" width="15" height="1"/>
		<rect x="92.8" y="29.5" fill="#FFFFFF" width="1" height="11.6"/>
		<rect x="112.7" y="39.6" fill="#FFFFFF" width="19.9" height="1"/>
		<rect x="134.5" y="45.6" fill="#FFFFFF" width="11.8" height="1"/>
		<rect x="181.8" y="52.8" fill="#FFFFFF" width="11.8" height="1.1"/>
		<rect x="141.4" y="33.9" fill="#FFFFFF" width="1" height="18.8"/>
		<rect x="399.9" y="45.6" fill="#FFFFFF" width="11.8" height="1"/>
		<rect x="406.8" y="33.9" fill="#FFFFFF" width="1" height="18.8"/>
		<rect x="227.1" y="44.1" fill="#FFFFFF" width="11.8" height="1"/>
		<rect x="234.5" y="30.7" fill="#FFFFFF" width="1" height="22"/>
		<g>
			<polygon fill="#FFFFFF" points="204.4,57.6 204.4,42.8 203.1,42.8 203.1,54.9 204.2,55.9 			"/>
			<polygon fill="#FFFFFF" points="204.2,55.9 203.1,54.9 188.6,41.4 187.8,42.2 204.4,57.6 			"/>
		</g>
		
			<rect x="261.4" y="39.6" transform="matrix(0.5183 -0.8552 0.8552 0.5183 96.461 251.6368)" fill="#FFFFFF" width="20.4" height="1.2"/>
		
			<rect x="248.2" y="49.9" transform="matrix(0.5103 -0.86 0.86 0.5103 83.0923 246.8276)" fill="#FFFFFF" width="20.1" height="1.1"/>
		<g>
			<polygon fill="#FFFFFF" points="166,55.4 166.9,55.4 166.9,47.9 166,46.7 			"/>
			<polygon fill="#FFFFFF" points="166.9,46.3 166.9,29.5 166,29.5 166,46.2 166.5,45.8 			"/>
			<line fill="#FFFFFF" x1="166" y1="46.7" x2="166" y2="46.2"/>
			<polygon fill="#FFFFFF" points="176.7,58.9 166.9,46.3 166.9,47.9 176,59.5 			"/>
			<polygon fill="#FFFFFF" points="166.5,45.8 166,46.2 166,46.7 166.9,47.9 166.9,46.3 			"/>
		</g>
		<g>
			<polygon fill="#FFFFFF" points="384,56 384.9,56 384.9,48.5 384,47.3 			"/>
			<polygon fill="#FFFFFF" points="384.9,46.6 384.9,29.5 384,29.5 384,46.5 384.5,46.1 			"/>
			<line fill="#FFFFFF" x1="384" y1="47.3" x2="384" y2="46.8"/>
			<polygon fill="#FFFFFF" points="394.4,59.2 384.9,47 384.9,48.5 393.6,59.7 			"/>
			<polygon fill="#FFFFFF" points="384.5,46.4 384,46.8 384,47.3 384.9,48.5 384.9,47 			"/>
		</g>
		<rect x="110.7" y="31.1" fill="#FFFFFF" width="1" height="19.9"/>
		<g>
			<g>
				<path fill="#FFFFFF" d="M17.6,26.7L17.6,26.7l-0.9-1L7.6,39.3l-0.1-0.1c-2.3-1.4-3.9-2.7-4.7-3.9l-1.1,0.8
					c1,1.4,2.7,2.8,5.1,4.2l0.1,0.1l-1.9,2.9L6,44l2-2.9c1.7,1,3.4,2,5.1,3c1.8,1.2,3,2.2,3.4,3.1c0.2,0.3,0.3,0.7,0.3,1
					c0,0.6-0.2,1.1-0.6,1.6c-0.8,1-1.5,1.4-2.2,1.3l-0.3,1.3c1.2,0.2,2.4-0.4,3.5-1.8c0.6-0.8,0.9-1.6,0.9-2.4
					c0-0.6-0.1-1.1-0.4-1.6c-0.4-0.9-1.4-1.8-2.8-2.8c-0.8-0.6-2.2-1.5-4.4-2.7L8.7,40l8.2-12.2c0.7,0.6,1.3,1.4,2,2.5
					c0.8,1.3,1.2,2.3,1.2,3l1.4-0.2C20.6,30.4,19.1,28.2,17.6,26.7z"/>
			</g>
		</g>
		<g>
			<g>
				<path fill="#FFFFFF" d="M343.8,34.5L343.8,34.5l-0.7-0.7l-7,10.4l-0.1-0.1c-1.8-1.1-3-2.1-3.6-3l-0.9,0.6
					c0.8,1.1,2.1,2.2,3.9,3.3l0.1,0.1l-1.5,2.2l0.9,0.6l1.5-2.3c1.3,0.8,2.6,1.5,3.9,2.3c1.4,0.9,2.3,1.7,2.6,2.4
					c0.1,0.3,0.2,0.5,0.2,0.8c0,0.4-0.2,0.9-0.5,1.3c-0.6,0.8-1.1,1.1-1.7,1l-0.2,1c0.9,0.2,1.8-0.3,2.7-1.4
					c0.5-0.6,0.7-1.2,0.7-1.9c0-0.4-0.1-0.9-0.3-1.3c-0.3-0.7-1.1-1.4-2.1-2.2c-0.6-0.4-1.7-1.1-3.3-2.1l-1.4-0.8l6.3-9.4
					c0.5,0.5,1,1.1,1.5,1.9c0.6,1,0.9,1.7,0.9,2.3l1.1-0.2C346.1,37.3,345,35.6,343.8,34.5z"/>
			</g>
		</g>
		<rect x="267" y="36.3" fill="#FFFFFF" width="9" height="1.3"/>
		<rect x="281.3" y="41.8" fill="#FFFFFF" width="9" height="1.3"/>
		<rect x="284.6" y="29.5" fill="#FFFFFF" width="1.3" height="30.2"/>
		<path fill="#FFFFFF" d="M55.4,44.1v1h-6.9c-0.3,3.5-0.8,5.7-1.6,6.6c-1.4,1.6-3.7,2.4-6.7,2.4c-0.6,0-1.2,0-1.8-0.1l0.2-1
			c0.6,0.1,1.1,0.1,1.7,0.1c2.7,0,4.7-0.7,5.9-2c0.6-0.7,1.1-2.7,1.3-6h-8.5v-1h8.5c0.1-1.2,0.1-2.2,0-2.8l1-0.2
			c0.1,0.9,0.1,1.9,0.1,3L55.4,44.1z"/>
		<path fill="#FFFFFF" d="M330.2,44.3v1h-6.9c-0.3,3.5-0.8,5.7-1.6,6.6c-1.4,1.6-3.7,2.4-6.7,2.4c-0.6,0-1.2,0-1.8-0.1l0.2-1
			c0.6,0.1,1.1,0.1,1.7,0.1c2.7,0,4.7-0.7,5.9-2c0.6-0.7,1.1-2.7,1.3-5.9h-8.5v-1h8.5c0.1-1.2,0.1-2.2,0-2.8l1-0.2
			c0.1,0.9,0.1,1.9,0.1,3L330.2,44.3z"/>
	</g>
	<polygon fill="#FFE512" points="1,61.5 1,62.8 274.3,62.8 273.3,61.5 	"/>
	<polygon fill="#FFE512" points="284.4,61.5 285.4,62.8 420.6,62.8 420.6,61.5 	"/>
</g>
</svg>
