<?xml version="1.0" encoding="utf-8"?>
<!-- Generator: Adobe Illustrator 19.2.1, SVG Export Plug-In . SVG Version: 6.00 Build 0)  -->
<svg version="1.1" id="Layer_1" xmlns="http://www.w3.org/2000/svg" xmlns:xlink="http://www.w3.org/1999/xlink" x="0px" y="0px"
	 viewBox="0 0 220 47" enable-background="new 0 0 220 47" xml:space="preserve">
<g>
	<path fill="#FFE512" d="M84.1,17.7l-0.6-0.5c7.2-8.2,17.4-13,28.1-13V5C101.1,5,91.1,9.6,84.1,17.7z"/>
	<path d="M108.2,5.9c9.2,0,17.3,4.2,23.5,11.4l3.9,0C129,9.6,118,3.8,108.2,3.8V5.9z"/>
	<path d="M6.8,21c1,0.6,2.1,1.3,3.2,1.9c1.1,0.7,1.9,1.5,2.5,2.4c0.6,0.9,0.8,1.8,0.8,2.8c0,0.8-0.2,1.5-0.5,2.1
		c-0.5,1-1.3,1.8-2.4,2.4c-1.1,0.6-2.3,0.9-3.5,0.9c-1.6,0-3-0.5-4.2-1.5c-1.2-1-1.9-2.3-2.1-3.9L3,27.4c0,1,0.4,1.9,1.2,2.6
		c0.8,0.7,1.8,1.1,2.9,1.1c0.8,0,1.6-0.3,2.2-0.9c0.6-0.6,0.9-1.3,0.9-2c0-0.6-0.2-1.1-0.7-1.6c-0.4-0.5-1.1-1-2-1.5
		c-0.8-0.5-1.7-1-2.5-1.4l-0.6-0.4c-0.9-0.5-1.6-1.1-2.1-1.7c-0.8-0.8-1.2-1.8-1.2-3c0-1.2,0.5-2.2,1.5-3.2c0.8-0.8,2-1.1,3.8-1.1
		c0.5,0,1.3,0.2,2.2,0.5c0.9,0.3,1.5,0.5,1.8,0.5c0.5,0,0.9-0.3,1.1-0.9h0.6l0.6,6.1H12c-0.4-1.4-0.9-2.6-1.8-3.4
		c-1-1-2.1-1.5-3.5-1.5c-1,0-1.7,0.2-2.1,0.5c-0.5,0.4-0.8,1-0.8,1.7c0,0.7,0.2,1.2,0.7,1.6c0.6,0.5,1.2,1,1.8,1.5L6.8,21z"/>
	<path d="M28.8,27c-0.2,1.8-0.9,3.4-2.3,4.6c-1.3,1.2-2.9,1.8-4.8,1.8c-2,0-3.7-0.7-5-2c-1.4-1.4-2.1-3-2.1-5.1c0-1.9,0.7-3.6,2.1-5
		c1.4-1.4,3.1-2.1,5-2.1c1.9,0,3.6,0.7,5,2.1c1.4,1.4,2.1,3.1,2.1,5c0,0,0,0,0,0.1 M26,26.5v-0.2c0-1.9-0.3-3.3-1-4.3
		c-0.9-0.8-2.1-1.2-3.4-1.2c-1.2,0-2.2,0.3-3.2,1c-0.7,1-1.1,2.5-1.1,4.5c0,1.9,0.3,3.3,1,4.4c1,0.8,2.1,1.1,3.3,1.1
		c1.3,0,2.5-0.4,3.5-1.3c0.5-0.8,0.8-2,0.9-3.5"/>
	<path d="M172.1,27c-0.2,1.8-0.9,3.4-2.3,4.6c-1.3,1.2-2.9,1.8-4.8,1.8c-2,0-3.7-0.7-5-2c-1.4-1.4-2.1-3-2.1-5.1
		c0-1.9,0.7-3.6,2.1-5c1.4-1.4,3.1-2.1,5-2.1c1.9,0,3.6,0.7,5,2.1c1.4,1.4,2.1,3.1,2.1,5c0,0,0,0,0,0.1 M169.3,26.5v-0.2
		c0-1.9-0.3-3.3-1-4.3c-0.9-0.8-2.1-1.2-3.4-1.2c-1.2,0-2.2,0.3-3.2,1c-0.7,1-1.1,2.5-1.1,4.5c0,1.9,0.3,3.3,1,4.4
		c1,0.8,2.1,1.1,3.3,1.1c1.3,0,2.5-0.4,3.5-1.3c0.5-0.8,0.8-2,0.9-3.5"/>
	<path d="M40,25.2v-5.9l1-0.1v6v0.5V28c0,1.6-0.5,2.8-1.5,3.9c-1,1-2.3,1.5-3.9,1.5c-1.6,0-2.8-0.5-3.8-1.5c-0.9-1-1.3-2.3-1.3-3.9
		v-6.6c0-0.7-0.1-1.2-0.4-1.4c-0.2-0.2-0.8-0.4-1.5-0.4v-0.4h4v8.2c0,2.9,1.1,4.4,3.4,4.4c1.3,0,2.3-0.4,3.1-1.3c0.7-0.8,1-1.8,1-3
		v-1.8V25.2z"/>
	<path d="M52.2,22.9h-0.5c-0.1-0.6-0.2-0.9-0.3-1.1c-0.1-0.1-0.2-0.3-0.4-0.4c-0.3-0.2-0.8-0.4-1.8-0.5c0,0-0.9,0-1,0
		c-0.1,0,0-0.1,0,0.1c0,0.3,0,0.8,0,0.8v11.4h-4.1v-0.4c0.9-0.1,1.4-0.2,1.7-0.5c0.2-0.2,0.3-0.8,0.3-1.7v-8.9v-0.5v-0.4h-3.8v-1.6
		h6.2h0.5h2.8L52.2,22.9z"/>
	<path d="M64,24.9v-0.5v-0.5v-4.5H68v0.4c-0.8,0.1-1.3,0.2-1.5,0.4c-0.2,0.2-0.4,0.7-0.4,1.5v2.2v0.5V31c0,0.7,0.1,1.2,0.4,1.5
		c0.2,0.2,0.7,0.4,1.5,0.4v0.4H64v-6.6h-5.6h-0.5h-0.4v6.6h-4v-0.4c0.8-0.1,1.4-0.3,1.6-0.5c0.2-0.2,0.3-0.8,0.3-1.7v-9.2
		c0-0.7-0.1-1.2-0.4-1.5c-0.2-0.2-0.7-0.4-1.5-0.4v-0.4h4v5.6h0.4"/>
	<path d="M96,33.3h-3.4l-4.7-6.1h-0.4h-0.7h-0.4v6.1h-4v-0.4c0.8-0.1,1.3-0.2,1.5-0.5c0.2-0.3,0.3-0.8,0.3-1.7V19.3h2.5l0.5,0
		c1.4,0,2.5,0.3,3.2,0.7c1.3,0.7,1.9,1.8,1.9,3.3c0,0.8-0.2,1.6-0.6,2.2c-0.4,0.6-1,1.1-1.7,1.4l4.1,5.1c0.5,0.6,1.1,0.9,1.8,1V33.3
		z M90.7,23.3c0-1.6-0.9-2.4-4.3-2.4v5c1,0,2.8-0.2,3.3-0.5C90.4,24.9,90.7,24.3,90.7,23.3z"/>
	<path d="M209.8,33.3h-3.4l-4.7-6.1h-0.4h-0.7h-0.4v6.1h-4v-0.4c0.8-0.1,1.3-0.2,1.5-0.5c0.2-0.3,0.3-0.8,0.3-1.7V19.3h2.5l0.5,0
		c1.4,0,2.5,0.3,3.2,0.7c1.2,0.7,1.9,1.8,1.9,3.3c0,0.8-0.2,1.6-0.6,2.2c-0.4,0.6-1,1.1-1.7,1.4l4.1,5.1c0.5,0.6,1.1,0.9,1.8,1V33.3
		z M200.2,25.8c1,0,2.8-0.2,3.3-0.5c0.7-0.4,1.1-1.1,1.1-2c0-1.6-0.9-2.4-4.3-2.4"/>
	<path d="M97,30.7c0,0,0-0.1,0-0.3c0-0.1,0-0.2,0-0.3v-12l5.4,5.7l5.3,5.2l0-9.8h3.7v0.4c-0.8,0.1-1.4,0.3-1.6,0.6
		c-0.2,0.2-0.3,0.5-0.3,0.8v12.7l-2.2-2l-8.5-7.9v6.8v0.5v1.5c0.3,0.1,0.7,0.2,1.1,0.3v0.4h-5v-0.4c0.9-0.1,1.5-0.3,1.7-0.6
		c0.2-0.2,0.3-0.6,0.3-1.1"/>
	<path d="M131.7,29.3l-1.1,4.1h-10.9v-7.1v-0.6V20c0-0.8-0.1-1.4-0.4-1.7c-0.3-0.3-0.8-0.4-1.7-0.5v-0.5h12.8l0.1,3.5h-0.6
		c-0.2-1.2-0.6-1.9-1.1-2.2c-0.4-0.2-1.2-0.3-2.5-0.3h-3.3c-0.4,0-0.6,0.1-0.7,0.2c-0.1,0.1-0.1,0.3-0.1,0.6v4.4h0.4h0.6h5.9v4.3
		h-0.6c-0.2-1-0.4-1.6-0.7-1.9c-0.3-0.3-1-0.5-1.9-0.5h-3.7l0,0.9v5.2h6.3c0.7-0.1,1.1-0.3,1.4-0.5c0.4-0.3,0.8-0.9,1.2-1.7H131.7z"
		/>
	<path d="M153.5,42.4h-3.8L139,27.6l-3.5,5.8h-2l4.4-7.4l-0.2-0.2l-0.3-0.5l-1.6-2.3c-0.9-1.3-1.4-2-1.5-2.1
		c-0.7-0.8-1.4-1.1-2.2-1.2v-0.4h3.9l3.1,4.8l0.9-1.4l0.3-0.5l1.8-3h2l-1.8,3l-2.2,3.7l11,14.6c0.4,0.6,0.8,1,1.1,1.2
		c0.3,0.2,0.7,0.3,1.3,0.4V42.4z M142,22.7l-1.8,3"/>
	<path d="M148.1,23.2v-1.6c0-0.7-0.1-1.2-0.3-1.5l-0.2-0.2l-0.3-0.2c-0.2-0.1-0.5-0.1-1-0.2v-0.4h1h0.5h3.3c2.1,0,3.6,0.4,4.5,1.1
		c0.8,0.6,1.2,1.7,1.2,3c0,1.4-0.5,2.5-1.5,3.2c-0.9,0.6-2,0.9-3.5,0.9h-1.6v5.7h-2.1v-9.6 M155.1,23.4c0-1.7-1.3-2.5-3.9-2.5h-1
		v2.4v0.5V26h1.1C153.9,26,155.1,25.1,155.1,23.4z"/>
	<path d="M176.2,26c-0.7-0.5-1.2-0.9-1.5-1.2c-0.6-0.6-0.9-1.4-0.9-2.2c0-0.9,0.4-1.7,1.1-2.4c0.5-0.6,1.5-0.8,2.8-0.8
		c0.5,0,1.1,0.1,1.8,0.4c0.7,0.2,1,0.3,1.1,0.3c0.3,0,0.4-0.1,0.5-0.2c0.1-0.1,0.2-0.3,0.2-0.5h0.4l0.5,4.5h-0.5
		c-0.3-1-0.7-1.9-1.3-2.5c-0.7-0.7-1.6-1.1-2.6-1.1c-0.7,0-1.2,0.1-1.6,0.4c-0.4,0.3-0.6,0.7-0.6,1.2c0,0.5,0.2,0.8,0.5,1.2
		c0.4,0.4,0.9,0.8,1.3,1.1l0.4,0.3c0.8,0.5,1.6,0.9,2.3,1.4c0.8,0.5,1.4,1.1,1.8,1.7c0.4,0.6,0.6,1.3,0.6,2c0,0.6-0.1,1.1-0.3,1.5
		c-0.4,0.7-1,1.3-1.8,1.7c-0.8,0.4-1.7,0.7-2.6,0.7c-1.2,0-2.2-0.4-3.1-1.1c-0.9-0.8-1.4-1.7-1.6-2.8l1.8-0.4c0,0.8,0.3,1.4,0.9,1.9
		c0.6,0.5,1.3,0.8,2.1,0.8c0.6,0,1.1-0.2,1.6-0.7c0.5-0.4,0.7-0.9,0.7-1.5c0-0.4-0.2-0.8-0.5-1.2c-0.3-0.3-0.8-0.7-1.5-1.1
		c-0.6-0.4-1.2-0.7-1.8-1.1"/>
	<path d="M194.7,25.2v-5.9l1-0.1v6v0.5V28c0,1.5-0.5,2.8-1.5,3.8c-1,1-2.3,1.5-3.9,1.5c-1.6,0-2.8-0.5-3.7-1.5
		c-0.9-1-1.3-2.3-1.3-3.8v-6.5c0-0.7-0.1-1.2-0.4-1.4c-0.2-0.2-0.7-0.4-1.5-0.4v-0.4h3.9v8.2c0,2.9,1.1,4.3,3.3,4.3
		c1.3,0,2.3-0.4,3-1.3c0.7-0.8,1-1.8,1-3v-1.8"/>
	<path d="M220,29.8l-0.9,3.6h-9.3v-6.2v-0.5v-5c0-0.7-0.1-1.2-0.4-1.5c-0.2-0.2-0.7-0.4-1.4-0.4v-0.4h10.9l0.1,3.1h-0.5
		c-0.2-1-0.5-1.7-0.9-1.9c-0.3-0.2-1.1-0.3-2.2-0.3h-2.8c-0.3,0-0.5,0.1-0.6,0.2c-0.1,0.1-0.1,0.3-0.1,0.6v3.9h0.4h0.5h5v3.7h-0.5
		c-0.2-0.9-0.4-1.4-0.6-1.6c-0.3-0.3-0.8-0.4-1.6-0.4h-3.1l0,0.8v4.6h5.3c0.6-0.1,1-0.3,1.2-0.4c0.4-0.3,0.7-0.8,1-1.5H220z"/>
	<path d="M81.7,29.8l-0.9,3.6h-9.3v-6.2v-0.5v-5c0-0.7-0.1-1.2-0.4-1.5c-0.2-0.2-0.7-0.4-1.4-0.4v-0.4h10.9l0.1,3.1h-0.5
		c-0.2-1-0.5-1.7-0.9-1.9c-0.3-0.2-1.1-0.3-2.2-0.3h-2.8c-0.3,0-0.5,0.1-0.6,0.2c-0.1,0.1-0.1,0.3-0.1,0.6v3.9h0.4h0.5h5v3.7H79
		c-0.2-0.9-0.4-1.4-0.6-1.6c-0.3-0.3-0.8-0.4-1.6-0.4h-3.1l0,0.8v4.5h5.3c0.6-0.1,1-0.3,1.2-0.4c0.4-0.3,0.7-0.8,1-1.5H81.7z"/>
	<g>
		<path d="M42.6,24.5l0,0.6h-2.6h-0.3v1.4c0,1.5-0.3,2.7-1,3.5c-0.5,0.6-1.3,1-2.3,1.4L36,30.8c0.9-0.3,1.6-0.7,2-1.2
			c0.6-0.7,1-1.7,1-3.1v-1.4h-1.4v-0.6H39v-3.7h0.5v3.7h0.3L42.6,24.5z"/>
		<path d="M197.1,24.5l0,0.6h-2.6h-0.3v1.4c0,1.5-0.3,2.7-1,3.5c-0.5,0.6-1.3,1-2.3,1.4l-0.2-0.5c0.9-0.3,1.6-0.7,2-1.2
			c0.6-0.7,1-1.7,1-3.1v-1.4h-1.4v-0.6h1.4v-3.7h0.5v3.7h0.3L197.1,24.5z"/>
		<rect x="41.9" y="21.3" width="7.9" height="0.5"/>
		<rect x="48.7" y="18.5" width="0.5" height="6"/>
		<rect x="59.1" y="23.7" width="10.4" height="0.5"/>
		<rect x="70.5" y="26.8" width="6.1" height="0.5"/>
		<rect x="95.2" y="30.6" width="6.1" height="0.6"/>
		<rect x="74.1" y="20.8" width="0.5" height="9.8"/>
		<rect x="208.9" y="26.8" width="6.1" height="0.5"/>
		<rect x="212.5" y="20.8" width="0.5" height="9.8"/>
		<rect x="118.8" y="26.1" width="6.1" height="0.5"/>
		<rect x="122.7" y="19.1" width="0.5" height="11.5"/>
		<g>
			<polygon points="106.9,33.1 106.9,25.4 106.3,25.4 106.3,31.7 106.9,32.2 			"/>
			<polygon points="106.9,32.2 106.3,31.7 98.7,24.7 98.3,25.1 106.9,33.2 			"/>
		</g>
		<rect x="136.7" y="23.7" transform="matrix(0.5183 -0.8552 0.8552 0.5183 47.8431 133.0335)" width="10.6" height="0.6"/>
		<rect x="129.8" y="29.1" transform="matrix(0.5103 -0.86 0.86 0.5103 40.856 130.5507)" width="10.5" height="0.6"/>
		<g>
			<polygon points="86.9,32 87.4,32 87.4,28.1 86.9,27.4 			"/>
			<polygon points="87.4,27.3 87.4,18.5 86.9,18.5 86.9,27.2 87.2,27 			"/>
			<line x1="86.9" y1="27.4" x2="86.9" y2="27.2"/>
			<polygon points="92.5,33.8 87.4,27.3 87.4,28.1 92.1,34.1 			"/>
			<polygon points="87.2,27 86.9,27.2 86.9,27.4 87.4,28.1 87.4,27.3 			"/>
		</g>
		<g>
			<polygon points="200.6,32.3 201.1,32.3 201.1,28.4 200.6,27.7 			"/>
			<polygon points="201.1,27.4 201.1,18.5 200.6,18.5 200.6,27.3 200.9,27.1 			"/>
			<line x1="200.6" y1="27.7" x2="200.6" y2="27.5"/>
			<polygon points="206.1,33.9 201.1,27.6 201.1,28.4 205.7,34.2 			"/>
			<polygon points="200.9,27.3 200.6,27.5 200.6,27.7 201.1,28.4 201.1,27.6 			"/>
		</g>
		<rect x="58" y="19.3" width="0.5" height="10.4"/>
		<g>
			<g>
				<path d="M9.5,17L9.5,17L9,16.5l-4.7,7l-0.1,0c-1.2-0.7-2-1.4-2.5-2l-0.6,0.4c0.5,0.7,1.4,1.5,2.7,2.2l0.1,0l-1,1.5L3.5,26l1-1.5
					c0.9,0.5,1.8,1.1,2.7,1.6c0.9,0.6,1.5,1.1,1.8,1.6c0.1,0.2,0.1,0.4,0.1,0.5c0,0.3-0.1,0.6-0.3,0.9c-0.4,0.5-0.8,0.8-1.1,0.7
					l-0.1,0.7c0.6,0.1,1.2-0.2,1.8-1c0.3-0.4,0.5-0.8,0.5-1.3c0-0.3-0.1-0.6-0.2-0.9c-0.2-0.5-0.7-1-1.5-1.5
					c-0.4-0.3-1.2-0.8-2.3-1.4l-1-0.6l4.3-6.4c0.3,0.3,0.7,0.7,1,1.3c0.4,0.7,0.6,1.2,0.6,1.6l0.7-0.1C11,18.9,10.3,17.8,9.5,17z"/>
			</g>
		</g>
		<g>
			<g>
				<path d="M179.7,21.1L179.7,21.1l-0.4-0.4l-3.6,5.4l0,0c-0.9-0.6-1.6-1.1-1.9-1.6l-0.5,0.3c0.4,0.6,1.1,1.1,2.1,1.7l0.1,0
					l-0.8,1.2l0.5,0.3l0.8-1.2c0.7,0.4,1.4,0.8,2.1,1.2c0.7,0.5,1.2,0.9,1.4,1.2c0.1,0.1,0.1,0.3,0.1,0.4c0,0.2-0.1,0.4-0.2,0.7
					c-0.3,0.4-0.6,0.6-0.9,0.5l-0.1,0.5c0.5,0.1,1-0.2,1.4-0.7c0.2-0.3,0.4-0.6,0.4-1c0-0.2-0.1-0.4-0.2-0.7
					c-0.2-0.4-0.5-0.7-1.1-1.1c-0.3-0.2-0.9-0.6-1.7-1.1l-0.7-0.4l3.3-4.9c0.3,0.2,0.5,0.6,0.8,1c0.3,0.5,0.5,0.9,0.5,1.2l0.5-0.1
					C180.9,22.5,180.3,21.7,179.7,21.1z"/>
			</g>
		</g>
		<rect x="139.6" y="22" width="4.7" height="0.7"/>
		<rect x="147.1" y="24.9" width="4.7" height="0.7"/>
		<rect x="148.8" y="18.5" width="0.7" height="15.7"/>
		<path d="M29.2,26.1v0.5h-3.6c-0.2,1.8-0.4,3-0.8,3.5c-0.7,0.8-1.9,1.3-3.5,1.3c-0.3,0-0.6,0-1-0.1l0.1-0.5c0.3,0,0.6,0.1,0.9,0.1
			c1.4,0,2.4-0.4,3.1-1.1c0.3-0.4,0.6-1.4,0.7-3.1h-4.4v-0.5H25c0-0.7,0-1.1,0-1.5l0.5-0.1c0,0.4,0.1,1,0,1.6L29.2,26.1z"/>
		<path d="M172.6,26.2v0.5H169c-0.2,1.8-0.4,3-0.8,3.5c-0.7,0.8-1.9,1.3-3.5,1.3c-0.3,0-0.6,0-1-0.1l0.1-0.5c0.3,0,0.6,0.1,0.9,0.1
			c1.4,0,2.4-0.4,3.1-1.1c0.3-0.4,0.6-1.4,0.7-3.1H164v-0.5h4.4c0-0.6,0-1.1,0-1.5l0.5-0.1c0,0.4,0.1,1,0,1.6L172.6,26.2z"/>
	</g>
	<polygon fill="#FFE512" points="0.8,35.1 0.8,35.9 143.4,35.9 142.9,35.1 	"/>
	<polygon fill="#FFE512" points="148.7,35.1 149.2,35.9 219.7,35.9 219.7,35.1 	"/>
</g>
</svg>
