<?xml version="1.0" encoding="utf-8"?>
<!-- Generator: Adobe Illustrator 19.2.1, SVG Export Plug-In . SVG Version: 6.00 Build 0)  -->
<svg version="1.1" id="Layer_1" xmlns="http://www.w3.org/2000/svg" xmlns:xlink="http://www.w3.org/1999/xlink" x="0px" y="0px"
	 viewBox="0 0 393 72" enable-background="new 0 0 393 72" xml:space="preserve">
<g>
	<path fill="#FFE512" d="M149.6,26.2l-1.1-0.9c12.8-14.7,31-23.1,50-23.1v1.4C179.9,3.6,162.1,11.8,149.6,26.2z"/>
	<path d="M192.6,5.3c16.4,0,30.9,7.4,41.9,20.3l6.9,0c-11.8-13.8-31.2-24.2-48.8-24.2V5.3z"/>
	<path d="M11.9,32.1c1.9,1.1,3.7,2.3,5.6,3.4c1.9,1.3,3.4,2.7,4.4,4.2c1,1.5,1.5,3.2,1.5,4.9c0,1.4-0.3,2.6-0.9,3.7
		c-0.9,1.8-2.3,3.2-4.2,4.2c-1.9,1.1-4,1.6-6.2,1.6c-2.8,0-5.3-0.9-7.5-2.8c-2.2-1.8-3.4-4.1-3.8-6.9l4.3-0.9c0,1.8,0.7,3.4,2.2,4.7
		c1.5,1.3,3.2,1.9,5.1,1.9c1.5,0,2.8-0.5,3.9-1.6c1.1-1.1,1.6-2.3,1.6-3.6c0-1-0.4-2-1.2-2.9c-0.8-0.9-2-1.8-3.5-2.8
		c-1.5-0.9-3-1.7-4.4-2.6l-1-0.7c-1.5-1-2.8-2-3.7-3c-1.5-1.5-2.2-3.3-2.2-5.3c0-2.1,0.9-4,2.6-5.7c1.4-1.4,3.6-2,6.8-2
		c0.9,0,2.2,0.3,3.9,0.8c1.6,0.6,2.7,0.8,3.1,0.8c1,0,1.6-0.6,1.9-1.7h1l1.1,10.9h-1.2c-0.6-2.5-1.7-4.6-3.2-6.1
		c-1.7-1.8-3.8-2.6-6.3-2.6c-1.8,0-3,0.3-3.8,0.9c-0.9,0.8-1.4,1.7-1.4,3c0,1.2,0.4,2.1,1.2,2.8c1,0.9,2.1,1.8,3.3,2.6L11.9,32.1z"
		/>
	<path d="M51,42.8c-0.3,3.3-1.7,6-4.1,8.2c-2.4,2.2-5.3,3.2-8.6,3.2c-3.5,0-6.5-1.2-9-3.6c-2.5-2.4-3.7-5.4-3.7-9
		c0-3.5,1.2-6.4,3.7-8.9c2.5-2.5,5.5-3.7,9-3.7c3.5,0,6.5,1.2,9,3.7c2.5,2.5,3.8,5.4,3.8,8.9c0,0,0,0.1,0,0.2 M46.2,41.9v-0.4
		c0-3.4-0.6-5.9-1.7-7.7c-1.7-1.4-3.7-2.1-6-2.1c-2.1,0-4,0.6-5.7,1.8c-1.3,1.8-2,4.5-2,8.1c0,3.3,0.6,5.9,1.8,7.8
		c1.7,1.4,3.7,2,5.9,2c2.3,0,4.4-0.8,6.2-2.3c0.9-1.5,1.4-3.6,1.6-6.3"/>
	<path d="M306.4,42.8c-0.3,3.3-1.7,6-4.1,8.2c-2.4,2.2-5.3,3.2-8.6,3.2c-3.5,0-6.5-1.2-9-3.6c-2.5-2.4-3.7-5.4-3.7-9
		c0-3.5,1.2-6.4,3.7-8.9c2.5-2.5,5.5-3.7,9-3.7c3.5,0,6.5,1.2,9,3.7c2.5,2.5,3.8,5.4,3.8,8.9c0,0,0,0.1,0,0.2 M301.5,41.9v-0.4
		c0-3.4-0.6-5.9-1.7-7.7c-1.7-1.4-3.7-2.1-6-2.1c-2.1,0-4,0.6-5.7,1.8c-1.3,1.8-2,4.5-2,8.1c0,3.3,0.6,5.9,1.8,7.8
		c1.7,1.4,3.7,2,5.9,2c2.3,0,4.4-0.8,6.2-2.3c0.9-1.5,1.4-3.6,1.6-6.3"/>
	<path d="M71.1,39.6V29.1l1.8-0.2v10.7v0.9v4.1c0,2.8-0.9,5.1-2.7,6.9c-1.8,1.8-4.1,2.7-6.9,2.7c-2.8,0-5-0.9-6.7-2.8
		c-1.6-1.8-2.4-4.1-2.4-6.9V32.9c0-1.3-0.2-2.2-0.6-2.6c-0.4-0.4-1.3-0.6-2.8-0.7v-0.7h7v14.7c0,5.2,2,7.8,6,7.8
		c2.3,0,4.1-0.8,5.5-2.3c1.2-1.4,1.8-3.2,1.8-5.3v-3.2V39.6z"/>
	<path d="M92.8,35.6h-0.9c-0.2-1-0.4-1.7-0.5-1.9c-0.1-0.2-0.3-0.5-0.6-0.8c-0.5-0.4-1.5-0.7-3.2-0.9c0,0-1.6,0-1.8,0
		c-0.1,0,0.1-0.2,0,0.2c0,0.5,0,1.5,0,1.5v20.4h-7.3v-0.7c1.6-0.1,2.6-0.4,3-0.8c0.4-0.4,0.6-1.4,0.6-3V33.7v-1V32h-6.7v-2.9h11.1h1
		h5.1L92.8,35.6z"/>
	<path d="M113.8,39v-0.9v-1v-8.1h7.2v0.7c-1.4,0.1-2.3,0.4-2.7,0.8c-0.4,0.4-0.6,1.3-0.6,2.6v4v1V50c0,1.3,0.2,2.2,0.6,2.6
		c0.4,0.4,1.3,0.7,2.7,0.8v0.7h-7.2V42.2h-9.9H103h-0.7v11.9h-7.2v-0.7c1.5-0.2,2.4-0.5,2.8-0.9c0.4-0.4,0.5-1.4,0.5-2.9V33.2
		c0-1.3-0.2-2.2-0.6-2.6c-0.4-0.4-1.3-0.7-2.7-0.8v-0.7h7.2V39h0.7"/>
	<path d="M170.9,54.1h-6.1l-8.3-10.8h-0.8h-1.2h-0.7v10.8h-7.1v-0.7c1.4-0.1,2.3-0.4,2.7-0.9c0.4-0.5,0.5-1.5,0.5-3V29h4.5l1,0
		c2.5,0.1,4.4,0.5,5.7,1.2c2.2,1.3,3.3,3.2,3.3,5.9c0,1.5-0.4,2.8-1.1,3.9c-0.7,1.1-1.8,2-3,2.5l7.4,9.1c0.8,1.1,1.9,1.7,3.3,1.8
		V54.1z M161.4,36.2c0-2.8-1.6-4.3-7.7-4.3v8.8c1.8-0.1,4.9-0.3,5.8-0.8C160.8,39.2,161.4,37.9,161.4,36.2z"/>
	<path d="M373.6,54.1h-6.1l-8.3-10.8h-0.8h-1.2h-0.7v10.8h-7.1v-0.7c1.4-0.1,2.3-0.4,2.7-0.9c0.4-0.5,0.5-1.5,0.5-3V29h4.5l1,0
		c2.5,0.1,4.4,0.5,5.7,1.2c2.2,1.3,3.3,3.2,3.3,5.9c0,1.5-0.4,2.8-1.1,3.9c-0.7,1.1-1.8,2-3,2.5l7.4,9.1c0.8,1.1,1.9,1.7,3.3,1.8
		V54.1z M356.5,40.7c1.8-0.1,4.9-0.3,5.8-0.8c1.2-0.7,1.9-1.9,1.9-3.6c0-2.8-1.6-4.3-7.7-4.3"/>
	<path d="M172.5,49.3c0-0.1,0-0.2,0.1-0.5c0-0.2,0-0.3,0-0.5V27.1l9.6,10.2l9.4,9.2l0-17.5h6.6v0.7c-1.5,0.2-2.4,0.5-2.9,1.1
		c-0.3,0.4-0.5,0.9-0.6,1.4v22.6l-3.9-3.6l-15.2-14.1v12.2v1v2.6c0.5,0.2,1.2,0.4,2,0.5v0.7h-8.8v-0.7c1.6-0.2,2.6-0.5,3-1.1
		c0.3-0.4,0.5-1,0.6-2"/>
	<path d="M234.4,47l-1.9,7.3h-19.4V41.7v-1.1V30.3c0-1.5-0.2-2.5-0.7-3c-0.5-0.5-1.5-0.8-3-0.9v-0.8h22.7l0.2,6.2h-1.1
		c-0.4-2.1-1.1-3.4-2-3.9c-0.7-0.4-2.2-0.6-4.5-0.6h-5.8c-0.6,0-1,0.1-1.2,0.3c-0.1,0.2-0.2,0.6-0.2,1.1v7.9h0.7h1h10.5v7.6h-1
		c-0.4-1.7-0.8-2.8-1.3-3.3c-0.6-0.5-1.7-0.8-3.4-0.8h-6.6l0,1.6v9.2h11.1c1.2-0.2,2-0.5,2.5-0.9c0.7-0.5,1.4-1.6,2.1-3.1H234.4z"/>
	<path d="M273.3,70.2h-6.7l-19.1-26.4l-6.2,10.4h-3.6l7.9-13.1l-0.3-0.4l-0.6-0.9l-2.9-4.1c-1.6-2.3-2.5-3.5-2.7-3.8
		c-1.2-1.3-2.5-2-4-2.1V29h7l5.6,8.6l1.6-2.6l0.6-1l3.2-5.4h3.6l-3.2,5.4l-3.9,6.6l19.6,26c0.7,1.1,1.4,1.8,2,2.1
		c0.6,0.3,1.3,0.6,2.2,0.7V70.2z M252.8,35.1l-3.2,5.3"/>
	<path d="M263.7,36.1v-2.9c0-1.3-0.2-2.2-0.6-2.6l-0.4-0.3l-0.5-0.3c-0.4-0.1-1-0.2-1.7-0.3V29h1.7h1h5.8c3.7,0,6.4,0.6,8,1.9
		c1.4,1.2,2.2,3,2.2,5.4c0,2.5-0.9,4.5-2.6,5.8c-1.6,1.1-3.6,1.7-6.3,1.7h-2.8v10.2h-3.7V37 M276.2,36.3c0-3-2.3-4.5-6.9-4.5h-1.8
		v4.2V37v4h2C274,41,276.2,39.4,276.2,36.3z"/>
	<path d="M313.8,41c-1.2-0.8-2.1-1.6-2.7-2.2c-1.1-1.1-1.6-2.4-1.6-4c0-1.6,0.6-3,1.9-4.2c1-1,2.7-1.5,5-1.5c0.9,0,2,0.2,3.2,0.6
		c1.2,0.4,1.9,0.6,2,0.6c0.5,0,0.8-0.1,1-0.3c0.2-0.2,0.3-0.5,0.4-0.9h0.8l0.9,8h-0.9c-0.5-1.8-1.3-3.3-2.4-4.5
		c-1.3-1.3-2.8-2-4.6-2c-1.3,0-2.2,0.2-2.8,0.7c-0.7,0.5-1.1,1.3-1.1,2.2c0,0.8,0.3,1.5,0.9,2.1c0.8,0.7,1.6,1.4,2.4,1.9l0.8,0.5
		c1.4,0.8,2.8,1.7,4.2,2.5c1.4,0.9,2.5,2,3.2,3.1c0.7,1.1,1.1,2.3,1.1,3.6c0,1-0.2,1.9-0.6,2.7c-0.7,1.3-1.7,2.3-3.1,3.1
		c-1.4,0.8-3,1.2-4.6,1.2c-2.1,0-3.9-0.7-5.5-2c-1.6-1.4-2.5-3.1-2.8-5.1l3.2-0.7c0,1.4,0.5,2.5,1.7,3.4c1.1,0.9,2.3,1.4,3.7,1.4
		c1.1,0,2-0.4,2.9-1.2c0.8-0.8,1.2-1.7,1.2-2.7c0-0.8-0.3-1.5-0.9-2.1c-0.6-0.6-1.5-1.3-2.7-2c-1.1-0.7-2.1-1.3-3.2-1.9"/>
	<path d="M346.7,39.7V29.2l1.8-0.2v10.6v0.9v4c0,2.7-0.9,5-2.7,6.8c-1.8,1.8-4.1,2.7-6.9,2.7c-2.8,0-5-0.9-6.6-2.7
		c-1.6-1.7-2.4-4-2.4-6.8V33c0-1.3-0.2-2.2-0.6-2.6c-0.4-0.4-1.3-0.6-2.7-0.7V29h7v14.5c0,5.2,2,7.7,5.9,7.7c2.3,0,4.1-0.8,5.4-2.3
		c1.2-1.4,1.8-3.2,1.8-5.3v-3.1"/>
	<path d="M391.8,47.7l-1.6,6.3h-16.6v-11v-1v-9c0-1.3-0.2-2.2-0.6-2.6c-0.4-0.4-1.3-0.7-2.6-0.8V29h19.4l0.1,5.5H389
		c-0.4-1.8-0.9-3-1.7-3.5c-0.6-0.4-1.9-0.5-3.8-0.5h-5c-0.5,0-0.9,0.1-1,0.3c-0.1,0.2-0.2,0.5-0.2,1v6.9h0.6h0.9h9v6.7H387
		c-0.3-1.5-0.7-2.5-1.1-2.9c-0.5-0.5-1.5-0.7-2.9-0.7h-5.6l0,1.4v8.1h9.5c1-0.2,1.7-0.4,2.1-0.8c0.6-0.5,1.2-1.4,1.8-2.7H391.8z"/>
	<path d="M145.3,47.8l-1.6,6.4h-16.6v-11v-1v-9c0-1.3-0.2-2.2-0.6-2.6c-0.4-0.4-1.3-0.7-2.6-0.8v-0.7h19.4l0.1,5.4h-0.9
		c-0.4-1.8-0.9-3-1.7-3.4c-0.6-0.4-1.9-0.5-3.8-0.5h-5c-0.5,0-0.9,0.1-1,0.3c-0.1,0.2-0.2,0.5-0.2,1v6.9h0.6h0.9h9v6.6h-0.8
		c-0.3-1.5-0.7-2.5-1.1-2.9c-0.5-0.5-1.5-0.7-2.9-0.7h-5.6l0,1.4v8.1h9.5c1-0.2,1.7-0.4,2.1-0.8c0.6-0.5,1.2-1.4,1.8-2.7H145.3z"/>
	<g>
		<path d="M75.6,38.4l0,1h-4.7h-0.6V42c0,2.7-0.6,4.7-1.8,6.2c-0.9,1-2.3,1.9-4.2,2.4l-0.3-1c1.6-0.5,2.8-1.2,3.6-2.1
			c1.1-1.3,1.7-3.1,1.7-5.6v-2.6h-2.5v-1h2.5v-6.6h1v6.6h0.6L75.6,38.4z"/>
		<path d="M351.1,38.4l0,1h-4.7h-0.6V42c0,2.7-0.6,4.7-1.8,6.2c-0.9,1-2.3,1.9-4.2,2.4l-0.3-1c1.6-0.5,2.8-1.2,3.6-2.1
			c1.1-1.3,1.7-3.1,1.7-5.6v-2.6h-2.5v-1h2.5v-6.6h1v6.6h0.6L351.1,38.4z"/>
		<rect x="74.5" y="32.7" width="14" height="0.9"/>
		<rect x="86.5" y="27.6" width="0.9" height="10.8"/>
		<rect x="105.1" y="37" width="18.5" height="0.9"/>
		<rect x="125.4" y="42.5" width="11" height="0.9"/>
		<rect x="169.3" y="49.3" width="11" height="1"/>
		<rect x="131.8" y="31.7" width="0.9" height="17.5"/>
		<rect x="372.1" y="42.5" width="11" height="0.9"/>
		<rect x="378.5" y="31.7" width="0.9" height="17.5"/>
		<rect x="211.5" y="41.2" width="11" height="0.9"/>
		<rect x="218.4" y="28.8" width="0.9" height="20.5"/>
		<g>
			<polygon points="190.3,53.7 190.3,40 189.1,40 189.1,51.2 190.2,52.2 			"/>
			<polygon points="190.2,52.2 189.1,51.2 175.6,38.7 174.9,39.4 190.3,53.8 			"/>
		</g>
		<rect x="243.4" y="37" transform="matrix(0.5183 -0.8552 0.8552 0.5183 89.6742 234.3221)" width="18.9" height="1.1"/>
		<rect x="231.1" y="46.6" transform="matrix(0.5103 -0.86 0.86 0.5103 77.2447 229.8532)" width="18.7" height="1.1"/>
		<g>
			<polygon points="154.6,51.7 155.5,51.7 155.5,44.7 154.6,43.6 			"/>
			<polygon points="155.5,43.3 155.5,27.6 154.6,27.6 154.6,43.2 155.1,42.8 			"/>
			<line x1="154.6" y1="43.6" x2="154.6" y2="43.2"/>
			<polygon points="164.6,55 155.5,43.3 155.5,44.7 163.9,55.5 			"/>
			<polygon points="155.1,42.8 154.6,43.2 154.6,43.6 155.5,44.7 155.5,43.3 			"/>
		</g>
		<g>
			<polygon points="357.3,52.3 358.2,52.3 358.2,45.3 357.3,44.2 			"/>
			<polygon points="358.2,43.5 358.2,27.6 357.3,27.6 357.3,43.4 357.8,43 			"/>
			<line x1="357.3" y1="44.2" x2="357.3" y2="43.7"/>
			<polygon points="367,55.2 358.2,43.8 358.2,45.3 366.3,55.7 			"/>
			<polygon points="357.8,43.4 357.3,43.7 357.3,44.2 358.2,45.3 358.2,43.8 			"/>
		</g>
		<rect x="103.2" y="29.1" width="0.9" height="18.5"/>
		<g>
			<g>
				<path d="M16.6,25.1L16.6,25.1l-0.9-0.9L7.3,36.7l-0.1-0.1c-2.2-1.3-3.6-2.5-4.4-3.6l-1.1,0.7c1,1.3,2.5,2.6,4.8,3.9l0.1,0.1
					l-1.8,2.7l1.1,0.7l1.8-2.7c1.6,0.9,3.2,1.9,4.8,2.8c1.7,1.1,2.7,2,3.2,2.9c0.2,0.3,0.2,0.6,0.2,1c0,0.5-0.2,1-0.6,1.5
					c-0.7,0.9-1.4,1.3-2,1.3L13.1,49c1.1,0.2,2.2-0.4,3.2-1.7c0.6-0.7,0.8-1.5,0.8-2.3c0-0.5-0.1-1-0.4-1.5
					c-0.4-0.8-1.3-1.7-2.6-2.6c-0.7-0.5-2.1-1.4-4-2.5l-1.7-1L16,26c0.6,0.6,1.2,1.3,1.8,2.3c0.8,1.2,1.1,2.1,1.1,2.8l1.3-0.2
					C19.4,28.5,18,26.5,16.6,25.1z"/>
			</g>
		</g>
		<g>
			<g>
				<path d="M320,32.2L320,32.2l-0.7-0.7l-6.5,9.7l-0.1,0c-1.7-1-2.8-2-3.4-2.8l-0.8,0.5c0.7,1,2,2,3.7,3l0.1,0.1l-1.4,2.1l0.8,0.5
					l1.4-2.1c1.2,0.7,2.4,1.4,3.7,2.2c1.3,0.8,2.1,1.6,2.4,2.2c0.1,0.2,0.2,0.5,0.2,0.8c0,0.4-0.1,0.8-0.4,1.2c-0.6,0.7-1.1,1-1.5,1
					l-0.2,0.9c0.9,0.2,1.7-0.3,2.5-1.3c0.4-0.5,0.7-1.1,0.7-1.7c0-0.4-0.1-0.8-0.3-1.2c-0.3-0.6-1-1.3-2-2c-0.6-0.4-1.6-1-3.1-1.9
					l-1.3-0.8l5.8-8.7c0.5,0.4,0.9,1,1.4,1.8c0.6,0.9,0.9,1.6,0.9,2.1l1-0.1C322.1,34.9,321.1,33.3,320,32.2z"/>
			</g>
		</g>
		<rect x="248.5" y="34" width="8.4" height="1.2"/>
		<rect x="261.9" y="39" width="8.4" height="1.2"/>
		<rect x="264.9" y="27.6" width="1.2" height="28"/>
		<path d="M51.8,41.2v1h-6.4c-0.3,3.3-0.8,5.3-1.5,6.2c-1.3,1.5-3.4,2.2-6.3,2.2c-0.6,0-1.1,0-1.7-0.1l0.2-1
			c0.5,0.1,1.1,0.1,1.6,0.1c2.5,0,4.4-0.6,5.5-1.9c0.6-0.6,1-2.5,1.3-5.5h-7.9v-1h7.9c0.1-1.2,0.1-2,0-2.6l0.9-0.2
			c0.1,0.8,0.1,1.7,0.1,2.8L51.8,41.2z"/>
		<path d="M307.3,41.4v1h-6.4c-0.3,3.3-0.8,5.3-1.5,6.2c-1.3,1.5-3.4,2.2-6.3,2.2c-0.6,0-1.1,0-1.7-0.1l0.2-1
			c0.5,0.1,1.1,0.1,1.6,0.1c2.5,0,4.4-0.6,5.5-1.9c0.6-0.6,1-2.5,1.3-5.5H292v-1h7.9c0.1-1.2,0.1-2,0-2.6l0.9-0.2
			c0.1,0.8,0.1,1.7,0.1,2.8L307.3,41.4z"/>
	</g>
	<polygon fill="#FFE512" points="1.2,57.3 1.2,58.6 255.4,58.6 254.4,57.3 	"/>
	<polygon fill="#FFE512" points="264.7,57.3 265.7,58.6 391.4,58.6 391.4,57.3 	"/>
</g>
</svg>
