<?xml version="1.0" encoding="UTF-8" standalone="no"?>
<svg width="422px" height="77px" viewBox="0 0 422 77" version="1.1" xmlns="http://www.w3.org/2000/svg" xmlns:xlink="http://www.w3.org/1999/xlink">
    <!-- Generator: Sketch 3.6.1 (26313) - http://www.bohemiancoding.com/sketch -->
    <title>Page 1</title>
    <desc>Created with Sketch.</desc>
    <defs>
        <path id="path-1" d="M0,0.601241667 L0,37.3093875 L24.382258,37.3093875 L24.382258,0.601241667 L0,0.601241667 L0,0.601241667 Z"></path>
        <path id="path-3" d="M0,76.3318646 L421.504714,76.3318646 L421.504714,0 L0,0 L0,76.3318646 Z"></path>
    </defs>
    <g id="Welcome" stroke="none" stroke-width="1" fill="none" fill-rule="evenodd">
        <g id="Desktop-HD-Copy" transform="translate(-97.000000, -40.000000)">
            <g id="Page-1" transform="translate(97.000000, 40.000000)">
                <path d="M160.353074,26.605425 L159.195795,25.6036229 C172.949452,9.83626875 192.609498,0.79358125 213.134482,0.79358125 L213.134482,2.32074792 C193.053242,2.32074792 173.816002,11.1717375 160.353074,26.605425 L160.353074,26.605425 Z" id="Fill-1" fill="#FFE412"></path>
                <path d="M206.694875,4.16626146 C224.389883,4.16626146 239.972474,12.1076885 251.847265,25.9564594 L259.280585,25.9612719 C246.610921,11.1852927 225.61481,0.000240625 206.694875,0.000240625 L206.694875,4.16626146 Z" id="Fill-3" fill="#FEFEFE"></path>
                <g id="Group-7" transform="translate(0.000000, 19.383948)">
                    <mask id="mask-2" fill="white">
                        <use xlink:href="#path-1"></use>
                    </mask>
                    <g id="Clip-6"></g>
                    <path d="M11.961445,13.6158458 C13.9707771,14.8382208 15.9994374,16.0445542 18.0433992,17.2332417 C20.1219908,18.5927729 21.6980481,20.1047 22.771571,21.769825 C23.8450939,23.4333458 24.382258,25.1995333 24.382258,27.0683875 C24.382258,28.5289813 24.0754221,29.8532208 23.4617504,31.0419083 C22.5074183,32.9452521 20.9820977,34.4660021 18.8873992,35.6033563 C16.7910901,36.7415125 14.5506244,37.3093875 12.1651969,37.3093875 C9.13227328,37.3093875 6.44081527,36.3244292 4.09001756,34.3505021 C1.7384145,32.3781792 0.374967939,29.9101688 -0.000322137405,26.9496792 L4.65214733,25.9302313 C4.6183229,27.9121792 5.40192214,29.5861271 7.00294504,30.952075 C8.60396794,32.3212313 10.4433725,33.0030021 12.5227695,33.0030021 C14.1245977,33.0030021 15.5105939,32.4327208 16.6888115,31.2921583 C17.8638076,30.1515958 18.4533191,28.8490125 18.4533191,27.3852104 C18.4533191,26.2622938 18.0353458,25.2388354 17.1993992,24.3196479 C16.364258,23.4004604 15.095842,22.4138979 13.3917351,21.35595 C11.7907122,20.4367625 10.2057962,19.5183771 8.63859771,18.5975854 L7.51514351,17.8364083 C5.88110153,16.7856792 4.53617786,15.7181063 3.48359389,14.6328875 C1.91559008,13.0070646 1.13440687,11.0932938 1.13440687,8.88836667 C1.13440687,6.65055417 2.07021603,4.61887708 3.94425038,2.78772083 C5.44138397,1.3311375 7.87835344,0.601241667 11.2503267,0.601241667 C12.273113,0.601241667 13.6687733,0.902825 15.440529,1.50599167 C17.210674,2.10915833 18.3357389,2.40993958 18.8133076,2.40993958 C19.8683076,2.40993958 20.5496282,1.807575 20.8572695,0.601241667 L21.9807237,0.601241667 L23.1557198,12.2859917 L21.8260977,12.2859917 C21.1431664,9.58297083 20.0011893,7.38847083 18.4001664,5.69848125 C16.5599565,3.80716875 14.3090214,2.85990833 11.6497771,2.85990833 C9.74030763,2.85990833 8.37766641,3.18074167 7.55863206,3.82321042 C6.5358458,4.63491875 6.02525802,5.70008542 6.02525802,7.01630417 C6.02525802,8.26755417 6.45047939,9.28218958 7.30414351,10.0586063 C8.39457863,11.0724396 9.56957481,12.00045 10.8331588,12.8450438 L11.961445,13.6158458 Z" id="Fill-5" fill="#FEFEFE" mask="url(#mask-2)"></path>
                </g>
                <path d="M48.8633317,43.5059625 L48.8633317,43.1273792 C48.8633317,39.5244208 48.2464385,36.7724729 47.0118469,34.8707333 C45.1877439,33.3636188 43.0141218,32.6080563 40.4909805,32.6080563 C38.2191065,32.6080563 36.1864195,33.2392958 34.3905034,34.4993688 C32.9602134,36.4604625 32.2450683,39.3463583 32.2450683,43.1562542 C32.2450683,46.7415667 32.8917592,49.5304104 34.1851408,51.518775 C36.042263,52.9753583 38.1490416,53.7044521 40.5127248,53.7044521 C43.0141218,53.7044521 45.2368698,52.8919417 47.176137,51.2653167 C48.1602668,49.6402958 48.7223966,47.3840354 48.8633317,44.4957333 M54.1294729,44.4957333 C53.7928393,48.0289104 52.3303355,50.9517021 49.7435721,53.2649104 C47.1576141,55.5765146 44.0787859,56.7339208 40.5086981,56.7339208 C36.7131141,56.7339208 33.4796599,55.4297333 30.8099462,52.8253687 C28.1394271,50.2185979 26.8025569,46.9958271 26.8025569,43.1562542 C26.8025569,39.4289729 28.1474805,36.234275 30.8324958,33.5705563 C33.5191218,30.9084417 36.7477439,29.5785875 40.5183622,29.5785875 C44.2583775,29.5785875 47.4797515,30.9060354 50.1808737,33.5625354 C52.8803851,36.2198375 54.2317515,39.4089208 54.2317515,43.1273792 L54.2317515,43.2966187" id="Fill-8" fill="#FEFEFE"></path>
                <path d="M324.167273,43.5059625 L324.167273,43.1273792 C324.167273,39.5244208 323.55038,36.7724729 322.315788,34.8707333 C320.493296,33.3636188 318.318868,32.6080563 315.794922,32.6080563 C313.523048,32.6080563 311.490361,33.2392958 309.696861,34.4993688 C308.26496,36.4604625 307.54901,39.3463583 307.54901,43.1562542 C307.54901,46.7415667 308.1957,49.5304104 309.489887,51.518775 C311.346204,52.9753583 313.454594,53.7044521 315.818277,53.7044521 C318.318868,53.7044521 320.541616,52.8919417 322.480078,51.2653167 C323.465013,49.6402958 324.027143,47.3840354 324.167273,44.4957333 M329.434219,44.4957333 C329.095975,48.0289104 327.634277,50.9517021 325.049124,53.2649104 C322.462361,55.5765146 319.383532,56.7339208 315.813445,56.7339208 C312.017861,56.7339208 308.783601,55.4297333 306.114693,52.8253687 C303.442563,50.2185979 302.107303,46.9958271 302.107303,43.1562542 C302.107303,39.4289729 303.451422,36.234275 306.138048,33.5705563 C308.823063,30.9084417 312.05249,29.5785875 315.821498,29.5785875 C319.563124,29.5785875 322.784498,30.9060354 325.48562,33.5625354 C328.185132,36.2198375 329.535693,39.4089208 329.535693,43.1273792 L329.535693,43.2966187" id="Fill-10" fill="#FEFEFE"></path>
                <path d="M75.7030954,41.0707573 L75.7030954,29.749351 L77.6439733,29.5785073 L77.6439733,41.0707573 L77.6439733,42.0829865 L77.6439733,46.457549 C77.6439733,49.4308719 76.672729,51.8980802 74.7310458,53.8551635 C72.7893626,55.813851 70.2927977,56.7923927 67.2421565,56.7923927 C64.221313,56.7923927 61.8189733,55.804226 60.0359427,53.8262885 C58.3366679,51.934174 57.4733397,49.4693719 57.445958,46.4318823 L57.445958,33.8768719 C57.445958,32.443549 57.2188511,31.519549 56.7646374,31.1032677 C56.3104237,30.6893927 55.3214618,30.423101 53.7985573,30.307601 L53.7985573,29.5785073 L61.3913359,29.5785073 L61.3913359,45.312174 C61.3913359,50.9018927 63.539187,53.695549 67.834084,53.695549 C70.3129313,53.695549 72.2723321,52.867799 73.7138969,51.2106948 C75.0394924,49.6971635 75.7030954,47.7825906 75.7030954,45.4685802 L75.7030954,42.0829865 L75.7030954,41.0707573 Z" id="Fill-12" fill="#FEFEFE"></path>
                <path d="M99.1925496,36.6953125 L98.2253321,36.6953125 C97.9901718,35.5900417 97.821855,34.9170937 97.7195763,34.6772708 C97.6164924,34.43825 97.3893855,34.1551146 97.0374504,33.8262604 C96.5486069,33.3570417 95.4066298,33.0450312 93.6139351,32.8926354 C93.6123244,32.8926354 91.8832519,32.8958437 91.7036603,32.8974479 C91.5917176,32.89825 91.7688931,32.6897083 91.7511756,33.0843333 C91.728626,33.5840312 91.7423168,34.7101562 91.7423168,34.7101562 L91.7423168,56.566125 L83.8523664,56.566125 L83.8523664,55.834625 C85.5556679,55.719125 86.6291908,55.4271667 87.0705191,54.9595521 C87.5102366,54.4911354 87.7325115,53.4107292 87.7325115,51.7159271 L87.7325115,34.7101562 L87.7325115,33.6762708 L87.7325115,32.8846146 L80.5021374,32.8846146 L80.5021374,29.77975 L92.4808168,29.77975 L93.5205153,29.77975 L98.9726908,29.77975 L99.1925496,36.6953125 Z" id="Fill-14" fill="#FEFEFE"></path>
                <path d="M121.761818,40.4331813 L121.761818,39.4594521 L121.761818,38.4247646 L121.761818,29.7799104 L129.54949,29.7799104 L129.54949,30.5106083 C128.065242,30.6269104 127.094803,30.9068375 126.634952,31.3455771 C126.174295,31.7859208 125.943967,32.7243583 125.943967,34.1592854 L125.943967,38.4247646 L125.943967,39.4594521 L125.943967,52.1796917 C125.943967,53.6122125 126.174295,54.5490458 126.634952,54.9869833 C127.094803,55.4257229 128.065242,55.7040458 129.54949,55.8203479 L129.54949,56.5662854 L121.761818,56.5662854 L121.761818,43.8428375 L111.096654,43.8428375 L110.119773,43.8428375 L109.398185,43.8428375 L109.398185,56.5662854 L101.647559,56.5662854 L101.647559,55.8195458 C103.263078,55.6446917 104.260093,55.3214521 104.641826,54.8522333 C105.024364,54.3838167 105.215231,53.3290771 105.215231,51.6880146 L105.215231,34.1576813 C105.215231,32.7227542 104.988124,31.7851188 104.532299,31.3455771 C104.07728,30.9052333 103.1157,30.6269104 101.647559,30.5106083 L101.647559,29.7799104 L109.398185,29.7799104 L109.398185,40.4331813 L110.119773,40.4331813" id="Fill-16" fill="#FEFEFE"></path>
                <path d="M173.129205,37.4018677 C173.129205,34.4068885 171.40738,32.7321385 164.829334,32.7321385 L164.829334,42.2047427 C166.818533,42.1453885 170.113998,41.8494198 171.108598,41.3168365 C172.455937,40.5452323 173.129205,39.2410448 173.129205,37.4018677 L173.129205,37.4018677 Z M183.312773,56.5660448 L176.744392,56.5660448 L167.751121,44.9550865 L166.914369,44.9550865 L165.590384,44.9550865 L164.857521,44.9550865 L164.857521,56.5660448 L157.216422,56.5660448 L157.216422,55.8329406 C158.773956,55.6861594 159.744395,55.3629198 160.126934,54.8616177 C160.508666,54.3627219 160.700338,53.3031698 160.700338,51.6861698 L160.700338,29.6770031 L165.590384,29.6770031 L166.630082,29.7082844 C169.326373,29.7676385 171.364697,30.1943469 172.741834,30.9860031 C175.144979,32.3671906 176.347357,34.4662427 176.347357,37.2847635 C176.347357,38.8720865 175.942269,40.2749302 175.133705,41.4940969 C174.32675,42.7116594 173.232289,43.6011698 171.850319,44.1586177 L179.786174,53.8935031 C180.697018,55.0396802 181.872014,55.6861594 183.312773,55.8329406 L183.312773,56.5660448 Z" id="Fill-18" fill="#FEFEFE"></path>
                <path d="M383.400932,42.2049031 C385.391742,42.146351 388.685597,41.8495802 389.681806,41.3169969 C391.029146,40.5453927 391.704024,39.2412052 391.704024,37.4020281 C391.704024,34.4062469 389.9822,32.733101 383.400932,32.733101 L383.400932,42.2049031 Z M401.885982,56.5662052 L395.31599,56.5662052 L386.32594,44.9552469 L385.486772,44.9552469 L384.162787,44.9552469 L383.429119,44.9552469 L383.429119,56.5662052 L375.789631,56.5662052 L375.789631,55.832299 C377.34636,55.6863198 378.319215,55.3622781 378.699337,54.8617781 C379.08107,54.3628823 379.273547,53.3041323 379.273547,51.6863302 L379.273547,29.6779656 L384.162787,29.6779656 L385.201681,29.7084448 C387.898776,29.767799 389.937906,30.1937052 391.315043,30.9869656 C393.716577,32.366549 394.921371,34.4672052 394.921371,37.285726 C394.921371,38.8722469 394.516284,40.2758927 393.708524,41.4934552 C392.900765,42.7118198 391.805497,43.6013302 390.425139,44.1595802 L398.357772,53.8936635 C399.267005,55.0406427 400.444417,55.6863198 401.885982,55.832299 L401.885982,56.5662052 Z" id="Fill-20" fill="#FEFEFE"></path>
                <path d="M185.11183,51.4923062 C185.11183,51.4048792 185.130353,51.2428583 185.166594,51.0078479 L185.166594,50.5241917 L185.166594,27.6070667 L195.569216,38.5811708 L205.688357,48.4427854 L205.648895,29.6820562 L212.805983,29.6820562 L212.805983,30.4312021 C211.224288,30.6084625 210.199891,30.9902542 209.731987,31.575775 C209.409044,31.98965 209.189185,32.5029833 209.071605,33.1189833 L209.071605,57.3571396 L204.894288,53.5448375 L188.53454,38.4047125 L188.53454,51.4923062 L188.53454,52.5318062 L188.53454,55.3166396 C189.069288,55.5524521 189.798124,55.7144729 190.721048,55.8035042 L190.721048,56.5542542 L181.201082,56.5542542 L181.201082,55.8035042 C182.938208,55.6254417 184.03267,55.2428479 184.482857,54.6533167 C184.812242,54.2410458 185.022437,53.5328062 185.11183,52.5318062" id="Fill-22" fill="#FEFEFE"></path>
                <path d="M251.780018,48.920025 L249.706259,56.7491604 L228.793904,56.7491604 L228.793904,43.2404729 L228.793904,42.0734417 L228.793904,31.0929208 C228.793904,29.4695042 228.530556,28.3923063 228.003056,27.8621292 C227.477167,27.3303479 226.395591,27.0199417 224.758327,26.9325146 L224.758327,26.0462125 L249.268152,26.0462125 L249.443717,32.7131292 L248.252614,32.7131292 C247.811285,30.4921604 247.103389,29.0853063 246.13295,28.4925667 C245.366263,28.0498167 243.745911,27.8268375 241.275118,27.8268375 L235.002297,27.8268375 C234.325808,27.8268375 233.905419,27.9383271 233.741934,28.1589 C233.580866,28.3818792 233.500331,28.7885354 233.500331,29.3796708 L233.500331,37.8504729 L234.295205,37.8504729 L235.395305,37.8504729 L246.756285,37.8504729 L246.756285,45.9980354 L245.694843,45.9980354 C245.311499,44.1388063 244.854064,42.9581396 244.325759,42.4552333 C243.70645,41.8657021 242.467831,41.5713375 240.611515,41.5713375 L233.523686,41.5713375 L233.500331,43.2404729 L233.500331,53.1718688 L245.510419,53.1718688 C246.774808,52.9360563 247.675182,52.62565 248.203488,52.2422542 C248.999167,51.6519208 249.762633,50.5442438 250.500327,48.920025 L251.780018,48.920025 Z" id="Fill-24" fill="#FEFEFE"></path>
                <path d="M271.630447,36.2276979 L268.146531,41.9248958 L271.630447,36.2276979 Z M293.67431,73.8879167 L286.401253,73.8879167 L265.853718,45.5759792 L259.199165,56.7353646 L255.362508,56.7353646 L263.827474,42.6267187 L263.519027,42.186375 L262.901329,41.2647812 L259.815253,36.8228437 C258.139333,34.3893229 257.154398,33.0249792 256.862058,32.7322187 C255.569482,31.2956875 254.141608,30.5473437 252.586489,30.4887917 L252.586489,29.6971354 L260.079405,29.6971354 L266.117871,38.9732292 L267.792985,36.2276979 L268.411489,35.1906042 L271.849501,29.3923437 L275.728035,29.3923437 L272.24734,35.1906042 L268.01365,42.25375 L289.132978,70.1486042 C289.927852,71.2939792 290.633333,72.0487396 291.251031,72.4144896 C291.866314,72.7818437 292.675684,73.0232708 293.67431,73.1411771 L293.67431,73.8879167 Z" id="Fill-26" fill="#FEFEFE"></path>
                <path d="M296.854853,37.5334094 C296.854853,34.3330969 294.371174,32.7321385 289.401399,32.7321385 L287.415422,32.7321385 L287.415422,37.2358365 L287.415422,38.2055552 L287.415422,42.5103365 L289.578574,42.5103365 C294.428353,42.5103365 296.854853,40.8516281 296.854853,37.5334094 M283.404006,37.2358365 L283.404006,34.1061073 C283.404006,32.697649 283.201865,31.7712427 282.795166,31.330899 L282.325651,31.0261073 L281.757884,30.7373573 C281.337494,30.6202531 280.726239,30.5175865 279.924116,30.4277531 L279.924116,29.6770031 L281.757884,29.6770031 L282.795166,29.6770031 L289.040605,29.6770031 C293.056048,29.6770031 295.94401,30.3675969 297.70288,31.7511906 C299.254777,32.987201 300.033544,34.9298469 300.033544,37.577524 C300.033544,40.3142323 299.091292,42.3723781 297.21001,43.756774 C295.531674,44.9639094 293.282349,45.566274 290.461231,45.566274 L287.415422,45.566274 L287.415422,56.5660448 L283.404006,56.5660448 L283.404006,38.2055552" id="Fill-28" fill="#FEFEFE"></path>
                <path d="M337.387873,42.4908458 C336.098518,41.5852938 335.11922,40.7968458 334.445953,40.1247 C333.30317,38.9560646 332.733792,37.5379813 332.733792,35.8720542 C332.733792,34.2077313 333.410281,32.7030229 334.760037,31.3579292 C335.815037,30.3055958 337.621422,29.7794292 340.175972,29.7794292 C341.173792,29.7794292 342.311743,30.0032104 343.587407,30.4499708 C344.864682,30.8975333 345.591102,31.1197104 345.765861,31.1197104 C346.266785,31.1197104 346.613082,31.0122312 346.801533,30.7956687 C346.993205,30.5791062 347.13414,30.2406271 347.220311,29.7794292 L348.057063,29.7794292 L348.982403,38.363325 L348.011964,38.363325 C347.512651,36.3853875 346.662208,34.7715958 345.45822,33.5179396 C344.077861,32.1223146 342.418048,31.4220958 340.481197,31.4220958 C339.130636,31.4220958 338.13201,31.6715437 337.485319,32.164825 C336.721853,32.7471375 336.340926,33.5339813 336.340926,34.52295 C336.340926,35.3964188 336.663063,36.1391479 337.309754,36.7503354 C338.13201,37.5363771 338.982453,38.2205542 339.862693,38.8020646 L340.695418,39.3747521 C342.193357,40.2827104 343.692102,41.1754292 345.191651,42.0537104 C346.719388,43.0490958 347.873445,44.1543667 348.652212,45.3687208 C349.430174,46.5846792 349.819155,47.8800438 349.819155,49.2556167 C349.819155,50.3392313 349.599296,51.3201792 349.157968,52.1976583 C348.451682,53.5740333 347.328227,54.687325 345.785189,55.5359292 C344.242151,56.3845333 342.588781,56.8096375 340.826689,56.8096375 C338.593472,56.8096375 336.617159,56.0773354 334.899361,54.6127313 C333.177537,53.1481271 332.171663,51.3322104 331.877712,49.1633771 L335.31814,48.4607521 C335.286731,49.9261583 335.889128,51.1557521 337.12372,52.1503354 C338.269724,53.1465229 339.605789,53.6430125 341.135941,53.6430125 C342.311743,53.6430125 343.338556,53.2203146 344.221212,52.3701063 C345.102258,51.5215021 345.543586,50.5557938 345.543586,49.4713771 C345.543586,48.6227729 345.233529,47.8696167 344.617441,47.2111063 C344.000548,46.5517938 343.045411,45.84195 341.752029,45.0807729 C340.606025,44.37895 339.445525,43.6907625 338.269724,43.0162104" id="Fill-30" fill="#FEFEFE"></path>
                <path d="M372.839497,41.0801417 L372.839497,29.8477667 L374.765878,29.6769229 L374.765878,41.0801417 L374.765878,42.08435 L374.765878,46.4244229 C374.765878,49.3744854 373.800271,51.8216417 371.87389,53.7634854 C369.946703,55.7061312 367.469466,56.6774542 364.44379,56.6774542 C361.447913,56.6774542 359.064901,55.6973083 357.294756,53.7338083 C355.608367,51.8577354 354.753092,49.4121833 354.724905,46.3979542 L354.724905,33.9432042 C354.724905,32.5203083 354.500214,31.6043292 354.048416,31.1912562 C353.599035,30.7797875 352.617321,30.5159021 351.106497,30.4012042 L351.106497,29.6769229 L358.640485,29.6769229 L358.640485,45.2870687 C358.640485,50.8326729 360.771424,53.605475 365.030886,53.605475 C367.49121,53.605475 369.434504,52.7841417 370.866405,51.1382667 C372.180726,49.6375687 372.839497,47.7390375 372.839497,45.4426729 L372.839497,42.08435" id="Fill-32" fill="#FEFEFE"></path>
                <path d="M421.504553,49.7659823 L419.736018,56.5724615 L401.884774,56.5724615 L401.884774,44.7730135 L401.884774,43.7463469 L401.884774,34.093274 C401.884774,32.6663677 401.660889,31.7199094 401.209896,31.2530969 C400.762125,30.7838781 399.839202,30.5119719 398.439515,30.4349719 L398.439515,29.656951 L419.360728,29.656951 L419.510522,35.5169719 L418.494984,35.5169719 C418.116473,33.5655031 417.51166,32.3294927 416.682961,31.8073365 C416.029827,31.417524 414.647858,31.2218156 412.537858,31.2218156 L407.183934,31.2218156 C406.603282,31.2218156 406.248125,31.3204719 406.108801,31.514576 C405.971087,31.7094823 405.901827,32.0664094 405.901827,32.5861594 L405.901827,40.0335031 L406.581537,40.0335031 L407.520568,40.0335031 L417.216098,40.0335031 L417.216098,47.1969094 L416.308476,47.1969094 C415.983118,45.5614615 415.593331,44.5243677 415.141534,44.0832219 C414.613228,43.5634719 413.557423,43.3035969 411.971702,43.3035969 L405.92035,43.3035969 L405.901827,44.7730135 L405.901827,53.5028885 L416.151434,53.5028885 C417.2314,53.295149 417.998892,53.0224406 418.453911,52.6863677 C419.128789,52.1674198 419.782728,51.1928885 420.412507,49.7659823 L421.504553,49.7659823 Z" id="Fill-34" fill="#FEFEFE"></path>
                <path d="M155.758509,49.7926115 L153.989974,56.6480177 L136.13873,56.6480177 L136.13873,44.8180906 L136.13873,43.7954344 L136.13873,34.1792573 C136.13873,32.7571635 135.914039,31.8147156 135.463852,31.3503094 C135.016081,30.8826948 134.092352,30.6115906 132.693471,30.5353927 L132.693471,29.758174 L153.613879,29.758174 L153.764478,35.5989448 L152.74894,35.5989448 C152.370429,33.6530906 151.766421,32.4218927 150.936112,31.9013406 C150.282978,31.5131323 148.901009,31.3190281 146.791009,31.3190281 L141.43789,31.3190281 C140.857238,31.3190281 140.502887,31.4160802 140.362757,31.6101844 C140.224238,31.8042885 140.156589,32.1604135 140.156589,32.6777573 L140.156589,40.0970281 L140.835494,40.0970281 L141.774524,40.0970281 L151.47086,40.0970281 L151.47086,47.2331635 L150.562432,47.2331635 C150.237879,45.6033302 149.846482,44.5694448 149.394684,44.1307052 C148.867184,43.6133615 147.810574,43.3550906 146.224852,43.3550906 L140.174306,43.3550906 L140.156589,44.8180906 L140.156589,53.5150802 L150.407001,53.5150802 C151.485356,53.3081427 152.252043,53.0362365 152.707062,52.7001635 C153.382745,52.184424 154.035074,51.2147052 154.666463,49.7926115 L155.758509,49.7926115 Z" id="Fill-36" fill="#FEFEFE"></path>
                <path d="M80.5823496,39.772826 L80.5598,40.8837115 L75.5231817,40.8837115 L74.8628,40.8837115 L74.8628,43.6468885 C74.8628,46.519951 74.204029,48.7208677 72.8824603,50.2504406 C71.9079947,51.3773677 70.4116664,52.2492323 68.4007237,52.8740552 L68.0721435,51.8457844 C69.8310137,51.312399 71.1356702,50.5792948 71.9853076,49.6432635 C73.2094298,48.299774 73.8231015,46.3025865 73.8231015,43.6468885 L73.8231015,40.8837115 L71.1356702,40.8837115 L71.1356702,39.782451 L73.8231015,39.782451 L73.8231015,32.6816073 L74.8628,32.6816073 L74.8628,39.782451 L75.5231817,39.782451 L80.5823496,39.772826 Z" id="Fill-38" fill="#FEFEFE"></path>
                <path d="M377.595211,39.772826 L377.572661,40.8837115 L372.536043,40.8837115 L371.875661,40.8837115 L371.875661,43.6468885 C371.875661,46.519951 371.214474,48.7208677 369.896127,50.2504406 C368.920856,51.3773677 367.423723,52.2492323 365.41278,52.8740552 L365.0842,51.8457844 C366.843875,51.312399 368.149337,50.5792948 368.996558,49.6432635 C370.221486,48.299774 370.835158,46.3025865 370.835158,43.6468885 L370.835158,40.8837115 L368.149337,40.8837115 L368.149337,39.782451 L370.835158,39.782451 L370.835158,32.6816073 L371.875661,32.6816073 L371.875661,39.782451 L372.536043,39.782451 L377.595211,39.772826 Z" id="Fill-40" fill="#FEFEFE"></path>
                <mask id="mask-4" fill="white">
                    <use xlink:href="#path-3"></use>
                </mask>
                <g id="Clip-43"></g>
                <path d="M79.3843206,34.6082917 L94.4675992,34.6082917 L94.4675992,33.6546146 L79.3843206,33.6546146 L79.3843206,34.6082917 Z" id="Fill-42" fill="#FEFEFE" mask="url(#mask-4)"></path>
                <path d="M92.3962557,39.732 L93.3521985,39.732 L93.3521985,28.182 L92.3962557,28.182 L92.3962557,39.732 Z" id="Fill-44" fill="#FEFEFE" mask="url(#mask-4)"></path>
                <path d="M112.352668,39.164125 L132.339683,39.164125 L132.339683,38.2120521 L112.352668,38.2120521 L112.352668,39.164125 Z" id="Fill-45" fill="#FEFEFE" mask="url(#mask-4)"></path>
                <path d="M134.237878,45.14125 L146.043408,45.14125 L146.043408,44.1891771 L134.237878,44.1891771 L134.237878,45.14125 Z" id="Fill-46" fill="#FEFEFE" mask="url(#mask-4)"></path>
                <path d="M181.651672,52.5701458 L193.458813,52.5701458 L193.458813,51.4576562 L181.651672,51.4576562 L181.651672,52.5701458 Z" id="Fill-47" fill="#FEFEFE" mask="url(#mask-4)"></path>
                <path d="M141.131618,51.3453646 L142.087561,51.3453646 L142.087561,32.5661875 L141.131618,32.5661875 L141.131618,51.3453646 Z" id="Fill-48" fill="#FEFEFE" mask="url(#mask-4)"></path>
                <path d="M400.245256,45.14125 L412.050786,45.14125 L412.050786,44.1891771 L400.245256,44.1891771 L400.245256,45.14125 Z" id="Fill-49" fill="#FEFEFE" mask="url(#mask-4)"></path>
                <path d="M407.138191,51.3453646 L408.094134,51.3453646 L408.094134,32.5661875 L407.138191,32.5661875 L407.138191,51.3453646 Z" id="Fill-50" fill="#FEFEFE" mask="url(#mask-4)"></path>
                <path d="M227.092374,43.7127396 L238.897905,43.7127396 L238.897905,42.7606667 L227.092374,42.7606667 L227.092374,43.7127396 Z" id="Fill-51" fill="#FEFEFE" mask="url(#mask-4)"></path>
                <path d="M234.496702,51.3453646 L235.452645,51.3453646 L235.452645,29.3875313 L234.496702,29.3875313 L234.496702,51.3453646 Z" id="Fill-52" fill="#FEFEFE" mask="url(#mask-4)"></path>
                <path d="M204.271033,56.1905094 L204.271033,41.421749 L203.007449,41.421749 L203.007449,53.4834781 L204.115602,54.5077385 L204.271033,56.1905094 Z" id="Fill-53" fill="#FEFEFE" mask="url(#mask-4)"></path>
                <path d="M204.115279,54.5079792 L203.007127,53.4837188 L188.443295,40.0223542 L187.666944,40.8549167 L204.273127,56.2549167 L204.115279,54.5079792 Z" id="Fill-54" fill="#FEFEFE" mask="url(#mask-4)"></path>
                <path d="M277.463711,30.4298385 L266.878276,47.8230156 L265.893341,47.229474 L276.475555,29.8354948 L277.463711,30.4298385 Z" id="Fill-55" fill="#FEFEFE" mask="url(#mask-4)"></path>
                <path d="M263.955282,40.7307542 L253.662187,58.0076292 L252.670809,57.4237125 L262.963099,40.1452333 L263.955282,40.7307542 Z" id="Fill-56" fill="#FEFEFE" mask="url(#mask-4)"></path>
                <path d="M165.770217,54.0372365 L166.727771,54.0372365 L166.727771,46.516101 L165.770217,45.2977365 L165.770217,54.0372365 Z" id="Fill-57" fill="#FEFEFE" mask="url(#mask-4)"></path>
                <path d="M166.727368,44.9691229 L166.727368,28.1823208 L165.769815,28.1823208 L165.769815,44.8608417 L166.311005,44.4397479 L166.727368,44.9691229 Z" id="Fill-58" fill="#FEFEFE" mask="url(#mask-4)"></path>
                <path d="M165.770217,45.2973354 L165.770217,44.8610021" id="Fill-59" fill="#FEFEFE" mask="url(#mask-4)"></path>
                <path d="M176.57237,57.5142677 L166.727046,44.9688823 L166.727046,46.516101 L175.819374,58.0989865 L176.57237,57.5142677 Z" id="Fill-60" fill="#FEFEFE" mask="url(#mask-4)"></path>
                <path d="M166.311327,44.4396677 L165.770137,44.8607615 L165.770137,45.2970948 L166.72769,46.5162615 L166.72769,44.9690427 L166.311327,44.4396677 Z" id="Fill-61" fill="#FEFEFE" mask="url(#mask-4)"></path>
                <path d="M384.311695,54.6497875 L385.269249,54.6497875 L385.269249,47.1286521 L384.311695,45.9102875 L384.311695,54.6497875 Z" id="Fill-62" fill="#FEFEFE" mask="url(#mask-4)"></path>
                <path d="M385.269571,45.2166458 L385.269571,28.172375 L384.312018,28.172375 L384.312018,45.1083646 L384.852403,44.6872708 L385.269571,45.2166458 Z" id="Fill-63" fill="#FEFEFE" mask="url(#mask-4)"></path>
                <path d="M384.311695,45.9098865 L384.311695,45.4735531" id="Fill-64" fill="#FEFEFE" mask="url(#mask-4)"></path>
                <path d="M394.748867,57.7633146 L385.269974,45.5812729 L385.269974,47.1284917 L393.996676,58.3480333 L394.748867,57.7633146 Z" id="Fill-65" fill="#FEFEFE" mask="url(#mask-4)"></path>
                <path d="M384.852806,45.0521385 L384.311615,45.4732323 L384.311615,45.9095656 L385.269974,47.1287323 L385.269974,45.5815135 L384.852806,45.0521385 Z" id="Fill-66" fill="#FEFEFE" mask="url(#mask-4)"></path>
                <path d="M110.332866,49.6265 L111.288809,49.6265 L111.288809,29.7211979 L110.332866,29.7211979 L110.332866,49.6265 Z" id="Fill-67" fill="#FEFEFE" mask="url(#mask-4)"></path>
                <path d="M17.0170695,25.4047865 L17.0355924,25.3767135 L16.080455,24.4406823 L7.00423359,37.912474 L6.88584809,37.8426927 C4.5519626,36.4149844 2.9694626,35.1196198 2.14640153,33.9525885 L1.01167252,34.7017344 C2.04895496,36.0973594 3.75386718,37.5138385 6.1344626,38.9399427 L6.26090153,39.0161406 L4.32002366,41.897224 L5.45394733,42.6559948 L7.42623359,39.7147552 C9.13839389,40.7213698 10.8545809,41.7255781 12.5667412,42.7273802 C14.3916496,43.8912031 15.5247679,44.9234844 15.9628748,45.8202135 C16.1319969,46.152276 16.2157527,46.5027865 16.2157527,46.8677344 C16.2157527,47.4340052 16.0128061,47.980224 15.611745,48.5128073 C14.840226,49.5089948 14.1154168,49.9589635 13.4413443,49.8603073 L13.1900771,51.1556719 C14.4085618,51.3890781 15.5755046,50.7706719 16.6901,49.3100781 C17.3005504,48.5464948 17.6033595,47.730776 17.6033595,46.8677344 C17.6033595,46.3030677 17.4704779,45.7552448 17.1974664,45.2226615 C16.7593595,44.3243281 15.8267718,43.3770677 14.4045351,42.3816823 C13.628184,41.8154115 12.1753443,40.9178802 10.0419893,39.6866823 L8.17520305,38.595849 L16.3550771,26.3929531 C17.0082107,26.9872969 17.6637603,27.8086302 18.3168939,28.8689844 C19.1278748,30.1330677 19.5369893,31.1300573 19.5369893,31.859151 L20.907684,31.6602344 C20.0419397,29.0847448 18.539974,26.911901 17.0170695,25.4047865" id="Fill-68" fill="#FEFEFE" mask="url(#mask-4)"></path>
                <path d="M344.050238,33.1181813 L344.064734,33.096525 L343.329455,32.3754521 L336.345516,42.7399729 L336.255318,42.6878375 C334.458597,41.5873792 333.242528,40.5911917 332.608723,39.6936604 L331.734925,40.2703583 C332.533826,41.3443479 333.844925,42.4335771 335.675471,43.5308271 L335.773723,43.5901813 L334.27981,45.8063375 L335.153608,46.3902542 L336.67007,44.1275771 C337.987612,44.9015875 339.30757,45.6739937 340.625112,46.4447958 C342.030436,47.3407229 342.902623,48.1355875 343.238452,48.8245771 C343.368112,49.0796396 343.432539,49.3499417 343.432539,49.6314729 C343.432539,50.0670042 343.276303,50.4864937 342.967856,50.8963583 C342.373513,51.66315 341.81702,52.00965 341.29999,51.93265 L341.105902,52.9296396 C342.043322,53.1093062 342.94128,52.6344729 343.79736,51.5099521 C344.268486,50.922025 344.499619,50.2939937 344.499619,49.6314729 C344.499619,49.1967437 344.398146,48.7748479 344.188757,48.3657854 C343.852123,47.6735875 343.133757,46.9444937 342.0401,46.1801083 C341.443341,45.743775 340.324719,45.0531813 338.682623,44.1059208 L337.246696,43.2669417 L343.541261,33.8777542 C344.042184,34.3349417 344.546329,34.9669833 345.049669,35.7827021 C345.67381,36.7548271 345.9887,37.5224208 345.9887,38.0830771 L347.042089,37.9306813 C346.376875,35.9487333 345.222013,34.2771917 344.050238,33.1181813" id="Fill-69" fill="#FEFEFE" mask="url(#mask-4)"></path>
                <path d="M267.023721,36.2613854 L276.091889,36.2613854 L276.091889,34.9973021 L267.023721,34.9973021 L267.023721,36.2613854 Z" id="Fill-70" fill="#FEFEFE" mask="url(#mask-4)"></path>
                <path d="M281.400714,41.6594063 L290.468882,41.6594063 L290.468882,40.396125 L281.400714,40.396125 L281.400714,41.6594063 Z" id="Fill-71" fill="#FEFEFE" mask="url(#mask-4)"></path>
                <path d="M284.72195,58.3018333 L285.991172,58.3018333 L285.991172,28.1932292 L284.72195,28.1932292 L284.72195,58.3018333 Z" id="Fill-72" fill="#FEFEFE" mask="url(#mask-4)"></path>
                <path d="M54.9214477,42.7391708 L54.9214477,43.7786708 L47.9866347,43.7786708 C47.6862416,47.303025 47.1466615,49.5095562 46.3703103,50.3974625 C44.9303561,51.9968167 42.6858637,52.7940875 39.6328065,52.7940875 C39.0304095,52.7940875 38.4175431,52.750775 37.7901805,52.6593375 L37.9681615,51.6126187 C38.536734,51.7072646 39.1061118,51.7545875 39.6706576,51.7545875 C42.3951347,51.7545875 44.3682263,51.0752229 45.5939592,49.7189 C46.2245431,49.0371292 46.6707034,47.0599937 46.9429095,43.7786708 L38.4143218,43.7786708 L38.4143218,42.740775 L46.9429095,42.740775 C47.0008943,41.4967437 47.0008943,40.5639208 46.9429095,39.9447125 L47.9036844,39.7658479 C47.9866347,40.6240771 48.0156271,41.61465 47.9866347,42.740775 L54.9214477,42.7391708 Z" id="Fill-73" fill="#FEFEFE" mask="url(#mask-4)"></path>
                <path d="M330.379612,42.9435417 L330.379612,43.9838438 L323.444799,43.9838438 C323.144406,47.5081979 322.604021,49.7139271 321.826864,50.6010313 C320.38691,52.2003854 318.144028,52.9984583 315.088555,52.9984583 C314.487769,52.9984583 313.874097,52.9559479 313.246734,52.8629063 L313.424715,51.8177917 C313.994898,51.9116354 314.562666,51.9589583 315.129627,51.9589583 C317.852494,51.9589583 319.82478,51.2803958 321.049708,49.9224688 C321.681902,49.2423021 322.128868,47.2643646 322.401074,43.9838438 L313.870876,43.9838438 L313.870876,42.9443438 L322.401074,42.9443438 C322.457448,41.7011146 322.457448,40.7682917 322.401074,40.1482813 L323.361849,39.9694167 C323.444799,40.8276458 323.472986,41.8190208 323.444799,42.9443438 L330.379612,42.9435417 Z" id="Fill-74" fill="#FEFEFE" mask="url(#mask-4)"></path>
                <path d="M0.427073664,60.0614437 L0.427073664,61.4225792 L274.37836,61.4225792 L273.33544,60.0614437 L0.427073664,60.0614437 Z" id="Fill-75" fill="#FFE412" mask="url(#mask-4)"></path>
                <path d="M284.48526,60.0630479 L285.52979,61.4241833 L421.011119,61.4241833 L421.011119,60.0630479 L284.48526,60.0630479 Z" id="Fill-76" fill="#FFE412" mask="url(#mask-4)"></path>
                <path d="M314.711574,73.752525 L316.401184,64.5029 L317.440077,64.5029 L315.750467,73.752525 L314.711574,73.752525 Z" id="Fill-77" fill="#FEFEFE" mask="url(#mask-4)"></path>
                <path d="M322.259334,68.2546448 C322.108734,68.2033115 321.896929,68.1640094 321.545799,68.1640094 C319.981017,68.1640094 318.691662,69.8572073 318.691662,71.615374 C318.691662,72.318801 318.929238,73.0101969 319.718475,73.0101969 C320.594689,73.0101969 321.621502,71.837551 321.909009,70.1563844 L322.259334,68.2546448 Z M321.596536,73.752926 C321.596536,73.3751448 321.658547,72.7759885 321.73425,72.1238948 L321.708479,72.1238948 C321.044876,73.4401135 320.206513,73.8956969 319.35607,73.8956969 C318.279326,73.8956969 317.614918,73.0101969 317.614918,71.8118844 C317.614918,69.6093635 319.16762,67.303374 321.796261,67.303374 C322.372887,67.303374 323.010719,67.4076448 323.42386,67.5375823 L322.810994,70.8341448 C322.609658,71.9281865 322.534761,73.049499 322.559727,73.752926 L321.596536,73.752926 Z" id="Fill-78" fill="#FEFEFE" mask="url(#mask-4)"></path>
                <path d="M324.112268,73.752525 L324.912779,69.2841188 C325.050493,68.5806917 325.138276,67.9679 325.201092,67.4473479 L326.140123,67.4473479 L325.976638,68.6849625 L326.002409,68.6849625 C326.553264,67.7986604 327.366661,67.303775 328.25576,67.303775 C328.968489,67.303775 329.782692,67.7336917 329.782692,69.0499104 C329.782692,69.3362542 329.73276,69.7397021 329.669944,70.0653479 L328.99426,73.752525 L327.967447,73.752525 L328.63105,70.10465 C328.668096,69.8704417 328.705947,69.5704625 328.705947,69.2969521 C328.705947,68.6713271 328.468371,68.2029104 327.754837,68.2029104 C327.015531,68.2029104 325.964558,69.1277125 325.689131,70.6909729 L325.138276,73.752525 L324.112268,73.752525 Z" id="Fill-79" fill="#FEFEFE" mask="url(#mask-4)"></path>
                <path d="M335.478323,68.4371188 C335.277792,68.2807125 334.927468,68.1636083 334.489361,68.1636083 C333.037326,68.1636083 331.910651,69.7790042 331.910651,71.4601708 C331.910651,72.2149313 332.161113,73.0097958 333.049406,73.0097958 C333.850723,73.0097958 334.815525,72.0593271 335.078067,70.6388375 L335.478323,68.4371188 Z M337.231555,64.5029 L335.891464,71.7593479 C335.778716,72.4106396 335.678853,73.1397333 335.641002,73.752525 L334.689891,73.752525 L334.852571,72.501275 L334.8268,72.501275 C334.27675,73.4004104 333.513284,73.8960979 332.637071,73.8960979 C331.472544,73.8960979 330.833906,72.8926917 330.833906,71.6029417 C330.833906,69.3619208 332.43654,67.303775 334.577143,67.303775 C334.965319,67.303775 335.391345,67.3944104 335.653887,67.52515 L336.191857,64.5029 L337.231555,64.5029 Z" id="Fill-80" fill="#FEFEFE" mask="url(#mask-4)"></path>
                <path d="M337.418476,72.6715573 C337.693903,72.8536302 338.219792,73.0613698 338.719911,73.0613698 C339.421365,73.0613698 339.872357,72.5929531 339.872357,72.033099 C339.872357,71.5374115 339.658941,71.224599 339.020304,70.8604531 C338.319655,70.4562031 337.932285,69.9091823 337.932285,69.2578906 C337.932285,68.1502135 338.84635,67.3040156 340.134899,67.3040156 C340.672869,67.3040156 341.161712,67.4604219 341.387208,67.616026 L341.098895,68.4373594 C340.886285,68.3074219 340.510995,68.1502135 340.060002,68.1502135 C339.421365,68.1502135 338.971178,68.5672969 338.971178,69.1014844 C338.971178,69.5570677 339.258685,69.8442135 339.80954,70.156224 C340.486029,70.560474 340.936216,71.1082969 340.936216,71.8237552 C340.936216,73.1536094 339.910208,73.8955365 338.620048,73.8955365 C337.969331,73.8827031 337.39351,73.6877969 337.118082,73.4656198 L337.418476,72.6715573 Z" id="Fill-81" fill="#FEFEFE" mask="url(#mask-4)"></path>
                <path d="M346.181338,73.5050021 C345.868059,73.6742417 345.242307,73.8956167 344.428105,73.8956167 C342.864128,73.8956167 342.100662,72.801575 342.100662,71.4596896 C342.100662,69.2972729 343.627594,67.3040958 345.805242,67.3040958 C346.368177,67.3040958 346.881987,67.4733354 347.069632,67.5904396 L346.769239,68.4374396 C346.531662,68.3195333 346.194223,68.2032313 345.743231,68.2032313 C344.165563,68.2032313 343.177406,69.817825 343.177406,71.3169188 C343.177406,72.3459917 343.689605,73.0101167 344.679372,73.0101167 C345.304319,73.0101167 345.767391,72.8144083 346.08067,72.6580021 L346.181338,73.5050021 Z" id="Fill-82" fill="#FEFEFE" mask="url(#mask-4)"></path>
                <path d="M351.828165,68.2546448 C351.678371,68.2033115 351.464955,68.1640094 351.113825,68.1640094 C349.549848,68.1640094 348.259688,69.8572073 348.259688,71.615374 C348.259688,72.318801 348.498069,73.0101969 349.286501,73.0101969 C350.16352,73.0101969 351.189527,71.837551 351.47784,70.1563844 L351.828165,68.2546448 Z M351.164562,73.752926 C351.164562,73.3751448 351.227379,72.7759885 351.302276,72.1238948 L351.276505,72.1238948 C350.613707,73.4401135 349.774539,73.8956969 348.924096,73.8956969 C347.847352,73.8956969 347.182944,73.0101969 347.182944,71.8118844 C347.182944,69.6093635 348.735646,67.303374 351.365092,67.303374 C351.940913,67.303374 352.57955,67.4076448 352.991886,67.5375823 L352.37902,70.8341448 C352.178489,71.9281865 352.103592,73.049499 352.128558,73.752926 L351.164562,73.752926 Z" id="Fill-83" fill="#FEFEFE" mask="url(#mask-4)"></path>
                <path d="M354.831694,72.6973844 C355.107926,72.9187594 355.495297,73.049499 355.99622,73.049499 C357.335506,73.049499 358.449297,71.3161969 358.449297,69.661499 C358.449297,68.997374 358.173869,68.2025094 357.285575,68.2025094 C356.472178,68.2025094 355.457445,69.1666135 355.144972,70.9384156 L354.831694,72.6973844 Z M353.130003,76.331624 L354.344461,69.6879677 C354.481369,68.9324052 354.607003,68.0717698 354.6819,67.4341135 L355.63301,67.4341135 L355.470331,68.632426 L355.495297,68.632426 C356.033266,67.7990615 356.834583,67.303374 357.673751,67.303374 C358.975991,67.303374 359.526041,68.4238844 359.526041,69.5836969 C359.526041,71.8118844 357.99911,73.8956969 355.98414,73.8956969 C355.345503,73.8956969 354.919476,73.752926 354.6819,73.6093531 L354.656934,73.6093531 L354.168896,76.331624 L353.130003,76.331624 Z" id="Fill-84" fill="#FEFEFE" mask="url(#mask-4)"></path>
                <path d="M364.444676,68.9454792 C364.444676,68.4369583 364.069386,68.1506146 363.518531,68.1506146 C362.529569,68.1506146 361.791069,69.1540208 361.541413,70.1437917 C363.168207,70.1694583 364.444676,69.93525 364.444676,68.9583125 L364.444676,68.9454792 Z M364.670173,73.4010521 C364.219985,73.6617292 363.481485,73.8959375 362.667283,73.8959375 C361.065455,73.8959375 360.364001,72.7489583 360.364001,71.3557396 C360.364001,69.4531979 361.715367,67.3036146 363.668325,67.3036146 C364.820772,67.3036146 365.446524,68.0206771 365.446524,68.9318437 C365.446524,70.5865417 363.65705,71.0164583 361.414974,70.9771562 C361.365848,71.2514687 361.402894,71.8377917 361.541413,72.1754687 C361.778989,72.7489583 362.267027,73.0232708 362.892779,73.0232708 C363.606314,73.0232708 364.144283,72.8018958 364.520379,72.5933542 L364.670173,73.4010521 Z" id="Fill-85" fill="#FEFEFE" mask="url(#mask-4)"></path>
                <path d="M371.880735,65.5969417 C371.242098,65.5969417 370.716208,66.2482333 370.716208,67.1088687 C370.716208,67.6037542 370.841037,68.0465042 371.117269,68.5020875 C372.131197,67.9935667 372.731983,67.4208792 372.731983,66.5867125 C372.731983,66.0797958 372.505682,65.5969417 371.892815,65.5969417 L371.880735,65.5969417 Z M370.678357,73.0490979 C371.34196,73.0490979 371.904895,72.7362854 372.331727,72.2670667 C371.930666,71.6550771 371.204247,70.5867021 370.578495,69.4918583 C370.02764,69.8439729 369.164311,70.4695979 369.164311,71.5371708 C369.164311,72.3849729 369.702281,73.0490979 370.666277,73.0490979 L370.678357,73.0490979 Z M373.34485,73.752525 C373.132239,73.4918479 372.96956,73.2576396 372.769834,72.9448271 C372.067575,73.6089521 371.316995,73.8960979 370.390044,73.8960979 C368.938815,73.8960979 368.112533,72.9191604 368.112533,71.7072125 C368.112533,70.326025 369.164311,69.4012229 370.203205,68.8670354 L370.203205,68.8277333 C369.902811,68.2678792 369.740132,67.7593583 369.740132,67.2388062 C369.740132,65.9225875 370.678357,64.8285458 371.980598,64.8285458 C373.106468,64.8285458 373.683094,65.6226083 373.683094,66.5610458 C373.683094,67.6037542 372.96956,68.4114521 371.517525,69.1148792 L371.517525,69.1541812 C371.980598,69.9747125 372.594269,70.9380146 373.032376,71.5901083 C373.54538,70.9259833 373.945636,70.0653479 374.308846,68.9576708 L375.285727,68.9576708 C374.82185,70.3653271 374.28388,71.4601708 373.507529,72.2935354 C373.820808,72.7491187 374.158247,73.2319729 374.572193,73.752525 L373.34485,73.752525 Z" id="Fill-86" fill="#FEFEFE" mask="url(#mask-4)"></path>
                <path d="M377.964058,72.6715573 C378.239486,72.8536302 378.76457,73.0613698 379.265494,73.0613698 C379.966142,73.0613698 380.417135,72.5929531 380.417135,72.033099 C380.417135,71.5374115 380.204524,71.224599 379.565887,70.8604531 C378.865238,70.4562031 378.477062,69.9091823 378.477062,69.2578906 C378.477062,68.1502135 379.391127,67.3040156 380.680482,67.3040156 C381.218452,67.3040156 381.707295,67.4604219 381.931986,67.616026 L381.643673,68.4373594 C381.431868,68.3074219 381.055772,68.1502135 380.60478,68.1502135 C379.966142,68.1502135 379.515955,68.5672969 379.515955,69.1014844 C379.515955,69.5570677 379.804268,69.8442135 380.355123,70.156224 C381.030806,70.560474 381.480994,71.1082969 381.480994,71.8237552 C381.480994,73.1536094 380.454986,73.8955365 379.165631,73.8955365 C378.514913,73.8827031 377.939093,73.6877969 377.663665,73.4656198 L377.964058,72.6715573 Z" id="Fill-87" fill="#FEFEFE" mask="url(#mask-4)"></path>
                <path d="M383.734425,72.6973844 C384.009853,72.9187594 384.398028,73.049499 384.898147,73.049499 C386.238238,73.049499 387.352028,71.3161969 387.352028,69.661499 C387.352028,68.997374 387.076601,68.2025094 386.188307,68.2025094 C385.374105,68.2025094 384.360177,69.1666135 384.047704,70.9384156 L383.734425,72.6973844 Z M382.031929,76.331624 L383.245582,69.6879677 C383.383295,68.9324052 383.509734,68.0717698 383.584631,67.4341135 L384.535742,67.4341135 L384.373063,68.632426 L384.398028,68.632426 C384.935998,67.7990615 385.737315,67.303374 386.575677,67.303374 C387.878723,67.303374 388.428773,68.4238844 388.428773,69.5836969 C388.428773,71.8118844 386.901841,73.8956969 384.886872,73.8956969 C384.248234,73.8956969 383.822208,73.752926 383.584631,73.6093531 L383.55886,73.6093531 L383.071627,76.331624 L382.031929,76.331624 Z" id="Fill-88" fill="#FEFEFE" mask="url(#mask-4)"></path>
                <path d="M389.167353,73.752525 L389.905853,69.6883688 C390.056452,68.8670354 390.143429,68.0328687 390.206246,67.4473479 L391.120311,67.4473479 C391.08246,67.8892958 391.032529,68.3200146 390.957632,68.8149 L390.995483,68.8149 C391.395739,67.9550667 392.034376,67.303775 392.846968,67.303775 C392.947635,67.303775 393.060384,67.3174104 393.147361,67.3294417 L392.947635,68.3978167 C392.872739,68.3849833 392.772876,68.37215 392.660128,68.37215 C391.771029,68.37215 390.969712,69.5054938 390.70717,70.9644833 L390.206246,73.752525 L389.167353,73.752525 Z" id="Fill-89" fill="#FEFEFE" mask="url(#mask-4)"></path>
                <path d="M395.076078,66.287776 C394.712868,66.287776 394.462406,65.9877969 394.462406,65.584349 C394.475292,65.1544323 394.78857,64.815151 395.17594,64.815151 C395.564116,64.815151 395.827463,65.1151302 395.827463,65.5185781 C395.814578,65.9741615 395.501299,66.287776 395.088963,66.287776 L395.076078,66.287776 Z M393.136005,73.7527656 L394.287647,67.4467865 L395.325734,67.4467865 L394.174898,73.7527656 L393.136005,73.7527656 Z" id="Fill-90" fill="#FEFEFE" mask="url(#mask-4)"></path>
                <path d="M396.014303,73.752525 L396.81562,69.2841188 C396.953334,68.5806917 397.041116,67.9679 397.103933,67.4473479 L398.042963,67.4473479 L397.879479,68.6849625 L397.90525,68.6849625 C398.455299,67.7986604 399.269502,67.303775 400.157795,67.303775 C400.87133,67.303775 401.685532,67.7336917 401.685532,69.0499104 C401.685532,69.3362542 401.634795,69.7397021 401.572784,70.0653479 L400.896295,73.752525 L399.870288,73.752525 L400.533085,70.10465 C400.570937,69.8704417 400.608788,69.5704625 400.608788,69.2969521 C400.608788,68.6713271 400.371211,68.2029104 399.656872,68.2029104 C398.918372,68.2029104 397.867398,69.1277125 397.591971,70.6909729 L397.041116,73.752525 L396.014303,73.752525 Z" id="Fill-91" fill="#FEFEFE" mask="url(#mask-4)"></path>
                <path d="M402.686735,73.752525 L404.377151,64.5029 L405.416044,64.5029 L404.35138,70.2995563 L404.377151,70.2995563 C404.551911,70.0789833 404.777407,69.8439729 404.940086,69.6747333 L407.067804,67.4473479 L408.357159,67.4473479 L405.716437,70.0396813 L407.518796,73.752525 L406.38004,73.752525 L404.915121,70.6524729 L404.15085,71.3559 L403.712743,73.752525 L402.686735,73.752525 Z" id="Fill-92" fill="#FEFEFE" mask="url(#mask-4)"></path>
                <path d="M408.493262,73.752525 L410.182873,64.5029 L411.222571,64.5029 L409.532155,73.752525 L408.493262,73.752525 Z" id="Fill-93" fill="#FEFEFE" mask="url(#mask-4)"></path>
                <path d="M415.490408,68.9454792 C415.490408,68.4369583 415.115118,68.1506146 414.564263,68.1506146 C413.575302,68.1506146 412.836802,69.1540208 412.58634,70.1437917 C414.213939,70.1694583 415.490408,69.93525 415.490408,68.9583125 L415.490408,68.9454792 Z M415.715905,73.4010521 C415.265718,73.6617292 414.526412,73.8959375 413.713015,73.8959375 C412.110382,73.8959375 411.409733,72.7489583 411.409733,71.3557396 C411.409733,69.4531979 412.761099,67.3036146 414.714057,67.3036146 C415.866504,67.3036146 416.49145,68.0206771 416.49145,68.9318437 C416.49145,70.5865417 414.701977,71.0164583 412.460706,70.9771562 C412.410775,71.2514687 412.448626,71.8377917 412.58634,72.1754687 C412.824721,72.7489583 413.31276,73.0232708 413.937706,73.0232708 C414.652046,73.0232708 415.190015,72.8018958 415.566111,72.5933542 L415.715905,73.4010521 Z" id="Fill-94" fill="#FEFEFE" mask="url(#mask-4)"></path>
                <path d="M417.017742,73.752525 L417.756242,69.6883688 C417.906842,68.8670354 417.993819,68.0328687 418.056635,67.4473479 L418.9707,67.4473479 C418.932849,67.8892958 418.882113,68.3200146 418.808021,68.8149 L418.845067,68.8149 C419.246128,67.9550667 419.884765,67.303775 420.697357,67.303775 C420.798025,67.303775 420.910773,67.3174104 420.99775,67.3294417 L420.798025,68.3978167 C420.723128,68.3849833 420.623265,68.37215 420.509712,68.37215 C419.620613,68.37215 418.820101,69.5054938 418.556754,70.9644833 L418.056635,73.752525 L417.017742,73.752525 Z" id="Fill-95" fill="#FEFEFE" mask="url(#mask-4)"></path>
            </g>
        </g>
    </g>
</svg>